%TF.GenerationSoftware,KiCad,Pcbnew,(5.1.10)-1*%
%TF.CreationDate,2021-09-16T15:44:01+01:00*%
%TF.ProjectId,Eos-Board,456f732d-426f-4617-9264-2e6b69636164,rev?*%
%TF.SameCoordinates,Original*%
%TF.FileFunction,Copper,L2,Bot*%
%TF.FilePolarity,Positive*%
%FSLAX46Y46*%
G04 Gerber Fmt 4.6, Leading zero omitted, Abs format (unit mm)*
G04 Created by KiCad (PCBNEW (5.1.10)-1) date 2021-09-16 15:44:01*
%MOMM*%
%LPD*%
G01*
G04 APERTURE LIST*
%TA.AperFunction,ComponentPad*%
%ADD10C,1.700000*%
%TD*%
%TA.AperFunction,ComponentPad*%
%ADD11C,0.800000*%
%TD*%
%TA.AperFunction,ComponentPad*%
%ADD12C,6.400000*%
%TD*%
%TA.AperFunction,ComponentPad*%
%ADD13C,1.000000*%
%TD*%
%TA.AperFunction,ComponentPad*%
%ADD14O,1.700000X1.700000*%
%TD*%
%TA.AperFunction,ComponentPad*%
%ADD15R,1.700000X1.700000*%
%TD*%
%TA.AperFunction,ComponentPad*%
%ADD16C,2.000000*%
%TD*%
%TA.AperFunction,ComponentPad*%
%ADD17O,2.000000X1.700000*%
%TD*%
%TA.AperFunction,ViaPad*%
%ADD18C,0.800000*%
%TD*%
%TA.AperFunction,Conductor*%
%ADD19C,0.500000*%
%TD*%
%TA.AperFunction,Conductor*%
%ADD20C,0.254000*%
%TD*%
%TA.AperFunction,Conductor*%
%ADD21C,0.100000*%
%TD*%
G04 APERTURE END LIST*
D10*
%TO.P,REF\u002A\u002A,*%
%TO.N,*%
X134620000Y-91440000D03*
%TD*%
%TO.P,REF\u002A\u002A,*%
%TO.N,*%
X134620000Y-88900000D03*
%TD*%
%TO.P,REF\u002A\u002A,*%
%TO.N,*%
X137160000Y-91440000D03*
%TD*%
%TO.P,REF\u002A\u002A,*%
%TO.N,*%
X137160000Y-88900000D03*
%TD*%
%TO.P,REF\u002A\u002A,*%
%TO.N,*%
X162560000Y-71120000D03*
%TD*%
%TO.P,REF\u002A\u002A,*%
%TO.N,*%
X162560000Y-68580000D03*
%TD*%
%TO.P,REF\u002A\u002A,*%
%TO.N,*%
X162560000Y-86360000D03*
%TD*%
%TO.P,REF\u002A\u002A,*%
%TO.N,*%
X162560000Y-73660000D03*
%TD*%
%TO.P,REF\u002A\u002A,*%
%TO.N,*%
X162560000Y-81280000D03*
%TD*%
%TO.P,REF\u002A\u002A,*%
%TO.N,*%
X162560000Y-76200000D03*
%TD*%
%TO.P,REF\u002A\u002A,*%
%TO.N,*%
X162560000Y-88900000D03*
%TD*%
%TO.P,REF\u002A\u002A,*%
%TO.N,*%
X162560000Y-66040000D03*
%TD*%
%TO.P,REF\u002A\u002A,*%
%TO.N,*%
X162560000Y-91440000D03*
%TD*%
%TO.P,REF\u002A\u002A,*%
%TO.N,*%
X162560000Y-83820000D03*
%TD*%
%TO.P,REF\u002A\u002A,*%
%TO.N,*%
X162560000Y-78740000D03*
%TD*%
%TO.P,REF\u002A\u002A,*%
%TO.N,*%
X160020000Y-83820000D03*
%TD*%
%TO.P,REF\u002A\u002A,*%
%TO.N,*%
X160020000Y-86360000D03*
%TD*%
%TO.P,REF\u002A\u002A,*%
%TO.N,*%
X160020000Y-88900000D03*
%TD*%
%TO.P,REF\u002A\u002A,*%
%TO.N,*%
X160020000Y-78740000D03*
%TD*%
%TO.P,REF\u002A\u002A,*%
%TO.N,*%
X160020000Y-66040000D03*
%TD*%
%TO.P,REF\u002A\u002A,*%
%TO.N,*%
X160020000Y-73660000D03*
%TD*%
%TO.P,REF\u002A\u002A,*%
%TO.N,*%
X160020000Y-71120000D03*
%TD*%
%TO.P,REF\u002A\u002A,*%
%TO.N,*%
X160020000Y-68580000D03*
%TD*%
%TO.P,REF\u002A\u002A,*%
%TO.N,*%
X160020000Y-91440000D03*
%TD*%
%TO.P,REF\u002A\u002A,*%
%TO.N,*%
X160020000Y-76200000D03*
%TD*%
%TO.P,REF\u002A\u002A,*%
%TO.N,*%
X160020000Y-81280000D03*
%TD*%
%TO.P,REF\u002A\u002A,*%
%TO.N,*%
X157480000Y-93980000D03*
%TD*%
%TO.P,REF\u002A\u002A,*%
%TO.N,*%
X157480000Y-71120000D03*
%TD*%
%TO.P,REF\u002A\u002A,*%
%TO.N,*%
X157480000Y-68580000D03*
%TD*%
%TO.P,REF\u002A\u002A,*%
%TO.N,*%
X157480000Y-76200000D03*
%TD*%
%TO.P,REF\u002A\u002A,*%
%TO.N,*%
X157480000Y-73660000D03*
%TD*%
%TO.P,REF\u002A\u002A,*%
%TO.N,*%
X157480000Y-91440000D03*
%TD*%
%TO.P,REF\u002A\u002A,*%
%TO.N,*%
X157480000Y-81280000D03*
%TD*%
%TO.P,REF\u002A\u002A,*%
%TO.N,*%
X157480000Y-78740000D03*
%TD*%
%TO.P,REF\u002A\u002A,*%
%TO.N,*%
X157480000Y-66040000D03*
%TD*%
%TO.P,REF\u002A\u002A,*%
%TO.N,*%
X157480000Y-63500000D03*
%TD*%
%TO.P,REF\u002A\u002A,*%
%TO.N,*%
X157480000Y-86360000D03*
%TD*%
%TO.P,REF\u002A\u002A,*%
%TO.N,*%
X157480000Y-83820000D03*
%TD*%
%TO.P,REF\u002A\u002A,*%
%TO.N,*%
X157480000Y-88900000D03*
%TD*%
%TO.P,REF\u002A\u002A,*%
%TO.N,*%
X152400000Y-93980000D03*
%TD*%
%TO.P,REF\u002A\u002A,*%
%TO.N,*%
X154940000Y-93980000D03*
%TD*%
%TO.P,REF\u002A\u002A,*%
%TO.N,*%
X147320000Y-93980000D03*
%TD*%
%TO.P,REF\u002A\u002A,*%
%TO.N,*%
X149860000Y-93980000D03*
%TD*%
%TO.P,REF\u002A\u002A,*%
%TO.N,*%
X134620000Y-58420000D03*
%TD*%
%TO.P,REF\u002A\u002A,*%
%TO.N,*%
X134620000Y-60960000D03*
%TD*%
%TO.P,REF\u002A\u002A,*%
%TO.N,*%
X134620000Y-71120000D03*
%TD*%
%TO.P,REF\u002A\u002A,*%
%TO.N,*%
X134620000Y-63500000D03*
%TD*%
%TO.P,REF\u002A\u002A,*%
%TO.N,*%
X134620000Y-66040000D03*
%TD*%
%TO.P,REF\u002A\u002A,*%
%TO.N,*%
X134620000Y-68580000D03*
%TD*%
%TO.P,REF\u002A\u002A,*%
%TO.N,*%
X134620000Y-73660000D03*
%TD*%
%TO.P,REF\u002A\u002A,*%
%TO.N,*%
X134620000Y-76200000D03*
%TD*%
%TO.P,REF\u002A\u002A,*%
%TO.N,*%
X134620000Y-78740000D03*
%TD*%
%TO.P,REF\u002A\u002A,*%
%TO.N,*%
X134620000Y-86360000D03*
%TD*%
%TO.P,REF\u002A\u002A,*%
%TO.N,*%
X134620000Y-81280000D03*
%TD*%
%TO.P,REF\u002A\u002A,*%
%TO.N,*%
X134620000Y-83820000D03*
%TD*%
%TO.P,REF\u002A\u002A,*%
%TO.N,*%
X152400000Y-78740000D03*
%TD*%
%TO.P,REF\u002A\u002A,*%
%TO.N,*%
X152400000Y-81280000D03*
%TD*%
%TO.P,REF\u002A\u002A,*%
%TO.N,*%
X154940000Y-78740000D03*
%TD*%
%TO.P,REF\u002A\u002A,*%
%TO.N,*%
X154940000Y-81280000D03*
%TD*%
%TO.P,REF\u002A\u002A,*%
%TO.N,*%
X152400000Y-71120000D03*
%TD*%
%TO.P,REF\u002A\u002A,*%
%TO.N,*%
X152400000Y-68580000D03*
%TD*%
%TO.P,REF\u002A\u002A,*%
%TO.N,*%
X152400000Y-66040000D03*
%TD*%
%TO.P,REF\u002A\u002A,*%
%TO.N,*%
X154940000Y-63500000D03*
%TD*%
%TO.P,REF\u002A\u002A,*%
%TO.N,*%
X152400000Y-63500000D03*
%TD*%
%TO.P,REF\u002A\u002A,*%
%TO.N,*%
X152400000Y-60960000D03*
%TD*%
%TO.P,REF\u002A\u002A,*%
%TO.N,*%
X154940000Y-58420000D03*
%TD*%
%TO.P,REF\u002A\u002A,*%
%TO.N,*%
X152400000Y-58420000D03*
%TD*%
%TO.P,REF\u002A\u002A,*%
%TO.N,*%
X154940000Y-66040000D03*
%TD*%
%TO.P,REF\u002A\u002A,*%
%TO.N,*%
X154940000Y-60960000D03*
%TD*%
%TO.P,REF\u002A\u002A,*%
%TO.N,*%
X154940000Y-71120000D03*
%TD*%
%TO.P,REF\u002A\u002A,*%
%TO.N,*%
X154940000Y-68580000D03*
%TD*%
%TO.P,REF\u002A\u002A,*%
%TO.N,*%
X152400000Y-76200000D03*
%TD*%
%TO.P,REF\u002A\u002A,*%
%TO.N,*%
X152400000Y-73660000D03*
%TD*%
%TO.P,REF\u002A\u002A,*%
%TO.N,*%
X154940000Y-73660000D03*
%TD*%
%TO.P,REF\u002A\u002A,*%
%TO.N,*%
X154940000Y-76200000D03*
%TD*%
%TO.P,REF\u002A\u002A,*%
%TO.N,*%
X152400000Y-91440000D03*
%TD*%
%TO.P,REF\u002A\u002A,*%
%TO.N,*%
X154940000Y-91440000D03*
%TD*%
%TO.P,REF\u002A\u002A,*%
%TO.N,*%
X152400000Y-88900000D03*
%TD*%
%TO.P,REF\u002A\u002A,*%
%TO.N,*%
X154940000Y-83820000D03*
%TD*%
%TO.P,REF\u002A\u002A,*%
%TO.N,*%
X152400000Y-86360000D03*
%TD*%
%TO.P,REF\u002A\u002A,*%
%TO.N,*%
X154940000Y-86360000D03*
%TD*%
%TO.P,REF\u002A\u002A,*%
%TO.N,*%
X152400000Y-83820000D03*
%TD*%
%TO.P,REF\u002A\u002A,*%
%TO.N,*%
X154940000Y-88900000D03*
%TD*%
%TO.P,REF\u002A\u002A,*%
%TO.N,*%
X147320000Y-91440000D03*
%TD*%
%TO.P,REF\u002A\u002A,*%
%TO.N,*%
X139700000Y-88900000D03*
%TD*%
%TO.P,REF\u002A\u002A,*%
%TO.N,*%
X144780000Y-88900000D03*
%TD*%
%TO.P,REF\u002A\u002A,*%
%TO.N,*%
X149860000Y-88900000D03*
%TD*%
%TO.P,REF\u002A\u002A,*%
%TO.N,*%
X147320000Y-88900000D03*
%TD*%
%TO.P,REF\u002A\u002A,*%
%TO.N,*%
X144780000Y-91440000D03*
%TD*%
%TO.P,REF\u002A\u002A,*%
%TO.N,*%
X149860000Y-91440000D03*
%TD*%
%TO.P,REF\u002A\u002A,*%
%TO.N,*%
X139700000Y-91440000D03*
%TD*%
%TO.P,REF\u002A\u002A,*%
%TO.N,*%
X142240000Y-91440000D03*
%TD*%
%TO.P,REF\u002A\u002A,*%
%TO.N,*%
X142240000Y-88900000D03*
%TD*%
%TO.P,REF\u002A\u002A,*%
%TO.N,*%
X137160000Y-83820000D03*
%TD*%
%TO.P,REF\u002A\u002A,*%
%TO.N,*%
X147320000Y-86360000D03*
%TD*%
%TO.P,REF\u002A\u002A,*%
%TO.N,*%
X139700000Y-83820000D03*
%TD*%
%TO.P,REF\u002A\u002A,*%
%TO.N,*%
X144780000Y-83820000D03*
%TD*%
%TO.P,REF\u002A\u002A,*%
%TO.N,*%
X149860000Y-83820000D03*
%TD*%
%TO.P,REF\u002A\u002A,*%
%TO.N,*%
X147320000Y-83820000D03*
%TD*%
%TO.P,REF\u002A\u002A,*%
%TO.N,*%
X144780000Y-86360000D03*
%TD*%
%TO.P,REF\u002A\u002A,*%
%TO.N,*%
X149860000Y-86360000D03*
%TD*%
%TO.P,REF\u002A\u002A,*%
%TO.N,*%
X137160000Y-86360000D03*
%TD*%
%TO.P,REF\u002A\u002A,*%
%TO.N,*%
X139700000Y-86360000D03*
%TD*%
%TO.P,REF\u002A\u002A,*%
%TO.N,*%
X142240000Y-86360000D03*
%TD*%
%TO.P,REF\u002A\u002A,*%
%TO.N,*%
X142240000Y-83820000D03*
%TD*%
%TO.P,REF\u002A\u002A,*%
%TO.N,*%
X137160000Y-78740000D03*
%TD*%
%TO.P,REF\u002A\u002A,*%
%TO.N,*%
X147320000Y-81280000D03*
%TD*%
%TO.P,REF\u002A\u002A,*%
%TO.N,*%
X139700000Y-78740000D03*
%TD*%
%TO.P,REF\u002A\u002A,*%
%TO.N,*%
X144780000Y-78740000D03*
%TD*%
%TO.P,REF\u002A\u002A,*%
%TO.N,*%
X149860000Y-78740000D03*
%TD*%
%TO.P,REF\u002A\u002A,*%
%TO.N,*%
X147320000Y-78740000D03*
%TD*%
%TO.P,REF\u002A\u002A,*%
%TO.N,*%
X144780000Y-81280000D03*
%TD*%
%TO.P,REF\u002A\u002A,*%
%TO.N,*%
X149860000Y-81280000D03*
%TD*%
%TO.P,REF\u002A\u002A,*%
%TO.N,*%
X137160000Y-81280000D03*
%TD*%
%TO.P,REF\u002A\u002A,*%
%TO.N,*%
X139700000Y-81280000D03*
%TD*%
%TO.P,REF\u002A\u002A,*%
%TO.N,*%
X142240000Y-81280000D03*
%TD*%
%TO.P,REF\u002A\u002A,*%
%TO.N,*%
X142240000Y-78740000D03*
%TD*%
%TO.P,REF\u002A\u002A,*%
%TO.N,*%
X137160000Y-73660000D03*
%TD*%
%TO.P,REF\u002A\u002A,*%
%TO.N,*%
X147320000Y-76200000D03*
%TD*%
%TO.P,REF\u002A\u002A,*%
%TO.N,*%
X139700000Y-73660000D03*
%TD*%
%TO.P,REF\u002A\u002A,*%
%TO.N,*%
X144780000Y-73660000D03*
%TD*%
%TO.P,REF\u002A\u002A,*%
%TO.N,*%
X149860000Y-73660000D03*
%TD*%
%TO.P,REF\u002A\u002A,*%
%TO.N,*%
X147320000Y-73660000D03*
%TD*%
%TO.P,REF\u002A\u002A,*%
%TO.N,*%
X144780000Y-76200000D03*
%TD*%
%TO.P,REF\u002A\u002A,*%
%TO.N,*%
X149860000Y-76200000D03*
%TD*%
%TO.P,REF\u002A\u002A,*%
%TO.N,*%
X137160000Y-76200000D03*
%TD*%
%TO.P,REF\u002A\u002A,*%
%TO.N,*%
X139700000Y-76200000D03*
%TD*%
%TO.P,REF\u002A\u002A,*%
%TO.N,*%
X142240000Y-76200000D03*
%TD*%
%TO.P,REF\u002A\u002A,*%
%TO.N,*%
X142240000Y-73660000D03*
%TD*%
%TO.P,REF\u002A\u002A,*%
%TO.N,*%
X137160000Y-68580000D03*
%TD*%
%TO.P,REF\u002A\u002A,*%
%TO.N,*%
X147320000Y-71120000D03*
%TD*%
%TO.P,REF\u002A\u002A,*%
%TO.N,*%
X139700000Y-68580000D03*
%TD*%
%TO.P,REF\u002A\u002A,*%
%TO.N,*%
X144780000Y-68580000D03*
%TD*%
%TO.P,REF\u002A\u002A,*%
%TO.N,*%
X149860000Y-68580000D03*
%TD*%
%TO.P,REF\u002A\u002A,*%
%TO.N,*%
X147320000Y-68580000D03*
%TD*%
%TO.P,REF\u002A\u002A,*%
%TO.N,*%
X144780000Y-71120000D03*
%TD*%
%TO.P,REF\u002A\u002A,*%
%TO.N,*%
X149860000Y-71120000D03*
%TD*%
%TO.P,REF\u002A\u002A,*%
%TO.N,*%
X137160000Y-71120000D03*
%TD*%
%TO.P,REF\u002A\u002A,*%
%TO.N,*%
X139700000Y-71120000D03*
%TD*%
%TO.P,REF\u002A\u002A,*%
%TO.N,*%
X142240000Y-71120000D03*
%TD*%
%TO.P,REF\u002A\u002A,*%
%TO.N,*%
X142240000Y-68580000D03*
%TD*%
%TO.P,REF\u002A\u002A,*%
%TO.N,*%
X137160000Y-63500000D03*
%TD*%
%TO.P,REF\u002A\u002A,*%
%TO.N,*%
X147320000Y-66040000D03*
%TD*%
%TO.P,REF\u002A\u002A,*%
%TO.N,*%
X139700000Y-63500000D03*
%TD*%
%TO.P,REF\u002A\u002A,*%
%TO.N,*%
X144780000Y-63500000D03*
%TD*%
%TO.P,REF\u002A\u002A,*%
%TO.N,*%
X149860000Y-63500000D03*
%TD*%
%TO.P,REF\u002A\u002A,*%
%TO.N,*%
X147320000Y-63500000D03*
%TD*%
%TO.P,REF\u002A\u002A,*%
%TO.N,*%
X144780000Y-66040000D03*
%TD*%
%TO.P,REF\u002A\u002A,*%
%TO.N,*%
X149860000Y-66040000D03*
%TD*%
%TO.P,REF\u002A\u002A,*%
%TO.N,*%
X137160000Y-66040000D03*
%TD*%
%TO.P,REF\u002A\u002A,*%
%TO.N,*%
X139700000Y-66040000D03*
%TD*%
%TO.P,REF\u002A\u002A,*%
%TO.N,*%
X142240000Y-66040000D03*
%TD*%
%TO.P,REF\u002A\u002A,*%
%TO.N,*%
X142240000Y-63500000D03*
%TD*%
%TO.P,REF\u002A\u002A,*%
%TO.N,*%
X149860000Y-58420000D03*
%TD*%
%TO.P,REF\u002A\u002A,*%
%TO.N,*%
X149860000Y-60960000D03*
%TD*%
%TO.P,REF\u002A\u002A,*%
%TO.N,*%
X147320000Y-58420000D03*
%TD*%
%TO.P,REF\u002A\u002A,*%
%TO.N,*%
X147320000Y-60960000D03*
%TD*%
%TO.P,REF\u002A\u002A,*%
%TO.N,*%
X144780000Y-58420000D03*
%TD*%
%TO.P,REF\u002A\u002A,*%
%TO.N,*%
X144780000Y-60960000D03*
%TD*%
%TO.P,REF\u002A\u002A,*%
%TO.N,*%
X142240000Y-58420000D03*
%TD*%
%TO.P,REF\u002A\u002A,*%
%TO.N,*%
X142240000Y-60960000D03*
%TD*%
%TO.P,REF\u002A\u002A,*%
%TO.N,*%
X139700000Y-58420000D03*
%TD*%
%TO.P,REF\u002A\u002A,*%
%TO.N,*%
X139700000Y-60960000D03*
%TD*%
%TO.P,REF\u002A\u002A,*%
%TO.N,*%
X137160000Y-58420000D03*
%TD*%
%TO.P,REF\u002A\u002A,*%
%TO.N,*%
X137160000Y-60960000D03*
%TD*%
D11*
%TO.P,H4,1*%
%TO.N,GND*%
X103297056Y-57362944D03*
X101600000Y-56660000D03*
X99902944Y-57362944D03*
X99200000Y-59060000D03*
X99902944Y-60757056D03*
X101600000Y-61460000D03*
X103297056Y-60757056D03*
X104000000Y-59060000D03*
D12*
X101600000Y-59060000D03*
%TD*%
D11*
%TO.P,H3,1*%
%TO.N,GND*%
X163297056Y-57362944D03*
X161600000Y-56660000D03*
X159902944Y-57362944D03*
X159200000Y-59060000D03*
X159902944Y-60757056D03*
X161600000Y-61460000D03*
X163297056Y-60757056D03*
X164000000Y-59060000D03*
D12*
X161600000Y-59060000D03*
%TD*%
D11*
%TO.P,H2,1*%
%TO.N,GND*%
X163297056Y-97362944D03*
X161600000Y-96660000D03*
X159902944Y-97362944D03*
X159200000Y-99060000D03*
X159902944Y-100757056D03*
X161600000Y-101460000D03*
X163297056Y-100757056D03*
X164000000Y-99060000D03*
D12*
X161600000Y-99060000D03*
%TD*%
D11*
%TO.P,H1,1*%
%TO.N,GND*%
X103297056Y-97362944D03*
X101600000Y-96660000D03*
X99902944Y-97362944D03*
X99200000Y-99060000D03*
X99902944Y-100757056D03*
X101600000Y-101460000D03*
X103297056Y-100757056D03*
X104000000Y-99060000D03*
D12*
X101600000Y-99060000D03*
%TD*%
D13*
%TO.P,Y1,2*%
%TO.N,Net-(C9-Pad2)*%
X107696000Y-69972000D03*
%TO.P,Y1,1*%
%TO.N,Net-(C8-Pad2)*%
X107696000Y-68072000D03*
%TD*%
D14*
%TO.P,U5,4*%
%TO.N,/MOSI*%
X137140000Y-93980000D03*
%TO.P,U5,3*%
%TO.N,/SCK*%
X139680000Y-93980000D03*
%TO.P,U5,2*%
%TO.N,+3V3*%
X142220000Y-93980000D03*
D15*
%TO.P,U5,1*%
%TO.N,GND*%
X144760000Y-93980000D03*
%TD*%
D16*
%TO.P,TP12,1*%
%TO.N,Net-(TP12-Pad1)*%
X132080000Y-63500000D03*
%TD*%
%TO.P,TP11,1*%
%TO.N,Net-(TP11-Pad1)*%
X132080000Y-66040000D03*
%TD*%
%TO.P,TP10,1*%
%TO.N,/RST*%
X132080000Y-68580000D03*
%TD*%
%TO.P,TP9,1*%
%TO.N,Net-(TP9-Pad1)*%
X132080000Y-71120000D03*
%TD*%
%TO.P,TP8,1*%
%TO.N,Net-(TP8-Pad1)*%
X132080000Y-73660000D03*
%TD*%
%TO.P,TP7,1*%
%TO.N,/MOSI*%
X132080000Y-76200000D03*
%TD*%
%TO.P,TP6,1*%
%TO.N,/LED2*%
X132080000Y-78740000D03*
%TD*%
%TO.P,TP5,1*%
%TO.N,/BATT_MON*%
X132080000Y-81280000D03*
%TD*%
%TO.P,TP4,1*%
%TO.N,/LED1*%
X132080000Y-83820000D03*
%TD*%
%TO.P,TP3,1*%
%TO.N,/BUTT1*%
X132080000Y-86360000D03*
%TD*%
%TO.P,TP2,1*%
%TO.N,/SCK*%
X132080000Y-88900000D03*
%TD*%
%TO.P,TP1,1*%
%TO.N,/MISO*%
X132080000Y-91440000D03*
%TD*%
D14*
%TO.P,J2,6*%
%TO.N,GND*%
X100330000Y-77470000D03*
%TO.P,J2,5*%
%TO.N,/RST*%
X100330000Y-74930000D03*
%TO.P,J2,4*%
%TO.N,/MOSI*%
X102870000Y-77470000D03*
%TO.P,J2,3*%
%TO.N,/SCK*%
X102870000Y-74930000D03*
%TO.P,J2,2*%
%TO.N,+3V3*%
X105410000Y-77470000D03*
D15*
%TO.P,J2,1*%
%TO.N,/MISO*%
X105410000Y-74930000D03*
%TD*%
D17*
%TO.P,J1,2*%
%TO.N,+BATT*%
X106680000Y-91440000D03*
%TO.P,J1,1*%
%TO.N,GND*%
%TA.AperFunction,ComponentPad*%
G36*
G01*
X105930000Y-88090000D02*
X107430000Y-88090000D01*
G75*
G02*
X107680000Y-88340000I0J-250000D01*
G01*
X107680000Y-89540000D01*
G75*
G02*
X107430000Y-89790000I-250000J0D01*
G01*
X105930000Y-89790000D01*
G75*
G02*
X105680000Y-89540000I0J250000D01*
G01*
X105680000Y-88340000D01*
G75*
G02*
X105930000Y-88090000I250000J0D01*
G01*
G37*
%TD.AperFunction*%
%TD*%
D18*
%TO.N,GND*%
X112014000Y-88392000D03*
X117602000Y-93726000D03*
X124206000Y-94996000D03*
X98806000Y-83312000D03*
X108966000Y-79502000D03*
X106172000Y-67564000D03*
X106172000Y-70358000D03*
X123698000Y-68834000D03*
X122936000Y-60198000D03*
X117856000Y-60198000D03*
X103124000Y-63246000D03*
X109220000Y-65532000D03*
X125476000Y-83312000D03*
X127254000Y-78740000D03*
X116774544Y-68598132D03*
X106426000Y-79248000D03*
X116586000Y-87630000D03*
X121412000Y-95504000D03*
%TO.N,/BATTERY*%
X122682000Y-94996000D03*
X121591000Y-89483000D03*
%TO.N,+3V3*%
X108966000Y-77978000D03*
X120396000Y-60198000D03*
X110104045Y-60329955D03*
X120650000Y-73660006D03*
X120142000Y-69850000D03*
X126238000Y-76708000D03*
X124460000Y-91186000D03*
X102870000Y-66040000D03*
X128778000Y-92710000D03*
X115062000Y-70865994D03*
X118110000Y-69850000D03*
%TO.N,Net-(C8-Pad2)*%
X112522000Y-68834000D03*
%TO.N,/RST*%
X118872000Y-80010010D03*
%TO.N,/MOSI*%
X109474000Y-70358000D03*
X115823996Y-75183996D03*
X117856000Y-80264000D03*
X124968000Y-76708000D03*
%TO.N,/SCK*%
X118110000Y-73660000D03*
X110490000Y-70358000D03*
X114999000Y-77915000D03*
X129779999Y-88900000D03*
%TO.N,/BATT_MON*%
X120396000Y-91440000D03*
X121920000Y-84836000D03*
%TO.N,/LED1*%
X113284000Y-83312000D03*
X123190000Y-84836000D03*
%TO.N,/LED2*%
X120650000Y-84836000D03*
X115570000Y-83058000D03*
%TO.N,/BUTT1*%
X114808000Y-64262000D03*
X121412000Y-80010000D03*
%TD*%
D19*
%TO.N,GND*%
X106680000Y-79502000D02*
X106426000Y-79248000D01*
X108966000Y-79502000D02*
X106680000Y-79502000D01*
%TO.N,/BATTERY*%
X121591000Y-93905000D02*
X121591000Y-89483000D01*
X122682000Y-94996000D02*
X121591000Y-93905000D01*
%TO.N,+3V3*%
X108458000Y-77470000D02*
X105410000Y-77470000D01*
X108966000Y-77978000D02*
X108458000Y-77470000D01*
X120142000Y-60452000D02*
X120396000Y-60198000D01*
X120142000Y-69850000D02*
X120142000Y-60452000D01*
X120650000Y-73660006D02*
X123190006Y-73660006D01*
X123190006Y-73660006D02*
X126238000Y-76708000D01*
X126326001Y-89319999D02*
X124460000Y-91186000D01*
X126326001Y-76796001D02*
X126326001Y-89319999D01*
X126238000Y-76708000D02*
X126326001Y-76796001D01*
X108580045Y-60329955D02*
X110104045Y-60329955D01*
X102870000Y-66040000D02*
X108580045Y-60329955D01*
X132048011Y-95980011D02*
X128778000Y-92710000D01*
X140219989Y-95980011D02*
X132048011Y-95980011D01*
X142220000Y-93980000D02*
X140219989Y-95980011D01*
X110104045Y-65146045D02*
X115062000Y-70104000D01*
X110104045Y-60329955D02*
X110104045Y-65146045D01*
X115062000Y-70104000D02*
X115062000Y-70865994D01*
X115316000Y-69850000D02*
X115062000Y-70104000D01*
X118110000Y-69850000D02*
X115316000Y-69850000D01*
%TO.N,Net-(C8-Pad2)*%
X112522000Y-68834000D02*
X108458000Y-68834000D01*
X108458000Y-68834000D02*
X107696000Y-68072000D01*
%TO.N,/RST*%
X117785735Y-78923745D02*
X118872000Y-80010010D01*
X110927745Y-78923745D02*
X117785735Y-78923745D01*
X110490000Y-78486000D02*
X110927745Y-78923745D01*
X109728000Y-73152000D02*
X110490000Y-73914000D01*
X110490000Y-73914000D02*
X110490000Y-78486000D01*
X100330000Y-74930000D02*
X102108000Y-73152000D01*
X102108000Y-73152000D02*
X109728000Y-73152000D01*
%TO.N,/MOSI*%
X113564033Y-75183996D02*
X115823996Y-75183996D01*
X109474000Y-70358000D02*
X109474000Y-71093963D01*
X109474000Y-71093963D02*
X113564033Y-75183996D01*
X118452011Y-80860011D02*
X122085989Y-80860011D01*
X117856000Y-80264000D02*
X118452011Y-80860011D01*
X122085989Y-80860011D02*
X122339989Y-80860011D01*
X124968000Y-78232000D02*
X124968000Y-76708000D01*
X122339989Y-80860011D02*
X124968000Y-78232000D01*
X130629999Y-77650001D02*
X132080000Y-76200000D01*
X130629999Y-92136001D02*
X130629999Y-77650001D01*
X132473998Y-93980000D02*
X130629999Y-92136001D01*
X137140000Y-93980000D02*
X132473998Y-93980000D01*
X117767999Y-80352001D02*
X117856000Y-80264000D01*
X103466001Y-80352001D02*
X117767999Y-80352001D01*
X102870000Y-79756000D02*
X103466001Y-80352001D01*
X102870000Y-77470000D02*
X102870000Y-79756000D01*
%TO.N,/SCK*%
X114999000Y-77279000D02*
X114999000Y-77915000D01*
X118110000Y-74168000D02*
X114999000Y-77279000D01*
X118110000Y-73660000D02*
X118110000Y-74168000D01*
X129779999Y-92275964D02*
X129779999Y-88900000D01*
X132784036Y-95280001D02*
X129779999Y-92275964D01*
X138379999Y-95280001D02*
X132784036Y-95280001D01*
X139680000Y-93980000D02*
X138379999Y-95280001D01*
X110490000Y-71120000D02*
X110490000Y-70358000D01*
X112268000Y-72898000D02*
X110490000Y-71120000D01*
X117348000Y-72898000D02*
X112268000Y-72898000D01*
X118110000Y-73660000D02*
X117348000Y-72898000D01*
%TO.N,/BATT_MON*%
X120396000Y-89154000D02*
X121412000Y-88138000D01*
X120396000Y-91440000D02*
X120396000Y-89154000D01*
X121412000Y-88138000D02*
X121920000Y-87630000D01*
X121920000Y-87630000D02*
X121920000Y-84836000D01*
%TO.N,/LED1*%
X121323999Y-82207999D02*
X113880001Y-82207999D01*
X123190000Y-84074000D02*
X121323999Y-82207999D01*
X113284000Y-82804000D02*
X113284000Y-83312000D01*
X113880001Y-82207999D02*
X113284000Y-82804000D01*
X123190000Y-84074000D02*
X123190000Y-84836000D01*
%TO.N,/LED2*%
X115570000Y-83058000D02*
X116078000Y-83566000D01*
X119380000Y-83566000D02*
X120650000Y-84836000D01*
X116078000Y-83566000D02*
X119380000Y-83566000D01*
%TO.N,/BUTT1*%
X119126000Y-68580000D02*
X114808000Y-64262000D01*
X119126000Y-77724000D02*
X119126000Y-68580000D01*
X121412000Y-80010000D02*
X119126000Y-77724000D01*
%TD*%
D20*
%TO.N,GND*%
X162368083Y-54791173D02*
X163111891Y-54994656D01*
X163807905Y-55326638D01*
X164434130Y-55776626D01*
X164970777Y-56330403D01*
X165400871Y-56970451D01*
X165710829Y-57676553D01*
X165892065Y-58431457D01*
X165940001Y-59084220D01*
X165940000Y-99030608D01*
X165868827Y-99828083D01*
X165665344Y-100571890D01*
X165333363Y-101267904D01*
X164883374Y-101894130D01*
X164329597Y-102430777D01*
X163689549Y-102860871D01*
X162983447Y-103170829D01*
X162228543Y-103352065D01*
X161575793Y-103400000D01*
X101629392Y-103400000D01*
X100831917Y-103328827D01*
X100088110Y-103125344D01*
X99392096Y-102793363D01*
X98765870Y-102343374D01*
X98229223Y-101789597D01*
X98209927Y-101760881D01*
X99078724Y-101760881D01*
X99438912Y-102250548D01*
X100102882Y-102610849D01*
X100824385Y-102834694D01*
X101575695Y-102913480D01*
X102327938Y-102844178D01*
X103052208Y-102629452D01*
X103720670Y-102277555D01*
X103761088Y-102250548D01*
X104121276Y-101760881D01*
X159078724Y-101760881D01*
X159438912Y-102250548D01*
X160102882Y-102610849D01*
X160824385Y-102834694D01*
X161575695Y-102913480D01*
X162327938Y-102844178D01*
X163052208Y-102629452D01*
X163720670Y-102277555D01*
X163761088Y-102250548D01*
X164121276Y-101760881D01*
X161600000Y-99239605D01*
X159078724Y-101760881D01*
X104121276Y-101760881D01*
X101600000Y-99239605D01*
X99078724Y-101760881D01*
X98209927Y-101760881D01*
X97799129Y-101149549D01*
X97489171Y-100443447D01*
X97307935Y-99688543D01*
X97260000Y-99035793D01*
X97260000Y-99035695D01*
X97746520Y-99035695D01*
X97815822Y-99787938D01*
X98030548Y-100512208D01*
X98382445Y-101180670D01*
X98409452Y-101221088D01*
X98899119Y-101581276D01*
X101420395Y-99060000D01*
X101779605Y-99060000D01*
X104300881Y-101581276D01*
X104790548Y-101221088D01*
X105150849Y-100557118D01*
X105374694Y-99835615D01*
X105453480Y-99084305D01*
X105449002Y-99035695D01*
X157746520Y-99035695D01*
X157815822Y-99787938D01*
X158030548Y-100512208D01*
X158382445Y-101180670D01*
X158409452Y-101221088D01*
X158899119Y-101581276D01*
X161420395Y-99060000D01*
X161779605Y-99060000D01*
X164300881Y-101581276D01*
X164790548Y-101221088D01*
X165150849Y-100557118D01*
X165374694Y-99835615D01*
X165453480Y-99084305D01*
X165384178Y-98332062D01*
X165169452Y-97607792D01*
X164817555Y-96939330D01*
X164790548Y-96898912D01*
X164300881Y-96538724D01*
X161779605Y-99060000D01*
X161420395Y-99060000D01*
X158899119Y-96538724D01*
X158409452Y-96898912D01*
X158049151Y-97562882D01*
X157825306Y-98284385D01*
X157746520Y-99035695D01*
X105449002Y-99035695D01*
X105384178Y-98332062D01*
X105169452Y-97607792D01*
X104817555Y-96939330D01*
X104790548Y-96898912D01*
X104300881Y-96538724D01*
X101779605Y-99060000D01*
X101420395Y-99060000D01*
X98899119Y-96538724D01*
X98409452Y-96898912D01*
X98049151Y-97562882D01*
X97825306Y-98284385D01*
X97746520Y-99035695D01*
X97260000Y-99035695D01*
X97260000Y-96359119D01*
X99078724Y-96359119D01*
X101600000Y-98880395D01*
X104121276Y-96359119D01*
X103761088Y-95869452D01*
X103097118Y-95509151D01*
X102375615Y-95285306D01*
X101624305Y-95206520D01*
X100872062Y-95275822D01*
X100147792Y-95490548D01*
X99479330Y-95842445D01*
X99438912Y-95869452D01*
X99078724Y-96359119D01*
X97260000Y-96359119D01*
X97260000Y-91440000D01*
X105037815Y-91440000D01*
X105066487Y-91731111D01*
X105151401Y-92011034D01*
X105289294Y-92269014D01*
X105474866Y-92495134D01*
X105700986Y-92680706D01*
X105958966Y-92818599D01*
X106238889Y-92903513D01*
X106457050Y-92925000D01*
X106902950Y-92925000D01*
X107121111Y-92903513D01*
X107401034Y-92818599D01*
X107659014Y-92680706D01*
X107885134Y-92495134D01*
X108070706Y-92269014D01*
X108208599Y-92011034D01*
X108293513Y-91731111D01*
X108322185Y-91440000D01*
X108293513Y-91148889D01*
X108208599Y-90868966D01*
X108070706Y-90610986D01*
X107889392Y-90390055D01*
X107924180Y-90379502D01*
X108034494Y-90320537D01*
X108131185Y-90241185D01*
X108210537Y-90144494D01*
X108269502Y-90034180D01*
X108305812Y-89914482D01*
X108318072Y-89790000D01*
X108315000Y-89225750D01*
X108156250Y-89067000D01*
X106807000Y-89067000D01*
X106807000Y-89087000D01*
X106553000Y-89087000D01*
X106553000Y-89067000D01*
X105203750Y-89067000D01*
X105045000Y-89225750D01*
X105041928Y-89790000D01*
X105054188Y-89914482D01*
X105090498Y-90034180D01*
X105149463Y-90144494D01*
X105228815Y-90241185D01*
X105325506Y-90320537D01*
X105435820Y-90379502D01*
X105470608Y-90390055D01*
X105289294Y-90610986D01*
X105151401Y-90868966D01*
X105066487Y-91148889D01*
X105037815Y-91440000D01*
X97260000Y-91440000D01*
X97260000Y-88090000D01*
X105041928Y-88090000D01*
X105045000Y-88654250D01*
X105203750Y-88813000D01*
X106553000Y-88813000D01*
X106553000Y-87613750D01*
X106807000Y-87613750D01*
X106807000Y-88813000D01*
X108156250Y-88813000D01*
X108315000Y-88654250D01*
X108318072Y-88090000D01*
X108305812Y-87965518D01*
X108269502Y-87845820D01*
X108210537Y-87735506D01*
X108131185Y-87638815D01*
X108034494Y-87559463D01*
X107924180Y-87500498D01*
X107804482Y-87464188D01*
X107680000Y-87451928D01*
X106965750Y-87455000D01*
X106807000Y-87613750D01*
X106553000Y-87613750D01*
X106394250Y-87455000D01*
X105680000Y-87451928D01*
X105555518Y-87464188D01*
X105435820Y-87500498D01*
X105325506Y-87559463D01*
X105228815Y-87638815D01*
X105149463Y-87735506D01*
X105090498Y-87845820D01*
X105054188Y-87965518D01*
X105041928Y-88090000D01*
X97260000Y-88090000D01*
X97260000Y-77826891D01*
X98888519Y-77826891D01*
X98985843Y-78101252D01*
X99134822Y-78351355D01*
X99329731Y-78567588D01*
X99563080Y-78741641D01*
X99825901Y-78866825D01*
X99973110Y-78911476D01*
X100203000Y-78790155D01*
X100203000Y-77597000D01*
X99009186Y-77597000D01*
X98888519Y-77826891D01*
X97260000Y-77826891D01*
X97260000Y-74783740D01*
X98845000Y-74783740D01*
X98845000Y-75076260D01*
X98902068Y-75363158D01*
X99014010Y-75633411D01*
X99176525Y-75876632D01*
X99383368Y-76083475D01*
X99559406Y-76201100D01*
X99329731Y-76372412D01*
X99134822Y-76588645D01*
X98985843Y-76838748D01*
X98888519Y-77113109D01*
X99009186Y-77343000D01*
X100203000Y-77343000D01*
X100203000Y-77323000D01*
X100457000Y-77323000D01*
X100457000Y-77343000D01*
X100477000Y-77343000D01*
X100477000Y-77597000D01*
X100457000Y-77597000D01*
X100457000Y-78790155D01*
X100686890Y-78911476D01*
X100834099Y-78866825D01*
X101096920Y-78741641D01*
X101330269Y-78567588D01*
X101525178Y-78351355D01*
X101594805Y-78234466D01*
X101716525Y-78416632D01*
X101923368Y-78623475D01*
X101985001Y-78664657D01*
X101985001Y-79712521D01*
X101980719Y-79756000D01*
X101997805Y-79929490D01*
X102048412Y-80096313D01*
X102130590Y-80250059D01*
X102213468Y-80351046D01*
X102213471Y-80351049D01*
X102241184Y-80384817D01*
X102274951Y-80412529D01*
X102809471Y-80947050D01*
X102837184Y-80980818D01*
X102870952Y-81008531D01*
X102870954Y-81008533D01*
X102915389Y-81045000D01*
X102971942Y-81091412D01*
X103125688Y-81173590D01*
X103292511Y-81224196D01*
X103422524Y-81237001D01*
X103422532Y-81237001D01*
X103466001Y-81241282D01*
X103509470Y-81237001D01*
X117500446Y-81237001D01*
X117554102Y-81259226D01*
X117610956Y-81270535D01*
X117663420Y-81322999D01*
X113923470Y-81322999D01*
X113880001Y-81318718D01*
X113836532Y-81322999D01*
X113836524Y-81322999D01*
X113706511Y-81335804D01*
X113539688Y-81386410D01*
X113385942Y-81468588D01*
X113284954Y-81551467D01*
X113284952Y-81551469D01*
X113251184Y-81579182D01*
X113223471Y-81612950D01*
X112688956Y-82147466D01*
X112655183Y-82175183D01*
X112544589Y-82309942D01*
X112462411Y-82463688D01*
X112411805Y-82630511D01*
X112399000Y-82760524D01*
X112399000Y-82760531D01*
X112397497Y-82775796D01*
X112366795Y-82821744D01*
X112288774Y-83010102D01*
X112249000Y-83210061D01*
X112249000Y-83413939D01*
X112288774Y-83613898D01*
X112366795Y-83802256D01*
X112480063Y-83971774D01*
X112624226Y-84115937D01*
X112793744Y-84229205D01*
X112982102Y-84307226D01*
X113182061Y-84347000D01*
X113385939Y-84347000D01*
X113585898Y-84307226D01*
X113774256Y-84229205D01*
X113943774Y-84115937D01*
X114087937Y-83971774D01*
X114201205Y-83802256D01*
X114279226Y-83613898D01*
X114319000Y-83413939D01*
X114319000Y-83210061D01*
X114295715Y-83092999D01*
X114535000Y-83092999D01*
X114535000Y-83159939D01*
X114574774Y-83359898D01*
X114652795Y-83548256D01*
X114766063Y-83717774D01*
X114910226Y-83861937D01*
X115079744Y-83975205D01*
X115268102Y-84053226D01*
X115324957Y-84064535D01*
X115421466Y-84161044D01*
X115449183Y-84194817D01*
X115583941Y-84305411D01*
X115737687Y-84387589D01*
X115904510Y-84438195D01*
X116034523Y-84451000D01*
X116034533Y-84451000D01*
X116077999Y-84455281D01*
X116121465Y-84451000D01*
X119013422Y-84451000D01*
X119643465Y-85081044D01*
X119654774Y-85137898D01*
X119732795Y-85326256D01*
X119846063Y-85495774D01*
X119990226Y-85639937D01*
X120159744Y-85753205D01*
X120348102Y-85831226D01*
X120548061Y-85871000D01*
X120751939Y-85871000D01*
X120951898Y-85831226D01*
X121035001Y-85796804D01*
X121035000Y-87263422D01*
X120816959Y-87481463D01*
X120816953Y-87481468D01*
X119800951Y-88497471D01*
X119767184Y-88525183D01*
X119739471Y-88558951D01*
X119739468Y-88558954D01*
X119656590Y-88659941D01*
X119574412Y-88813687D01*
X119523805Y-88980510D01*
X119506719Y-89154000D01*
X119511001Y-89197479D01*
X119511000Y-90901545D01*
X119478795Y-90949744D01*
X119400774Y-91138102D01*
X119361000Y-91338061D01*
X119361000Y-91541939D01*
X119400774Y-91741898D01*
X119478795Y-91930256D01*
X119592063Y-92099774D01*
X119736226Y-92243937D01*
X119905744Y-92357205D01*
X120094102Y-92435226D01*
X120294061Y-92475000D01*
X120497939Y-92475000D01*
X120697898Y-92435226D01*
X120706000Y-92431870D01*
X120706000Y-93861531D01*
X120701719Y-93905000D01*
X120706000Y-93948469D01*
X120706000Y-93948476D01*
X120718805Y-94078489D01*
X120769411Y-94245312D01*
X120851589Y-94399058D01*
X120962183Y-94533817D01*
X120995956Y-94561534D01*
X121675465Y-95241044D01*
X121686774Y-95297898D01*
X121764795Y-95486256D01*
X121878063Y-95655774D01*
X122022226Y-95799937D01*
X122191744Y-95913205D01*
X122380102Y-95991226D01*
X122580061Y-96031000D01*
X122783939Y-96031000D01*
X122983898Y-95991226D01*
X123172256Y-95913205D01*
X123341774Y-95799937D01*
X123485937Y-95655774D01*
X123599205Y-95486256D01*
X123677226Y-95297898D01*
X123717000Y-95097939D01*
X123717000Y-94894061D01*
X123677226Y-94694102D01*
X123599205Y-94505744D01*
X123485937Y-94336226D01*
X123341774Y-94192063D01*
X123172256Y-94078795D01*
X122983898Y-94000774D01*
X122927044Y-93989465D01*
X122476000Y-93538422D01*
X122476000Y-92608061D01*
X127743000Y-92608061D01*
X127743000Y-92811939D01*
X127782774Y-93011898D01*
X127860795Y-93200256D01*
X127974063Y-93369774D01*
X128118226Y-93513937D01*
X128287744Y-93627205D01*
X128476102Y-93705226D01*
X128532957Y-93716535D01*
X131391481Y-96575060D01*
X131419194Y-96608828D01*
X131452962Y-96636541D01*
X131452964Y-96636543D01*
X131553951Y-96719421D01*
X131553952Y-96719422D01*
X131707698Y-96801600D01*
X131874521Y-96852206D01*
X132004534Y-96865011D01*
X132004542Y-96865011D01*
X132048011Y-96869292D01*
X132091480Y-96865011D01*
X140176520Y-96865011D01*
X140219989Y-96869292D01*
X140263458Y-96865011D01*
X140263466Y-96865011D01*
X140393479Y-96852206D01*
X140560302Y-96801600D01*
X140714048Y-96719422D01*
X140848806Y-96608828D01*
X140876523Y-96575055D01*
X141092459Y-96359119D01*
X159078724Y-96359119D01*
X161600000Y-98880395D01*
X164121276Y-96359119D01*
X163761088Y-95869452D01*
X163097118Y-95509151D01*
X162375615Y-95285306D01*
X161624305Y-95206520D01*
X160872062Y-95275822D01*
X160147792Y-95490548D01*
X159479330Y-95842445D01*
X159438912Y-95869452D01*
X159078724Y-96359119D01*
X141092459Y-96359119D01*
X142001040Y-95450539D01*
X142073740Y-95465000D01*
X142366260Y-95465000D01*
X142653158Y-95407932D01*
X142923411Y-95295990D01*
X143166632Y-95133475D01*
X143298487Y-95001620D01*
X143320498Y-95074180D01*
X143379463Y-95184494D01*
X143458815Y-95281185D01*
X143555506Y-95360537D01*
X143665820Y-95419502D01*
X143785518Y-95455812D01*
X143910000Y-95468072D01*
X144474250Y-95465000D01*
X144633000Y-95306250D01*
X144633000Y-94107000D01*
X144613000Y-94107000D01*
X144613000Y-93853000D01*
X144633000Y-93853000D01*
X144633000Y-93833000D01*
X144887000Y-93833000D01*
X144887000Y-93853000D01*
X144907000Y-93853000D01*
X144907000Y-94107000D01*
X144887000Y-94107000D01*
X144887000Y-95306250D01*
X145045750Y-95465000D01*
X145610000Y-95468072D01*
X145734482Y-95455812D01*
X145854180Y-95419502D01*
X145964494Y-95360537D01*
X146061185Y-95281185D01*
X146140537Y-95184494D01*
X146199502Y-95074180D01*
X146226168Y-94986275D01*
X146373368Y-95133475D01*
X146616589Y-95295990D01*
X146886842Y-95407932D01*
X147173740Y-95465000D01*
X147466260Y-95465000D01*
X147753158Y-95407932D01*
X148023411Y-95295990D01*
X148266632Y-95133475D01*
X148473475Y-94926632D01*
X148590000Y-94752240D01*
X148706525Y-94926632D01*
X148913368Y-95133475D01*
X149156589Y-95295990D01*
X149426842Y-95407932D01*
X149713740Y-95465000D01*
X150006260Y-95465000D01*
X150293158Y-95407932D01*
X150563411Y-95295990D01*
X150806632Y-95133475D01*
X151013475Y-94926632D01*
X151130000Y-94752240D01*
X151246525Y-94926632D01*
X151453368Y-95133475D01*
X151696589Y-95295990D01*
X151966842Y-95407932D01*
X152253740Y-95465000D01*
X152546260Y-95465000D01*
X152833158Y-95407932D01*
X153103411Y-95295990D01*
X153346632Y-95133475D01*
X153553475Y-94926632D01*
X153670000Y-94752240D01*
X153786525Y-94926632D01*
X153993368Y-95133475D01*
X154236589Y-95295990D01*
X154506842Y-95407932D01*
X154793740Y-95465000D01*
X155086260Y-95465000D01*
X155373158Y-95407932D01*
X155643411Y-95295990D01*
X155886632Y-95133475D01*
X156093475Y-94926632D01*
X156210000Y-94752240D01*
X156326525Y-94926632D01*
X156533368Y-95133475D01*
X156776589Y-95295990D01*
X157046842Y-95407932D01*
X157333740Y-95465000D01*
X157626260Y-95465000D01*
X157913158Y-95407932D01*
X158183411Y-95295990D01*
X158426632Y-95133475D01*
X158633475Y-94926632D01*
X158795990Y-94683411D01*
X158907932Y-94413158D01*
X158965000Y-94126260D01*
X158965000Y-93833740D01*
X158907932Y-93546842D01*
X158795990Y-93276589D01*
X158633475Y-93033368D01*
X158426632Y-92826525D01*
X158252240Y-92710000D01*
X158426632Y-92593475D01*
X158633475Y-92386632D01*
X158750000Y-92212240D01*
X158866525Y-92386632D01*
X159073368Y-92593475D01*
X159316589Y-92755990D01*
X159586842Y-92867932D01*
X159873740Y-92925000D01*
X160166260Y-92925000D01*
X160453158Y-92867932D01*
X160723411Y-92755990D01*
X160966632Y-92593475D01*
X161173475Y-92386632D01*
X161290000Y-92212240D01*
X161406525Y-92386632D01*
X161613368Y-92593475D01*
X161856589Y-92755990D01*
X162126842Y-92867932D01*
X162413740Y-92925000D01*
X162706260Y-92925000D01*
X162993158Y-92867932D01*
X163263411Y-92755990D01*
X163506632Y-92593475D01*
X163713475Y-92386632D01*
X163875990Y-92143411D01*
X163987932Y-91873158D01*
X164045000Y-91586260D01*
X164045000Y-91293740D01*
X163987932Y-91006842D01*
X163875990Y-90736589D01*
X163713475Y-90493368D01*
X163506632Y-90286525D01*
X163332240Y-90170000D01*
X163506632Y-90053475D01*
X163713475Y-89846632D01*
X163875990Y-89603411D01*
X163987932Y-89333158D01*
X164045000Y-89046260D01*
X164045000Y-88753740D01*
X163987932Y-88466842D01*
X163875990Y-88196589D01*
X163713475Y-87953368D01*
X163506632Y-87746525D01*
X163332240Y-87630000D01*
X163506632Y-87513475D01*
X163713475Y-87306632D01*
X163875990Y-87063411D01*
X163987932Y-86793158D01*
X164045000Y-86506260D01*
X164045000Y-86213740D01*
X163987932Y-85926842D01*
X163875990Y-85656589D01*
X163713475Y-85413368D01*
X163506632Y-85206525D01*
X163332240Y-85090000D01*
X163506632Y-84973475D01*
X163713475Y-84766632D01*
X163875990Y-84523411D01*
X163987932Y-84253158D01*
X164045000Y-83966260D01*
X164045000Y-83673740D01*
X163987932Y-83386842D01*
X163875990Y-83116589D01*
X163713475Y-82873368D01*
X163506632Y-82666525D01*
X163332240Y-82550000D01*
X163506632Y-82433475D01*
X163713475Y-82226632D01*
X163875990Y-81983411D01*
X163987932Y-81713158D01*
X164045000Y-81426260D01*
X164045000Y-81133740D01*
X163987932Y-80846842D01*
X163875990Y-80576589D01*
X163713475Y-80333368D01*
X163506632Y-80126525D01*
X163332240Y-80010000D01*
X163506632Y-79893475D01*
X163713475Y-79686632D01*
X163875990Y-79443411D01*
X163987932Y-79173158D01*
X164045000Y-78886260D01*
X164045000Y-78593740D01*
X163987932Y-78306842D01*
X163875990Y-78036589D01*
X163713475Y-77793368D01*
X163506632Y-77586525D01*
X163332240Y-77470000D01*
X163506632Y-77353475D01*
X163713475Y-77146632D01*
X163875990Y-76903411D01*
X163987932Y-76633158D01*
X164045000Y-76346260D01*
X164045000Y-76053740D01*
X163987932Y-75766842D01*
X163875990Y-75496589D01*
X163713475Y-75253368D01*
X163506632Y-75046525D01*
X163332240Y-74930000D01*
X163506632Y-74813475D01*
X163713475Y-74606632D01*
X163875990Y-74363411D01*
X163987932Y-74093158D01*
X164045000Y-73806260D01*
X164045000Y-73513740D01*
X163987932Y-73226842D01*
X163875990Y-72956589D01*
X163713475Y-72713368D01*
X163506632Y-72506525D01*
X163332240Y-72390000D01*
X163506632Y-72273475D01*
X163713475Y-72066632D01*
X163875990Y-71823411D01*
X163987932Y-71553158D01*
X164045000Y-71266260D01*
X164045000Y-70973740D01*
X163987932Y-70686842D01*
X163875990Y-70416589D01*
X163713475Y-70173368D01*
X163506632Y-69966525D01*
X163332240Y-69850000D01*
X163506632Y-69733475D01*
X163713475Y-69526632D01*
X163875990Y-69283411D01*
X163987932Y-69013158D01*
X164045000Y-68726260D01*
X164045000Y-68433740D01*
X163987932Y-68146842D01*
X163875990Y-67876589D01*
X163713475Y-67633368D01*
X163506632Y-67426525D01*
X163332240Y-67310000D01*
X163506632Y-67193475D01*
X163713475Y-66986632D01*
X163875990Y-66743411D01*
X163987932Y-66473158D01*
X164045000Y-66186260D01*
X164045000Y-65893740D01*
X163987932Y-65606842D01*
X163875990Y-65336589D01*
X163713475Y-65093368D01*
X163506632Y-64886525D01*
X163263411Y-64724010D01*
X162993158Y-64612068D01*
X162706260Y-64555000D01*
X162413740Y-64555000D01*
X162126842Y-64612068D01*
X161856589Y-64724010D01*
X161613368Y-64886525D01*
X161406525Y-65093368D01*
X161290000Y-65267760D01*
X161173475Y-65093368D01*
X160966632Y-64886525D01*
X160723411Y-64724010D01*
X160453158Y-64612068D01*
X160166260Y-64555000D01*
X159873740Y-64555000D01*
X159586842Y-64612068D01*
X159316589Y-64724010D01*
X159073368Y-64886525D01*
X158866525Y-65093368D01*
X158750000Y-65267760D01*
X158633475Y-65093368D01*
X158426632Y-64886525D01*
X158252240Y-64770000D01*
X158426632Y-64653475D01*
X158633475Y-64446632D01*
X158795990Y-64203411D01*
X158907932Y-63933158D01*
X158965000Y-63646260D01*
X158965000Y-63353740D01*
X158907932Y-63066842D01*
X158795990Y-62796589D01*
X158633475Y-62553368D01*
X158426632Y-62346525D01*
X158183411Y-62184010D01*
X157913158Y-62072068D01*
X157626260Y-62015000D01*
X157333740Y-62015000D01*
X157046842Y-62072068D01*
X156776589Y-62184010D01*
X156533368Y-62346525D01*
X156326525Y-62553368D01*
X156210000Y-62727760D01*
X156093475Y-62553368D01*
X155886632Y-62346525D01*
X155712240Y-62230000D01*
X155886632Y-62113475D01*
X156093475Y-61906632D01*
X156190862Y-61760881D01*
X159078724Y-61760881D01*
X159438912Y-62250548D01*
X160102882Y-62610849D01*
X160824385Y-62834694D01*
X161575695Y-62913480D01*
X162327938Y-62844178D01*
X163052208Y-62629452D01*
X163720670Y-62277555D01*
X163761088Y-62250548D01*
X164121276Y-61760881D01*
X161600000Y-59239605D01*
X159078724Y-61760881D01*
X156190862Y-61760881D01*
X156255990Y-61663411D01*
X156367932Y-61393158D01*
X156425000Y-61106260D01*
X156425000Y-60813740D01*
X156367932Y-60526842D01*
X156255990Y-60256589D01*
X156093475Y-60013368D01*
X155886632Y-59806525D01*
X155712240Y-59690000D01*
X155886632Y-59573475D01*
X156093475Y-59366632D01*
X156255990Y-59123411D01*
X156292323Y-59035695D01*
X157746520Y-59035695D01*
X157815822Y-59787938D01*
X158030548Y-60512208D01*
X158382445Y-61180670D01*
X158409452Y-61221088D01*
X158899119Y-61581276D01*
X161420395Y-59060000D01*
X161779605Y-59060000D01*
X164300881Y-61581276D01*
X164790548Y-61221088D01*
X165150849Y-60557118D01*
X165374694Y-59835615D01*
X165453480Y-59084305D01*
X165384178Y-58332062D01*
X165169452Y-57607792D01*
X164817555Y-56939330D01*
X164790548Y-56898912D01*
X164300881Y-56538724D01*
X161779605Y-59060000D01*
X161420395Y-59060000D01*
X158899119Y-56538724D01*
X158409452Y-56898912D01*
X158049151Y-57562882D01*
X157825306Y-58284385D01*
X157746520Y-59035695D01*
X156292323Y-59035695D01*
X156367932Y-58853158D01*
X156425000Y-58566260D01*
X156425000Y-58273740D01*
X156367932Y-57986842D01*
X156255990Y-57716589D01*
X156093475Y-57473368D01*
X155886632Y-57266525D01*
X155643411Y-57104010D01*
X155373158Y-56992068D01*
X155086260Y-56935000D01*
X154793740Y-56935000D01*
X154506842Y-56992068D01*
X154236589Y-57104010D01*
X153993368Y-57266525D01*
X153786525Y-57473368D01*
X153670000Y-57647760D01*
X153553475Y-57473368D01*
X153346632Y-57266525D01*
X153103411Y-57104010D01*
X152833158Y-56992068D01*
X152546260Y-56935000D01*
X152253740Y-56935000D01*
X151966842Y-56992068D01*
X151696589Y-57104010D01*
X151453368Y-57266525D01*
X151246525Y-57473368D01*
X151130000Y-57647760D01*
X151013475Y-57473368D01*
X150806632Y-57266525D01*
X150563411Y-57104010D01*
X150293158Y-56992068D01*
X150006260Y-56935000D01*
X149713740Y-56935000D01*
X149426842Y-56992068D01*
X149156589Y-57104010D01*
X148913368Y-57266525D01*
X148706525Y-57473368D01*
X148590000Y-57647760D01*
X148473475Y-57473368D01*
X148266632Y-57266525D01*
X148023411Y-57104010D01*
X147753158Y-56992068D01*
X147466260Y-56935000D01*
X147173740Y-56935000D01*
X146886842Y-56992068D01*
X146616589Y-57104010D01*
X146373368Y-57266525D01*
X146166525Y-57473368D01*
X146050000Y-57647760D01*
X145933475Y-57473368D01*
X145726632Y-57266525D01*
X145483411Y-57104010D01*
X145213158Y-56992068D01*
X144926260Y-56935000D01*
X144633740Y-56935000D01*
X144346842Y-56992068D01*
X144076589Y-57104010D01*
X143833368Y-57266525D01*
X143626525Y-57473368D01*
X143510000Y-57647760D01*
X143393475Y-57473368D01*
X143186632Y-57266525D01*
X142943411Y-57104010D01*
X142673158Y-56992068D01*
X142386260Y-56935000D01*
X142093740Y-56935000D01*
X141806842Y-56992068D01*
X141536589Y-57104010D01*
X141293368Y-57266525D01*
X141086525Y-57473368D01*
X140970000Y-57647760D01*
X140853475Y-57473368D01*
X140646632Y-57266525D01*
X140403411Y-57104010D01*
X140133158Y-56992068D01*
X139846260Y-56935000D01*
X139553740Y-56935000D01*
X139266842Y-56992068D01*
X138996589Y-57104010D01*
X138753368Y-57266525D01*
X138546525Y-57473368D01*
X138430000Y-57647760D01*
X138313475Y-57473368D01*
X138106632Y-57266525D01*
X137863411Y-57104010D01*
X137593158Y-56992068D01*
X137306260Y-56935000D01*
X137013740Y-56935000D01*
X136726842Y-56992068D01*
X136456589Y-57104010D01*
X136213368Y-57266525D01*
X136006525Y-57473368D01*
X135890000Y-57647760D01*
X135773475Y-57473368D01*
X135566632Y-57266525D01*
X135323411Y-57104010D01*
X135053158Y-56992068D01*
X134766260Y-56935000D01*
X134473740Y-56935000D01*
X134186842Y-56992068D01*
X133916589Y-57104010D01*
X133673368Y-57266525D01*
X133466525Y-57473368D01*
X133304010Y-57716589D01*
X133192068Y-57986842D01*
X133135000Y-58273740D01*
X133135000Y-58566260D01*
X133192068Y-58853158D01*
X133304010Y-59123411D01*
X133466525Y-59366632D01*
X133673368Y-59573475D01*
X133847760Y-59690000D01*
X133673368Y-59806525D01*
X133466525Y-60013368D01*
X133304010Y-60256589D01*
X133192068Y-60526842D01*
X133135000Y-60813740D01*
X133135000Y-61106260D01*
X133192068Y-61393158D01*
X133304010Y-61663411D01*
X133466525Y-61906632D01*
X133673368Y-62113475D01*
X133847760Y-62230000D01*
X133673368Y-62346525D01*
X133466525Y-62553368D01*
X133440202Y-62592764D01*
X133349987Y-62457748D01*
X133122252Y-62230013D01*
X132854463Y-62051082D01*
X132556912Y-61927832D01*
X132241033Y-61865000D01*
X131918967Y-61865000D01*
X131603088Y-61927832D01*
X131305537Y-62051082D01*
X131037748Y-62230013D01*
X130810013Y-62457748D01*
X130631082Y-62725537D01*
X130507832Y-63023088D01*
X130445000Y-63338967D01*
X130445000Y-63661033D01*
X130507832Y-63976912D01*
X130631082Y-64274463D01*
X130810013Y-64542252D01*
X131037748Y-64769987D01*
X131037767Y-64770000D01*
X131037748Y-64770013D01*
X130810013Y-64997748D01*
X130631082Y-65265537D01*
X130507832Y-65563088D01*
X130445000Y-65878967D01*
X130445000Y-66201033D01*
X130507832Y-66516912D01*
X130631082Y-66814463D01*
X130810013Y-67082252D01*
X131037748Y-67309987D01*
X131037767Y-67310000D01*
X131037748Y-67310013D01*
X130810013Y-67537748D01*
X130631082Y-67805537D01*
X130507832Y-68103088D01*
X130445000Y-68418967D01*
X130445000Y-68741033D01*
X130507832Y-69056912D01*
X130631082Y-69354463D01*
X130810013Y-69622252D01*
X131037748Y-69849987D01*
X131037767Y-69850000D01*
X131037748Y-69850013D01*
X130810013Y-70077748D01*
X130631082Y-70345537D01*
X130507832Y-70643088D01*
X130445000Y-70958967D01*
X130445000Y-71281033D01*
X130507832Y-71596912D01*
X130631082Y-71894463D01*
X130810013Y-72162252D01*
X131037748Y-72389987D01*
X131037767Y-72390000D01*
X131037748Y-72390013D01*
X130810013Y-72617748D01*
X130631082Y-72885537D01*
X130507832Y-73183088D01*
X130445000Y-73498967D01*
X130445000Y-73821033D01*
X130507832Y-74136912D01*
X130631082Y-74434463D01*
X130810013Y-74702252D01*
X131037748Y-74929987D01*
X131037767Y-74930000D01*
X131037748Y-74930013D01*
X130810013Y-75157748D01*
X130631082Y-75425537D01*
X130507832Y-75723088D01*
X130445000Y-76038967D01*
X130445000Y-76361033D01*
X130481897Y-76546525D01*
X130034950Y-76993472D01*
X130001183Y-77021184D01*
X129973470Y-77054952D01*
X129973467Y-77054955D01*
X129890589Y-77155942D01*
X129808411Y-77309688D01*
X129757804Y-77476511D01*
X129740718Y-77650001D01*
X129745000Y-77693480D01*
X129744999Y-87865000D01*
X129678060Y-87865000D01*
X129478101Y-87904774D01*
X129289743Y-87982795D01*
X129120225Y-88096063D01*
X128976062Y-88240226D01*
X128862794Y-88409744D01*
X128784773Y-88598102D01*
X128744999Y-88798061D01*
X128744999Y-89001939D01*
X128784773Y-89201898D01*
X128862794Y-89390256D01*
X128895000Y-89438456D01*
X128894999Y-91677996D01*
X128879939Y-91675000D01*
X128676061Y-91675000D01*
X128476102Y-91714774D01*
X128287744Y-91792795D01*
X128118226Y-91906063D01*
X127974063Y-92050226D01*
X127860795Y-92219744D01*
X127782774Y-92408102D01*
X127743000Y-92608061D01*
X122476000Y-92608061D01*
X122476000Y-90021454D01*
X122508205Y-89973256D01*
X122586226Y-89784898D01*
X122626000Y-89584939D01*
X122626000Y-89381061D01*
X122586226Y-89181102D01*
X122508205Y-88992744D01*
X122394937Y-88823226D01*
X122250774Y-88679063D01*
X122173888Y-88627690D01*
X122515045Y-88286533D01*
X122548817Y-88258817D01*
X122659411Y-88124059D01*
X122741589Y-87970313D01*
X122792195Y-87803490D01*
X122805000Y-87673477D01*
X122805000Y-87673467D01*
X122809281Y-87630001D01*
X122805000Y-87586535D01*
X122805000Y-85796804D01*
X122888102Y-85831226D01*
X123088061Y-85871000D01*
X123291939Y-85871000D01*
X123491898Y-85831226D01*
X123680256Y-85753205D01*
X123849774Y-85639937D01*
X123993937Y-85495774D01*
X124107205Y-85326256D01*
X124185226Y-85137898D01*
X124225000Y-84937939D01*
X124225000Y-84734061D01*
X124185226Y-84534102D01*
X124107205Y-84345744D01*
X124075000Y-84297546D01*
X124075000Y-84117469D01*
X124079281Y-84074000D01*
X124075000Y-84030531D01*
X124075000Y-84030523D01*
X124062195Y-83900510D01*
X124011589Y-83733687D01*
X123929411Y-83579941D01*
X123899431Y-83543410D01*
X123846532Y-83478953D01*
X123846530Y-83478951D01*
X123818817Y-83445183D01*
X123785050Y-83417471D01*
X122112589Y-81745011D01*
X122296520Y-81745011D01*
X122339989Y-81749292D01*
X122383458Y-81745011D01*
X122383466Y-81745011D01*
X122513479Y-81732206D01*
X122680302Y-81681600D01*
X122834048Y-81599422D01*
X122968806Y-81488828D01*
X122996523Y-81455055D01*
X125441001Y-79010578D01*
X125441002Y-88953419D01*
X124214957Y-90179465D01*
X124158102Y-90190774D01*
X123969744Y-90268795D01*
X123800226Y-90382063D01*
X123656063Y-90526226D01*
X123542795Y-90695744D01*
X123464774Y-90884102D01*
X123425000Y-91084061D01*
X123425000Y-91287939D01*
X123464774Y-91487898D01*
X123542795Y-91676256D01*
X123656063Y-91845774D01*
X123800226Y-91989937D01*
X123969744Y-92103205D01*
X124158102Y-92181226D01*
X124358061Y-92221000D01*
X124561939Y-92221000D01*
X124761898Y-92181226D01*
X124950256Y-92103205D01*
X125119774Y-91989937D01*
X125263937Y-91845774D01*
X125377205Y-91676256D01*
X125455226Y-91487898D01*
X125466535Y-91431043D01*
X126921050Y-89976529D01*
X126954818Y-89948816D01*
X126982996Y-89914482D01*
X127065412Y-89814058D01*
X127147589Y-89660313D01*
X127147590Y-89660312D01*
X127198196Y-89493489D01*
X127211001Y-89363476D01*
X127211001Y-89363468D01*
X127215282Y-89319999D01*
X127211001Y-89276530D01*
X127211001Y-77063554D01*
X127233226Y-77009898D01*
X127273000Y-76809939D01*
X127273000Y-76606061D01*
X127233226Y-76406102D01*
X127155205Y-76217744D01*
X127041937Y-76048226D01*
X126897774Y-75904063D01*
X126728256Y-75790795D01*
X126539898Y-75712774D01*
X126483044Y-75701465D01*
X123846540Y-73064962D01*
X123818823Y-73031189D01*
X123684065Y-72920595D01*
X123530319Y-72838417D01*
X123363496Y-72787811D01*
X123233483Y-72775006D01*
X123233475Y-72775006D01*
X123190006Y-72770725D01*
X123146537Y-72775006D01*
X121188454Y-72775006D01*
X121140256Y-72742801D01*
X120951898Y-72664780D01*
X120751939Y-72625006D01*
X120548061Y-72625006D01*
X120348102Y-72664780D01*
X120159744Y-72742801D01*
X120011000Y-72842188D01*
X120011000Y-70879219D01*
X120040061Y-70885000D01*
X120243939Y-70885000D01*
X120443898Y-70845226D01*
X120632256Y-70767205D01*
X120801774Y-70653937D01*
X120945937Y-70509774D01*
X121059205Y-70340256D01*
X121137226Y-70151898D01*
X121177000Y-69951939D01*
X121177000Y-69748061D01*
X121137226Y-69548102D01*
X121059205Y-69359744D01*
X121027000Y-69311546D01*
X121027000Y-61021163D01*
X121055774Y-61001937D01*
X121199937Y-60857774D01*
X121313205Y-60688256D01*
X121391226Y-60499898D01*
X121431000Y-60299939D01*
X121431000Y-60096061D01*
X121391226Y-59896102D01*
X121313205Y-59707744D01*
X121199937Y-59538226D01*
X121055774Y-59394063D01*
X120886256Y-59280795D01*
X120697898Y-59202774D01*
X120497939Y-59163000D01*
X120294061Y-59163000D01*
X120094102Y-59202774D01*
X119905744Y-59280795D01*
X119736226Y-59394063D01*
X119592063Y-59538226D01*
X119478795Y-59707744D01*
X119400774Y-59896102D01*
X119380107Y-60000005D01*
X119320412Y-60111687D01*
X119269805Y-60278510D01*
X119252719Y-60452000D01*
X119257001Y-60495479D01*
X119257000Y-67459421D01*
X115814535Y-64016957D01*
X115803226Y-63960102D01*
X115725205Y-63771744D01*
X115611937Y-63602226D01*
X115467774Y-63458063D01*
X115298256Y-63344795D01*
X115109898Y-63266774D01*
X114909939Y-63227000D01*
X114706061Y-63227000D01*
X114506102Y-63266774D01*
X114317744Y-63344795D01*
X114148226Y-63458063D01*
X114004063Y-63602226D01*
X113890795Y-63771744D01*
X113812774Y-63960102D01*
X113773000Y-64160061D01*
X113773000Y-64363939D01*
X113812774Y-64563898D01*
X113890795Y-64752256D01*
X114004063Y-64921774D01*
X114148226Y-65065937D01*
X114317744Y-65179205D01*
X114506102Y-65257226D01*
X114562957Y-65268535D01*
X118109421Y-68815000D01*
X118008061Y-68815000D01*
X117808102Y-68854774D01*
X117619744Y-68932795D01*
X117571546Y-68965000D01*
X115359465Y-68965000D01*
X115315999Y-68960719D01*
X115272533Y-68965000D01*
X115272523Y-68965000D01*
X115183361Y-68973782D01*
X110989045Y-64779467D01*
X110989045Y-60868409D01*
X111021250Y-60820211D01*
X111099271Y-60631853D01*
X111139045Y-60431894D01*
X111139045Y-60228016D01*
X111099271Y-60028057D01*
X111021250Y-59839699D01*
X110907982Y-59670181D01*
X110763819Y-59526018D01*
X110594301Y-59412750D01*
X110405943Y-59334729D01*
X110205984Y-59294955D01*
X110002106Y-59294955D01*
X109802147Y-59334729D01*
X109613789Y-59412750D01*
X109565591Y-59444955D01*
X108623511Y-59444955D01*
X108580044Y-59440674D01*
X108536578Y-59444955D01*
X108536568Y-59444955D01*
X108406555Y-59457760D01*
X108239732Y-59508366D01*
X108085986Y-59590544D01*
X108085984Y-59590545D01*
X108085985Y-59590545D01*
X107984998Y-59673423D01*
X107984996Y-59673425D01*
X107951228Y-59701138D01*
X107923515Y-59734906D01*
X102624957Y-65033465D01*
X102568102Y-65044774D01*
X102379744Y-65122795D01*
X102210226Y-65236063D01*
X102066063Y-65380226D01*
X101952795Y-65549744D01*
X101874774Y-65738102D01*
X101835000Y-65938061D01*
X101835000Y-66141939D01*
X101874774Y-66341898D01*
X101952795Y-66530256D01*
X102066063Y-66699774D01*
X102210226Y-66843937D01*
X102379744Y-66957205D01*
X102568102Y-67035226D01*
X102768061Y-67075000D01*
X102971939Y-67075000D01*
X103171898Y-67035226D01*
X103360256Y-66957205D01*
X103529774Y-66843937D01*
X103673937Y-66699774D01*
X103787205Y-66530256D01*
X103865226Y-66341898D01*
X103876535Y-66285043D01*
X108946624Y-61214955D01*
X109219045Y-61214955D01*
X109219046Y-65102566D01*
X109214764Y-65146045D01*
X109231850Y-65319535D01*
X109282457Y-65486358D01*
X109364635Y-65640104D01*
X109447513Y-65741091D01*
X109447516Y-65741094D01*
X109475229Y-65774862D01*
X109508997Y-65802575D01*
X111655422Y-67949000D01*
X108828770Y-67949000D01*
X108787383Y-67740933D01*
X108701824Y-67534376D01*
X108577612Y-67348480D01*
X108419520Y-67190388D01*
X108233624Y-67066176D01*
X108027067Y-66980617D01*
X107807788Y-66937000D01*
X107584212Y-66937000D01*
X107364933Y-66980617D01*
X107158376Y-67066176D01*
X106972480Y-67190388D01*
X106814388Y-67348480D01*
X106690176Y-67534376D01*
X106604617Y-67740933D01*
X106561000Y-67960212D01*
X106561000Y-68183788D01*
X106604617Y-68403067D01*
X106690176Y-68609624D01*
X106814388Y-68795520D01*
X106972480Y-68953612D01*
X107074830Y-69022000D01*
X106972480Y-69090388D01*
X106814388Y-69248480D01*
X106690176Y-69434376D01*
X106604617Y-69640933D01*
X106561000Y-69860212D01*
X106561000Y-70083788D01*
X106604617Y-70303067D01*
X106690176Y-70509624D01*
X106814388Y-70695520D01*
X106972480Y-70853612D01*
X107158376Y-70977824D01*
X107364933Y-71063383D01*
X107584212Y-71107000D01*
X107807788Y-71107000D01*
X108027067Y-71063383D01*
X108233624Y-70977824D01*
X108419520Y-70853612D01*
X108518157Y-70754975D01*
X108556795Y-70848256D01*
X108589000Y-70896454D01*
X108589000Y-71050494D01*
X108584719Y-71093963D01*
X108589000Y-71137432D01*
X108589000Y-71137440D01*
X108595783Y-71206307D01*
X108601805Y-71267453D01*
X108652412Y-71434276D01*
X108734590Y-71588022D01*
X108817468Y-71689009D01*
X108817471Y-71689012D01*
X108845184Y-71722780D01*
X108878951Y-71750493D01*
X109395459Y-72267000D01*
X102151469Y-72267000D01*
X102108000Y-72262719D01*
X102064531Y-72267000D01*
X102064523Y-72267000D01*
X101934510Y-72279805D01*
X101767687Y-72330411D01*
X101613941Y-72412589D01*
X101512953Y-72495468D01*
X101512951Y-72495470D01*
X101479183Y-72523183D01*
X101451470Y-72556951D01*
X100548960Y-73459461D01*
X100476260Y-73445000D01*
X100183740Y-73445000D01*
X99896842Y-73502068D01*
X99626589Y-73614010D01*
X99383368Y-73776525D01*
X99176525Y-73983368D01*
X99014010Y-74226589D01*
X98902068Y-74496842D01*
X98845000Y-74783740D01*
X97260000Y-74783740D01*
X97260000Y-61760881D01*
X99078724Y-61760881D01*
X99438912Y-62250548D01*
X100102882Y-62610849D01*
X100824385Y-62834694D01*
X101575695Y-62913480D01*
X102327938Y-62844178D01*
X103052208Y-62629452D01*
X103720670Y-62277555D01*
X103761088Y-62250548D01*
X104121276Y-61760881D01*
X101600000Y-59239605D01*
X99078724Y-61760881D01*
X97260000Y-61760881D01*
X97260000Y-59089392D01*
X97264792Y-59035695D01*
X97746520Y-59035695D01*
X97815822Y-59787938D01*
X98030548Y-60512208D01*
X98382445Y-61180670D01*
X98409452Y-61221088D01*
X98899119Y-61581276D01*
X101420395Y-59060000D01*
X101779605Y-59060000D01*
X104300881Y-61581276D01*
X104790548Y-61221088D01*
X105150849Y-60557118D01*
X105374694Y-59835615D01*
X105453480Y-59084305D01*
X105384178Y-58332062D01*
X105169452Y-57607792D01*
X104817555Y-56939330D01*
X104790548Y-56898912D01*
X104300881Y-56538724D01*
X101779605Y-59060000D01*
X101420395Y-59060000D01*
X98899119Y-56538724D01*
X98409452Y-56898912D01*
X98049151Y-57562882D01*
X97825306Y-58284385D01*
X97746520Y-59035695D01*
X97264792Y-59035695D01*
X97331173Y-58291917D01*
X97534656Y-57548109D01*
X97866638Y-56852095D01*
X98220876Y-56359119D01*
X99078724Y-56359119D01*
X101600000Y-58880395D01*
X104121276Y-56359119D01*
X159078724Y-56359119D01*
X161600000Y-58880395D01*
X164121276Y-56359119D01*
X163761088Y-55869452D01*
X163097118Y-55509151D01*
X162375615Y-55285306D01*
X161624305Y-55206520D01*
X160872062Y-55275822D01*
X160147792Y-55490548D01*
X159479330Y-55842445D01*
X159438912Y-55869452D01*
X159078724Y-56359119D01*
X104121276Y-56359119D01*
X103761088Y-55869452D01*
X103097118Y-55509151D01*
X102375615Y-55285306D01*
X101624305Y-55206520D01*
X100872062Y-55275822D01*
X100147792Y-55490548D01*
X99479330Y-55842445D01*
X99438912Y-55869452D01*
X99078724Y-56359119D01*
X98220876Y-56359119D01*
X98316626Y-56225870D01*
X98870403Y-55689223D01*
X99510451Y-55259129D01*
X100216553Y-54949171D01*
X100971457Y-54767935D01*
X101624207Y-54720000D01*
X161570608Y-54720000D01*
X162368083Y-54791173D01*
%TA.AperFunction,Conductor*%
D21*
G36*
X162368083Y-54791173D02*
G01*
X163111891Y-54994656D01*
X163807905Y-55326638D01*
X164434130Y-55776626D01*
X164970777Y-56330403D01*
X165400871Y-56970451D01*
X165710829Y-57676553D01*
X165892065Y-58431457D01*
X165940001Y-59084220D01*
X165940000Y-99030608D01*
X165868827Y-99828083D01*
X165665344Y-100571890D01*
X165333363Y-101267904D01*
X164883374Y-101894130D01*
X164329597Y-102430777D01*
X163689549Y-102860871D01*
X162983447Y-103170829D01*
X162228543Y-103352065D01*
X161575793Y-103400000D01*
X101629392Y-103400000D01*
X100831917Y-103328827D01*
X100088110Y-103125344D01*
X99392096Y-102793363D01*
X98765870Y-102343374D01*
X98229223Y-101789597D01*
X98209927Y-101760881D01*
X99078724Y-101760881D01*
X99438912Y-102250548D01*
X100102882Y-102610849D01*
X100824385Y-102834694D01*
X101575695Y-102913480D01*
X102327938Y-102844178D01*
X103052208Y-102629452D01*
X103720670Y-102277555D01*
X103761088Y-102250548D01*
X104121276Y-101760881D01*
X159078724Y-101760881D01*
X159438912Y-102250548D01*
X160102882Y-102610849D01*
X160824385Y-102834694D01*
X161575695Y-102913480D01*
X162327938Y-102844178D01*
X163052208Y-102629452D01*
X163720670Y-102277555D01*
X163761088Y-102250548D01*
X164121276Y-101760881D01*
X161600000Y-99239605D01*
X159078724Y-101760881D01*
X104121276Y-101760881D01*
X101600000Y-99239605D01*
X99078724Y-101760881D01*
X98209927Y-101760881D01*
X97799129Y-101149549D01*
X97489171Y-100443447D01*
X97307935Y-99688543D01*
X97260000Y-99035793D01*
X97260000Y-99035695D01*
X97746520Y-99035695D01*
X97815822Y-99787938D01*
X98030548Y-100512208D01*
X98382445Y-101180670D01*
X98409452Y-101221088D01*
X98899119Y-101581276D01*
X101420395Y-99060000D01*
X101779605Y-99060000D01*
X104300881Y-101581276D01*
X104790548Y-101221088D01*
X105150849Y-100557118D01*
X105374694Y-99835615D01*
X105453480Y-99084305D01*
X105449002Y-99035695D01*
X157746520Y-99035695D01*
X157815822Y-99787938D01*
X158030548Y-100512208D01*
X158382445Y-101180670D01*
X158409452Y-101221088D01*
X158899119Y-101581276D01*
X161420395Y-99060000D01*
X161779605Y-99060000D01*
X164300881Y-101581276D01*
X164790548Y-101221088D01*
X165150849Y-100557118D01*
X165374694Y-99835615D01*
X165453480Y-99084305D01*
X165384178Y-98332062D01*
X165169452Y-97607792D01*
X164817555Y-96939330D01*
X164790548Y-96898912D01*
X164300881Y-96538724D01*
X161779605Y-99060000D01*
X161420395Y-99060000D01*
X158899119Y-96538724D01*
X158409452Y-96898912D01*
X158049151Y-97562882D01*
X157825306Y-98284385D01*
X157746520Y-99035695D01*
X105449002Y-99035695D01*
X105384178Y-98332062D01*
X105169452Y-97607792D01*
X104817555Y-96939330D01*
X104790548Y-96898912D01*
X104300881Y-96538724D01*
X101779605Y-99060000D01*
X101420395Y-99060000D01*
X98899119Y-96538724D01*
X98409452Y-96898912D01*
X98049151Y-97562882D01*
X97825306Y-98284385D01*
X97746520Y-99035695D01*
X97260000Y-99035695D01*
X97260000Y-96359119D01*
X99078724Y-96359119D01*
X101600000Y-98880395D01*
X104121276Y-96359119D01*
X103761088Y-95869452D01*
X103097118Y-95509151D01*
X102375615Y-95285306D01*
X101624305Y-95206520D01*
X100872062Y-95275822D01*
X100147792Y-95490548D01*
X99479330Y-95842445D01*
X99438912Y-95869452D01*
X99078724Y-96359119D01*
X97260000Y-96359119D01*
X97260000Y-91440000D01*
X105037815Y-91440000D01*
X105066487Y-91731111D01*
X105151401Y-92011034D01*
X105289294Y-92269014D01*
X105474866Y-92495134D01*
X105700986Y-92680706D01*
X105958966Y-92818599D01*
X106238889Y-92903513D01*
X106457050Y-92925000D01*
X106902950Y-92925000D01*
X107121111Y-92903513D01*
X107401034Y-92818599D01*
X107659014Y-92680706D01*
X107885134Y-92495134D01*
X108070706Y-92269014D01*
X108208599Y-92011034D01*
X108293513Y-91731111D01*
X108322185Y-91440000D01*
X108293513Y-91148889D01*
X108208599Y-90868966D01*
X108070706Y-90610986D01*
X107889392Y-90390055D01*
X107924180Y-90379502D01*
X108034494Y-90320537D01*
X108131185Y-90241185D01*
X108210537Y-90144494D01*
X108269502Y-90034180D01*
X108305812Y-89914482D01*
X108318072Y-89790000D01*
X108315000Y-89225750D01*
X108156250Y-89067000D01*
X106807000Y-89067000D01*
X106807000Y-89087000D01*
X106553000Y-89087000D01*
X106553000Y-89067000D01*
X105203750Y-89067000D01*
X105045000Y-89225750D01*
X105041928Y-89790000D01*
X105054188Y-89914482D01*
X105090498Y-90034180D01*
X105149463Y-90144494D01*
X105228815Y-90241185D01*
X105325506Y-90320537D01*
X105435820Y-90379502D01*
X105470608Y-90390055D01*
X105289294Y-90610986D01*
X105151401Y-90868966D01*
X105066487Y-91148889D01*
X105037815Y-91440000D01*
X97260000Y-91440000D01*
X97260000Y-88090000D01*
X105041928Y-88090000D01*
X105045000Y-88654250D01*
X105203750Y-88813000D01*
X106553000Y-88813000D01*
X106553000Y-87613750D01*
X106807000Y-87613750D01*
X106807000Y-88813000D01*
X108156250Y-88813000D01*
X108315000Y-88654250D01*
X108318072Y-88090000D01*
X108305812Y-87965518D01*
X108269502Y-87845820D01*
X108210537Y-87735506D01*
X108131185Y-87638815D01*
X108034494Y-87559463D01*
X107924180Y-87500498D01*
X107804482Y-87464188D01*
X107680000Y-87451928D01*
X106965750Y-87455000D01*
X106807000Y-87613750D01*
X106553000Y-87613750D01*
X106394250Y-87455000D01*
X105680000Y-87451928D01*
X105555518Y-87464188D01*
X105435820Y-87500498D01*
X105325506Y-87559463D01*
X105228815Y-87638815D01*
X105149463Y-87735506D01*
X105090498Y-87845820D01*
X105054188Y-87965518D01*
X105041928Y-88090000D01*
X97260000Y-88090000D01*
X97260000Y-77826891D01*
X98888519Y-77826891D01*
X98985843Y-78101252D01*
X99134822Y-78351355D01*
X99329731Y-78567588D01*
X99563080Y-78741641D01*
X99825901Y-78866825D01*
X99973110Y-78911476D01*
X100203000Y-78790155D01*
X100203000Y-77597000D01*
X99009186Y-77597000D01*
X98888519Y-77826891D01*
X97260000Y-77826891D01*
X97260000Y-74783740D01*
X98845000Y-74783740D01*
X98845000Y-75076260D01*
X98902068Y-75363158D01*
X99014010Y-75633411D01*
X99176525Y-75876632D01*
X99383368Y-76083475D01*
X99559406Y-76201100D01*
X99329731Y-76372412D01*
X99134822Y-76588645D01*
X98985843Y-76838748D01*
X98888519Y-77113109D01*
X99009186Y-77343000D01*
X100203000Y-77343000D01*
X100203000Y-77323000D01*
X100457000Y-77323000D01*
X100457000Y-77343000D01*
X100477000Y-77343000D01*
X100477000Y-77597000D01*
X100457000Y-77597000D01*
X100457000Y-78790155D01*
X100686890Y-78911476D01*
X100834099Y-78866825D01*
X101096920Y-78741641D01*
X101330269Y-78567588D01*
X101525178Y-78351355D01*
X101594805Y-78234466D01*
X101716525Y-78416632D01*
X101923368Y-78623475D01*
X101985001Y-78664657D01*
X101985001Y-79712521D01*
X101980719Y-79756000D01*
X101997805Y-79929490D01*
X102048412Y-80096313D01*
X102130590Y-80250059D01*
X102213468Y-80351046D01*
X102213471Y-80351049D01*
X102241184Y-80384817D01*
X102274951Y-80412529D01*
X102809471Y-80947050D01*
X102837184Y-80980818D01*
X102870952Y-81008531D01*
X102870954Y-81008533D01*
X102915389Y-81045000D01*
X102971942Y-81091412D01*
X103125688Y-81173590D01*
X103292511Y-81224196D01*
X103422524Y-81237001D01*
X103422532Y-81237001D01*
X103466001Y-81241282D01*
X103509470Y-81237001D01*
X117500446Y-81237001D01*
X117554102Y-81259226D01*
X117610956Y-81270535D01*
X117663420Y-81322999D01*
X113923470Y-81322999D01*
X113880001Y-81318718D01*
X113836532Y-81322999D01*
X113836524Y-81322999D01*
X113706511Y-81335804D01*
X113539688Y-81386410D01*
X113385942Y-81468588D01*
X113284954Y-81551467D01*
X113284952Y-81551469D01*
X113251184Y-81579182D01*
X113223471Y-81612950D01*
X112688956Y-82147466D01*
X112655183Y-82175183D01*
X112544589Y-82309942D01*
X112462411Y-82463688D01*
X112411805Y-82630511D01*
X112399000Y-82760524D01*
X112399000Y-82760531D01*
X112397497Y-82775796D01*
X112366795Y-82821744D01*
X112288774Y-83010102D01*
X112249000Y-83210061D01*
X112249000Y-83413939D01*
X112288774Y-83613898D01*
X112366795Y-83802256D01*
X112480063Y-83971774D01*
X112624226Y-84115937D01*
X112793744Y-84229205D01*
X112982102Y-84307226D01*
X113182061Y-84347000D01*
X113385939Y-84347000D01*
X113585898Y-84307226D01*
X113774256Y-84229205D01*
X113943774Y-84115937D01*
X114087937Y-83971774D01*
X114201205Y-83802256D01*
X114279226Y-83613898D01*
X114319000Y-83413939D01*
X114319000Y-83210061D01*
X114295715Y-83092999D01*
X114535000Y-83092999D01*
X114535000Y-83159939D01*
X114574774Y-83359898D01*
X114652795Y-83548256D01*
X114766063Y-83717774D01*
X114910226Y-83861937D01*
X115079744Y-83975205D01*
X115268102Y-84053226D01*
X115324957Y-84064535D01*
X115421466Y-84161044D01*
X115449183Y-84194817D01*
X115583941Y-84305411D01*
X115737687Y-84387589D01*
X115904510Y-84438195D01*
X116034523Y-84451000D01*
X116034533Y-84451000D01*
X116077999Y-84455281D01*
X116121465Y-84451000D01*
X119013422Y-84451000D01*
X119643465Y-85081044D01*
X119654774Y-85137898D01*
X119732795Y-85326256D01*
X119846063Y-85495774D01*
X119990226Y-85639937D01*
X120159744Y-85753205D01*
X120348102Y-85831226D01*
X120548061Y-85871000D01*
X120751939Y-85871000D01*
X120951898Y-85831226D01*
X121035001Y-85796804D01*
X121035000Y-87263422D01*
X120816959Y-87481463D01*
X120816953Y-87481468D01*
X119800951Y-88497471D01*
X119767184Y-88525183D01*
X119739471Y-88558951D01*
X119739468Y-88558954D01*
X119656590Y-88659941D01*
X119574412Y-88813687D01*
X119523805Y-88980510D01*
X119506719Y-89154000D01*
X119511001Y-89197479D01*
X119511000Y-90901545D01*
X119478795Y-90949744D01*
X119400774Y-91138102D01*
X119361000Y-91338061D01*
X119361000Y-91541939D01*
X119400774Y-91741898D01*
X119478795Y-91930256D01*
X119592063Y-92099774D01*
X119736226Y-92243937D01*
X119905744Y-92357205D01*
X120094102Y-92435226D01*
X120294061Y-92475000D01*
X120497939Y-92475000D01*
X120697898Y-92435226D01*
X120706000Y-92431870D01*
X120706000Y-93861531D01*
X120701719Y-93905000D01*
X120706000Y-93948469D01*
X120706000Y-93948476D01*
X120718805Y-94078489D01*
X120769411Y-94245312D01*
X120851589Y-94399058D01*
X120962183Y-94533817D01*
X120995956Y-94561534D01*
X121675465Y-95241044D01*
X121686774Y-95297898D01*
X121764795Y-95486256D01*
X121878063Y-95655774D01*
X122022226Y-95799937D01*
X122191744Y-95913205D01*
X122380102Y-95991226D01*
X122580061Y-96031000D01*
X122783939Y-96031000D01*
X122983898Y-95991226D01*
X123172256Y-95913205D01*
X123341774Y-95799937D01*
X123485937Y-95655774D01*
X123599205Y-95486256D01*
X123677226Y-95297898D01*
X123717000Y-95097939D01*
X123717000Y-94894061D01*
X123677226Y-94694102D01*
X123599205Y-94505744D01*
X123485937Y-94336226D01*
X123341774Y-94192063D01*
X123172256Y-94078795D01*
X122983898Y-94000774D01*
X122927044Y-93989465D01*
X122476000Y-93538422D01*
X122476000Y-92608061D01*
X127743000Y-92608061D01*
X127743000Y-92811939D01*
X127782774Y-93011898D01*
X127860795Y-93200256D01*
X127974063Y-93369774D01*
X128118226Y-93513937D01*
X128287744Y-93627205D01*
X128476102Y-93705226D01*
X128532957Y-93716535D01*
X131391481Y-96575060D01*
X131419194Y-96608828D01*
X131452962Y-96636541D01*
X131452964Y-96636543D01*
X131553951Y-96719421D01*
X131553952Y-96719422D01*
X131707698Y-96801600D01*
X131874521Y-96852206D01*
X132004534Y-96865011D01*
X132004542Y-96865011D01*
X132048011Y-96869292D01*
X132091480Y-96865011D01*
X140176520Y-96865011D01*
X140219989Y-96869292D01*
X140263458Y-96865011D01*
X140263466Y-96865011D01*
X140393479Y-96852206D01*
X140560302Y-96801600D01*
X140714048Y-96719422D01*
X140848806Y-96608828D01*
X140876523Y-96575055D01*
X141092459Y-96359119D01*
X159078724Y-96359119D01*
X161600000Y-98880395D01*
X164121276Y-96359119D01*
X163761088Y-95869452D01*
X163097118Y-95509151D01*
X162375615Y-95285306D01*
X161624305Y-95206520D01*
X160872062Y-95275822D01*
X160147792Y-95490548D01*
X159479330Y-95842445D01*
X159438912Y-95869452D01*
X159078724Y-96359119D01*
X141092459Y-96359119D01*
X142001040Y-95450539D01*
X142073740Y-95465000D01*
X142366260Y-95465000D01*
X142653158Y-95407932D01*
X142923411Y-95295990D01*
X143166632Y-95133475D01*
X143298487Y-95001620D01*
X143320498Y-95074180D01*
X143379463Y-95184494D01*
X143458815Y-95281185D01*
X143555506Y-95360537D01*
X143665820Y-95419502D01*
X143785518Y-95455812D01*
X143910000Y-95468072D01*
X144474250Y-95465000D01*
X144633000Y-95306250D01*
X144633000Y-94107000D01*
X144613000Y-94107000D01*
X144613000Y-93853000D01*
X144633000Y-93853000D01*
X144633000Y-93833000D01*
X144887000Y-93833000D01*
X144887000Y-93853000D01*
X144907000Y-93853000D01*
X144907000Y-94107000D01*
X144887000Y-94107000D01*
X144887000Y-95306250D01*
X145045750Y-95465000D01*
X145610000Y-95468072D01*
X145734482Y-95455812D01*
X145854180Y-95419502D01*
X145964494Y-95360537D01*
X146061185Y-95281185D01*
X146140537Y-95184494D01*
X146199502Y-95074180D01*
X146226168Y-94986275D01*
X146373368Y-95133475D01*
X146616589Y-95295990D01*
X146886842Y-95407932D01*
X147173740Y-95465000D01*
X147466260Y-95465000D01*
X147753158Y-95407932D01*
X148023411Y-95295990D01*
X148266632Y-95133475D01*
X148473475Y-94926632D01*
X148590000Y-94752240D01*
X148706525Y-94926632D01*
X148913368Y-95133475D01*
X149156589Y-95295990D01*
X149426842Y-95407932D01*
X149713740Y-95465000D01*
X150006260Y-95465000D01*
X150293158Y-95407932D01*
X150563411Y-95295990D01*
X150806632Y-95133475D01*
X151013475Y-94926632D01*
X151130000Y-94752240D01*
X151246525Y-94926632D01*
X151453368Y-95133475D01*
X151696589Y-95295990D01*
X151966842Y-95407932D01*
X152253740Y-95465000D01*
X152546260Y-95465000D01*
X152833158Y-95407932D01*
X153103411Y-95295990D01*
X153346632Y-95133475D01*
X153553475Y-94926632D01*
X153670000Y-94752240D01*
X153786525Y-94926632D01*
X153993368Y-95133475D01*
X154236589Y-95295990D01*
X154506842Y-95407932D01*
X154793740Y-95465000D01*
X155086260Y-95465000D01*
X155373158Y-95407932D01*
X155643411Y-95295990D01*
X155886632Y-95133475D01*
X156093475Y-94926632D01*
X156210000Y-94752240D01*
X156326525Y-94926632D01*
X156533368Y-95133475D01*
X156776589Y-95295990D01*
X157046842Y-95407932D01*
X157333740Y-95465000D01*
X157626260Y-95465000D01*
X157913158Y-95407932D01*
X158183411Y-95295990D01*
X158426632Y-95133475D01*
X158633475Y-94926632D01*
X158795990Y-94683411D01*
X158907932Y-94413158D01*
X158965000Y-94126260D01*
X158965000Y-93833740D01*
X158907932Y-93546842D01*
X158795990Y-93276589D01*
X158633475Y-93033368D01*
X158426632Y-92826525D01*
X158252240Y-92710000D01*
X158426632Y-92593475D01*
X158633475Y-92386632D01*
X158750000Y-92212240D01*
X158866525Y-92386632D01*
X159073368Y-92593475D01*
X159316589Y-92755990D01*
X159586842Y-92867932D01*
X159873740Y-92925000D01*
X160166260Y-92925000D01*
X160453158Y-92867932D01*
X160723411Y-92755990D01*
X160966632Y-92593475D01*
X161173475Y-92386632D01*
X161290000Y-92212240D01*
X161406525Y-92386632D01*
X161613368Y-92593475D01*
X161856589Y-92755990D01*
X162126842Y-92867932D01*
X162413740Y-92925000D01*
X162706260Y-92925000D01*
X162993158Y-92867932D01*
X163263411Y-92755990D01*
X163506632Y-92593475D01*
X163713475Y-92386632D01*
X163875990Y-92143411D01*
X163987932Y-91873158D01*
X164045000Y-91586260D01*
X164045000Y-91293740D01*
X163987932Y-91006842D01*
X163875990Y-90736589D01*
X163713475Y-90493368D01*
X163506632Y-90286525D01*
X163332240Y-90170000D01*
X163506632Y-90053475D01*
X163713475Y-89846632D01*
X163875990Y-89603411D01*
X163987932Y-89333158D01*
X164045000Y-89046260D01*
X164045000Y-88753740D01*
X163987932Y-88466842D01*
X163875990Y-88196589D01*
X163713475Y-87953368D01*
X163506632Y-87746525D01*
X163332240Y-87630000D01*
X163506632Y-87513475D01*
X163713475Y-87306632D01*
X163875990Y-87063411D01*
X163987932Y-86793158D01*
X164045000Y-86506260D01*
X164045000Y-86213740D01*
X163987932Y-85926842D01*
X163875990Y-85656589D01*
X163713475Y-85413368D01*
X163506632Y-85206525D01*
X163332240Y-85090000D01*
X163506632Y-84973475D01*
X163713475Y-84766632D01*
X163875990Y-84523411D01*
X163987932Y-84253158D01*
X164045000Y-83966260D01*
X164045000Y-83673740D01*
X163987932Y-83386842D01*
X163875990Y-83116589D01*
X163713475Y-82873368D01*
X163506632Y-82666525D01*
X163332240Y-82550000D01*
X163506632Y-82433475D01*
X163713475Y-82226632D01*
X163875990Y-81983411D01*
X163987932Y-81713158D01*
X164045000Y-81426260D01*
X164045000Y-81133740D01*
X163987932Y-80846842D01*
X163875990Y-80576589D01*
X163713475Y-80333368D01*
X163506632Y-80126525D01*
X163332240Y-80010000D01*
X163506632Y-79893475D01*
X163713475Y-79686632D01*
X163875990Y-79443411D01*
X163987932Y-79173158D01*
X164045000Y-78886260D01*
X164045000Y-78593740D01*
X163987932Y-78306842D01*
X163875990Y-78036589D01*
X163713475Y-77793368D01*
X163506632Y-77586525D01*
X163332240Y-77470000D01*
X163506632Y-77353475D01*
X163713475Y-77146632D01*
X163875990Y-76903411D01*
X163987932Y-76633158D01*
X164045000Y-76346260D01*
X164045000Y-76053740D01*
X163987932Y-75766842D01*
X163875990Y-75496589D01*
X163713475Y-75253368D01*
X163506632Y-75046525D01*
X163332240Y-74930000D01*
X163506632Y-74813475D01*
X163713475Y-74606632D01*
X163875990Y-74363411D01*
X163987932Y-74093158D01*
X164045000Y-73806260D01*
X164045000Y-73513740D01*
X163987932Y-73226842D01*
X163875990Y-72956589D01*
X163713475Y-72713368D01*
X163506632Y-72506525D01*
X163332240Y-72390000D01*
X163506632Y-72273475D01*
X163713475Y-72066632D01*
X163875990Y-71823411D01*
X163987932Y-71553158D01*
X164045000Y-71266260D01*
X164045000Y-70973740D01*
X163987932Y-70686842D01*
X163875990Y-70416589D01*
X163713475Y-70173368D01*
X163506632Y-69966525D01*
X163332240Y-69850000D01*
X163506632Y-69733475D01*
X163713475Y-69526632D01*
X163875990Y-69283411D01*
X163987932Y-69013158D01*
X164045000Y-68726260D01*
X164045000Y-68433740D01*
X163987932Y-68146842D01*
X163875990Y-67876589D01*
X163713475Y-67633368D01*
X163506632Y-67426525D01*
X163332240Y-67310000D01*
X163506632Y-67193475D01*
X163713475Y-66986632D01*
X163875990Y-66743411D01*
X163987932Y-66473158D01*
X164045000Y-66186260D01*
X164045000Y-65893740D01*
X163987932Y-65606842D01*
X163875990Y-65336589D01*
X163713475Y-65093368D01*
X163506632Y-64886525D01*
X163263411Y-64724010D01*
X162993158Y-64612068D01*
X162706260Y-64555000D01*
X162413740Y-64555000D01*
X162126842Y-64612068D01*
X161856589Y-64724010D01*
X161613368Y-64886525D01*
X161406525Y-65093368D01*
X161290000Y-65267760D01*
X161173475Y-65093368D01*
X160966632Y-64886525D01*
X160723411Y-64724010D01*
X160453158Y-64612068D01*
X160166260Y-64555000D01*
X159873740Y-64555000D01*
X159586842Y-64612068D01*
X159316589Y-64724010D01*
X159073368Y-64886525D01*
X158866525Y-65093368D01*
X158750000Y-65267760D01*
X158633475Y-65093368D01*
X158426632Y-64886525D01*
X158252240Y-64770000D01*
X158426632Y-64653475D01*
X158633475Y-64446632D01*
X158795990Y-64203411D01*
X158907932Y-63933158D01*
X158965000Y-63646260D01*
X158965000Y-63353740D01*
X158907932Y-63066842D01*
X158795990Y-62796589D01*
X158633475Y-62553368D01*
X158426632Y-62346525D01*
X158183411Y-62184010D01*
X157913158Y-62072068D01*
X157626260Y-62015000D01*
X157333740Y-62015000D01*
X157046842Y-62072068D01*
X156776589Y-62184010D01*
X156533368Y-62346525D01*
X156326525Y-62553368D01*
X156210000Y-62727760D01*
X156093475Y-62553368D01*
X155886632Y-62346525D01*
X155712240Y-62230000D01*
X155886632Y-62113475D01*
X156093475Y-61906632D01*
X156190862Y-61760881D01*
X159078724Y-61760881D01*
X159438912Y-62250548D01*
X160102882Y-62610849D01*
X160824385Y-62834694D01*
X161575695Y-62913480D01*
X162327938Y-62844178D01*
X163052208Y-62629452D01*
X163720670Y-62277555D01*
X163761088Y-62250548D01*
X164121276Y-61760881D01*
X161600000Y-59239605D01*
X159078724Y-61760881D01*
X156190862Y-61760881D01*
X156255990Y-61663411D01*
X156367932Y-61393158D01*
X156425000Y-61106260D01*
X156425000Y-60813740D01*
X156367932Y-60526842D01*
X156255990Y-60256589D01*
X156093475Y-60013368D01*
X155886632Y-59806525D01*
X155712240Y-59690000D01*
X155886632Y-59573475D01*
X156093475Y-59366632D01*
X156255990Y-59123411D01*
X156292323Y-59035695D01*
X157746520Y-59035695D01*
X157815822Y-59787938D01*
X158030548Y-60512208D01*
X158382445Y-61180670D01*
X158409452Y-61221088D01*
X158899119Y-61581276D01*
X161420395Y-59060000D01*
X161779605Y-59060000D01*
X164300881Y-61581276D01*
X164790548Y-61221088D01*
X165150849Y-60557118D01*
X165374694Y-59835615D01*
X165453480Y-59084305D01*
X165384178Y-58332062D01*
X165169452Y-57607792D01*
X164817555Y-56939330D01*
X164790548Y-56898912D01*
X164300881Y-56538724D01*
X161779605Y-59060000D01*
X161420395Y-59060000D01*
X158899119Y-56538724D01*
X158409452Y-56898912D01*
X158049151Y-57562882D01*
X157825306Y-58284385D01*
X157746520Y-59035695D01*
X156292323Y-59035695D01*
X156367932Y-58853158D01*
X156425000Y-58566260D01*
X156425000Y-58273740D01*
X156367932Y-57986842D01*
X156255990Y-57716589D01*
X156093475Y-57473368D01*
X155886632Y-57266525D01*
X155643411Y-57104010D01*
X155373158Y-56992068D01*
X155086260Y-56935000D01*
X154793740Y-56935000D01*
X154506842Y-56992068D01*
X154236589Y-57104010D01*
X153993368Y-57266525D01*
X153786525Y-57473368D01*
X153670000Y-57647760D01*
X153553475Y-57473368D01*
X153346632Y-57266525D01*
X153103411Y-57104010D01*
X152833158Y-56992068D01*
X152546260Y-56935000D01*
X152253740Y-56935000D01*
X151966842Y-56992068D01*
X151696589Y-57104010D01*
X151453368Y-57266525D01*
X151246525Y-57473368D01*
X151130000Y-57647760D01*
X151013475Y-57473368D01*
X150806632Y-57266525D01*
X150563411Y-57104010D01*
X150293158Y-56992068D01*
X150006260Y-56935000D01*
X149713740Y-56935000D01*
X149426842Y-56992068D01*
X149156589Y-57104010D01*
X148913368Y-57266525D01*
X148706525Y-57473368D01*
X148590000Y-57647760D01*
X148473475Y-57473368D01*
X148266632Y-57266525D01*
X148023411Y-57104010D01*
X147753158Y-56992068D01*
X147466260Y-56935000D01*
X147173740Y-56935000D01*
X146886842Y-56992068D01*
X146616589Y-57104010D01*
X146373368Y-57266525D01*
X146166525Y-57473368D01*
X146050000Y-57647760D01*
X145933475Y-57473368D01*
X145726632Y-57266525D01*
X145483411Y-57104010D01*
X145213158Y-56992068D01*
X144926260Y-56935000D01*
X144633740Y-56935000D01*
X144346842Y-56992068D01*
X144076589Y-57104010D01*
X143833368Y-57266525D01*
X143626525Y-57473368D01*
X143510000Y-57647760D01*
X143393475Y-57473368D01*
X143186632Y-57266525D01*
X142943411Y-57104010D01*
X142673158Y-56992068D01*
X142386260Y-56935000D01*
X142093740Y-56935000D01*
X141806842Y-56992068D01*
X141536589Y-57104010D01*
X141293368Y-57266525D01*
X141086525Y-57473368D01*
X140970000Y-57647760D01*
X140853475Y-57473368D01*
X140646632Y-57266525D01*
X140403411Y-57104010D01*
X140133158Y-56992068D01*
X139846260Y-56935000D01*
X139553740Y-56935000D01*
X139266842Y-56992068D01*
X138996589Y-57104010D01*
X138753368Y-57266525D01*
X138546525Y-57473368D01*
X138430000Y-57647760D01*
X138313475Y-57473368D01*
X138106632Y-57266525D01*
X137863411Y-57104010D01*
X137593158Y-56992068D01*
X137306260Y-56935000D01*
X137013740Y-56935000D01*
X136726842Y-56992068D01*
X136456589Y-57104010D01*
X136213368Y-57266525D01*
X136006525Y-57473368D01*
X135890000Y-57647760D01*
X135773475Y-57473368D01*
X135566632Y-57266525D01*
X135323411Y-57104010D01*
X135053158Y-56992068D01*
X134766260Y-56935000D01*
X134473740Y-56935000D01*
X134186842Y-56992068D01*
X133916589Y-57104010D01*
X133673368Y-57266525D01*
X133466525Y-57473368D01*
X133304010Y-57716589D01*
X133192068Y-57986842D01*
X133135000Y-58273740D01*
X133135000Y-58566260D01*
X133192068Y-58853158D01*
X133304010Y-59123411D01*
X133466525Y-59366632D01*
X133673368Y-59573475D01*
X133847760Y-59690000D01*
X133673368Y-59806525D01*
X133466525Y-60013368D01*
X133304010Y-60256589D01*
X133192068Y-60526842D01*
X133135000Y-60813740D01*
X133135000Y-61106260D01*
X133192068Y-61393158D01*
X133304010Y-61663411D01*
X133466525Y-61906632D01*
X133673368Y-62113475D01*
X133847760Y-62230000D01*
X133673368Y-62346525D01*
X133466525Y-62553368D01*
X133440202Y-62592764D01*
X133349987Y-62457748D01*
X133122252Y-62230013D01*
X132854463Y-62051082D01*
X132556912Y-61927832D01*
X132241033Y-61865000D01*
X131918967Y-61865000D01*
X131603088Y-61927832D01*
X131305537Y-62051082D01*
X131037748Y-62230013D01*
X130810013Y-62457748D01*
X130631082Y-62725537D01*
X130507832Y-63023088D01*
X130445000Y-63338967D01*
X130445000Y-63661033D01*
X130507832Y-63976912D01*
X130631082Y-64274463D01*
X130810013Y-64542252D01*
X131037748Y-64769987D01*
X131037767Y-64770000D01*
X131037748Y-64770013D01*
X130810013Y-64997748D01*
X130631082Y-65265537D01*
X130507832Y-65563088D01*
X130445000Y-65878967D01*
X130445000Y-66201033D01*
X130507832Y-66516912D01*
X130631082Y-66814463D01*
X130810013Y-67082252D01*
X131037748Y-67309987D01*
X131037767Y-67310000D01*
X131037748Y-67310013D01*
X130810013Y-67537748D01*
X130631082Y-67805537D01*
X130507832Y-68103088D01*
X130445000Y-68418967D01*
X130445000Y-68741033D01*
X130507832Y-69056912D01*
X130631082Y-69354463D01*
X130810013Y-69622252D01*
X131037748Y-69849987D01*
X131037767Y-69850000D01*
X131037748Y-69850013D01*
X130810013Y-70077748D01*
X130631082Y-70345537D01*
X130507832Y-70643088D01*
X130445000Y-70958967D01*
X130445000Y-71281033D01*
X130507832Y-71596912D01*
X130631082Y-71894463D01*
X130810013Y-72162252D01*
X131037748Y-72389987D01*
X131037767Y-72390000D01*
X131037748Y-72390013D01*
X130810013Y-72617748D01*
X130631082Y-72885537D01*
X130507832Y-73183088D01*
X130445000Y-73498967D01*
X130445000Y-73821033D01*
X130507832Y-74136912D01*
X130631082Y-74434463D01*
X130810013Y-74702252D01*
X131037748Y-74929987D01*
X131037767Y-74930000D01*
X131037748Y-74930013D01*
X130810013Y-75157748D01*
X130631082Y-75425537D01*
X130507832Y-75723088D01*
X130445000Y-76038967D01*
X130445000Y-76361033D01*
X130481897Y-76546525D01*
X130034950Y-76993472D01*
X130001183Y-77021184D01*
X129973470Y-77054952D01*
X129973467Y-77054955D01*
X129890589Y-77155942D01*
X129808411Y-77309688D01*
X129757804Y-77476511D01*
X129740718Y-77650001D01*
X129745000Y-77693480D01*
X129744999Y-87865000D01*
X129678060Y-87865000D01*
X129478101Y-87904774D01*
X129289743Y-87982795D01*
X129120225Y-88096063D01*
X128976062Y-88240226D01*
X128862794Y-88409744D01*
X128784773Y-88598102D01*
X128744999Y-88798061D01*
X128744999Y-89001939D01*
X128784773Y-89201898D01*
X128862794Y-89390256D01*
X128895000Y-89438456D01*
X128894999Y-91677996D01*
X128879939Y-91675000D01*
X128676061Y-91675000D01*
X128476102Y-91714774D01*
X128287744Y-91792795D01*
X128118226Y-91906063D01*
X127974063Y-92050226D01*
X127860795Y-92219744D01*
X127782774Y-92408102D01*
X127743000Y-92608061D01*
X122476000Y-92608061D01*
X122476000Y-90021454D01*
X122508205Y-89973256D01*
X122586226Y-89784898D01*
X122626000Y-89584939D01*
X122626000Y-89381061D01*
X122586226Y-89181102D01*
X122508205Y-88992744D01*
X122394937Y-88823226D01*
X122250774Y-88679063D01*
X122173888Y-88627690D01*
X122515045Y-88286533D01*
X122548817Y-88258817D01*
X122659411Y-88124059D01*
X122741589Y-87970313D01*
X122792195Y-87803490D01*
X122805000Y-87673477D01*
X122805000Y-87673467D01*
X122809281Y-87630001D01*
X122805000Y-87586535D01*
X122805000Y-85796804D01*
X122888102Y-85831226D01*
X123088061Y-85871000D01*
X123291939Y-85871000D01*
X123491898Y-85831226D01*
X123680256Y-85753205D01*
X123849774Y-85639937D01*
X123993937Y-85495774D01*
X124107205Y-85326256D01*
X124185226Y-85137898D01*
X124225000Y-84937939D01*
X124225000Y-84734061D01*
X124185226Y-84534102D01*
X124107205Y-84345744D01*
X124075000Y-84297546D01*
X124075000Y-84117469D01*
X124079281Y-84074000D01*
X124075000Y-84030531D01*
X124075000Y-84030523D01*
X124062195Y-83900510D01*
X124011589Y-83733687D01*
X123929411Y-83579941D01*
X123899431Y-83543410D01*
X123846532Y-83478953D01*
X123846530Y-83478951D01*
X123818817Y-83445183D01*
X123785050Y-83417471D01*
X122112589Y-81745011D01*
X122296520Y-81745011D01*
X122339989Y-81749292D01*
X122383458Y-81745011D01*
X122383466Y-81745011D01*
X122513479Y-81732206D01*
X122680302Y-81681600D01*
X122834048Y-81599422D01*
X122968806Y-81488828D01*
X122996523Y-81455055D01*
X125441001Y-79010578D01*
X125441002Y-88953419D01*
X124214957Y-90179465D01*
X124158102Y-90190774D01*
X123969744Y-90268795D01*
X123800226Y-90382063D01*
X123656063Y-90526226D01*
X123542795Y-90695744D01*
X123464774Y-90884102D01*
X123425000Y-91084061D01*
X123425000Y-91287939D01*
X123464774Y-91487898D01*
X123542795Y-91676256D01*
X123656063Y-91845774D01*
X123800226Y-91989937D01*
X123969744Y-92103205D01*
X124158102Y-92181226D01*
X124358061Y-92221000D01*
X124561939Y-92221000D01*
X124761898Y-92181226D01*
X124950256Y-92103205D01*
X125119774Y-91989937D01*
X125263937Y-91845774D01*
X125377205Y-91676256D01*
X125455226Y-91487898D01*
X125466535Y-91431043D01*
X126921050Y-89976529D01*
X126954818Y-89948816D01*
X126982996Y-89914482D01*
X127065412Y-89814058D01*
X127147589Y-89660313D01*
X127147590Y-89660312D01*
X127198196Y-89493489D01*
X127211001Y-89363476D01*
X127211001Y-89363468D01*
X127215282Y-89319999D01*
X127211001Y-89276530D01*
X127211001Y-77063554D01*
X127233226Y-77009898D01*
X127273000Y-76809939D01*
X127273000Y-76606061D01*
X127233226Y-76406102D01*
X127155205Y-76217744D01*
X127041937Y-76048226D01*
X126897774Y-75904063D01*
X126728256Y-75790795D01*
X126539898Y-75712774D01*
X126483044Y-75701465D01*
X123846540Y-73064962D01*
X123818823Y-73031189D01*
X123684065Y-72920595D01*
X123530319Y-72838417D01*
X123363496Y-72787811D01*
X123233483Y-72775006D01*
X123233475Y-72775006D01*
X123190006Y-72770725D01*
X123146537Y-72775006D01*
X121188454Y-72775006D01*
X121140256Y-72742801D01*
X120951898Y-72664780D01*
X120751939Y-72625006D01*
X120548061Y-72625006D01*
X120348102Y-72664780D01*
X120159744Y-72742801D01*
X120011000Y-72842188D01*
X120011000Y-70879219D01*
X120040061Y-70885000D01*
X120243939Y-70885000D01*
X120443898Y-70845226D01*
X120632256Y-70767205D01*
X120801774Y-70653937D01*
X120945937Y-70509774D01*
X121059205Y-70340256D01*
X121137226Y-70151898D01*
X121177000Y-69951939D01*
X121177000Y-69748061D01*
X121137226Y-69548102D01*
X121059205Y-69359744D01*
X121027000Y-69311546D01*
X121027000Y-61021163D01*
X121055774Y-61001937D01*
X121199937Y-60857774D01*
X121313205Y-60688256D01*
X121391226Y-60499898D01*
X121431000Y-60299939D01*
X121431000Y-60096061D01*
X121391226Y-59896102D01*
X121313205Y-59707744D01*
X121199937Y-59538226D01*
X121055774Y-59394063D01*
X120886256Y-59280795D01*
X120697898Y-59202774D01*
X120497939Y-59163000D01*
X120294061Y-59163000D01*
X120094102Y-59202774D01*
X119905744Y-59280795D01*
X119736226Y-59394063D01*
X119592063Y-59538226D01*
X119478795Y-59707744D01*
X119400774Y-59896102D01*
X119380107Y-60000005D01*
X119320412Y-60111687D01*
X119269805Y-60278510D01*
X119252719Y-60452000D01*
X119257001Y-60495479D01*
X119257000Y-67459421D01*
X115814535Y-64016957D01*
X115803226Y-63960102D01*
X115725205Y-63771744D01*
X115611937Y-63602226D01*
X115467774Y-63458063D01*
X115298256Y-63344795D01*
X115109898Y-63266774D01*
X114909939Y-63227000D01*
X114706061Y-63227000D01*
X114506102Y-63266774D01*
X114317744Y-63344795D01*
X114148226Y-63458063D01*
X114004063Y-63602226D01*
X113890795Y-63771744D01*
X113812774Y-63960102D01*
X113773000Y-64160061D01*
X113773000Y-64363939D01*
X113812774Y-64563898D01*
X113890795Y-64752256D01*
X114004063Y-64921774D01*
X114148226Y-65065937D01*
X114317744Y-65179205D01*
X114506102Y-65257226D01*
X114562957Y-65268535D01*
X118109421Y-68815000D01*
X118008061Y-68815000D01*
X117808102Y-68854774D01*
X117619744Y-68932795D01*
X117571546Y-68965000D01*
X115359465Y-68965000D01*
X115315999Y-68960719D01*
X115272533Y-68965000D01*
X115272523Y-68965000D01*
X115183361Y-68973782D01*
X110989045Y-64779467D01*
X110989045Y-60868409D01*
X111021250Y-60820211D01*
X111099271Y-60631853D01*
X111139045Y-60431894D01*
X111139045Y-60228016D01*
X111099271Y-60028057D01*
X111021250Y-59839699D01*
X110907982Y-59670181D01*
X110763819Y-59526018D01*
X110594301Y-59412750D01*
X110405943Y-59334729D01*
X110205984Y-59294955D01*
X110002106Y-59294955D01*
X109802147Y-59334729D01*
X109613789Y-59412750D01*
X109565591Y-59444955D01*
X108623511Y-59444955D01*
X108580044Y-59440674D01*
X108536578Y-59444955D01*
X108536568Y-59444955D01*
X108406555Y-59457760D01*
X108239732Y-59508366D01*
X108085986Y-59590544D01*
X108085984Y-59590545D01*
X108085985Y-59590545D01*
X107984998Y-59673423D01*
X107984996Y-59673425D01*
X107951228Y-59701138D01*
X107923515Y-59734906D01*
X102624957Y-65033465D01*
X102568102Y-65044774D01*
X102379744Y-65122795D01*
X102210226Y-65236063D01*
X102066063Y-65380226D01*
X101952795Y-65549744D01*
X101874774Y-65738102D01*
X101835000Y-65938061D01*
X101835000Y-66141939D01*
X101874774Y-66341898D01*
X101952795Y-66530256D01*
X102066063Y-66699774D01*
X102210226Y-66843937D01*
X102379744Y-66957205D01*
X102568102Y-67035226D01*
X102768061Y-67075000D01*
X102971939Y-67075000D01*
X103171898Y-67035226D01*
X103360256Y-66957205D01*
X103529774Y-66843937D01*
X103673937Y-66699774D01*
X103787205Y-66530256D01*
X103865226Y-66341898D01*
X103876535Y-66285043D01*
X108946624Y-61214955D01*
X109219045Y-61214955D01*
X109219046Y-65102566D01*
X109214764Y-65146045D01*
X109231850Y-65319535D01*
X109282457Y-65486358D01*
X109364635Y-65640104D01*
X109447513Y-65741091D01*
X109447516Y-65741094D01*
X109475229Y-65774862D01*
X109508997Y-65802575D01*
X111655422Y-67949000D01*
X108828770Y-67949000D01*
X108787383Y-67740933D01*
X108701824Y-67534376D01*
X108577612Y-67348480D01*
X108419520Y-67190388D01*
X108233624Y-67066176D01*
X108027067Y-66980617D01*
X107807788Y-66937000D01*
X107584212Y-66937000D01*
X107364933Y-66980617D01*
X107158376Y-67066176D01*
X106972480Y-67190388D01*
X106814388Y-67348480D01*
X106690176Y-67534376D01*
X106604617Y-67740933D01*
X106561000Y-67960212D01*
X106561000Y-68183788D01*
X106604617Y-68403067D01*
X106690176Y-68609624D01*
X106814388Y-68795520D01*
X106972480Y-68953612D01*
X107074830Y-69022000D01*
X106972480Y-69090388D01*
X106814388Y-69248480D01*
X106690176Y-69434376D01*
X106604617Y-69640933D01*
X106561000Y-69860212D01*
X106561000Y-70083788D01*
X106604617Y-70303067D01*
X106690176Y-70509624D01*
X106814388Y-70695520D01*
X106972480Y-70853612D01*
X107158376Y-70977824D01*
X107364933Y-71063383D01*
X107584212Y-71107000D01*
X107807788Y-71107000D01*
X108027067Y-71063383D01*
X108233624Y-70977824D01*
X108419520Y-70853612D01*
X108518157Y-70754975D01*
X108556795Y-70848256D01*
X108589000Y-70896454D01*
X108589000Y-71050494D01*
X108584719Y-71093963D01*
X108589000Y-71137432D01*
X108589000Y-71137440D01*
X108595783Y-71206307D01*
X108601805Y-71267453D01*
X108652412Y-71434276D01*
X108734590Y-71588022D01*
X108817468Y-71689009D01*
X108817471Y-71689012D01*
X108845184Y-71722780D01*
X108878951Y-71750493D01*
X109395459Y-72267000D01*
X102151469Y-72267000D01*
X102108000Y-72262719D01*
X102064531Y-72267000D01*
X102064523Y-72267000D01*
X101934510Y-72279805D01*
X101767687Y-72330411D01*
X101613941Y-72412589D01*
X101512953Y-72495468D01*
X101512951Y-72495470D01*
X101479183Y-72523183D01*
X101451470Y-72556951D01*
X100548960Y-73459461D01*
X100476260Y-73445000D01*
X100183740Y-73445000D01*
X99896842Y-73502068D01*
X99626589Y-73614010D01*
X99383368Y-73776525D01*
X99176525Y-73983368D01*
X99014010Y-74226589D01*
X98902068Y-74496842D01*
X98845000Y-74783740D01*
X97260000Y-74783740D01*
X97260000Y-61760881D01*
X99078724Y-61760881D01*
X99438912Y-62250548D01*
X100102882Y-62610849D01*
X100824385Y-62834694D01*
X101575695Y-62913480D01*
X102327938Y-62844178D01*
X103052208Y-62629452D01*
X103720670Y-62277555D01*
X103761088Y-62250548D01*
X104121276Y-61760881D01*
X101600000Y-59239605D01*
X99078724Y-61760881D01*
X97260000Y-61760881D01*
X97260000Y-59089392D01*
X97264792Y-59035695D01*
X97746520Y-59035695D01*
X97815822Y-59787938D01*
X98030548Y-60512208D01*
X98382445Y-61180670D01*
X98409452Y-61221088D01*
X98899119Y-61581276D01*
X101420395Y-59060000D01*
X101779605Y-59060000D01*
X104300881Y-61581276D01*
X104790548Y-61221088D01*
X105150849Y-60557118D01*
X105374694Y-59835615D01*
X105453480Y-59084305D01*
X105384178Y-58332062D01*
X105169452Y-57607792D01*
X104817555Y-56939330D01*
X104790548Y-56898912D01*
X104300881Y-56538724D01*
X101779605Y-59060000D01*
X101420395Y-59060000D01*
X98899119Y-56538724D01*
X98409452Y-56898912D01*
X98049151Y-57562882D01*
X97825306Y-58284385D01*
X97746520Y-59035695D01*
X97264792Y-59035695D01*
X97331173Y-58291917D01*
X97534656Y-57548109D01*
X97866638Y-56852095D01*
X98220876Y-56359119D01*
X99078724Y-56359119D01*
X101600000Y-58880395D01*
X104121276Y-56359119D01*
X159078724Y-56359119D01*
X161600000Y-58880395D01*
X164121276Y-56359119D01*
X163761088Y-55869452D01*
X163097118Y-55509151D01*
X162375615Y-55285306D01*
X161624305Y-55206520D01*
X160872062Y-55275822D01*
X160147792Y-55490548D01*
X159479330Y-55842445D01*
X159438912Y-55869452D01*
X159078724Y-56359119D01*
X104121276Y-56359119D01*
X103761088Y-55869452D01*
X103097118Y-55509151D01*
X102375615Y-55285306D01*
X101624305Y-55206520D01*
X100872062Y-55275822D01*
X100147792Y-55490548D01*
X99479330Y-55842445D01*
X99438912Y-55869452D01*
X99078724Y-56359119D01*
X98220876Y-56359119D01*
X98316626Y-56225870D01*
X98870403Y-55689223D01*
X99510451Y-55259129D01*
X100216553Y-54949171D01*
X100971457Y-54767935D01*
X101624207Y-54720000D01*
X161570608Y-54720000D01*
X162368083Y-54791173D01*
G37*
%TD.AperFunction*%
D20*
X104256525Y-78416632D02*
X104463368Y-78623475D01*
X104706589Y-78785990D01*
X104976842Y-78897932D01*
X105263740Y-78955000D01*
X105556260Y-78955000D01*
X105843158Y-78897932D01*
X106113411Y-78785990D01*
X106356632Y-78623475D01*
X106563475Y-78416632D01*
X106604656Y-78355000D01*
X108001882Y-78355000D01*
X108048795Y-78468256D01*
X108162063Y-78637774D01*
X108306226Y-78781937D01*
X108475744Y-78895205D01*
X108664102Y-78973226D01*
X108864061Y-79013000D01*
X109067939Y-79013000D01*
X109267898Y-78973226D01*
X109456256Y-78895205D01*
X109625774Y-78781937D01*
X109648159Y-78759552D01*
X109668412Y-78826313D01*
X109750590Y-78980059D01*
X109833468Y-79081046D01*
X109833471Y-79081049D01*
X109861184Y-79114817D01*
X109894952Y-79142530D01*
X110219423Y-79467001D01*
X103832580Y-79467001D01*
X103755000Y-79389422D01*
X103755000Y-78664656D01*
X103816632Y-78623475D01*
X104023475Y-78416632D01*
X104140000Y-78242240D01*
X104256525Y-78416632D01*
%TA.AperFunction,Conductor*%
D21*
G36*
X104256525Y-78416632D02*
G01*
X104463368Y-78623475D01*
X104706589Y-78785990D01*
X104976842Y-78897932D01*
X105263740Y-78955000D01*
X105556260Y-78955000D01*
X105843158Y-78897932D01*
X106113411Y-78785990D01*
X106356632Y-78623475D01*
X106563475Y-78416632D01*
X106604656Y-78355000D01*
X108001882Y-78355000D01*
X108048795Y-78468256D01*
X108162063Y-78637774D01*
X108306226Y-78781937D01*
X108475744Y-78895205D01*
X108664102Y-78973226D01*
X108864061Y-79013000D01*
X109067939Y-79013000D01*
X109267898Y-78973226D01*
X109456256Y-78895205D01*
X109625774Y-78781937D01*
X109648159Y-78759552D01*
X109668412Y-78826313D01*
X109750590Y-78980059D01*
X109833468Y-79081046D01*
X109833471Y-79081049D01*
X109861184Y-79114817D01*
X109894952Y-79142530D01*
X110219423Y-79467001D01*
X103832580Y-79467001D01*
X103755000Y-79389422D01*
X103755000Y-78664656D01*
X103816632Y-78623475D01*
X104023475Y-78416632D01*
X104140000Y-78242240D01*
X104256525Y-78416632D01*
G37*
%TD.AperFunction*%
%TD*%
M02*
