%TF.GenerationSoftware,KiCad,Pcbnew,(5.1.10)-1*%
%TF.CreationDate,2021-09-16T15:44:01+01:00*%
%TF.ProjectId,Eos-Board,456f732d-426f-4617-9264-2e6b69636164,rev?*%
%TF.SameCoordinates,Original*%
%TF.FileFunction,Soldermask,Top*%
%TF.FilePolarity,Negative*%
%FSLAX46Y46*%
G04 Gerber Fmt 4.6, Leading zero omitted, Abs format (unit mm)*
G04 Created by KiCad (PCBNEW (5.1.10)-1) date 2021-09-16 15:44:01*
%MOMM*%
%LPD*%
G01*
G04 APERTURE LIST*
%ADD10R,1.700000X1.000000*%
%ADD11C,1.700000*%
%ADD12C,0.800000*%
%ADD13C,6.400000*%
%ADD14C,1.000000*%
%ADD15O,1.700000X1.700000*%
%ADD16R,1.700000X1.700000*%
%ADD17R,1.000000X1.000000*%
%ADD18R,1.060000X0.650000*%
%ADD19C,2.000000*%
%ADD20R,1.000000X1.300000*%
%ADD21C,0.100000*%
%ADD22O,2.000000X1.700000*%
G04 APERTURE END LIST*
D10*
%TO.C,SW2*%
X113132000Y-64130000D03*
X106832000Y-64130000D03*
X113132000Y-60330000D03*
X106832000Y-60330000D03*
%TD*%
%TO.C,R9*%
G36*
G01*
X104311000Y-64537000D02*
X104311000Y-63987000D01*
G75*
G02*
X104511000Y-63787000I200000J0D01*
G01*
X104911000Y-63787000D01*
G75*
G02*
X105111000Y-63987000I0J-200000D01*
G01*
X105111000Y-64537000D01*
G75*
G02*
X104911000Y-64737000I-200000J0D01*
G01*
X104511000Y-64737000D01*
G75*
G02*
X104311000Y-64537000I0J200000D01*
G01*
G37*
G36*
G01*
X102661000Y-64537000D02*
X102661000Y-63987000D01*
G75*
G02*
X102861000Y-63787000I200000J0D01*
G01*
X103261000Y-63787000D01*
G75*
G02*
X103461000Y-63987000I0J-200000D01*
G01*
X103461000Y-64537000D01*
G75*
G02*
X103261000Y-64737000I-200000J0D01*
G01*
X102861000Y-64737000D01*
G75*
G02*
X102661000Y-64537000I0J200000D01*
G01*
G37*
%TD*%
%TO.C,U6*%
G36*
G01*
X113007000Y-71096000D02*
X113307000Y-71096000D01*
G75*
G02*
X113457000Y-71246000I0J-150000D01*
G01*
X113457000Y-72896000D01*
G75*
G02*
X113307000Y-73046000I-150000J0D01*
G01*
X113007000Y-73046000D01*
G75*
G02*
X112857000Y-72896000I0J150000D01*
G01*
X112857000Y-71246000D01*
G75*
G02*
X113007000Y-71096000I150000J0D01*
G01*
G37*
G36*
G01*
X111737000Y-71096000D02*
X112037000Y-71096000D01*
G75*
G02*
X112187000Y-71246000I0J-150000D01*
G01*
X112187000Y-72896000D01*
G75*
G02*
X112037000Y-73046000I-150000J0D01*
G01*
X111737000Y-73046000D01*
G75*
G02*
X111587000Y-72896000I0J150000D01*
G01*
X111587000Y-71246000D01*
G75*
G02*
X111737000Y-71096000I150000J0D01*
G01*
G37*
G36*
G01*
X110467000Y-71096000D02*
X110767000Y-71096000D01*
G75*
G02*
X110917000Y-71246000I0J-150000D01*
G01*
X110917000Y-72896000D01*
G75*
G02*
X110767000Y-73046000I-150000J0D01*
G01*
X110467000Y-73046000D01*
G75*
G02*
X110317000Y-72896000I0J150000D01*
G01*
X110317000Y-71246000D01*
G75*
G02*
X110467000Y-71096000I150000J0D01*
G01*
G37*
G36*
G01*
X109197000Y-71096000D02*
X109497000Y-71096000D01*
G75*
G02*
X109647000Y-71246000I0J-150000D01*
G01*
X109647000Y-72896000D01*
G75*
G02*
X109497000Y-73046000I-150000J0D01*
G01*
X109197000Y-73046000D01*
G75*
G02*
X109047000Y-72896000I0J150000D01*
G01*
X109047000Y-71246000D01*
G75*
G02*
X109197000Y-71096000I150000J0D01*
G01*
G37*
G36*
G01*
X109197000Y-66146000D02*
X109497000Y-66146000D01*
G75*
G02*
X109647000Y-66296000I0J-150000D01*
G01*
X109647000Y-67946000D01*
G75*
G02*
X109497000Y-68096000I-150000J0D01*
G01*
X109197000Y-68096000D01*
G75*
G02*
X109047000Y-67946000I0J150000D01*
G01*
X109047000Y-66296000D01*
G75*
G02*
X109197000Y-66146000I150000J0D01*
G01*
G37*
G36*
G01*
X110467000Y-66146000D02*
X110767000Y-66146000D01*
G75*
G02*
X110917000Y-66296000I0J-150000D01*
G01*
X110917000Y-67946000D01*
G75*
G02*
X110767000Y-68096000I-150000J0D01*
G01*
X110467000Y-68096000D01*
G75*
G02*
X110317000Y-67946000I0J150000D01*
G01*
X110317000Y-66296000D01*
G75*
G02*
X110467000Y-66146000I150000J0D01*
G01*
G37*
G36*
G01*
X111737000Y-66146000D02*
X112037000Y-66146000D01*
G75*
G02*
X112187000Y-66296000I0J-150000D01*
G01*
X112187000Y-67946000D01*
G75*
G02*
X112037000Y-68096000I-150000J0D01*
G01*
X111737000Y-68096000D01*
G75*
G02*
X111587000Y-67946000I0J150000D01*
G01*
X111587000Y-66296000D01*
G75*
G02*
X111737000Y-66146000I150000J0D01*
G01*
G37*
G36*
G01*
X113007000Y-66146000D02*
X113307000Y-66146000D01*
G75*
G02*
X113457000Y-66296000I0J-150000D01*
G01*
X113457000Y-67946000D01*
G75*
G02*
X113307000Y-68096000I-150000J0D01*
G01*
X113007000Y-68096000D01*
G75*
G02*
X112857000Y-67946000I0J150000D01*
G01*
X112857000Y-66296000D01*
G75*
G02*
X113007000Y-66146000I150000J0D01*
G01*
G37*
%TD*%
D11*
%TO.C,REF\u002A\u002A*%
X134620000Y-91440000D03*
%TD*%
%TO.C,REF\u002A\u002A*%
X134620000Y-88900000D03*
%TD*%
%TO.C,REF\u002A\u002A*%
X137160000Y-91440000D03*
%TD*%
%TO.C,REF\u002A\u002A*%
X137160000Y-88900000D03*
%TD*%
%TO.C,REF\u002A\u002A*%
X162560000Y-71120000D03*
%TD*%
%TO.C,REF\u002A\u002A*%
X162560000Y-68580000D03*
%TD*%
%TO.C,REF\u002A\u002A*%
X162560000Y-86360000D03*
%TD*%
%TO.C,REF\u002A\u002A*%
X162560000Y-73660000D03*
%TD*%
%TO.C,REF\u002A\u002A*%
X162560000Y-81280000D03*
%TD*%
%TO.C,REF\u002A\u002A*%
X162560000Y-76200000D03*
%TD*%
%TO.C,REF\u002A\u002A*%
X162560000Y-88900000D03*
%TD*%
%TO.C,REF\u002A\u002A*%
X162560000Y-66040000D03*
%TD*%
%TO.C,REF\u002A\u002A*%
X162560000Y-91440000D03*
%TD*%
%TO.C,REF\u002A\u002A*%
X162560000Y-83820000D03*
%TD*%
%TO.C,REF\u002A\u002A*%
X162560000Y-78740000D03*
%TD*%
%TO.C,REF\u002A\u002A*%
X160020000Y-83820000D03*
%TD*%
%TO.C,REF\u002A\u002A*%
X160020000Y-86360000D03*
%TD*%
%TO.C,REF\u002A\u002A*%
X160020000Y-88900000D03*
%TD*%
%TO.C,REF\u002A\u002A*%
X160020000Y-78740000D03*
%TD*%
%TO.C,REF\u002A\u002A*%
X160020000Y-66040000D03*
%TD*%
%TO.C,REF\u002A\u002A*%
X160020000Y-73660000D03*
%TD*%
%TO.C,REF\u002A\u002A*%
X160020000Y-71120000D03*
%TD*%
%TO.C,REF\u002A\u002A*%
X160020000Y-68580000D03*
%TD*%
%TO.C,REF\u002A\u002A*%
X160020000Y-91440000D03*
%TD*%
%TO.C,REF\u002A\u002A*%
X160020000Y-76200000D03*
%TD*%
%TO.C,REF\u002A\u002A*%
X160020000Y-81280000D03*
%TD*%
%TO.C,REF\u002A\u002A*%
X157480000Y-93980000D03*
%TD*%
%TO.C,REF\u002A\u002A*%
X157480000Y-71120000D03*
%TD*%
%TO.C,REF\u002A\u002A*%
X157480000Y-68580000D03*
%TD*%
%TO.C,REF\u002A\u002A*%
X157480000Y-76200000D03*
%TD*%
%TO.C,REF\u002A\u002A*%
X157480000Y-73660000D03*
%TD*%
%TO.C,REF\u002A\u002A*%
X157480000Y-91440000D03*
%TD*%
%TO.C,REF\u002A\u002A*%
X157480000Y-81280000D03*
%TD*%
%TO.C,REF\u002A\u002A*%
X157480000Y-78740000D03*
%TD*%
%TO.C,REF\u002A\u002A*%
X157480000Y-66040000D03*
%TD*%
%TO.C,REF\u002A\u002A*%
X157480000Y-63500000D03*
%TD*%
%TO.C,REF\u002A\u002A*%
X157480000Y-86360000D03*
%TD*%
%TO.C,REF\u002A\u002A*%
X157480000Y-83820000D03*
%TD*%
%TO.C,REF\u002A\u002A*%
X157480000Y-88900000D03*
%TD*%
%TO.C,REF\u002A\u002A*%
X152400000Y-93980000D03*
%TD*%
%TO.C,REF\u002A\u002A*%
X154940000Y-93980000D03*
%TD*%
%TO.C,REF\u002A\u002A*%
X147320000Y-93980000D03*
%TD*%
%TO.C,REF\u002A\u002A*%
X149860000Y-93980000D03*
%TD*%
%TO.C,REF\u002A\u002A*%
X134620000Y-58420000D03*
%TD*%
%TO.C,REF\u002A\u002A*%
X134620000Y-60960000D03*
%TD*%
%TO.C,REF\u002A\u002A*%
X134620000Y-71120000D03*
%TD*%
%TO.C,REF\u002A\u002A*%
X134620000Y-63500000D03*
%TD*%
%TO.C,REF\u002A\u002A*%
X134620000Y-66040000D03*
%TD*%
%TO.C,REF\u002A\u002A*%
X134620000Y-68580000D03*
%TD*%
%TO.C,REF\u002A\u002A*%
X134620000Y-73660000D03*
%TD*%
%TO.C,REF\u002A\u002A*%
X134620000Y-76200000D03*
%TD*%
%TO.C,REF\u002A\u002A*%
X134620000Y-78740000D03*
%TD*%
%TO.C,REF\u002A\u002A*%
X134620000Y-86360000D03*
%TD*%
%TO.C,REF\u002A\u002A*%
X134620000Y-81280000D03*
%TD*%
%TO.C,REF\u002A\u002A*%
X134620000Y-83820000D03*
%TD*%
%TO.C,REF\u002A\u002A*%
X152400000Y-78740000D03*
%TD*%
%TO.C,REF\u002A\u002A*%
X152400000Y-81280000D03*
%TD*%
%TO.C,REF\u002A\u002A*%
X154940000Y-78740000D03*
%TD*%
%TO.C,REF\u002A\u002A*%
X154940000Y-81280000D03*
%TD*%
%TO.C,REF\u002A\u002A*%
X152400000Y-71120000D03*
%TD*%
%TO.C,REF\u002A\u002A*%
X152400000Y-68580000D03*
%TD*%
%TO.C,REF\u002A\u002A*%
X152400000Y-66040000D03*
%TD*%
%TO.C,REF\u002A\u002A*%
X154940000Y-63500000D03*
%TD*%
%TO.C,REF\u002A\u002A*%
X152400000Y-63500000D03*
%TD*%
%TO.C,REF\u002A\u002A*%
X152400000Y-60960000D03*
%TD*%
%TO.C,REF\u002A\u002A*%
X154940000Y-58420000D03*
%TD*%
%TO.C,REF\u002A\u002A*%
X152400000Y-58420000D03*
%TD*%
%TO.C,REF\u002A\u002A*%
X154940000Y-66040000D03*
%TD*%
%TO.C,REF\u002A\u002A*%
X154940000Y-60960000D03*
%TD*%
%TO.C,REF\u002A\u002A*%
X154940000Y-71120000D03*
%TD*%
%TO.C,REF\u002A\u002A*%
X154940000Y-68580000D03*
%TD*%
%TO.C,REF\u002A\u002A*%
X152400000Y-76200000D03*
%TD*%
%TO.C,REF\u002A\u002A*%
X152400000Y-73660000D03*
%TD*%
%TO.C,REF\u002A\u002A*%
X154940000Y-73660000D03*
%TD*%
%TO.C,REF\u002A\u002A*%
X154940000Y-76200000D03*
%TD*%
%TO.C,REF\u002A\u002A*%
X152400000Y-91440000D03*
%TD*%
%TO.C,REF\u002A\u002A*%
X154940000Y-91440000D03*
%TD*%
%TO.C,REF\u002A\u002A*%
X152400000Y-88900000D03*
%TD*%
%TO.C,REF\u002A\u002A*%
X154940000Y-83820000D03*
%TD*%
%TO.C,REF\u002A\u002A*%
X152400000Y-86360000D03*
%TD*%
%TO.C,REF\u002A\u002A*%
X154940000Y-86360000D03*
%TD*%
%TO.C,REF\u002A\u002A*%
X152400000Y-83820000D03*
%TD*%
%TO.C,REF\u002A\u002A*%
X154940000Y-88900000D03*
%TD*%
%TO.C,REF\u002A\u002A*%
X147320000Y-91440000D03*
%TD*%
%TO.C,REF\u002A\u002A*%
X139700000Y-88900000D03*
%TD*%
%TO.C,REF\u002A\u002A*%
X144780000Y-88900000D03*
%TD*%
%TO.C,REF\u002A\u002A*%
X149860000Y-88900000D03*
%TD*%
%TO.C,REF\u002A\u002A*%
X147320000Y-88900000D03*
%TD*%
%TO.C,REF\u002A\u002A*%
X144780000Y-91440000D03*
%TD*%
%TO.C,REF\u002A\u002A*%
X149860000Y-91440000D03*
%TD*%
%TO.C,REF\u002A\u002A*%
X139700000Y-91440000D03*
%TD*%
%TO.C,REF\u002A\u002A*%
X142240000Y-91440000D03*
%TD*%
%TO.C,REF\u002A\u002A*%
X142240000Y-88900000D03*
%TD*%
%TO.C,REF\u002A\u002A*%
X137160000Y-83820000D03*
%TD*%
%TO.C,REF\u002A\u002A*%
X147320000Y-86360000D03*
%TD*%
%TO.C,REF\u002A\u002A*%
X139700000Y-83820000D03*
%TD*%
%TO.C,REF\u002A\u002A*%
X144780000Y-83820000D03*
%TD*%
%TO.C,REF\u002A\u002A*%
X149860000Y-83820000D03*
%TD*%
%TO.C,REF\u002A\u002A*%
X147320000Y-83820000D03*
%TD*%
%TO.C,REF\u002A\u002A*%
X144780000Y-86360000D03*
%TD*%
%TO.C,REF\u002A\u002A*%
X149860000Y-86360000D03*
%TD*%
%TO.C,REF\u002A\u002A*%
X137160000Y-86360000D03*
%TD*%
%TO.C,REF\u002A\u002A*%
X139700000Y-86360000D03*
%TD*%
%TO.C,REF\u002A\u002A*%
X142240000Y-86360000D03*
%TD*%
%TO.C,REF\u002A\u002A*%
X142240000Y-83820000D03*
%TD*%
%TO.C,REF\u002A\u002A*%
X137160000Y-78740000D03*
%TD*%
%TO.C,REF\u002A\u002A*%
X147320000Y-81280000D03*
%TD*%
%TO.C,REF\u002A\u002A*%
X139700000Y-78740000D03*
%TD*%
%TO.C,REF\u002A\u002A*%
X144780000Y-78740000D03*
%TD*%
%TO.C,REF\u002A\u002A*%
X149860000Y-78740000D03*
%TD*%
%TO.C,REF\u002A\u002A*%
X147320000Y-78740000D03*
%TD*%
%TO.C,REF\u002A\u002A*%
X144780000Y-81280000D03*
%TD*%
%TO.C,REF\u002A\u002A*%
X149860000Y-81280000D03*
%TD*%
%TO.C,REF\u002A\u002A*%
X137160000Y-81280000D03*
%TD*%
%TO.C,REF\u002A\u002A*%
X139700000Y-81280000D03*
%TD*%
%TO.C,REF\u002A\u002A*%
X142240000Y-81280000D03*
%TD*%
%TO.C,REF\u002A\u002A*%
X142240000Y-78740000D03*
%TD*%
%TO.C,REF\u002A\u002A*%
X137160000Y-73660000D03*
%TD*%
%TO.C,REF\u002A\u002A*%
X147320000Y-76200000D03*
%TD*%
%TO.C,REF\u002A\u002A*%
X139700000Y-73660000D03*
%TD*%
%TO.C,REF\u002A\u002A*%
X144780000Y-73660000D03*
%TD*%
%TO.C,REF\u002A\u002A*%
X149860000Y-73660000D03*
%TD*%
%TO.C,REF\u002A\u002A*%
X147320000Y-73660000D03*
%TD*%
%TO.C,REF\u002A\u002A*%
X144780000Y-76200000D03*
%TD*%
%TO.C,REF\u002A\u002A*%
X149860000Y-76200000D03*
%TD*%
%TO.C,REF\u002A\u002A*%
X137160000Y-76200000D03*
%TD*%
%TO.C,REF\u002A\u002A*%
X139700000Y-76200000D03*
%TD*%
%TO.C,REF\u002A\u002A*%
X142240000Y-76200000D03*
%TD*%
%TO.C,REF\u002A\u002A*%
X142240000Y-73660000D03*
%TD*%
%TO.C,REF\u002A\u002A*%
X137160000Y-68580000D03*
%TD*%
%TO.C,REF\u002A\u002A*%
X147320000Y-71120000D03*
%TD*%
%TO.C,REF\u002A\u002A*%
X139700000Y-68580000D03*
%TD*%
%TO.C,REF\u002A\u002A*%
X144780000Y-68580000D03*
%TD*%
%TO.C,REF\u002A\u002A*%
X149860000Y-68580000D03*
%TD*%
%TO.C,REF\u002A\u002A*%
X147320000Y-68580000D03*
%TD*%
%TO.C,REF\u002A\u002A*%
X144780000Y-71120000D03*
%TD*%
%TO.C,REF\u002A\u002A*%
X149860000Y-71120000D03*
%TD*%
%TO.C,REF\u002A\u002A*%
X137160000Y-71120000D03*
%TD*%
%TO.C,REF\u002A\u002A*%
X139700000Y-71120000D03*
%TD*%
%TO.C,REF\u002A\u002A*%
X142240000Y-71120000D03*
%TD*%
%TO.C,REF\u002A\u002A*%
X142240000Y-68580000D03*
%TD*%
%TO.C,REF\u002A\u002A*%
X137160000Y-63500000D03*
%TD*%
%TO.C,REF\u002A\u002A*%
X147320000Y-66040000D03*
%TD*%
%TO.C,REF\u002A\u002A*%
X139700000Y-63500000D03*
%TD*%
%TO.C,REF\u002A\u002A*%
X144780000Y-63500000D03*
%TD*%
%TO.C,REF\u002A\u002A*%
X149860000Y-63500000D03*
%TD*%
%TO.C,REF\u002A\u002A*%
X147320000Y-63500000D03*
%TD*%
%TO.C,REF\u002A\u002A*%
X144780000Y-66040000D03*
%TD*%
%TO.C,REF\u002A\u002A*%
X149860000Y-66040000D03*
%TD*%
%TO.C,REF\u002A\u002A*%
X137160000Y-66040000D03*
%TD*%
%TO.C,REF\u002A\u002A*%
X139700000Y-66040000D03*
%TD*%
%TO.C,REF\u002A\u002A*%
X142240000Y-66040000D03*
%TD*%
%TO.C,REF\u002A\u002A*%
X142240000Y-63500000D03*
%TD*%
%TO.C,REF\u002A\u002A*%
X149860000Y-58420000D03*
%TD*%
%TO.C,REF\u002A\u002A*%
X149860000Y-60960000D03*
%TD*%
%TO.C,REF\u002A\u002A*%
X147320000Y-58420000D03*
%TD*%
%TO.C,REF\u002A\u002A*%
X147320000Y-60960000D03*
%TD*%
%TO.C,REF\u002A\u002A*%
X144780000Y-58420000D03*
%TD*%
%TO.C,REF\u002A\u002A*%
X144780000Y-60960000D03*
%TD*%
%TO.C,REF\u002A\u002A*%
X142240000Y-58420000D03*
%TD*%
%TO.C,REF\u002A\u002A*%
X142240000Y-60960000D03*
%TD*%
%TO.C,REF\u002A\u002A*%
X139700000Y-58420000D03*
%TD*%
%TO.C,REF\u002A\u002A*%
X139700000Y-60960000D03*
%TD*%
%TO.C,REF\u002A\u002A*%
X137160000Y-58420000D03*
%TD*%
%TO.C,REF\u002A\u002A*%
X137160000Y-60960000D03*
%TD*%
D12*
%TO.C,H4*%
X103297056Y-57362944D03*
X101600000Y-56660000D03*
X99902944Y-57362944D03*
X99200000Y-59060000D03*
X99902944Y-60757056D03*
X101600000Y-61460000D03*
X103297056Y-60757056D03*
X104000000Y-59060000D03*
D13*
X101600000Y-59060000D03*
%TD*%
D12*
%TO.C,H3*%
X163297056Y-57362944D03*
X161600000Y-56660000D03*
X159902944Y-57362944D03*
X159200000Y-59060000D03*
X159902944Y-60757056D03*
X161600000Y-61460000D03*
X163297056Y-60757056D03*
X164000000Y-59060000D03*
D13*
X161600000Y-59060000D03*
%TD*%
D12*
%TO.C,H2*%
X163297056Y-97362944D03*
X161600000Y-96660000D03*
X159902944Y-97362944D03*
X159200000Y-99060000D03*
X159902944Y-100757056D03*
X161600000Y-101460000D03*
X163297056Y-100757056D03*
X164000000Y-99060000D03*
D13*
X161600000Y-99060000D03*
%TD*%
D12*
%TO.C,H1*%
X103297056Y-97362944D03*
X101600000Y-96660000D03*
X99902944Y-97362944D03*
X99200000Y-99060000D03*
X99902944Y-100757056D03*
X101600000Y-101460000D03*
X103297056Y-100757056D03*
X104000000Y-99060000D03*
D13*
X101600000Y-99060000D03*
%TD*%
D14*
%TO.C,Y1*%
X107696000Y-69972000D03*
X107696000Y-68072000D03*
%TD*%
D15*
%TO.C,U5*%
X137140000Y-93980000D03*
X139680000Y-93980000D03*
X142220000Y-93980000D03*
D16*
X144760000Y-93980000D03*
%TD*%
D17*
%TO.C,U4*%
X113268000Y-74184000D03*
X113268000Y-76184000D03*
X111268000Y-76184000D03*
X111268000Y-74184000D03*
%TD*%
%TO.C,U3*%
G36*
G01*
X124310000Y-82337000D02*
X124610000Y-82337000D01*
G75*
G02*
X124760000Y-82487000I0J-150000D01*
G01*
X124760000Y-84137000D01*
G75*
G02*
X124610000Y-84287000I-150000J0D01*
G01*
X124310000Y-84287000D01*
G75*
G02*
X124160000Y-84137000I0J150000D01*
G01*
X124160000Y-82487000D01*
G75*
G02*
X124310000Y-82337000I150000J0D01*
G01*
G37*
G36*
G01*
X123040000Y-82337000D02*
X123340000Y-82337000D01*
G75*
G02*
X123490000Y-82487000I0J-150000D01*
G01*
X123490000Y-84137000D01*
G75*
G02*
X123340000Y-84287000I-150000J0D01*
G01*
X123040000Y-84287000D01*
G75*
G02*
X122890000Y-84137000I0J150000D01*
G01*
X122890000Y-82487000D01*
G75*
G02*
X123040000Y-82337000I150000J0D01*
G01*
G37*
G36*
G01*
X121770000Y-82337000D02*
X122070000Y-82337000D01*
G75*
G02*
X122220000Y-82487000I0J-150000D01*
G01*
X122220000Y-84137000D01*
G75*
G02*
X122070000Y-84287000I-150000J0D01*
G01*
X121770000Y-84287000D01*
G75*
G02*
X121620000Y-84137000I0J150000D01*
G01*
X121620000Y-82487000D01*
G75*
G02*
X121770000Y-82337000I150000J0D01*
G01*
G37*
G36*
G01*
X120500000Y-82337000D02*
X120800000Y-82337000D01*
G75*
G02*
X120950000Y-82487000I0J-150000D01*
G01*
X120950000Y-84137000D01*
G75*
G02*
X120800000Y-84287000I-150000J0D01*
G01*
X120500000Y-84287000D01*
G75*
G02*
X120350000Y-84137000I0J150000D01*
G01*
X120350000Y-82487000D01*
G75*
G02*
X120500000Y-82337000I150000J0D01*
G01*
G37*
G36*
G01*
X119230000Y-82337000D02*
X119530000Y-82337000D01*
G75*
G02*
X119680000Y-82487000I0J-150000D01*
G01*
X119680000Y-84137000D01*
G75*
G02*
X119530000Y-84287000I-150000J0D01*
G01*
X119230000Y-84287000D01*
G75*
G02*
X119080000Y-84137000I0J150000D01*
G01*
X119080000Y-82487000D01*
G75*
G02*
X119230000Y-82337000I150000J0D01*
G01*
G37*
G36*
G01*
X117960000Y-82337000D02*
X118260000Y-82337000D01*
G75*
G02*
X118410000Y-82487000I0J-150000D01*
G01*
X118410000Y-84137000D01*
G75*
G02*
X118260000Y-84287000I-150000J0D01*
G01*
X117960000Y-84287000D01*
G75*
G02*
X117810000Y-84137000I0J150000D01*
G01*
X117810000Y-82487000D01*
G75*
G02*
X117960000Y-82337000I150000J0D01*
G01*
G37*
G36*
G01*
X116690000Y-82337000D02*
X116990000Y-82337000D01*
G75*
G02*
X117140000Y-82487000I0J-150000D01*
G01*
X117140000Y-84137000D01*
G75*
G02*
X116990000Y-84287000I-150000J0D01*
G01*
X116690000Y-84287000D01*
G75*
G02*
X116540000Y-84137000I0J150000D01*
G01*
X116540000Y-82487000D01*
G75*
G02*
X116690000Y-82337000I150000J0D01*
G01*
G37*
G36*
G01*
X116690000Y-77387000D02*
X116990000Y-77387000D01*
G75*
G02*
X117140000Y-77537000I0J-150000D01*
G01*
X117140000Y-79187000D01*
G75*
G02*
X116990000Y-79337000I-150000J0D01*
G01*
X116690000Y-79337000D01*
G75*
G02*
X116540000Y-79187000I0J150000D01*
G01*
X116540000Y-77537000D01*
G75*
G02*
X116690000Y-77387000I150000J0D01*
G01*
G37*
G36*
G01*
X117960000Y-77387000D02*
X118260000Y-77387000D01*
G75*
G02*
X118410000Y-77537000I0J-150000D01*
G01*
X118410000Y-79187000D01*
G75*
G02*
X118260000Y-79337000I-150000J0D01*
G01*
X117960000Y-79337000D01*
G75*
G02*
X117810000Y-79187000I0J150000D01*
G01*
X117810000Y-77537000D01*
G75*
G02*
X117960000Y-77387000I150000J0D01*
G01*
G37*
G36*
G01*
X119230000Y-77387000D02*
X119530000Y-77387000D01*
G75*
G02*
X119680000Y-77537000I0J-150000D01*
G01*
X119680000Y-79187000D01*
G75*
G02*
X119530000Y-79337000I-150000J0D01*
G01*
X119230000Y-79337000D01*
G75*
G02*
X119080000Y-79187000I0J150000D01*
G01*
X119080000Y-77537000D01*
G75*
G02*
X119230000Y-77387000I150000J0D01*
G01*
G37*
G36*
G01*
X120500000Y-77387000D02*
X120800000Y-77387000D01*
G75*
G02*
X120950000Y-77537000I0J-150000D01*
G01*
X120950000Y-79187000D01*
G75*
G02*
X120800000Y-79337000I-150000J0D01*
G01*
X120500000Y-79337000D01*
G75*
G02*
X120350000Y-79187000I0J150000D01*
G01*
X120350000Y-77537000D01*
G75*
G02*
X120500000Y-77387000I150000J0D01*
G01*
G37*
G36*
G01*
X121770000Y-77387000D02*
X122070000Y-77387000D01*
G75*
G02*
X122220000Y-77537000I0J-150000D01*
G01*
X122220000Y-79187000D01*
G75*
G02*
X122070000Y-79337000I-150000J0D01*
G01*
X121770000Y-79337000D01*
G75*
G02*
X121620000Y-79187000I0J150000D01*
G01*
X121620000Y-77537000D01*
G75*
G02*
X121770000Y-77387000I150000J0D01*
G01*
G37*
G36*
G01*
X123040000Y-77387000D02*
X123340000Y-77387000D01*
G75*
G02*
X123490000Y-77537000I0J-150000D01*
G01*
X123490000Y-79187000D01*
G75*
G02*
X123340000Y-79337000I-150000J0D01*
G01*
X123040000Y-79337000D01*
G75*
G02*
X122890000Y-79187000I0J150000D01*
G01*
X122890000Y-77537000D01*
G75*
G02*
X123040000Y-77387000I150000J0D01*
G01*
G37*
G36*
G01*
X124310000Y-77387000D02*
X124610000Y-77387000D01*
G75*
G02*
X124760000Y-77537000I0J-150000D01*
G01*
X124760000Y-79187000D01*
G75*
G02*
X124610000Y-79337000I-150000J0D01*
G01*
X124310000Y-79337000D01*
G75*
G02*
X124160000Y-79187000I0J150000D01*
G01*
X124160000Y-77537000D01*
G75*
G02*
X124310000Y-77387000I150000J0D01*
G01*
G37*
%TD*%
%TO.C,U2*%
G36*
G01*
X120500000Y-71031000D02*
X120800000Y-71031000D01*
G75*
G02*
X120950000Y-71181000I0J-150000D01*
G01*
X120950000Y-72831000D01*
G75*
G02*
X120800000Y-72981000I-150000J0D01*
G01*
X120500000Y-72981000D01*
G75*
G02*
X120350000Y-72831000I0J150000D01*
G01*
X120350000Y-71181000D01*
G75*
G02*
X120500000Y-71031000I150000J0D01*
G01*
G37*
G36*
G01*
X119230000Y-71031000D02*
X119530000Y-71031000D01*
G75*
G02*
X119680000Y-71181000I0J-150000D01*
G01*
X119680000Y-72831000D01*
G75*
G02*
X119530000Y-72981000I-150000J0D01*
G01*
X119230000Y-72981000D01*
G75*
G02*
X119080000Y-72831000I0J150000D01*
G01*
X119080000Y-71181000D01*
G75*
G02*
X119230000Y-71031000I150000J0D01*
G01*
G37*
G36*
G01*
X117960000Y-71031000D02*
X118260000Y-71031000D01*
G75*
G02*
X118410000Y-71181000I0J-150000D01*
G01*
X118410000Y-72831000D01*
G75*
G02*
X118260000Y-72981000I-150000J0D01*
G01*
X117960000Y-72981000D01*
G75*
G02*
X117810000Y-72831000I0J150000D01*
G01*
X117810000Y-71181000D01*
G75*
G02*
X117960000Y-71031000I150000J0D01*
G01*
G37*
G36*
G01*
X116690000Y-71031000D02*
X116990000Y-71031000D01*
G75*
G02*
X117140000Y-71181000I0J-150000D01*
G01*
X117140000Y-72831000D01*
G75*
G02*
X116990000Y-72981000I-150000J0D01*
G01*
X116690000Y-72981000D01*
G75*
G02*
X116540000Y-72831000I0J150000D01*
G01*
X116540000Y-71181000D01*
G75*
G02*
X116690000Y-71031000I150000J0D01*
G01*
G37*
G36*
G01*
X116690000Y-66081000D02*
X116990000Y-66081000D01*
G75*
G02*
X117140000Y-66231000I0J-150000D01*
G01*
X117140000Y-67881000D01*
G75*
G02*
X116990000Y-68031000I-150000J0D01*
G01*
X116690000Y-68031000D01*
G75*
G02*
X116540000Y-67881000I0J150000D01*
G01*
X116540000Y-66231000D01*
G75*
G02*
X116690000Y-66081000I150000J0D01*
G01*
G37*
G36*
G01*
X117960000Y-66081000D02*
X118260000Y-66081000D01*
G75*
G02*
X118410000Y-66231000I0J-150000D01*
G01*
X118410000Y-67881000D01*
G75*
G02*
X118260000Y-68031000I-150000J0D01*
G01*
X117960000Y-68031000D01*
G75*
G02*
X117810000Y-67881000I0J150000D01*
G01*
X117810000Y-66231000D01*
G75*
G02*
X117960000Y-66081000I150000J0D01*
G01*
G37*
G36*
G01*
X119230000Y-66081000D02*
X119530000Y-66081000D01*
G75*
G02*
X119680000Y-66231000I0J-150000D01*
G01*
X119680000Y-67881000D01*
G75*
G02*
X119530000Y-68031000I-150000J0D01*
G01*
X119230000Y-68031000D01*
G75*
G02*
X119080000Y-67881000I0J150000D01*
G01*
X119080000Y-66231000D01*
G75*
G02*
X119230000Y-66081000I150000J0D01*
G01*
G37*
G36*
G01*
X120500000Y-66081000D02*
X120800000Y-66081000D01*
G75*
G02*
X120950000Y-66231000I0J-150000D01*
G01*
X120950000Y-67881000D01*
G75*
G02*
X120800000Y-68031000I-150000J0D01*
G01*
X120500000Y-68031000D01*
G75*
G02*
X120350000Y-67881000I0J150000D01*
G01*
X120350000Y-66231000D01*
G75*
G02*
X120500000Y-66081000I150000J0D01*
G01*
G37*
%TD*%
D18*
%TO.C,U1*%
X124544000Y-90236000D03*
X124544000Y-92136000D03*
X122344000Y-92136000D03*
X122344000Y-91186000D03*
X122344000Y-90236000D03*
%TD*%
D19*
%TO.C,TP12*%
X132080000Y-63500000D03*
%TD*%
%TO.C,TP11*%
X132080000Y-66040000D03*
%TD*%
%TO.C,TP10*%
X132080000Y-68580000D03*
%TD*%
%TO.C,TP9*%
X132080000Y-71120000D03*
%TD*%
%TO.C,TP8*%
X132080000Y-73660000D03*
%TD*%
%TO.C,TP7*%
X132080000Y-76200000D03*
%TD*%
%TO.C,TP6*%
X132080000Y-78740000D03*
%TD*%
%TO.C,TP5*%
X132080000Y-81280000D03*
%TD*%
%TO.C,TP4*%
X132080000Y-83820000D03*
%TD*%
%TO.C,TP3*%
X132080000Y-86360000D03*
%TD*%
%TO.C,TP2*%
X132080000Y-88900000D03*
%TD*%
%TO.C,TP1*%
X132080000Y-91440000D03*
%TD*%
D20*
%TO.C,SW1*%
X115316000Y-93390000D03*
X113566000Y-89490000D03*
X117066000Y-89490000D03*
%TD*%
%TO.C,R8*%
G36*
G01*
X113559000Y-78315000D02*
X113009000Y-78315000D01*
G75*
G02*
X112809000Y-78115000I0J200000D01*
G01*
X112809000Y-77715000D01*
G75*
G02*
X113009000Y-77515000I200000J0D01*
G01*
X113559000Y-77515000D01*
G75*
G02*
X113759000Y-77715000I0J-200000D01*
G01*
X113759000Y-78115000D01*
G75*
G02*
X113559000Y-78315000I-200000J0D01*
G01*
G37*
G36*
G01*
X113559000Y-79965000D02*
X113009000Y-79965000D01*
G75*
G02*
X112809000Y-79765000I0J200000D01*
G01*
X112809000Y-79365000D01*
G75*
G02*
X113009000Y-79165000I200000J0D01*
G01*
X113559000Y-79165000D01*
G75*
G02*
X113759000Y-79365000I0J-200000D01*
G01*
X113759000Y-79765000D01*
G75*
G02*
X113559000Y-79965000I-200000J0D01*
G01*
G37*
%TD*%
%TO.C,R7*%
G36*
G01*
X112035000Y-78315000D02*
X111485000Y-78315000D01*
G75*
G02*
X111285000Y-78115000I0J200000D01*
G01*
X111285000Y-77715000D01*
G75*
G02*
X111485000Y-77515000I200000J0D01*
G01*
X112035000Y-77515000D01*
G75*
G02*
X112235000Y-77715000I0J-200000D01*
G01*
X112235000Y-78115000D01*
G75*
G02*
X112035000Y-78315000I-200000J0D01*
G01*
G37*
G36*
G01*
X112035000Y-79965000D02*
X111485000Y-79965000D01*
G75*
G02*
X111285000Y-79765000I0J200000D01*
G01*
X111285000Y-79365000D01*
G75*
G02*
X111485000Y-79165000I200000J0D01*
G01*
X112035000Y-79165000D01*
G75*
G02*
X112235000Y-79365000I0J-200000D01*
G01*
X112235000Y-79765000D01*
G75*
G02*
X112035000Y-79965000I-200000J0D01*
G01*
G37*
%TD*%
%TO.C,R6*%
G36*
G01*
X100921000Y-71607000D02*
X100921000Y-72157000D01*
G75*
G02*
X100721000Y-72357000I-200000J0D01*
G01*
X100321000Y-72357000D01*
G75*
G02*
X100121000Y-72157000I0J200000D01*
G01*
X100121000Y-71607000D01*
G75*
G02*
X100321000Y-71407000I200000J0D01*
G01*
X100721000Y-71407000D01*
G75*
G02*
X100921000Y-71607000I0J-200000D01*
G01*
G37*
G36*
G01*
X102571000Y-71607000D02*
X102571000Y-72157000D01*
G75*
G02*
X102371000Y-72357000I-200000J0D01*
G01*
X101971000Y-72357000D01*
G75*
G02*
X101771000Y-72157000I0J200000D01*
G01*
X101771000Y-71607000D01*
G75*
G02*
X101971000Y-71407000I200000J0D01*
G01*
X102371000Y-71407000D01*
G75*
G02*
X102571000Y-71607000I0J-200000D01*
G01*
G37*
%TD*%
%TO.C,R5*%
G36*
G01*
X104311000Y-81809000D02*
X104311000Y-81259000D01*
G75*
G02*
X104511000Y-81059000I200000J0D01*
G01*
X104911000Y-81059000D01*
G75*
G02*
X105111000Y-81259000I0J-200000D01*
G01*
X105111000Y-81809000D01*
G75*
G02*
X104911000Y-82009000I-200000J0D01*
G01*
X104511000Y-82009000D01*
G75*
G02*
X104311000Y-81809000I0J200000D01*
G01*
G37*
G36*
G01*
X102661000Y-81809000D02*
X102661000Y-81259000D01*
G75*
G02*
X102861000Y-81059000I200000J0D01*
G01*
X103261000Y-81059000D01*
G75*
G02*
X103461000Y-81259000I0J-200000D01*
G01*
X103461000Y-81809000D01*
G75*
G02*
X103261000Y-82009000I-200000J0D01*
G01*
X102861000Y-82009000D01*
G75*
G02*
X102661000Y-81809000I0J200000D01*
G01*
G37*
%TD*%
%TO.C,R4*%
G36*
G01*
X104311000Y-83587000D02*
X104311000Y-83037000D01*
G75*
G02*
X104511000Y-82837000I200000J0D01*
G01*
X104911000Y-82837000D01*
G75*
G02*
X105111000Y-83037000I0J-200000D01*
G01*
X105111000Y-83587000D01*
G75*
G02*
X104911000Y-83787000I-200000J0D01*
G01*
X104511000Y-83787000D01*
G75*
G02*
X104311000Y-83587000I0J200000D01*
G01*
G37*
G36*
G01*
X102661000Y-83587000D02*
X102661000Y-83037000D01*
G75*
G02*
X102861000Y-82837000I200000J0D01*
G01*
X103261000Y-82837000D01*
G75*
G02*
X103461000Y-83037000I0J-200000D01*
G01*
X103461000Y-83587000D01*
G75*
G02*
X103261000Y-83787000I-200000J0D01*
G01*
X102861000Y-83787000D01*
G75*
G02*
X102661000Y-83587000I0J200000D01*
G01*
G37*
%TD*%
%TO.C,R3*%
G36*
G01*
X120671000Y-92539000D02*
X120121000Y-92539000D01*
G75*
G02*
X119921000Y-92339000I0J200000D01*
G01*
X119921000Y-91939000D01*
G75*
G02*
X120121000Y-91739000I200000J0D01*
G01*
X120671000Y-91739000D01*
G75*
G02*
X120871000Y-91939000I0J-200000D01*
G01*
X120871000Y-92339000D01*
G75*
G02*
X120671000Y-92539000I-200000J0D01*
G01*
G37*
G36*
G01*
X120671000Y-94189000D02*
X120121000Y-94189000D01*
G75*
G02*
X119921000Y-93989000I0J200000D01*
G01*
X119921000Y-93589000D01*
G75*
G02*
X120121000Y-93389000I200000J0D01*
G01*
X120671000Y-93389000D01*
G75*
G02*
X120871000Y-93589000I0J-200000D01*
G01*
X120871000Y-93989000D01*
G75*
G02*
X120671000Y-94189000I-200000J0D01*
G01*
G37*
%TD*%
%TO.C,R2*%
G36*
G01*
X120671000Y-89491000D02*
X120121000Y-89491000D01*
G75*
G02*
X119921000Y-89291000I0J200000D01*
G01*
X119921000Y-88891000D01*
G75*
G02*
X120121000Y-88691000I200000J0D01*
G01*
X120671000Y-88691000D01*
G75*
G02*
X120871000Y-88891000I0J-200000D01*
G01*
X120871000Y-89291000D01*
G75*
G02*
X120671000Y-89491000I-200000J0D01*
G01*
G37*
G36*
G01*
X120671000Y-91141000D02*
X120121000Y-91141000D01*
G75*
G02*
X119921000Y-90941000I0J200000D01*
G01*
X119921000Y-90541000D01*
G75*
G02*
X120121000Y-90341000I200000J0D01*
G01*
X120671000Y-90341000D01*
G75*
G02*
X120871000Y-90541000I0J-200000D01*
G01*
X120871000Y-90941000D01*
G75*
G02*
X120671000Y-91141000I-200000J0D01*
G01*
G37*
%TD*%
%TO.C,R1*%
G36*
G01*
X119147000Y-89491000D02*
X118597000Y-89491000D01*
G75*
G02*
X118397000Y-89291000I0J200000D01*
G01*
X118397000Y-88891000D01*
G75*
G02*
X118597000Y-88691000I200000J0D01*
G01*
X119147000Y-88691000D01*
G75*
G02*
X119347000Y-88891000I0J-200000D01*
G01*
X119347000Y-89291000D01*
G75*
G02*
X119147000Y-89491000I-200000J0D01*
G01*
G37*
G36*
G01*
X119147000Y-91141000D02*
X118597000Y-91141000D01*
G75*
G02*
X118397000Y-90941000I0J200000D01*
G01*
X118397000Y-90541000D01*
G75*
G02*
X118597000Y-90341000I200000J0D01*
G01*
X119147000Y-90341000D01*
G75*
G02*
X119347000Y-90541000I0J-200000D01*
G01*
X119347000Y-90941000D01*
G75*
G02*
X119147000Y-91141000I-200000J0D01*
G01*
G37*
%TD*%
D21*
%TO.C,JP3*%
G36*
X116090000Y-62588000D02*
G01*
X116090000Y-62088000D01*
X116090602Y-62088000D01*
X116090602Y-62063466D01*
X116095412Y-62014635D01*
X116104984Y-61966510D01*
X116119228Y-61919555D01*
X116138005Y-61874222D01*
X116161136Y-61830949D01*
X116188396Y-61790150D01*
X116219524Y-61752221D01*
X116254221Y-61717524D01*
X116292150Y-61686396D01*
X116332949Y-61659136D01*
X116376222Y-61636005D01*
X116421555Y-61617228D01*
X116468510Y-61602984D01*
X116516635Y-61593412D01*
X116565466Y-61588602D01*
X116590000Y-61588602D01*
X116590000Y-61588000D01*
X117090000Y-61588000D01*
X117090000Y-61588602D01*
X117114534Y-61588602D01*
X117163365Y-61593412D01*
X117211490Y-61602984D01*
X117258445Y-61617228D01*
X117303778Y-61636005D01*
X117347051Y-61659136D01*
X117387850Y-61686396D01*
X117425779Y-61717524D01*
X117460476Y-61752221D01*
X117491604Y-61790150D01*
X117518864Y-61830949D01*
X117541995Y-61874222D01*
X117560772Y-61919555D01*
X117575016Y-61966510D01*
X117584588Y-62014635D01*
X117589398Y-62063466D01*
X117589398Y-62088000D01*
X117590000Y-62088000D01*
X117590000Y-62588000D01*
X116090000Y-62588000D01*
G37*
G36*
X117589398Y-63388000D02*
G01*
X117589398Y-63412534D01*
X117584588Y-63461365D01*
X117575016Y-63509490D01*
X117560772Y-63556445D01*
X117541995Y-63601778D01*
X117518864Y-63645051D01*
X117491604Y-63685850D01*
X117460476Y-63723779D01*
X117425779Y-63758476D01*
X117387850Y-63789604D01*
X117347051Y-63816864D01*
X117303778Y-63839995D01*
X117258445Y-63858772D01*
X117211490Y-63873016D01*
X117163365Y-63882588D01*
X117114534Y-63887398D01*
X117090000Y-63887398D01*
X117090000Y-63888000D01*
X116590000Y-63888000D01*
X116590000Y-63887398D01*
X116565466Y-63887398D01*
X116516635Y-63882588D01*
X116468510Y-63873016D01*
X116421555Y-63858772D01*
X116376222Y-63839995D01*
X116332949Y-63816864D01*
X116292150Y-63789604D01*
X116254221Y-63758476D01*
X116219524Y-63723779D01*
X116188396Y-63685850D01*
X116161136Y-63645051D01*
X116138005Y-63601778D01*
X116119228Y-63556445D01*
X116104984Y-63509490D01*
X116095412Y-63461365D01*
X116090602Y-63412534D01*
X116090602Y-63388000D01*
X116090000Y-63388000D01*
X116090000Y-62888000D01*
X117590000Y-62888000D01*
X117590000Y-63388000D01*
X117589398Y-63388000D01*
G37*
%TD*%
%TO.C,JP2*%
G36*
X118630000Y-62588000D02*
G01*
X118630000Y-62088000D01*
X118630602Y-62088000D01*
X118630602Y-62063466D01*
X118635412Y-62014635D01*
X118644984Y-61966510D01*
X118659228Y-61919555D01*
X118678005Y-61874222D01*
X118701136Y-61830949D01*
X118728396Y-61790150D01*
X118759524Y-61752221D01*
X118794221Y-61717524D01*
X118832150Y-61686396D01*
X118872949Y-61659136D01*
X118916222Y-61636005D01*
X118961555Y-61617228D01*
X119008510Y-61602984D01*
X119056635Y-61593412D01*
X119105466Y-61588602D01*
X119130000Y-61588602D01*
X119130000Y-61588000D01*
X119630000Y-61588000D01*
X119630000Y-61588602D01*
X119654534Y-61588602D01*
X119703365Y-61593412D01*
X119751490Y-61602984D01*
X119798445Y-61617228D01*
X119843778Y-61636005D01*
X119887051Y-61659136D01*
X119927850Y-61686396D01*
X119965779Y-61717524D01*
X120000476Y-61752221D01*
X120031604Y-61790150D01*
X120058864Y-61830949D01*
X120081995Y-61874222D01*
X120100772Y-61919555D01*
X120115016Y-61966510D01*
X120124588Y-62014635D01*
X120129398Y-62063466D01*
X120129398Y-62088000D01*
X120130000Y-62088000D01*
X120130000Y-62588000D01*
X118630000Y-62588000D01*
G37*
G36*
X120129398Y-63388000D02*
G01*
X120129398Y-63412534D01*
X120124588Y-63461365D01*
X120115016Y-63509490D01*
X120100772Y-63556445D01*
X120081995Y-63601778D01*
X120058864Y-63645051D01*
X120031604Y-63685850D01*
X120000476Y-63723779D01*
X119965779Y-63758476D01*
X119927850Y-63789604D01*
X119887051Y-63816864D01*
X119843778Y-63839995D01*
X119798445Y-63858772D01*
X119751490Y-63873016D01*
X119703365Y-63882588D01*
X119654534Y-63887398D01*
X119630000Y-63887398D01*
X119630000Y-63888000D01*
X119130000Y-63888000D01*
X119130000Y-63887398D01*
X119105466Y-63887398D01*
X119056635Y-63882588D01*
X119008510Y-63873016D01*
X118961555Y-63858772D01*
X118916222Y-63839995D01*
X118872949Y-63816864D01*
X118832150Y-63789604D01*
X118794221Y-63758476D01*
X118759524Y-63723779D01*
X118728396Y-63685850D01*
X118701136Y-63645051D01*
X118678005Y-63601778D01*
X118659228Y-63556445D01*
X118644984Y-63509490D01*
X118635412Y-63461365D01*
X118630602Y-63412534D01*
X118630602Y-63388000D01*
X118630000Y-63388000D01*
X118630000Y-62888000D01*
X120130000Y-62888000D01*
X120130000Y-63388000D01*
X120129398Y-63388000D01*
G37*
%TD*%
%TO.C,JP1*%
G36*
X121170000Y-62588000D02*
G01*
X121170000Y-62088000D01*
X121170602Y-62088000D01*
X121170602Y-62063466D01*
X121175412Y-62014635D01*
X121184984Y-61966510D01*
X121199228Y-61919555D01*
X121218005Y-61874222D01*
X121241136Y-61830949D01*
X121268396Y-61790150D01*
X121299524Y-61752221D01*
X121334221Y-61717524D01*
X121372150Y-61686396D01*
X121412949Y-61659136D01*
X121456222Y-61636005D01*
X121501555Y-61617228D01*
X121548510Y-61602984D01*
X121596635Y-61593412D01*
X121645466Y-61588602D01*
X121670000Y-61588602D01*
X121670000Y-61588000D01*
X122170000Y-61588000D01*
X122170000Y-61588602D01*
X122194534Y-61588602D01*
X122243365Y-61593412D01*
X122291490Y-61602984D01*
X122338445Y-61617228D01*
X122383778Y-61636005D01*
X122427051Y-61659136D01*
X122467850Y-61686396D01*
X122505779Y-61717524D01*
X122540476Y-61752221D01*
X122571604Y-61790150D01*
X122598864Y-61830949D01*
X122621995Y-61874222D01*
X122640772Y-61919555D01*
X122655016Y-61966510D01*
X122664588Y-62014635D01*
X122669398Y-62063466D01*
X122669398Y-62088000D01*
X122670000Y-62088000D01*
X122670000Y-62588000D01*
X121170000Y-62588000D01*
G37*
G36*
X122669398Y-63388000D02*
G01*
X122669398Y-63412534D01*
X122664588Y-63461365D01*
X122655016Y-63509490D01*
X122640772Y-63556445D01*
X122621995Y-63601778D01*
X122598864Y-63645051D01*
X122571604Y-63685850D01*
X122540476Y-63723779D01*
X122505779Y-63758476D01*
X122467850Y-63789604D01*
X122427051Y-63816864D01*
X122383778Y-63839995D01*
X122338445Y-63858772D01*
X122291490Y-63873016D01*
X122243365Y-63882588D01*
X122194534Y-63887398D01*
X122170000Y-63887398D01*
X122170000Y-63888000D01*
X121670000Y-63888000D01*
X121670000Y-63887398D01*
X121645466Y-63887398D01*
X121596635Y-63882588D01*
X121548510Y-63873016D01*
X121501555Y-63858772D01*
X121456222Y-63839995D01*
X121412949Y-63816864D01*
X121372150Y-63789604D01*
X121334221Y-63758476D01*
X121299524Y-63723779D01*
X121268396Y-63685850D01*
X121241136Y-63645051D01*
X121218005Y-63601778D01*
X121199228Y-63556445D01*
X121184984Y-63509490D01*
X121175412Y-63461365D01*
X121170602Y-63412534D01*
X121170602Y-63388000D01*
X121170000Y-63388000D01*
X121170000Y-62888000D01*
X122670000Y-62888000D01*
X122670000Y-63388000D01*
X122669398Y-63388000D01*
G37*
%TD*%
D15*
%TO.C,J2*%
X100330000Y-77470000D03*
X100330000Y-74930000D03*
X102870000Y-77470000D03*
X102870000Y-74930000D03*
X105410000Y-77470000D03*
D16*
X105410000Y-74930000D03*
%TD*%
D22*
%TO.C,J1*%
X106680000Y-91440000D03*
G36*
G01*
X105930000Y-88090000D02*
X107430000Y-88090000D01*
G75*
G02*
X107680000Y-88340000I0J-250000D01*
G01*
X107680000Y-89540000D01*
G75*
G02*
X107430000Y-89790000I-250000J0D01*
G01*
X105930000Y-89790000D01*
G75*
G02*
X105680000Y-89540000I0J250000D01*
G01*
X105680000Y-88340000D01*
G75*
G02*
X105930000Y-88090000I250000J0D01*
G01*
G37*
%TD*%
%TO.C,D3*%
G36*
G01*
X101188000Y-81790250D02*
X101188000Y-81277750D01*
G75*
G02*
X101406750Y-81059000I218750J0D01*
G01*
X101844250Y-81059000D01*
G75*
G02*
X102063000Y-81277750I0J-218750D01*
G01*
X102063000Y-81790250D01*
G75*
G02*
X101844250Y-82009000I-218750J0D01*
G01*
X101406750Y-82009000D01*
G75*
G02*
X101188000Y-81790250I0J218750D01*
G01*
G37*
G36*
G01*
X99613000Y-81790250D02*
X99613000Y-81277750D01*
G75*
G02*
X99831750Y-81059000I218750J0D01*
G01*
X100269250Y-81059000D01*
G75*
G02*
X100488000Y-81277750I0J-218750D01*
G01*
X100488000Y-81790250D01*
G75*
G02*
X100269250Y-82009000I-218750J0D01*
G01*
X99831750Y-82009000D01*
G75*
G02*
X99613000Y-81790250I0J218750D01*
G01*
G37*
%TD*%
%TO.C,D2*%
G36*
G01*
X101188000Y-83568250D02*
X101188000Y-83055750D01*
G75*
G02*
X101406750Y-82837000I218750J0D01*
G01*
X101844250Y-82837000D01*
G75*
G02*
X102063000Y-83055750I0J-218750D01*
G01*
X102063000Y-83568250D01*
G75*
G02*
X101844250Y-83787000I-218750J0D01*
G01*
X101406750Y-83787000D01*
G75*
G02*
X101188000Y-83568250I0J218750D01*
G01*
G37*
G36*
G01*
X99613000Y-83568250D02*
X99613000Y-83055750D01*
G75*
G02*
X99831750Y-82837000I218750J0D01*
G01*
X100269250Y-82837000D01*
G75*
G02*
X100488000Y-83055750I0J-218750D01*
G01*
X100488000Y-83568250D01*
G75*
G02*
X100269250Y-83787000I-218750J0D01*
G01*
X99831750Y-83787000D01*
G75*
G02*
X99613000Y-83568250I0J218750D01*
G01*
G37*
%TD*%
%TO.C,D1*%
G36*
G01*
X119128250Y-92614000D02*
X118615750Y-92614000D01*
G75*
G02*
X118397000Y-92395250I0J218750D01*
G01*
X118397000Y-91957750D01*
G75*
G02*
X118615750Y-91739000I218750J0D01*
G01*
X119128250Y-91739000D01*
G75*
G02*
X119347000Y-91957750I0J-218750D01*
G01*
X119347000Y-92395250D01*
G75*
G02*
X119128250Y-92614000I-218750J0D01*
G01*
G37*
G36*
G01*
X119128250Y-94189000D02*
X118615750Y-94189000D01*
G75*
G02*
X118397000Y-93970250I0J218750D01*
G01*
X118397000Y-93532750D01*
G75*
G02*
X118615750Y-93314000I218750J0D01*
G01*
X119128250Y-93314000D01*
G75*
G02*
X119347000Y-93532750I0J-218750D01*
G01*
X119347000Y-93970250D01*
G75*
G02*
X119128250Y-94189000I-218750J0D01*
G01*
G37*
%TD*%
%TO.C,C9*%
G36*
G01*
X107246000Y-71878000D02*
X107246000Y-71378000D01*
G75*
G02*
X107471000Y-71153000I225000J0D01*
G01*
X107921000Y-71153000D01*
G75*
G02*
X108146000Y-71378000I0J-225000D01*
G01*
X108146000Y-71878000D01*
G75*
G02*
X107921000Y-72103000I-225000J0D01*
G01*
X107471000Y-72103000D01*
G75*
G02*
X107246000Y-71878000I0J225000D01*
G01*
G37*
G36*
G01*
X105696000Y-71878000D02*
X105696000Y-71378000D01*
G75*
G02*
X105921000Y-71153000I225000J0D01*
G01*
X106371000Y-71153000D01*
G75*
G02*
X106596000Y-71378000I0J-225000D01*
G01*
X106596000Y-71878000D01*
G75*
G02*
X106371000Y-72103000I-225000J0D01*
G01*
X105921000Y-72103000D01*
G75*
G02*
X105696000Y-71878000I0J225000D01*
G01*
G37*
%TD*%
%TO.C,C8*%
G36*
G01*
X107246000Y-66544000D02*
X107246000Y-66044000D01*
G75*
G02*
X107471000Y-65819000I225000J0D01*
G01*
X107921000Y-65819000D01*
G75*
G02*
X108146000Y-66044000I0J-225000D01*
G01*
X108146000Y-66544000D01*
G75*
G02*
X107921000Y-66769000I-225000J0D01*
G01*
X107471000Y-66769000D01*
G75*
G02*
X107246000Y-66544000I0J225000D01*
G01*
G37*
G36*
G01*
X105696000Y-66544000D02*
X105696000Y-66044000D01*
G75*
G02*
X105921000Y-65819000I225000J0D01*
G01*
X106371000Y-65819000D01*
G75*
G02*
X106596000Y-66044000I0J-225000D01*
G01*
X106596000Y-66544000D01*
G75*
G02*
X106371000Y-66769000I-225000J0D01*
G01*
X105921000Y-66769000D01*
G75*
G02*
X105696000Y-66544000I0J225000D01*
G01*
G37*
%TD*%
%TO.C,C7*%
G36*
G01*
X109986000Y-79052000D02*
X110486000Y-79052000D01*
G75*
G02*
X110711000Y-79277000I0J-225000D01*
G01*
X110711000Y-79727000D01*
G75*
G02*
X110486000Y-79952000I-225000J0D01*
G01*
X109986000Y-79952000D01*
G75*
G02*
X109761000Y-79727000I0J225000D01*
G01*
X109761000Y-79277000D01*
G75*
G02*
X109986000Y-79052000I225000J0D01*
G01*
G37*
G36*
G01*
X109986000Y-77502000D02*
X110486000Y-77502000D01*
G75*
G02*
X110711000Y-77727000I0J-225000D01*
G01*
X110711000Y-78177000D01*
G75*
G02*
X110486000Y-78402000I-225000J0D01*
G01*
X109986000Y-78402000D01*
G75*
G02*
X109761000Y-78177000I0J225000D01*
G01*
X109761000Y-77727000D01*
G75*
G02*
X109986000Y-77502000I225000J0D01*
G01*
G37*
%TD*%
%TO.C,C6*%
G36*
G01*
X114812000Y-72969000D02*
X115312000Y-72969000D01*
G75*
G02*
X115537000Y-73194000I0J-225000D01*
G01*
X115537000Y-73644000D01*
G75*
G02*
X115312000Y-73869000I-225000J0D01*
G01*
X114812000Y-73869000D01*
G75*
G02*
X114587000Y-73644000I0J225000D01*
G01*
X114587000Y-73194000D01*
G75*
G02*
X114812000Y-72969000I225000J0D01*
G01*
G37*
G36*
G01*
X114812000Y-71419000D02*
X115312000Y-71419000D01*
G75*
G02*
X115537000Y-71644000I0J-225000D01*
G01*
X115537000Y-72094000D01*
G75*
G02*
X115312000Y-72319000I-225000J0D01*
G01*
X114812000Y-72319000D01*
G75*
G02*
X114587000Y-72094000I0J225000D01*
G01*
X114587000Y-71644000D01*
G75*
G02*
X114812000Y-71419000I225000J0D01*
G01*
G37*
%TD*%
%TO.C,C5*%
G36*
G01*
X125988000Y-79065000D02*
X126488000Y-79065000D01*
G75*
G02*
X126713000Y-79290000I0J-225000D01*
G01*
X126713000Y-79740000D01*
G75*
G02*
X126488000Y-79965000I-225000J0D01*
G01*
X125988000Y-79965000D01*
G75*
G02*
X125763000Y-79740000I0J225000D01*
G01*
X125763000Y-79290000D01*
G75*
G02*
X125988000Y-79065000I225000J0D01*
G01*
G37*
G36*
G01*
X125988000Y-77515000D02*
X126488000Y-77515000D01*
G75*
G02*
X126713000Y-77740000I0J-225000D01*
G01*
X126713000Y-78190000D01*
G75*
G02*
X126488000Y-78415000I-225000J0D01*
G01*
X125988000Y-78415000D01*
G75*
G02*
X125763000Y-78190000I0J225000D01*
G01*
X125763000Y-77740000D01*
G75*
G02*
X125988000Y-77515000I225000J0D01*
G01*
G37*
%TD*%
%TO.C,C4*%
G36*
G01*
X122678000Y-69258000D02*
X122178000Y-69258000D01*
G75*
G02*
X121953000Y-69033000I0J225000D01*
G01*
X121953000Y-68583000D01*
G75*
G02*
X122178000Y-68358000I225000J0D01*
G01*
X122678000Y-68358000D01*
G75*
G02*
X122903000Y-68583000I0J-225000D01*
G01*
X122903000Y-69033000D01*
G75*
G02*
X122678000Y-69258000I-225000J0D01*
G01*
G37*
G36*
G01*
X122678000Y-70808000D02*
X122178000Y-70808000D01*
G75*
G02*
X121953000Y-70583000I0J225000D01*
G01*
X121953000Y-70133000D01*
G75*
G02*
X122178000Y-69908000I225000J0D01*
G01*
X122678000Y-69908000D01*
G75*
G02*
X122903000Y-70133000I0J-225000D01*
G01*
X122903000Y-70583000D01*
G75*
G02*
X122678000Y-70808000I-225000J0D01*
G01*
G37*
%TD*%
%TO.C,C3*%
G36*
G01*
X123119000Y-88142000D02*
X123119000Y-88642000D01*
G75*
G02*
X122894000Y-88867000I-225000J0D01*
G01*
X122444000Y-88867000D01*
G75*
G02*
X122219000Y-88642000I0J225000D01*
G01*
X122219000Y-88142000D01*
G75*
G02*
X122444000Y-87917000I225000J0D01*
G01*
X122894000Y-87917000D01*
G75*
G02*
X123119000Y-88142000I0J-225000D01*
G01*
G37*
G36*
G01*
X124669000Y-88142000D02*
X124669000Y-88642000D01*
G75*
G02*
X124444000Y-88867000I-225000J0D01*
G01*
X123994000Y-88867000D01*
G75*
G02*
X123769000Y-88642000I0J225000D01*
G01*
X123769000Y-88142000D01*
G75*
G02*
X123994000Y-87917000I225000J0D01*
G01*
X124444000Y-87917000D01*
G75*
G02*
X124669000Y-88142000I0J-225000D01*
G01*
G37*
%TD*%
%TO.C,C2*%
G36*
G01*
X110886001Y-89270000D02*
X109585999Y-89270000D01*
G75*
G02*
X109336000Y-89020001I0J249999D01*
G01*
X109336000Y-88369999D01*
G75*
G02*
X109585999Y-88120000I249999J0D01*
G01*
X110886001Y-88120000D01*
G75*
G02*
X111136000Y-88369999I0J-249999D01*
G01*
X111136000Y-89020001D01*
G75*
G02*
X110886001Y-89270000I-249999J0D01*
G01*
G37*
G36*
G01*
X110886001Y-92220000D02*
X109585999Y-92220000D01*
G75*
G02*
X109336000Y-91970001I0J249999D01*
G01*
X109336000Y-91319999D01*
G75*
G02*
X109585999Y-91070000I249999J0D01*
G01*
X110886001Y-91070000D01*
G75*
G02*
X111136000Y-91319999I0J-249999D01*
G01*
X111136000Y-91970001D01*
G75*
G02*
X110886001Y-92220000I-249999J0D01*
G01*
G37*
%TD*%
%TO.C,C1*%
G36*
G01*
X123769000Y-94230000D02*
X123769000Y-93730000D01*
G75*
G02*
X123994000Y-93505000I225000J0D01*
G01*
X124444000Y-93505000D01*
G75*
G02*
X124669000Y-93730000I0J-225000D01*
G01*
X124669000Y-94230000D01*
G75*
G02*
X124444000Y-94455000I-225000J0D01*
G01*
X123994000Y-94455000D01*
G75*
G02*
X123769000Y-94230000I0J225000D01*
G01*
G37*
G36*
G01*
X122219000Y-94230000D02*
X122219000Y-93730000D01*
G75*
G02*
X122444000Y-93505000I225000J0D01*
G01*
X122894000Y-93505000D01*
G75*
G02*
X123119000Y-93730000I0J-225000D01*
G01*
X123119000Y-94230000D01*
G75*
G02*
X122894000Y-94455000I-225000J0D01*
G01*
X122444000Y-94455000D01*
G75*
G02*
X122219000Y-94230000I0J225000D01*
G01*
G37*
%TD*%
M02*
