M48
; DRILL file {KiCad (5.1.10)-1} date 09/16/21 15:43:58
; FORMAT={-:-/ absolute / inch / decimal}
; #@! TF.CreationDate,2021-09-16T15:43:58+01:00
; #@! TF.GenerationSoftware,Kicad,Pcbnew,(5.1.10)-1
FMAT,2
INCH
T1C0.0157
T2C0.0197
T3C0.0394
T4C0.1260
%
G90
G05
T1
X3.89Y-3.28
X4.05Y-2.6
X4.06Y-2.49
X4.18Y-2.66
X4.18Y-2.77
X4.19Y-3.12
X4.29Y-3.07
X4.29Y-3.13
X4.3Y-2.58
X4.31Y-2.77
X4.3348Y-2.3752
X4.35Y-2.77
X4.41Y-3.48
X4.43Y-2.71
X4.46Y-3.28
X4.52Y-2.53
X4.5275Y-3.0675
X4.53Y-2.79
X4.55Y-3.27
X4.56Y-2.96
X4.59Y-3.45
X4.5974Y-2.7007
X4.63Y-3.69
X4.64Y-2.37
X4.64Y-3.16
X4.65Y-2.75
X4.65Y-2.9
X4.68Y-3.15
X4.73Y-2.75
X4.74Y-2.37
X4.74Y-3.6
X4.75Y-2.9
X4.75Y-3.34
X4.78Y-3.15
X4.78Y-3.76
X4.787Y-3.523
X4.8Y-3.34
X4.83Y-3.74
X4.84Y-2.37
X4.85Y-3.34
X4.87Y-2.71
X4.89Y-3.74
X4.9Y-3.59
X4.92Y-3.02
X4.94Y-3.28
X4.97Y-3.02
X5.01Y-3.1
X5.07Y-3.65
X5.1094Y-3.5
T2
X3.9055Y-2.3252
X3.9055Y-3.9
X3.9332Y-2.2584
X3.9332Y-2.392
X3.9332Y-3.8332
X3.9332Y-3.9668
X4.0Y-2.2307
X4.0Y-2.4197
X4.0Y-3.8055
X4.0Y-3.9945
X4.0668Y-2.2584
X4.0668Y-2.392
X4.0668Y-3.8332
X4.0668Y-3.9668
X4.0945Y-2.3252
X4.0945Y-3.9
X4.24Y-2.68
X4.24Y-2.7548
X6.2677Y-2.3252
X6.2677Y-3.9
X6.2954Y-2.2584
X6.2954Y-2.392
X6.2954Y-3.8332
X6.2954Y-3.9668
X6.3622Y-2.2307
X6.3622Y-2.4197
X6.3622Y-3.8055
X6.3622Y-3.9945
X6.429Y-2.2584
X6.429Y-2.392
X6.429Y-3.8332
X6.429Y-3.9668
X6.4567Y-2.3252
X6.4567Y-3.9
T3
X3.95Y-2.95
X3.95Y-3.05
X4.05Y-2.95
X4.05Y-3.05
X4.15Y-2.95
X4.15Y-3.05
X4.2Y-3.5016
X4.2Y-3.6
X5.2Y-2.5
X5.2Y-2.6
X5.2Y-2.7
X5.2Y-2.8
X5.2Y-2.9
X5.2Y-3.0
X5.2Y-3.1
X5.2Y-3.2
X5.2Y-3.3
X5.2Y-3.4
X5.2Y-3.5
X5.2Y-3.6
X5.3Y-2.3
X5.3Y-2.4
X5.3Y-2.5
X5.3Y-2.6
X5.3Y-2.7
X5.3Y-2.8
X5.3Y-2.9
X5.3Y-3.0
X5.3Y-3.1
X5.3Y-3.2
X5.3Y-3.3
X5.3Y-3.4
X5.3Y-3.5
X5.3Y-3.6
X5.3992Y-3.7
X5.4Y-2.3
X5.4Y-2.4
X5.4Y-2.5
X5.4Y-2.6
X5.4Y-2.7
X5.4Y-2.8
X5.4Y-2.9
X5.4Y-3.0
X5.4Y-3.1
X5.4Y-3.2
X5.4Y-3.3
X5.4Y-3.4
X5.4Y-3.5
X5.4Y-3.6
X5.4992Y-3.7
X5.5Y-2.3
X5.5Y-2.4
X5.5Y-2.5
X5.5Y-2.6
X5.5Y-2.7
X5.5Y-2.8
X5.5Y-2.9
X5.5Y-3.0
X5.5Y-3.1
X5.5Y-3.2
X5.5Y-3.3
X5.5Y-3.4
X5.5Y-3.5
X5.5Y-3.6
X5.5992Y-3.7
X5.6Y-2.3
X5.6Y-2.4
X5.6Y-2.5
X5.6Y-2.6
X5.6Y-2.7
X5.6Y-2.8
X5.6Y-2.9
X5.6Y-3.0
X5.6Y-3.1
X5.6Y-3.2
X5.6Y-3.3
X5.6Y-3.4
X5.6Y-3.5
X5.6Y-3.6
X5.6992Y-3.7
X5.7Y-2.3
X5.7Y-2.4
X5.7Y-2.5
X5.7Y-2.6
X5.7Y-2.7
X5.7Y-2.8
X5.7Y-2.9
X5.7Y-3.0
X5.7Y-3.1
X5.7Y-3.2
X5.7Y-3.3
X5.7Y-3.4
X5.7Y-3.5
X5.7Y-3.6
X5.8Y-2.3
X5.8Y-2.4
X5.8Y-2.5
X5.8Y-2.6
X5.8Y-2.7
X5.8Y-2.8
X5.8Y-2.9
X5.8Y-3.0
X5.8Y-3.1
X5.8Y-3.2
X5.8Y-3.3
X5.8Y-3.4
X5.8Y-3.5
X5.8Y-3.6
X5.8Y-3.7
X5.9Y-2.3
X5.9Y-2.4
X5.9Y-2.5
X5.9Y-2.6
X5.9Y-2.7
X5.9Y-2.8
X5.9Y-2.9
X5.9Y-3.0
X5.9Y-3.1
X5.9Y-3.2
X5.9Y-3.3
X5.9Y-3.4
X5.9Y-3.5
X5.9Y-3.6
X5.9Y-3.7
X6.0Y-2.3
X6.0Y-2.4
X6.0Y-2.5
X6.0Y-2.6
X6.0Y-2.7
X6.0Y-2.8
X6.0Y-2.9
X6.0Y-3.0
X6.0Y-3.1
X6.0Y-3.2
X6.0Y-3.3
X6.0Y-3.4
X6.0Y-3.5
X6.0Y-3.6
X6.0Y-3.7
X6.1Y-2.3
X6.1Y-2.4
X6.1Y-2.5
X6.1Y-2.6
X6.1Y-2.7
X6.1Y-2.8
X6.1Y-2.9
X6.1Y-3.0
X6.1Y-3.1
X6.1Y-3.2
X6.1Y-3.3
X6.1Y-3.4
X6.1Y-3.5
X6.1Y-3.6
X6.1Y-3.7
X6.2Y-2.5
X6.2Y-2.6
X6.2Y-2.7
X6.2Y-2.8
X6.2Y-2.9
X6.2Y-3.0
X6.2Y-3.1
X6.2Y-3.2
X6.2Y-3.3
X6.2Y-3.4
X6.2Y-3.5
X6.2Y-3.6
X6.2Y-3.7
X6.3Y-2.6
X6.3Y-2.7
X6.3Y-2.8
X6.3Y-2.9
X6.3Y-3.0
X6.3Y-3.1
X6.3Y-3.2
X6.3Y-3.3
X6.3Y-3.4
X6.3Y-3.5
X6.3Y-3.6
X6.4Y-2.6
X6.4Y-2.7
X6.4Y-2.8
X6.4Y-2.9
X6.4Y-3.0
X6.4Y-3.1
X6.4Y-3.2
X6.4Y-3.3
X6.4Y-3.4
X6.4Y-3.5
X6.4Y-3.6
T4
X4.0Y-2.3252
X4.0Y-3.9
X6.3622Y-2.3252
X6.3622Y-3.9
T0
M30
