%TF.GenerationSoftware,KiCad,Pcbnew,(5.1.10)-1*%
%TF.CreationDate,2021-09-16T15:44:01+01:00*%
%TF.ProjectId,Eos-Board,456f732d-426f-4617-9264-2e6b69636164,rev?*%
%TF.SameCoordinates,Original*%
%TF.FileFunction,Soldermask,Bot*%
%TF.FilePolarity,Negative*%
%FSLAX46Y46*%
G04 Gerber Fmt 4.6, Leading zero omitted, Abs format (unit mm)*
G04 Created by KiCad (PCBNEW (5.1.10)-1) date 2021-09-16 15:44:01*
%MOMM*%
%LPD*%
G01*
G04 APERTURE LIST*
%ADD10C,1.700000*%
%ADD11C,0.800000*%
%ADD12C,6.400000*%
%ADD13C,1.000000*%
%ADD14O,1.700000X1.700000*%
%ADD15R,1.700000X1.700000*%
%ADD16C,2.000000*%
%ADD17O,2.000000X1.700000*%
G04 APERTURE END LIST*
D10*
%TO.C,REF\u002A\u002A*%
X134620000Y-91440000D03*
%TD*%
%TO.C,REF\u002A\u002A*%
X134620000Y-88900000D03*
%TD*%
%TO.C,REF\u002A\u002A*%
X137160000Y-91440000D03*
%TD*%
%TO.C,REF\u002A\u002A*%
X137160000Y-88900000D03*
%TD*%
%TO.C,REF\u002A\u002A*%
X162560000Y-71120000D03*
%TD*%
%TO.C,REF\u002A\u002A*%
X162560000Y-68580000D03*
%TD*%
%TO.C,REF\u002A\u002A*%
X162560000Y-86360000D03*
%TD*%
%TO.C,REF\u002A\u002A*%
X162560000Y-73660000D03*
%TD*%
%TO.C,REF\u002A\u002A*%
X162560000Y-81280000D03*
%TD*%
%TO.C,REF\u002A\u002A*%
X162560000Y-76200000D03*
%TD*%
%TO.C,REF\u002A\u002A*%
X162560000Y-88900000D03*
%TD*%
%TO.C,REF\u002A\u002A*%
X162560000Y-66040000D03*
%TD*%
%TO.C,REF\u002A\u002A*%
X162560000Y-91440000D03*
%TD*%
%TO.C,REF\u002A\u002A*%
X162560000Y-83820000D03*
%TD*%
%TO.C,REF\u002A\u002A*%
X162560000Y-78740000D03*
%TD*%
%TO.C,REF\u002A\u002A*%
X160020000Y-83820000D03*
%TD*%
%TO.C,REF\u002A\u002A*%
X160020000Y-86360000D03*
%TD*%
%TO.C,REF\u002A\u002A*%
X160020000Y-88900000D03*
%TD*%
%TO.C,REF\u002A\u002A*%
X160020000Y-78740000D03*
%TD*%
%TO.C,REF\u002A\u002A*%
X160020000Y-66040000D03*
%TD*%
%TO.C,REF\u002A\u002A*%
X160020000Y-73660000D03*
%TD*%
%TO.C,REF\u002A\u002A*%
X160020000Y-71120000D03*
%TD*%
%TO.C,REF\u002A\u002A*%
X160020000Y-68580000D03*
%TD*%
%TO.C,REF\u002A\u002A*%
X160020000Y-91440000D03*
%TD*%
%TO.C,REF\u002A\u002A*%
X160020000Y-76200000D03*
%TD*%
%TO.C,REF\u002A\u002A*%
X160020000Y-81280000D03*
%TD*%
%TO.C,REF\u002A\u002A*%
X157480000Y-93980000D03*
%TD*%
%TO.C,REF\u002A\u002A*%
X157480000Y-71120000D03*
%TD*%
%TO.C,REF\u002A\u002A*%
X157480000Y-68580000D03*
%TD*%
%TO.C,REF\u002A\u002A*%
X157480000Y-76200000D03*
%TD*%
%TO.C,REF\u002A\u002A*%
X157480000Y-73660000D03*
%TD*%
%TO.C,REF\u002A\u002A*%
X157480000Y-91440000D03*
%TD*%
%TO.C,REF\u002A\u002A*%
X157480000Y-81280000D03*
%TD*%
%TO.C,REF\u002A\u002A*%
X157480000Y-78740000D03*
%TD*%
%TO.C,REF\u002A\u002A*%
X157480000Y-66040000D03*
%TD*%
%TO.C,REF\u002A\u002A*%
X157480000Y-63500000D03*
%TD*%
%TO.C,REF\u002A\u002A*%
X157480000Y-86360000D03*
%TD*%
%TO.C,REF\u002A\u002A*%
X157480000Y-83820000D03*
%TD*%
%TO.C,REF\u002A\u002A*%
X157480000Y-88900000D03*
%TD*%
%TO.C,REF\u002A\u002A*%
X152400000Y-93980000D03*
%TD*%
%TO.C,REF\u002A\u002A*%
X154940000Y-93980000D03*
%TD*%
%TO.C,REF\u002A\u002A*%
X147320000Y-93980000D03*
%TD*%
%TO.C,REF\u002A\u002A*%
X149860000Y-93980000D03*
%TD*%
%TO.C,REF\u002A\u002A*%
X134620000Y-58420000D03*
%TD*%
%TO.C,REF\u002A\u002A*%
X134620000Y-60960000D03*
%TD*%
%TO.C,REF\u002A\u002A*%
X134620000Y-71120000D03*
%TD*%
%TO.C,REF\u002A\u002A*%
X134620000Y-63500000D03*
%TD*%
%TO.C,REF\u002A\u002A*%
X134620000Y-66040000D03*
%TD*%
%TO.C,REF\u002A\u002A*%
X134620000Y-68580000D03*
%TD*%
%TO.C,REF\u002A\u002A*%
X134620000Y-73660000D03*
%TD*%
%TO.C,REF\u002A\u002A*%
X134620000Y-76200000D03*
%TD*%
%TO.C,REF\u002A\u002A*%
X134620000Y-78740000D03*
%TD*%
%TO.C,REF\u002A\u002A*%
X134620000Y-86360000D03*
%TD*%
%TO.C,REF\u002A\u002A*%
X134620000Y-81280000D03*
%TD*%
%TO.C,REF\u002A\u002A*%
X134620000Y-83820000D03*
%TD*%
%TO.C,REF\u002A\u002A*%
X152400000Y-78740000D03*
%TD*%
%TO.C,REF\u002A\u002A*%
X152400000Y-81280000D03*
%TD*%
%TO.C,REF\u002A\u002A*%
X154940000Y-78740000D03*
%TD*%
%TO.C,REF\u002A\u002A*%
X154940000Y-81280000D03*
%TD*%
%TO.C,REF\u002A\u002A*%
X152400000Y-71120000D03*
%TD*%
%TO.C,REF\u002A\u002A*%
X152400000Y-68580000D03*
%TD*%
%TO.C,REF\u002A\u002A*%
X152400000Y-66040000D03*
%TD*%
%TO.C,REF\u002A\u002A*%
X154940000Y-63500000D03*
%TD*%
%TO.C,REF\u002A\u002A*%
X152400000Y-63500000D03*
%TD*%
%TO.C,REF\u002A\u002A*%
X152400000Y-60960000D03*
%TD*%
%TO.C,REF\u002A\u002A*%
X154940000Y-58420000D03*
%TD*%
%TO.C,REF\u002A\u002A*%
X152400000Y-58420000D03*
%TD*%
%TO.C,REF\u002A\u002A*%
X154940000Y-66040000D03*
%TD*%
%TO.C,REF\u002A\u002A*%
X154940000Y-60960000D03*
%TD*%
%TO.C,REF\u002A\u002A*%
X154940000Y-71120000D03*
%TD*%
%TO.C,REF\u002A\u002A*%
X154940000Y-68580000D03*
%TD*%
%TO.C,REF\u002A\u002A*%
X152400000Y-76200000D03*
%TD*%
%TO.C,REF\u002A\u002A*%
X152400000Y-73660000D03*
%TD*%
%TO.C,REF\u002A\u002A*%
X154940000Y-73660000D03*
%TD*%
%TO.C,REF\u002A\u002A*%
X154940000Y-76200000D03*
%TD*%
%TO.C,REF\u002A\u002A*%
X152400000Y-91440000D03*
%TD*%
%TO.C,REF\u002A\u002A*%
X154940000Y-91440000D03*
%TD*%
%TO.C,REF\u002A\u002A*%
X152400000Y-88900000D03*
%TD*%
%TO.C,REF\u002A\u002A*%
X154940000Y-83820000D03*
%TD*%
%TO.C,REF\u002A\u002A*%
X152400000Y-86360000D03*
%TD*%
%TO.C,REF\u002A\u002A*%
X154940000Y-86360000D03*
%TD*%
%TO.C,REF\u002A\u002A*%
X152400000Y-83820000D03*
%TD*%
%TO.C,REF\u002A\u002A*%
X154940000Y-88900000D03*
%TD*%
%TO.C,REF\u002A\u002A*%
X147320000Y-91440000D03*
%TD*%
%TO.C,REF\u002A\u002A*%
X139700000Y-88900000D03*
%TD*%
%TO.C,REF\u002A\u002A*%
X144780000Y-88900000D03*
%TD*%
%TO.C,REF\u002A\u002A*%
X149860000Y-88900000D03*
%TD*%
%TO.C,REF\u002A\u002A*%
X147320000Y-88900000D03*
%TD*%
%TO.C,REF\u002A\u002A*%
X144780000Y-91440000D03*
%TD*%
%TO.C,REF\u002A\u002A*%
X149860000Y-91440000D03*
%TD*%
%TO.C,REF\u002A\u002A*%
X139700000Y-91440000D03*
%TD*%
%TO.C,REF\u002A\u002A*%
X142240000Y-91440000D03*
%TD*%
%TO.C,REF\u002A\u002A*%
X142240000Y-88900000D03*
%TD*%
%TO.C,REF\u002A\u002A*%
X137160000Y-83820000D03*
%TD*%
%TO.C,REF\u002A\u002A*%
X147320000Y-86360000D03*
%TD*%
%TO.C,REF\u002A\u002A*%
X139700000Y-83820000D03*
%TD*%
%TO.C,REF\u002A\u002A*%
X144780000Y-83820000D03*
%TD*%
%TO.C,REF\u002A\u002A*%
X149860000Y-83820000D03*
%TD*%
%TO.C,REF\u002A\u002A*%
X147320000Y-83820000D03*
%TD*%
%TO.C,REF\u002A\u002A*%
X144780000Y-86360000D03*
%TD*%
%TO.C,REF\u002A\u002A*%
X149860000Y-86360000D03*
%TD*%
%TO.C,REF\u002A\u002A*%
X137160000Y-86360000D03*
%TD*%
%TO.C,REF\u002A\u002A*%
X139700000Y-86360000D03*
%TD*%
%TO.C,REF\u002A\u002A*%
X142240000Y-86360000D03*
%TD*%
%TO.C,REF\u002A\u002A*%
X142240000Y-83820000D03*
%TD*%
%TO.C,REF\u002A\u002A*%
X137160000Y-78740000D03*
%TD*%
%TO.C,REF\u002A\u002A*%
X147320000Y-81280000D03*
%TD*%
%TO.C,REF\u002A\u002A*%
X139700000Y-78740000D03*
%TD*%
%TO.C,REF\u002A\u002A*%
X144780000Y-78740000D03*
%TD*%
%TO.C,REF\u002A\u002A*%
X149860000Y-78740000D03*
%TD*%
%TO.C,REF\u002A\u002A*%
X147320000Y-78740000D03*
%TD*%
%TO.C,REF\u002A\u002A*%
X144780000Y-81280000D03*
%TD*%
%TO.C,REF\u002A\u002A*%
X149860000Y-81280000D03*
%TD*%
%TO.C,REF\u002A\u002A*%
X137160000Y-81280000D03*
%TD*%
%TO.C,REF\u002A\u002A*%
X139700000Y-81280000D03*
%TD*%
%TO.C,REF\u002A\u002A*%
X142240000Y-81280000D03*
%TD*%
%TO.C,REF\u002A\u002A*%
X142240000Y-78740000D03*
%TD*%
%TO.C,REF\u002A\u002A*%
X137160000Y-73660000D03*
%TD*%
%TO.C,REF\u002A\u002A*%
X147320000Y-76200000D03*
%TD*%
%TO.C,REF\u002A\u002A*%
X139700000Y-73660000D03*
%TD*%
%TO.C,REF\u002A\u002A*%
X144780000Y-73660000D03*
%TD*%
%TO.C,REF\u002A\u002A*%
X149860000Y-73660000D03*
%TD*%
%TO.C,REF\u002A\u002A*%
X147320000Y-73660000D03*
%TD*%
%TO.C,REF\u002A\u002A*%
X144780000Y-76200000D03*
%TD*%
%TO.C,REF\u002A\u002A*%
X149860000Y-76200000D03*
%TD*%
%TO.C,REF\u002A\u002A*%
X137160000Y-76200000D03*
%TD*%
%TO.C,REF\u002A\u002A*%
X139700000Y-76200000D03*
%TD*%
%TO.C,REF\u002A\u002A*%
X142240000Y-76200000D03*
%TD*%
%TO.C,REF\u002A\u002A*%
X142240000Y-73660000D03*
%TD*%
%TO.C,REF\u002A\u002A*%
X137160000Y-68580000D03*
%TD*%
%TO.C,REF\u002A\u002A*%
X147320000Y-71120000D03*
%TD*%
%TO.C,REF\u002A\u002A*%
X139700000Y-68580000D03*
%TD*%
%TO.C,REF\u002A\u002A*%
X144780000Y-68580000D03*
%TD*%
%TO.C,REF\u002A\u002A*%
X149860000Y-68580000D03*
%TD*%
%TO.C,REF\u002A\u002A*%
X147320000Y-68580000D03*
%TD*%
%TO.C,REF\u002A\u002A*%
X144780000Y-71120000D03*
%TD*%
%TO.C,REF\u002A\u002A*%
X149860000Y-71120000D03*
%TD*%
%TO.C,REF\u002A\u002A*%
X137160000Y-71120000D03*
%TD*%
%TO.C,REF\u002A\u002A*%
X139700000Y-71120000D03*
%TD*%
%TO.C,REF\u002A\u002A*%
X142240000Y-71120000D03*
%TD*%
%TO.C,REF\u002A\u002A*%
X142240000Y-68580000D03*
%TD*%
%TO.C,REF\u002A\u002A*%
X137160000Y-63500000D03*
%TD*%
%TO.C,REF\u002A\u002A*%
X147320000Y-66040000D03*
%TD*%
%TO.C,REF\u002A\u002A*%
X139700000Y-63500000D03*
%TD*%
%TO.C,REF\u002A\u002A*%
X144780000Y-63500000D03*
%TD*%
%TO.C,REF\u002A\u002A*%
X149860000Y-63500000D03*
%TD*%
%TO.C,REF\u002A\u002A*%
X147320000Y-63500000D03*
%TD*%
%TO.C,REF\u002A\u002A*%
X144780000Y-66040000D03*
%TD*%
%TO.C,REF\u002A\u002A*%
X149860000Y-66040000D03*
%TD*%
%TO.C,REF\u002A\u002A*%
X137160000Y-66040000D03*
%TD*%
%TO.C,REF\u002A\u002A*%
X139700000Y-66040000D03*
%TD*%
%TO.C,REF\u002A\u002A*%
X142240000Y-66040000D03*
%TD*%
%TO.C,REF\u002A\u002A*%
X142240000Y-63500000D03*
%TD*%
%TO.C,REF\u002A\u002A*%
X149860000Y-58420000D03*
%TD*%
%TO.C,REF\u002A\u002A*%
X149860000Y-60960000D03*
%TD*%
%TO.C,REF\u002A\u002A*%
X147320000Y-58420000D03*
%TD*%
%TO.C,REF\u002A\u002A*%
X147320000Y-60960000D03*
%TD*%
%TO.C,REF\u002A\u002A*%
X144780000Y-58420000D03*
%TD*%
%TO.C,REF\u002A\u002A*%
X144780000Y-60960000D03*
%TD*%
%TO.C,REF\u002A\u002A*%
X142240000Y-58420000D03*
%TD*%
%TO.C,REF\u002A\u002A*%
X142240000Y-60960000D03*
%TD*%
%TO.C,REF\u002A\u002A*%
X139700000Y-58420000D03*
%TD*%
%TO.C,REF\u002A\u002A*%
X139700000Y-60960000D03*
%TD*%
%TO.C,REF\u002A\u002A*%
X137160000Y-58420000D03*
%TD*%
%TO.C,REF\u002A\u002A*%
X137160000Y-60960000D03*
%TD*%
D11*
%TO.C,H4*%
X103297056Y-57362944D03*
X101600000Y-56660000D03*
X99902944Y-57362944D03*
X99200000Y-59060000D03*
X99902944Y-60757056D03*
X101600000Y-61460000D03*
X103297056Y-60757056D03*
X104000000Y-59060000D03*
D12*
X101600000Y-59060000D03*
%TD*%
D11*
%TO.C,H3*%
X163297056Y-57362944D03*
X161600000Y-56660000D03*
X159902944Y-57362944D03*
X159200000Y-59060000D03*
X159902944Y-60757056D03*
X161600000Y-61460000D03*
X163297056Y-60757056D03*
X164000000Y-59060000D03*
D12*
X161600000Y-59060000D03*
%TD*%
D11*
%TO.C,H2*%
X163297056Y-97362944D03*
X161600000Y-96660000D03*
X159902944Y-97362944D03*
X159200000Y-99060000D03*
X159902944Y-100757056D03*
X161600000Y-101460000D03*
X163297056Y-100757056D03*
X164000000Y-99060000D03*
D12*
X161600000Y-99060000D03*
%TD*%
D11*
%TO.C,H1*%
X103297056Y-97362944D03*
X101600000Y-96660000D03*
X99902944Y-97362944D03*
X99200000Y-99060000D03*
X99902944Y-100757056D03*
X101600000Y-101460000D03*
X103297056Y-100757056D03*
X104000000Y-99060000D03*
D12*
X101600000Y-99060000D03*
%TD*%
D13*
%TO.C,Y1*%
X107696000Y-69972000D03*
X107696000Y-68072000D03*
%TD*%
D14*
%TO.C,U5*%
X137140000Y-93980000D03*
X139680000Y-93980000D03*
X142220000Y-93980000D03*
D15*
X144760000Y-93980000D03*
%TD*%
D16*
%TO.C,TP12*%
X132080000Y-63500000D03*
%TD*%
%TO.C,TP11*%
X132080000Y-66040000D03*
%TD*%
%TO.C,TP10*%
X132080000Y-68580000D03*
%TD*%
%TO.C,TP9*%
X132080000Y-71120000D03*
%TD*%
%TO.C,TP8*%
X132080000Y-73660000D03*
%TD*%
%TO.C,TP7*%
X132080000Y-76200000D03*
%TD*%
%TO.C,TP6*%
X132080000Y-78740000D03*
%TD*%
%TO.C,TP5*%
X132080000Y-81280000D03*
%TD*%
%TO.C,TP4*%
X132080000Y-83820000D03*
%TD*%
%TO.C,TP3*%
X132080000Y-86360000D03*
%TD*%
%TO.C,TP2*%
X132080000Y-88900000D03*
%TD*%
%TO.C,TP1*%
X132080000Y-91440000D03*
%TD*%
D14*
%TO.C,J2*%
X100330000Y-77470000D03*
X100330000Y-74930000D03*
X102870000Y-77470000D03*
X102870000Y-74930000D03*
X105410000Y-77470000D03*
D15*
X105410000Y-74930000D03*
%TD*%
D17*
%TO.C,J1*%
X106680000Y-91440000D03*
G36*
G01*
X105930000Y-88090000D02*
X107430000Y-88090000D01*
G75*
G02*
X107680000Y-88340000I0J-250000D01*
G01*
X107680000Y-89540000D01*
G75*
G02*
X107430000Y-89790000I-250000J0D01*
G01*
X105930000Y-89790000D01*
G75*
G02*
X105680000Y-89540000I0J250000D01*
G01*
X105680000Y-88340000D01*
G75*
G02*
X105930000Y-88090000I250000J0D01*
G01*
G37*
%TD*%
M02*
