%TF.GenerationSoftware,KiCad,Pcbnew,(5.1.10)-1*%
%TF.CreationDate,2021-09-16T15:44:01+01:00*%
%TF.ProjectId,Eos-Board,456f732d-426f-4617-9264-2e6b69636164,rev?*%
%TF.SameCoordinates,Original*%
%TF.FileFunction,Copper,L1,Top*%
%TF.FilePolarity,Positive*%
%FSLAX46Y46*%
G04 Gerber Fmt 4.6, Leading zero omitted, Abs format (unit mm)*
G04 Created by KiCad (PCBNEW (5.1.10)-1) date 2021-09-16 15:44:01*
%MOMM*%
%LPD*%
G01*
G04 APERTURE LIST*
%TA.AperFunction,EtchedComponent*%
%ADD10C,0.100000*%
%TD*%
%TA.AperFunction,SMDPad,CuDef*%
%ADD11R,1.700000X1.000000*%
%TD*%
%TA.AperFunction,ComponentPad*%
%ADD12C,1.700000*%
%TD*%
%TA.AperFunction,ComponentPad*%
%ADD13C,0.800000*%
%TD*%
%TA.AperFunction,ComponentPad*%
%ADD14C,6.400000*%
%TD*%
%TA.AperFunction,ComponentPad*%
%ADD15C,1.000000*%
%TD*%
%TA.AperFunction,ComponentPad*%
%ADD16O,1.700000X1.700000*%
%TD*%
%TA.AperFunction,ComponentPad*%
%ADD17R,1.700000X1.700000*%
%TD*%
%TA.AperFunction,SMDPad,CuDef*%
%ADD18R,1.000000X1.000000*%
%TD*%
%TA.AperFunction,SMDPad,CuDef*%
%ADD19R,1.060000X0.650000*%
%TD*%
%TA.AperFunction,ComponentPad*%
%ADD20C,2.000000*%
%TD*%
%TA.AperFunction,SMDPad,CuDef*%
%ADD21R,1.000000X1.300000*%
%TD*%
%TA.AperFunction,SMDPad,CuDef*%
%ADD22C,0.100000*%
%TD*%
%TA.AperFunction,ComponentPad*%
%ADD23O,2.000000X1.700000*%
%TD*%
%TA.AperFunction,ViaPad*%
%ADD24C,0.800000*%
%TD*%
%TA.AperFunction,Conductor*%
%ADD25C,0.500000*%
%TD*%
%TA.AperFunction,Conductor*%
%ADD26C,0.254000*%
%TD*%
%TA.AperFunction,Conductor*%
%ADD27C,0.100000*%
%TD*%
G04 APERTURE END LIST*
D10*
%TO.C,JP3*%
G36*
X117140000Y-62988000D02*
G01*
X117140000Y-62488000D01*
X116540000Y-62488000D01*
X116540000Y-62988000D01*
X117140000Y-62988000D01*
G37*
%TO.C,JP2*%
G36*
X119680000Y-62988000D02*
G01*
X119680000Y-62488000D01*
X119080000Y-62488000D01*
X119080000Y-62988000D01*
X119680000Y-62988000D01*
G37*
%TO.C,JP1*%
G36*
X122220000Y-62988000D02*
G01*
X122220000Y-62488000D01*
X121620000Y-62488000D01*
X121620000Y-62988000D01*
X122220000Y-62988000D01*
G37*
%TD*%
D11*
%TO.P,SW2,2*%
%TO.N,/BUTT1*%
X113132000Y-64130000D03*
X106832000Y-64130000D03*
%TO.P,SW2,1*%
%TO.N,+3V3*%
X113132000Y-60330000D03*
X106832000Y-60330000D03*
%TD*%
%TO.P,R9,2*%
%TO.N,/BUTT1*%
%TA.AperFunction,SMDPad,CuDef*%
G36*
G01*
X104311000Y-64537000D02*
X104311000Y-63987000D01*
G75*
G02*
X104511000Y-63787000I200000J0D01*
G01*
X104911000Y-63787000D01*
G75*
G02*
X105111000Y-63987000I0J-200000D01*
G01*
X105111000Y-64537000D01*
G75*
G02*
X104911000Y-64737000I-200000J0D01*
G01*
X104511000Y-64737000D01*
G75*
G02*
X104311000Y-64537000I0J200000D01*
G01*
G37*
%TD.AperFunction*%
%TO.P,R9,1*%
%TO.N,GND*%
%TA.AperFunction,SMDPad,CuDef*%
G36*
G01*
X102661000Y-64537000D02*
X102661000Y-63987000D01*
G75*
G02*
X102861000Y-63787000I200000J0D01*
G01*
X103261000Y-63787000D01*
G75*
G02*
X103461000Y-63987000I0J-200000D01*
G01*
X103461000Y-64537000D01*
G75*
G02*
X103261000Y-64737000I-200000J0D01*
G01*
X102861000Y-64737000D01*
G75*
G02*
X102661000Y-64537000I0J200000D01*
G01*
G37*
%TD.AperFunction*%
%TD*%
%TO.P,U6,8*%
%TO.N,+3V3*%
%TA.AperFunction,SMDPad,CuDef*%
G36*
G01*
X113007000Y-71096000D02*
X113307000Y-71096000D01*
G75*
G02*
X113457000Y-71246000I0J-150000D01*
G01*
X113457000Y-72896000D01*
G75*
G02*
X113307000Y-73046000I-150000J0D01*
G01*
X113007000Y-73046000D01*
G75*
G02*
X112857000Y-72896000I0J150000D01*
G01*
X112857000Y-71246000D01*
G75*
G02*
X113007000Y-71096000I150000J0D01*
G01*
G37*
%TD.AperFunction*%
%TO.P,U6,7*%
%TO.N,/RTC_MFP*%
%TA.AperFunction,SMDPad,CuDef*%
G36*
G01*
X111737000Y-71096000D02*
X112037000Y-71096000D01*
G75*
G02*
X112187000Y-71246000I0J-150000D01*
G01*
X112187000Y-72896000D01*
G75*
G02*
X112037000Y-73046000I-150000J0D01*
G01*
X111737000Y-73046000D01*
G75*
G02*
X111587000Y-72896000I0J150000D01*
G01*
X111587000Y-71246000D01*
G75*
G02*
X111737000Y-71096000I150000J0D01*
G01*
G37*
%TD.AperFunction*%
%TO.P,U6,6*%
%TO.N,/SCK*%
%TA.AperFunction,SMDPad,CuDef*%
G36*
G01*
X110467000Y-71096000D02*
X110767000Y-71096000D01*
G75*
G02*
X110917000Y-71246000I0J-150000D01*
G01*
X110917000Y-72896000D01*
G75*
G02*
X110767000Y-73046000I-150000J0D01*
G01*
X110467000Y-73046000D01*
G75*
G02*
X110317000Y-72896000I0J150000D01*
G01*
X110317000Y-71246000D01*
G75*
G02*
X110467000Y-71096000I150000J0D01*
G01*
G37*
%TD.AperFunction*%
%TO.P,U6,5*%
%TO.N,/MOSI*%
%TA.AperFunction,SMDPad,CuDef*%
G36*
G01*
X109197000Y-71096000D02*
X109497000Y-71096000D01*
G75*
G02*
X109647000Y-71246000I0J-150000D01*
G01*
X109647000Y-72896000D01*
G75*
G02*
X109497000Y-73046000I-150000J0D01*
G01*
X109197000Y-73046000D01*
G75*
G02*
X109047000Y-72896000I0J150000D01*
G01*
X109047000Y-71246000D01*
G75*
G02*
X109197000Y-71096000I150000J0D01*
G01*
G37*
%TD.AperFunction*%
%TO.P,U6,4*%
%TO.N,GND*%
%TA.AperFunction,SMDPad,CuDef*%
G36*
G01*
X109197000Y-66146000D02*
X109497000Y-66146000D01*
G75*
G02*
X109647000Y-66296000I0J-150000D01*
G01*
X109647000Y-67946000D01*
G75*
G02*
X109497000Y-68096000I-150000J0D01*
G01*
X109197000Y-68096000D01*
G75*
G02*
X109047000Y-67946000I0J150000D01*
G01*
X109047000Y-66296000D01*
G75*
G02*
X109197000Y-66146000I150000J0D01*
G01*
G37*
%TD.AperFunction*%
%TO.P,U6,3*%
%TO.N,N/C*%
%TA.AperFunction,SMDPad,CuDef*%
G36*
G01*
X110467000Y-66146000D02*
X110767000Y-66146000D01*
G75*
G02*
X110917000Y-66296000I0J-150000D01*
G01*
X110917000Y-67946000D01*
G75*
G02*
X110767000Y-68096000I-150000J0D01*
G01*
X110467000Y-68096000D01*
G75*
G02*
X110317000Y-67946000I0J150000D01*
G01*
X110317000Y-66296000D01*
G75*
G02*
X110467000Y-66146000I150000J0D01*
G01*
G37*
%TD.AperFunction*%
%TO.P,U6,2*%
%TO.N,Net-(C9-Pad2)*%
%TA.AperFunction,SMDPad,CuDef*%
G36*
G01*
X111737000Y-66146000D02*
X112037000Y-66146000D01*
G75*
G02*
X112187000Y-66296000I0J-150000D01*
G01*
X112187000Y-67946000D01*
G75*
G02*
X112037000Y-68096000I-150000J0D01*
G01*
X111737000Y-68096000D01*
G75*
G02*
X111587000Y-67946000I0J150000D01*
G01*
X111587000Y-66296000D01*
G75*
G02*
X111737000Y-66146000I150000J0D01*
G01*
G37*
%TD.AperFunction*%
%TO.P,U6,1*%
%TO.N,Net-(C8-Pad2)*%
%TA.AperFunction,SMDPad,CuDef*%
G36*
G01*
X113007000Y-66146000D02*
X113307000Y-66146000D01*
G75*
G02*
X113457000Y-66296000I0J-150000D01*
G01*
X113457000Y-67946000D01*
G75*
G02*
X113307000Y-68096000I-150000J0D01*
G01*
X113007000Y-68096000D01*
G75*
G02*
X112857000Y-67946000I0J150000D01*
G01*
X112857000Y-66296000D01*
G75*
G02*
X113007000Y-66146000I150000J0D01*
G01*
G37*
%TD.AperFunction*%
%TD*%
D12*
%TO.P,REF\u002A\u002A,*%
%TO.N,*%
X134620000Y-91440000D03*
%TD*%
%TO.P,REF\u002A\u002A,*%
%TO.N,*%
X134620000Y-88900000D03*
%TD*%
%TO.P,REF\u002A\u002A,*%
%TO.N,*%
X137160000Y-91440000D03*
%TD*%
%TO.P,REF\u002A\u002A,*%
%TO.N,*%
X137160000Y-88900000D03*
%TD*%
%TO.P,REF\u002A\u002A,*%
%TO.N,*%
X162560000Y-71120000D03*
%TD*%
%TO.P,REF\u002A\u002A,*%
%TO.N,*%
X162560000Y-68580000D03*
%TD*%
%TO.P,REF\u002A\u002A,*%
%TO.N,*%
X162560000Y-86360000D03*
%TD*%
%TO.P,REF\u002A\u002A,*%
%TO.N,*%
X162560000Y-73660000D03*
%TD*%
%TO.P,REF\u002A\u002A,*%
%TO.N,*%
X162560000Y-81280000D03*
%TD*%
%TO.P,REF\u002A\u002A,*%
%TO.N,*%
X162560000Y-76200000D03*
%TD*%
%TO.P,REF\u002A\u002A,*%
%TO.N,*%
X162560000Y-88900000D03*
%TD*%
%TO.P,REF\u002A\u002A,*%
%TO.N,*%
X162560000Y-66040000D03*
%TD*%
%TO.P,REF\u002A\u002A,*%
%TO.N,*%
X162560000Y-91440000D03*
%TD*%
%TO.P,REF\u002A\u002A,*%
%TO.N,*%
X162560000Y-83820000D03*
%TD*%
%TO.P,REF\u002A\u002A,*%
%TO.N,*%
X162560000Y-78740000D03*
%TD*%
%TO.P,REF\u002A\u002A,*%
%TO.N,*%
X160020000Y-83820000D03*
%TD*%
%TO.P,REF\u002A\u002A,*%
%TO.N,*%
X160020000Y-86360000D03*
%TD*%
%TO.P,REF\u002A\u002A,*%
%TO.N,*%
X160020000Y-88900000D03*
%TD*%
%TO.P,REF\u002A\u002A,*%
%TO.N,*%
X160020000Y-78740000D03*
%TD*%
%TO.P,REF\u002A\u002A,*%
%TO.N,*%
X160020000Y-66040000D03*
%TD*%
%TO.P,REF\u002A\u002A,*%
%TO.N,*%
X160020000Y-73660000D03*
%TD*%
%TO.P,REF\u002A\u002A,*%
%TO.N,*%
X160020000Y-71120000D03*
%TD*%
%TO.P,REF\u002A\u002A,*%
%TO.N,*%
X160020000Y-68580000D03*
%TD*%
%TO.P,REF\u002A\u002A,*%
%TO.N,*%
X160020000Y-91440000D03*
%TD*%
%TO.P,REF\u002A\u002A,*%
%TO.N,*%
X160020000Y-76200000D03*
%TD*%
%TO.P,REF\u002A\u002A,*%
%TO.N,*%
X160020000Y-81280000D03*
%TD*%
%TO.P,REF\u002A\u002A,*%
%TO.N,*%
X157480000Y-93980000D03*
%TD*%
%TO.P,REF\u002A\u002A,*%
%TO.N,*%
X157480000Y-71120000D03*
%TD*%
%TO.P,REF\u002A\u002A,*%
%TO.N,*%
X157480000Y-68580000D03*
%TD*%
%TO.P,REF\u002A\u002A,*%
%TO.N,*%
X157480000Y-76200000D03*
%TD*%
%TO.P,REF\u002A\u002A,*%
%TO.N,*%
X157480000Y-73660000D03*
%TD*%
%TO.P,REF\u002A\u002A,*%
%TO.N,*%
X157480000Y-91440000D03*
%TD*%
%TO.P,REF\u002A\u002A,*%
%TO.N,*%
X157480000Y-81280000D03*
%TD*%
%TO.P,REF\u002A\u002A,*%
%TO.N,*%
X157480000Y-78740000D03*
%TD*%
%TO.P,REF\u002A\u002A,*%
%TO.N,*%
X157480000Y-66040000D03*
%TD*%
%TO.P,REF\u002A\u002A,*%
%TO.N,*%
X157480000Y-63500000D03*
%TD*%
%TO.P,REF\u002A\u002A,*%
%TO.N,*%
X157480000Y-86360000D03*
%TD*%
%TO.P,REF\u002A\u002A,*%
%TO.N,*%
X157480000Y-83820000D03*
%TD*%
%TO.P,REF\u002A\u002A,*%
%TO.N,*%
X157480000Y-88900000D03*
%TD*%
%TO.P,REF\u002A\u002A,*%
%TO.N,*%
X152400000Y-93980000D03*
%TD*%
%TO.P,REF\u002A\u002A,*%
%TO.N,*%
X154940000Y-93980000D03*
%TD*%
%TO.P,REF\u002A\u002A,*%
%TO.N,*%
X147320000Y-93980000D03*
%TD*%
%TO.P,REF\u002A\u002A,*%
%TO.N,*%
X149860000Y-93980000D03*
%TD*%
%TO.P,REF\u002A\u002A,*%
%TO.N,*%
X134620000Y-58420000D03*
%TD*%
%TO.P,REF\u002A\u002A,*%
%TO.N,*%
X134620000Y-60960000D03*
%TD*%
%TO.P,REF\u002A\u002A,*%
%TO.N,*%
X134620000Y-71120000D03*
%TD*%
%TO.P,REF\u002A\u002A,*%
%TO.N,*%
X134620000Y-63500000D03*
%TD*%
%TO.P,REF\u002A\u002A,*%
%TO.N,*%
X134620000Y-66040000D03*
%TD*%
%TO.P,REF\u002A\u002A,*%
%TO.N,*%
X134620000Y-68580000D03*
%TD*%
%TO.P,REF\u002A\u002A,*%
%TO.N,*%
X134620000Y-73660000D03*
%TD*%
%TO.P,REF\u002A\u002A,*%
%TO.N,*%
X134620000Y-76200000D03*
%TD*%
%TO.P,REF\u002A\u002A,*%
%TO.N,*%
X134620000Y-78740000D03*
%TD*%
%TO.P,REF\u002A\u002A,*%
%TO.N,*%
X134620000Y-86360000D03*
%TD*%
%TO.P,REF\u002A\u002A,*%
%TO.N,*%
X134620000Y-81280000D03*
%TD*%
%TO.P,REF\u002A\u002A,*%
%TO.N,*%
X134620000Y-83820000D03*
%TD*%
%TO.P,REF\u002A\u002A,*%
%TO.N,*%
X152400000Y-78740000D03*
%TD*%
%TO.P,REF\u002A\u002A,*%
%TO.N,*%
X152400000Y-81280000D03*
%TD*%
%TO.P,REF\u002A\u002A,*%
%TO.N,*%
X154940000Y-78740000D03*
%TD*%
%TO.P,REF\u002A\u002A,*%
%TO.N,*%
X154940000Y-81280000D03*
%TD*%
%TO.P,REF\u002A\u002A,*%
%TO.N,*%
X152400000Y-71120000D03*
%TD*%
%TO.P,REF\u002A\u002A,*%
%TO.N,*%
X152400000Y-68580000D03*
%TD*%
%TO.P,REF\u002A\u002A,*%
%TO.N,*%
X152400000Y-66040000D03*
%TD*%
%TO.P,REF\u002A\u002A,*%
%TO.N,*%
X154940000Y-63500000D03*
%TD*%
%TO.P,REF\u002A\u002A,*%
%TO.N,*%
X152400000Y-63500000D03*
%TD*%
%TO.P,REF\u002A\u002A,*%
%TO.N,*%
X152400000Y-60960000D03*
%TD*%
%TO.P,REF\u002A\u002A,*%
%TO.N,*%
X154940000Y-58420000D03*
%TD*%
%TO.P,REF\u002A\u002A,*%
%TO.N,*%
X152400000Y-58420000D03*
%TD*%
%TO.P,REF\u002A\u002A,*%
%TO.N,*%
X154940000Y-66040000D03*
%TD*%
%TO.P,REF\u002A\u002A,*%
%TO.N,*%
X154940000Y-60960000D03*
%TD*%
%TO.P,REF\u002A\u002A,*%
%TO.N,*%
X154940000Y-71120000D03*
%TD*%
%TO.P,REF\u002A\u002A,*%
%TO.N,*%
X154940000Y-68580000D03*
%TD*%
%TO.P,REF\u002A\u002A,*%
%TO.N,*%
X152400000Y-76200000D03*
%TD*%
%TO.P,REF\u002A\u002A,*%
%TO.N,*%
X152400000Y-73660000D03*
%TD*%
%TO.P,REF\u002A\u002A,*%
%TO.N,*%
X154940000Y-73660000D03*
%TD*%
%TO.P,REF\u002A\u002A,*%
%TO.N,*%
X154940000Y-76200000D03*
%TD*%
%TO.P,REF\u002A\u002A,*%
%TO.N,*%
X152400000Y-91440000D03*
%TD*%
%TO.P,REF\u002A\u002A,*%
%TO.N,*%
X154940000Y-91440000D03*
%TD*%
%TO.P,REF\u002A\u002A,*%
%TO.N,*%
X152400000Y-88900000D03*
%TD*%
%TO.P,REF\u002A\u002A,*%
%TO.N,*%
X154940000Y-83820000D03*
%TD*%
%TO.P,REF\u002A\u002A,*%
%TO.N,*%
X152400000Y-86360000D03*
%TD*%
%TO.P,REF\u002A\u002A,*%
%TO.N,*%
X154940000Y-86360000D03*
%TD*%
%TO.P,REF\u002A\u002A,*%
%TO.N,*%
X152400000Y-83820000D03*
%TD*%
%TO.P,REF\u002A\u002A,*%
%TO.N,*%
X154940000Y-88900000D03*
%TD*%
%TO.P,REF\u002A\u002A,*%
%TO.N,*%
X147320000Y-91440000D03*
%TD*%
%TO.P,REF\u002A\u002A,*%
%TO.N,*%
X139700000Y-88900000D03*
%TD*%
%TO.P,REF\u002A\u002A,*%
%TO.N,*%
X144780000Y-88900000D03*
%TD*%
%TO.P,REF\u002A\u002A,*%
%TO.N,*%
X149860000Y-88900000D03*
%TD*%
%TO.P,REF\u002A\u002A,*%
%TO.N,*%
X147320000Y-88900000D03*
%TD*%
%TO.P,REF\u002A\u002A,*%
%TO.N,*%
X144780000Y-91440000D03*
%TD*%
%TO.P,REF\u002A\u002A,*%
%TO.N,*%
X149860000Y-91440000D03*
%TD*%
%TO.P,REF\u002A\u002A,*%
%TO.N,*%
X139700000Y-91440000D03*
%TD*%
%TO.P,REF\u002A\u002A,*%
%TO.N,*%
X142240000Y-91440000D03*
%TD*%
%TO.P,REF\u002A\u002A,*%
%TO.N,*%
X142240000Y-88900000D03*
%TD*%
%TO.P,REF\u002A\u002A,*%
%TO.N,*%
X137160000Y-83820000D03*
%TD*%
%TO.P,REF\u002A\u002A,*%
%TO.N,*%
X147320000Y-86360000D03*
%TD*%
%TO.P,REF\u002A\u002A,*%
%TO.N,*%
X139700000Y-83820000D03*
%TD*%
%TO.P,REF\u002A\u002A,*%
%TO.N,*%
X144780000Y-83820000D03*
%TD*%
%TO.P,REF\u002A\u002A,*%
%TO.N,*%
X149860000Y-83820000D03*
%TD*%
%TO.P,REF\u002A\u002A,*%
%TO.N,*%
X147320000Y-83820000D03*
%TD*%
%TO.P,REF\u002A\u002A,*%
%TO.N,*%
X144780000Y-86360000D03*
%TD*%
%TO.P,REF\u002A\u002A,*%
%TO.N,*%
X149860000Y-86360000D03*
%TD*%
%TO.P,REF\u002A\u002A,*%
%TO.N,*%
X137160000Y-86360000D03*
%TD*%
%TO.P,REF\u002A\u002A,*%
%TO.N,*%
X139700000Y-86360000D03*
%TD*%
%TO.P,REF\u002A\u002A,*%
%TO.N,*%
X142240000Y-86360000D03*
%TD*%
%TO.P,REF\u002A\u002A,*%
%TO.N,*%
X142240000Y-83820000D03*
%TD*%
%TO.P,REF\u002A\u002A,*%
%TO.N,*%
X137160000Y-78740000D03*
%TD*%
%TO.P,REF\u002A\u002A,*%
%TO.N,*%
X147320000Y-81280000D03*
%TD*%
%TO.P,REF\u002A\u002A,*%
%TO.N,*%
X139700000Y-78740000D03*
%TD*%
%TO.P,REF\u002A\u002A,*%
%TO.N,*%
X144780000Y-78740000D03*
%TD*%
%TO.P,REF\u002A\u002A,*%
%TO.N,*%
X149860000Y-78740000D03*
%TD*%
%TO.P,REF\u002A\u002A,*%
%TO.N,*%
X147320000Y-78740000D03*
%TD*%
%TO.P,REF\u002A\u002A,*%
%TO.N,*%
X144780000Y-81280000D03*
%TD*%
%TO.P,REF\u002A\u002A,*%
%TO.N,*%
X149860000Y-81280000D03*
%TD*%
%TO.P,REF\u002A\u002A,*%
%TO.N,*%
X137160000Y-81280000D03*
%TD*%
%TO.P,REF\u002A\u002A,*%
%TO.N,*%
X139700000Y-81280000D03*
%TD*%
%TO.P,REF\u002A\u002A,*%
%TO.N,*%
X142240000Y-81280000D03*
%TD*%
%TO.P,REF\u002A\u002A,*%
%TO.N,*%
X142240000Y-78740000D03*
%TD*%
%TO.P,REF\u002A\u002A,*%
%TO.N,*%
X137160000Y-73660000D03*
%TD*%
%TO.P,REF\u002A\u002A,*%
%TO.N,*%
X147320000Y-76200000D03*
%TD*%
%TO.P,REF\u002A\u002A,*%
%TO.N,*%
X139700000Y-73660000D03*
%TD*%
%TO.P,REF\u002A\u002A,*%
%TO.N,*%
X144780000Y-73660000D03*
%TD*%
%TO.P,REF\u002A\u002A,*%
%TO.N,*%
X149860000Y-73660000D03*
%TD*%
%TO.P,REF\u002A\u002A,*%
%TO.N,*%
X147320000Y-73660000D03*
%TD*%
%TO.P,REF\u002A\u002A,*%
%TO.N,*%
X144780000Y-76200000D03*
%TD*%
%TO.P,REF\u002A\u002A,*%
%TO.N,*%
X149860000Y-76200000D03*
%TD*%
%TO.P,REF\u002A\u002A,*%
%TO.N,*%
X137160000Y-76200000D03*
%TD*%
%TO.P,REF\u002A\u002A,*%
%TO.N,*%
X139700000Y-76200000D03*
%TD*%
%TO.P,REF\u002A\u002A,*%
%TO.N,*%
X142240000Y-76200000D03*
%TD*%
%TO.P,REF\u002A\u002A,*%
%TO.N,*%
X142240000Y-73660000D03*
%TD*%
%TO.P,REF\u002A\u002A,*%
%TO.N,*%
X137160000Y-68580000D03*
%TD*%
%TO.P,REF\u002A\u002A,*%
%TO.N,*%
X147320000Y-71120000D03*
%TD*%
%TO.P,REF\u002A\u002A,*%
%TO.N,*%
X139700000Y-68580000D03*
%TD*%
%TO.P,REF\u002A\u002A,*%
%TO.N,*%
X144780000Y-68580000D03*
%TD*%
%TO.P,REF\u002A\u002A,*%
%TO.N,*%
X149860000Y-68580000D03*
%TD*%
%TO.P,REF\u002A\u002A,*%
%TO.N,*%
X147320000Y-68580000D03*
%TD*%
%TO.P,REF\u002A\u002A,*%
%TO.N,*%
X144780000Y-71120000D03*
%TD*%
%TO.P,REF\u002A\u002A,*%
%TO.N,*%
X149860000Y-71120000D03*
%TD*%
%TO.P,REF\u002A\u002A,*%
%TO.N,*%
X137160000Y-71120000D03*
%TD*%
%TO.P,REF\u002A\u002A,*%
%TO.N,*%
X139700000Y-71120000D03*
%TD*%
%TO.P,REF\u002A\u002A,*%
%TO.N,*%
X142240000Y-71120000D03*
%TD*%
%TO.P,REF\u002A\u002A,*%
%TO.N,*%
X142240000Y-68580000D03*
%TD*%
%TO.P,REF\u002A\u002A,*%
%TO.N,*%
X137160000Y-63500000D03*
%TD*%
%TO.P,REF\u002A\u002A,*%
%TO.N,*%
X147320000Y-66040000D03*
%TD*%
%TO.P,REF\u002A\u002A,*%
%TO.N,*%
X139700000Y-63500000D03*
%TD*%
%TO.P,REF\u002A\u002A,*%
%TO.N,*%
X144780000Y-63500000D03*
%TD*%
%TO.P,REF\u002A\u002A,*%
%TO.N,*%
X149860000Y-63500000D03*
%TD*%
%TO.P,REF\u002A\u002A,*%
%TO.N,*%
X147320000Y-63500000D03*
%TD*%
%TO.P,REF\u002A\u002A,*%
%TO.N,*%
X144780000Y-66040000D03*
%TD*%
%TO.P,REF\u002A\u002A,*%
%TO.N,*%
X149860000Y-66040000D03*
%TD*%
%TO.P,REF\u002A\u002A,*%
%TO.N,*%
X137160000Y-66040000D03*
%TD*%
%TO.P,REF\u002A\u002A,*%
%TO.N,*%
X139700000Y-66040000D03*
%TD*%
%TO.P,REF\u002A\u002A,*%
%TO.N,*%
X142240000Y-66040000D03*
%TD*%
%TO.P,REF\u002A\u002A,*%
%TO.N,*%
X142240000Y-63500000D03*
%TD*%
%TO.P,REF\u002A\u002A,*%
%TO.N,*%
X149860000Y-58420000D03*
%TD*%
%TO.P,REF\u002A\u002A,*%
%TO.N,*%
X149860000Y-60960000D03*
%TD*%
%TO.P,REF\u002A\u002A,*%
%TO.N,*%
X147320000Y-58420000D03*
%TD*%
%TO.P,REF\u002A\u002A,*%
%TO.N,*%
X147320000Y-60960000D03*
%TD*%
%TO.P,REF\u002A\u002A,*%
%TO.N,*%
X144780000Y-58420000D03*
%TD*%
%TO.P,REF\u002A\u002A,*%
%TO.N,*%
X144780000Y-60960000D03*
%TD*%
%TO.P,REF\u002A\u002A,*%
%TO.N,*%
X142240000Y-58420000D03*
%TD*%
%TO.P,REF\u002A\u002A,*%
%TO.N,*%
X142240000Y-60960000D03*
%TD*%
%TO.P,REF\u002A\u002A,*%
%TO.N,*%
X139700000Y-58420000D03*
%TD*%
%TO.P,REF\u002A\u002A,*%
%TO.N,*%
X139700000Y-60960000D03*
%TD*%
%TO.P,REF\u002A\u002A,*%
%TO.N,*%
X137160000Y-58420000D03*
%TD*%
%TO.P,REF\u002A\u002A,*%
%TO.N,*%
X137160000Y-60960000D03*
%TD*%
D13*
%TO.P,H4,1*%
%TO.N,GND*%
X103297056Y-57362944D03*
X101600000Y-56660000D03*
X99902944Y-57362944D03*
X99200000Y-59060000D03*
X99902944Y-60757056D03*
X101600000Y-61460000D03*
X103297056Y-60757056D03*
X104000000Y-59060000D03*
D14*
X101600000Y-59060000D03*
%TD*%
D13*
%TO.P,H3,1*%
%TO.N,GND*%
X163297056Y-57362944D03*
X161600000Y-56660000D03*
X159902944Y-57362944D03*
X159200000Y-59060000D03*
X159902944Y-60757056D03*
X161600000Y-61460000D03*
X163297056Y-60757056D03*
X164000000Y-59060000D03*
D14*
X161600000Y-59060000D03*
%TD*%
D13*
%TO.P,H2,1*%
%TO.N,GND*%
X163297056Y-97362944D03*
X161600000Y-96660000D03*
X159902944Y-97362944D03*
X159200000Y-99060000D03*
X159902944Y-100757056D03*
X161600000Y-101460000D03*
X163297056Y-100757056D03*
X164000000Y-99060000D03*
D14*
X161600000Y-99060000D03*
%TD*%
D13*
%TO.P,H1,1*%
%TO.N,GND*%
X103297056Y-97362944D03*
X101600000Y-96660000D03*
X99902944Y-97362944D03*
X99200000Y-99060000D03*
X99902944Y-100757056D03*
X101600000Y-101460000D03*
X103297056Y-100757056D03*
X104000000Y-99060000D03*
D14*
X101600000Y-99060000D03*
%TD*%
D15*
%TO.P,Y1,2*%
%TO.N,Net-(C9-Pad2)*%
X107696000Y-69972000D03*
%TO.P,Y1,1*%
%TO.N,Net-(C8-Pad2)*%
X107696000Y-68072000D03*
%TD*%
D16*
%TO.P,U5,4*%
%TO.N,/MOSI*%
X137140000Y-93980000D03*
%TO.P,U5,3*%
%TO.N,/SCK*%
X139680000Y-93980000D03*
%TO.P,U5,2*%
%TO.N,+3V3*%
X142220000Y-93980000D03*
D17*
%TO.P,U5,1*%
%TO.N,GND*%
X144760000Y-93980000D03*
%TD*%
D18*
%TO.P,U4,4*%
%TO.N,GND*%
X113268000Y-74184000D03*
%TO.P,U4,3*%
%TO.N,/SCK*%
X113268000Y-76184000D03*
%TO.P,U4,2*%
%TO.N,/MOSI*%
X111268000Y-76184000D03*
%TO.P,U4,1*%
%TO.N,+3V3*%
X111268000Y-74184000D03*
%TD*%
%TO.P,U3,14*%
%TO.N,GND*%
%TA.AperFunction,SMDPad,CuDef*%
G36*
G01*
X124310000Y-82337000D02*
X124610000Y-82337000D01*
G75*
G02*
X124760000Y-82487000I0J-150000D01*
G01*
X124760000Y-84137000D01*
G75*
G02*
X124610000Y-84287000I-150000J0D01*
G01*
X124310000Y-84287000D01*
G75*
G02*
X124160000Y-84137000I0J150000D01*
G01*
X124160000Y-82487000D01*
G75*
G02*
X124310000Y-82337000I150000J0D01*
G01*
G37*
%TD.AperFunction*%
%TO.P,U3,13*%
%TO.N,/LED1*%
%TA.AperFunction,SMDPad,CuDef*%
G36*
G01*
X123040000Y-82337000D02*
X123340000Y-82337000D01*
G75*
G02*
X123490000Y-82487000I0J-150000D01*
G01*
X123490000Y-84137000D01*
G75*
G02*
X123340000Y-84287000I-150000J0D01*
G01*
X123040000Y-84287000D01*
G75*
G02*
X122890000Y-84137000I0J150000D01*
G01*
X122890000Y-82487000D01*
G75*
G02*
X123040000Y-82337000I150000J0D01*
G01*
G37*
%TD.AperFunction*%
%TO.P,U3,12*%
%TO.N,/BATT_MON*%
%TA.AperFunction,SMDPad,CuDef*%
G36*
G01*
X121770000Y-82337000D02*
X122070000Y-82337000D01*
G75*
G02*
X122220000Y-82487000I0J-150000D01*
G01*
X122220000Y-84137000D01*
G75*
G02*
X122070000Y-84287000I-150000J0D01*
G01*
X121770000Y-84287000D01*
G75*
G02*
X121620000Y-84137000I0J150000D01*
G01*
X121620000Y-82487000D01*
G75*
G02*
X121770000Y-82337000I150000J0D01*
G01*
G37*
%TD.AperFunction*%
%TO.P,U3,11*%
%TO.N,/LED2*%
%TA.AperFunction,SMDPad,CuDef*%
G36*
G01*
X120500000Y-82337000D02*
X120800000Y-82337000D01*
G75*
G02*
X120950000Y-82487000I0J-150000D01*
G01*
X120950000Y-84137000D01*
G75*
G02*
X120800000Y-84287000I-150000J0D01*
G01*
X120500000Y-84287000D01*
G75*
G02*
X120350000Y-84137000I0J150000D01*
G01*
X120350000Y-82487000D01*
G75*
G02*
X120500000Y-82337000I150000J0D01*
G01*
G37*
%TD.AperFunction*%
%TO.P,U3,10*%
%TO.N,/BUTT1*%
%TA.AperFunction,SMDPad,CuDef*%
G36*
G01*
X119230000Y-82337000D02*
X119530000Y-82337000D01*
G75*
G02*
X119680000Y-82487000I0J-150000D01*
G01*
X119680000Y-84137000D01*
G75*
G02*
X119530000Y-84287000I-150000J0D01*
G01*
X119230000Y-84287000D01*
G75*
G02*
X119080000Y-84137000I0J150000D01*
G01*
X119080000Y-82487000D01*
G75*
G02*
X119230000Y-82337000I150000J0D01*
G01*
G37*
%TD.AperFunction*%
%TO.P,U3,9*%
%TO.N,/SCK*%
%TA.AperFunction,SMDPad,CuDef*%
G36*
G01*
X117960000Y-82337000D02*
X118260000Y-82337000D01*
G75*
G02*
X118410000Y-82487000I0J-150000D01*
G01*
X118410000Y-84137000D01*
G75*
G02*
X118260000Y-84287000I-150000J0D01*
G01*
X117960000Y-84287000D01*
G75*
G02*
X117810000Y-84137000I0J150000D01*
G01*
X117810000Y-82487000D01*
G75*
G02*
X117960000Y-82337000I150000J0D01*
G01*
G37*
%TD.AperFunction*%
%TO.P,U3,8*%
%TO.N,/MISO*%
%TA.AperFunction,SMDPad,CuDef*%
G36*
G01*
X116690000Y-82337000D02*
X116990000Y-82337000D01*
G75*
G02*
X117140000Y-82487000I0J-150000D01*
G01*
X117140000Y-84137000D01*
G75*
G02*
X116990000Y-84287000I-150000J0D01*
G01*
X116690000Y-84287000D01*
G75*
G02*
X116540000Y-84137000I0J150000D01*
G01*
X116540000Y-82487000D01*
G75*
G02*
X116690000Y-82337000I150000J0D01*
G01*
G37*
%TD.AperFunction*%
%TO.P,U3,7*%
%TO.N,/MOSI*%
%TA.AperFunction,SMDPad,CuDef*%
G36*
G01*
X116690000Y-77387000D02*
X116990000Y-77387000D01*
G75*
G02*
X117140000Y-77537000I0J-150000D01*
G01*
X117140000Y-79187000D01*
G75*
G02*
X116990000Y-79337000I-150000J0D01*
G01*
X116690000Y-79337000D01*
G75*
G02*
X116540000Y-79187000I0J150000D01*
G01*
X116540000Y-77537000D01*
G75*
G02*
X116690000Y-77387000I150000J0D01*
G01*
G37*
%TD.AperFunction*%
%TO.P,U3,6*%
%TO.N,Net-(TP12-Pad1)*%
%TA.AperFunction,SMDPad,CuDef*%
G36*
G01*
X117960000Y-77387000D02*
X118260000Y-77387000D01*
G75*
G02*
X118410000Y-77537000I0J-150000D01*
G01*
X118410000Y-79187000D01*
G75*
G02*
X118260000Y-79337000I-150000J0D01*
G01*
X117960000Y-79337000D01*
G75*
G02*
X117810000Y-79187000I0J150000D01*
G01*
X117810000Y-77537000D01*
G75*
G02*
X117960000Y-77387000I150000J0D01*
G01*
G37*
%TD.AperFunction*%
%TO.P,U3,5*%
%TO.N,Net-(TP11-Pad1)*%
%TA.AperFunction,SMDPad,CuDef*%
G36*
G01*
X119230000Y-77387000D02*
X119530000Y-77387000D01*
G75*
G02*
X119680000Y-77537000I0J-150000D01*
G01*
X119680000Y-79187000D01*
G75*
G02*
X119530000Y-79337000I-150000J0D01*
G01*
X119230000Y-79337000D01*
G75*
G02*
X119080000Y-79187000I0J150000D01*
G01*
X119080000Y-77537000D01*
G75*
G02*
X119230000Y-77387000I150000J0D01*
G01*
G37*
%TD.AperFunction*%
%TO.P,U3,4*%
%TO.N,/RST*%
%TA.AperFunction,SMDPad,CuDef*%
G36*
G01*
X120500000Y-77387000D02*
X120800000Y-77387000D01*
G75*
G02*
X120950000Y-77537000I0J-150000D01*
G01*
X120950000Y-79187000D01*
G75*
G02*
X120800000Y-79337000I-150000J0D01*
G01*
X120500000Y-79337000D01*
G75*
G02*
X120350000Y-79187000I0J150000D01*
G01*
X120350000Y-77537000D01*
G75*
G02*
X120500000Y-77387000I150000J0D01*
G01*
G37*
%TD.AperFunction*%
%TO.P,U3,3*%
%TO.N,Net-(TP9-Pad1)*%
%TA.AperFunction,SMDPad,CuDef*%
G36*
G01*
X121770000Y-77387000D02*
X122070000Y-77387000D01*
G75*
G02*
X122220000Y-77537000I0J-150000D01*
G01*
X122220000Y-79187000D01*
G75*
G02*
X122070000Y-79337000I-150000J0D01*
G01*
X121770000Y-79337000D01*
G75*
G02*
X121620000Y-79187000I0J150000D01*
G01*
X121620000Y-77537000D01*
G75*
G02*
X121770000Y-77387000I150000J0D01*
G01*
G37*
%TD.AperFunction*%
%TO.P,U3,2*%
%TO.N,Net-(TP8-Pad1)*%
%TA.AperFunction,SMDPad,CuDef*%
G36*
G01*
X123040000Y-77387000D02*
X123340000Y-77387000D01*
G75*
G02*
X123490000Y-77537000I0J-150000D01*
G01*
X123490000Y-79187000D01*
G75*
G02*
X123340000Y-79337000I-150000J0D01*
G01*
X123040000Y-79337000D01*
G75*
G02*
X122890000Y-79187000I0J150000D01*
G01*
X122890000Y-77537000D01*
G75*
G02*
X123040000Y-77387000I150000J0D01*
G01*
G37*
%TD.AperFunction*%
%TO.P,U3,1*%
%TO.N,+3V3*%
%TA.AperFunction,SMDPad,CuDef*%
G36*
G01*
X124310000Y-77387000D02*
X124610000Y-77387000D01*
G75*
G02*
X124760000Y-77537000I0J-150000D01*
G01*
X124760000Y-79187000D01*
G75*
G02*
X124610000Y-79337000I-150000J0D01*
G01*
X124310000Y-79337000D01*
G75*
G02*
X124160000Y-79187000I0J150000D01*
G01*
X124160000Y-77537000D01*
G75*
G02*
X124310000Y-77387000I150000J0D01*
G01*
G37*
%TD.AperFunction*%
%TD*%
%TO.P,U2,8*%
%TO.N,+3V3*%
%TA.AperFunction,SMDPad,CuDef*%
G36*
G01*
X120500000Y-71031000D02*
X120800000Y-71031000D01*
G75*
G02*
X120950000Y-71181000I0J-150000D01*
G01*
X120950000Y-72831000D01*
G75*
G02*
X120800000Y-72981000I-150000J0D01*
G01*
X120500000Y-72981000D01*
G75*
G02*
X120350000Y-72831000I0J150000D01*
G01*
X120350000Y-71181000D01*
G75*
G02*
X120500000Y-71031000I150000J0D01*
G01*
G37*
%TD.AperFunction*%
%TO.P,U2,7*%
%TO.N,Net-(U2-Pad7)*%
%TA.AperFunction,SMDPad,CuDef*%
G36*
G01*
X119230000Y-71031000D02*
X119530000Y-71031000D01*
G75*
G02*
X119680000Y-71181000I0J-150000D01*
G01*
X119680000Y-72831000D01*
G75*
G02*
X119530000Y-72981000I-150000J0D01*
G01*
X119230000Y-72981000D01*
G75*
G02*
X119080000Y-72831000I0J150000D01*
G01*
X119080000Y-71181000D01*
G75*
G02*
X119230000Y-71031000I150000J0D01*
G01*
G37*
%TD.AperFunction*%
%TO.P,U2,6*%
%TO.N,/SCK*%
%TA.AperFunction,SMDPad,CuDef*%
G36*
G01*
X117960000Y-71031000D02*
X118260000Y-71031000D01*
G75*
G02*
X118410000Y-71181000I0J-150000D01*
G01*
X118410000Y-72831000D01*
G75*
G02*
X118260000Y-72981000I-150000J0D01*
G01*
X117960000Y-72981000D01*
G75*
G02*
X117810000Y-72831000I0J150000D01*
G01*
X117810000Y-71181000D01*
G75*
G02*
X117960000Y-71031000I150000J0D01*
G01*
G37*
%TD.AperFunction*%
%TO.P,U2,5*%
%TO.N,/MOSI*%
%TA.AperFunction,SMDPad,CuDef*%
G36*
G01*
X116690000Y-71031000D02*
X116990000Y-71031000D01*
G75*
G02*
X117140000Y-71181000I0J-150000D01*
G01*
X117140000Y-72831000D01*
G75*
G02*
X116990000Y-72981000I-150000J0D01*
G01*
X116690000Y-72981000D01*
G75*
G02*
X116540000Y-72831000I0J150000D01*
G01*
X116540000Y-71181000D01*
G75*
G02*
X116690000Y-71031000I150000J0D01*
G01*
G37*
%TD.AperFunction*%
%TO.P,U2,4*%
%TO.N,GND*%
%TA.AperFunction,SMDPad,CuDef*%
G36*
G01*
X116690000Y-66081000D02*
X116990000Y-66081000D01*
G75*
G02*
X117140000Y-66231000I0J-150000D01*
G01*
X117140000Y-67881000D01*
G75*
G02*
X116990000Y-68031000I-150000J0D01*
G01*
X116690000Y-68031000D01*
G75*
G02*
X116540000Y-67881000I0J150000D01*
G01*
X116540000Y-66231000D01*
G75*
G02*
X116690000Y-66081000I150000J0D01*
G01*
G37*
%TD.AperFunction*%
%TO.P,U2,3*%
%TO.N,Net-(JP3-Pad2)*%
%TA.AperFunction,SMDPad,CuDef*%
G36*
G01*
X117960000Y-66081000D02*
X118260000Y-66081000D01*
G75*
G02*
X118410000Y-66231000I0J-150000D01*
G01*
X118410000Y-67881000D01*
G75*
G02*
X118260000Y-68031000I-150000J0D01*
G01*
X117960000Y-68031000D01*
G75*
G02*
X117810000Y-67881000I0J150000D01*
G01*
X117810000Y-66231000D01*
G75*
G02*
X117960000Y-66081000I150000J0D01*
G01*
G37*
%TD.AperFunction*%
%TO.P,U2,2*%
%TO.N,Net-(JP2-Pad2)*%
%TA.AperFunction,SMDPad,CuDef*%
G36*
G01*
X119230000Y-66081000D02*
X119530000Y-66081000D01*
G75*
G02*
X119680000Y-66231000I0J-150000D01*
G01*
X119680000Y-67881000D01*
G75*
G02*
X119530000Y-68031000I-150000J0D01*
G01*
X119230000Y-68031000D01*
G75*
G02*
X119080000Y-67881000I0J150000D01*
G01*
X119080000Y-66231000D01*
G75*
G02*
X119230000Y-66081000I150000J0D01*
G01*
G37*
%TD.AperFunction*%
%TO.P,U2,1*%
%TO.N,Net-(JP1-Pad2)*%
%TA.AperFunction,SMDPad,CuDef*%
G36*
G01*
X120500000Y-66081000D02*
X120800000Y-66081000D01*
G75*
G02*
X120950000Y-66231000I0J-150000D01*
G01*
X120950000Y-67881000D01*
G75*
G02*
X120800000Y-68031000I-150000J0D01*
G01*
X120500000Y-68031000D01*
G75*
G02*
X120350000Y-67881000I0J150000D01*
G01*
X120350000Y-66231000D01*
G75*
G02*
X120500000Y-66081000I150000J0D01*
G01*
G37*
%TD.AperFunction*%
%TD*%
D19*
%TO.P,U1,5*%
%TO.N,+3V3*%
X124544000Y-90236000D03*
%TO.P,U1,4*%
%TO.N,Net-(U1-Pad4)*%
X124544000Y-92136000D03*
%TO.P,U1,3*%
%TO.N,/BATTERY*%
X122344000Y-92136000D03*
%TO.P,U1,2*%
%TO.N,GND*%
X122344000Y-91186000D03*
%TO.P,U1,1*%
%TO.N,/BATTERY*%
X122344000Y-90236000D03*
%TD*%
D20*
%TO.P,TP12,1*%
%TO.N,Net-(TP12-Pad1)*%
X132080000Y-63500000D03*
%TD*%
%TO.P,TP11,1*%
%TO.N,Net-(TP11-Pad1)*%
X132080000Y-66040000D03*
%TD*%
%TO.P,TP10,1*%
%TO.N,/RST*%
X132080000Y-68580000D03*
%TD*%
%TO.P,TP9,1*%
%TO.N,Net-(TP9-Pad1)*%
X132080000Y-71120000D03*
%TD*%
%TO.P,TP8,1*%
%TO.N,Net-(TP8-Pad1)*%
X132080000Y-73660000D03*
%TD*%
%TO.P,TP7,1*%
%TO.N,/MOSI*%
X132080000Y-76200000D03*
%TD*%
%TO.P,TP6,1*%
%TO.N,/LED2*%
X132080000Y-78740000D03*
%TD*%
%TO.P,TP5,1*%
%TO.N,/BATT_MON*%
X132080000Y-81280000D03*
%TD*%
%TO.P,TP4,1*%
%TO.N,/LED1*%
X132080000Y-83820000D03*
%TD*%
%TO.P,TP3,1*%
%TO.N,/BUTT1*%
X132080000Y-86360000D03*
%TD*%
%TO.P,TP2,1*%
%TO.N,/SCK*%
X132080000Y-88900000D03*
%TD*%
%TO.P,TP1,1*%
%TO.N,/MISO*%
X132080000Y-91440000D03*
%TD*%
D21*
%TO.P,SW1,2*%
%TO.N,+BATT*%
X115316000Y-93390000D03*
%TO.P,SW1,3*%
%TO.N,Net-(SW1-Pad3)*%
X113566000Y-89490000D03*
%TO.P,SW1,1*%
%TO.N,/BATTERY*%
X117066000Y-89490000D03*
%TD*%
%TO.P,R8,2*%
%TO.N,/SCK*%
%TA.AperFunction,SMDPad,CuDef*%
G36*
G01*
X113559000Y-78315000D02*
X113009000Y-78315000D01*
G75*
G02*
X112809000Y-78115000I0J200000D01*
G01*
X112809000Y-77715000D01*
G75*
G02*
X113009000Y-77515000I200000J0D01*
G01*
X113559000Y-77515000D01*
G75*
G02*
X113759000Y-77715000I0J-200000D01*
G01*
X113759000Y-78115000D01*
G75*
G02*
X113559000Y-78315000I-200000J0D01*
G01*
G37*
%TD.AperFunction*%
%TO.P,R8,1*%
%TO.N,+3V3*%
%TA.AperFunction,SMDPad,CuDef*%
G36*
G01*
X113559000Y-79965000D02*
X113009000Y-79965000D01*
G75*
G02*
X112809000Y-79765000I0J200000D01*
G01*
X112809000Y-79365000D01*
G75*
G02*
X113009000Y-79165000I200000J0D01*
G01*
X113559000Y-79165000D01*
G75*
G02*
X113759000Y-79365000I0J-200000D01*
G01*
X113759000Y-79765000D01*
G75*
G02*
X113559000Y-79965000I-200000J0D01*
G01*
G37*
%TD.AperFunction*%
%TD*%
%TO.P,R7,2*%
%TO.N,/MOSI*%
%TA.AperFunction,SMDPad,CuDef*%
G36*
G01*
X112035000Y-78315000D02*
X111485000Y-78315000D01*
G75*
G02*
X111285000Y-78115000I0J200000D01*
G01*
X111285000Y-77715000D01*
G75*
G02*
X111485000Y-77515000I200000J0D01*
G01*
X112035000Y-77515000D01*
G75*
G02*
X112235000Y-77715000I0J-200000D01*
G01*
X112235000Y-78115000D01*
G75*
G02*
X112035000Y-78315000I-200000J0D01*
G01*
G37*
%TD.AperFunction*%
%TO.P,R7,1*%
%TO.N,+3V3*%
%TA.AperFunction,SMDPad,CuDef*%
G36*
G01*
X112035000Y-79965000D02*
X111485000Y-79965000D01*
G75*
G02*
X111285000Y-79765000I0J200000D01*
G01*
X111285000Y-79365000D01*
G75*
G02*
X111485000Y-79165000I200000J0D01*
G01*
X112035000Y-79165000D01*
G75*
G02*
X112235000Y-79365000I0J-200000D01*
G01*
X112235000Y-79765000D01*
G75*
G02*
X112035000Y-79965000I-200000J0D01*
G01*
G37*
%TD.AperFunction*%
%TD*%
%TO.P,R6,2*%
%TO.N,/RST*%
%TA.AperFunction,SMDPad,CuDef*%
G36*
G01*
X100921000Y-71607000D02*
X100921000Y-72157000D01*
G75*
G02*
X100721000Y-72357000I-200000J0D01*
G01*
X100321000Y-72357000D01*
G75*
G02*
X100121000Y-72157000I0J200000D01*
G01*
X100121000Y-71607000D01*
G75*
G02*
X100321000Y-71407000I200000J0D01*
G01*
X100721000Y-71407000D01*
G75*
G02*
X100921000Y-71607000I0J-200000D01*
G01*
G37*
%TD.AperFunction*%
%TO.P,R6,1*%
%TO.N,+3V3*%
%TA.AperFunction,SMDPad,CuDef*%
G36*
G01*
X102571000Y-71607000D02*
X102571000Y-72157000D01*
G75*
G02*
X102371000Y-72357000I-200000J0D01*
G01*
X101971000Y-72357000D01*
G75*
G02*
X101771000Y-72157000I0J200000D01*
G01*
X101771000Y-71607000D01*
G75*
G02*
X101971000Y-71407000I200000J0D01*
G01*
X102371000Y-71407000D01*
G75*
G02*
X102571000Y-71607000I0J-200000D01*
G01*
G37*
%TD.AperFunction*%
%TD*%
%TO.P,R5,2*%
%TO.N,/LED2*%
%TA.AperFunction,SMDPad,CuDef*%
G36*
G01*
X104311000Y-81809000D02*
X104311000Y-81259000D01*
G75*
G02*
X104511000Y-81059000I200000J0D01*
G01*
X104911000Y-81059000D01*
G75*
G02*
X105111000Y-81259000I0J-200000D01*
G01*
X105111000Y-81809000D01*
G75*
G02*
X104911000Y-82009000I-200000J0D01*
G01*
X104511000Y-82009000D01*
G75*
G02*
X104311000Y-81809000I0J200000D01*
G01*
G37*
%TD.AperFunction*%
%TO.P,R5,1*%
%TO.N,Net-(D3-Pad2)*%
%TA.AperFunction,SMDPad,CuDef*%
G36*
G01*
X102661000Y-81809000D02*
X102661000Y-81259000D01*
G75*
G02*
X102861000Y-81059000I200000J0D01*
G01*
X103261000Y-81059000D01*
G75*
G02*
X103461000Y-81259000I0J-200000D01*
G01*
X103461000Y-81809000D01*
G75*
G02*
X103261000Y-82009000I-200000J0D01*
G01*
X102861000Y-82009000D01*
G75*
G02*
X102661000Y-81809000I0J200000D01*
G01*
G37*
%TD.AperFunction*%
%TD*%
%TO.P,R4,2*%
%TO.N,/LED1*%
%TA.AperFunction,SMDPad,CuDef*%
G36*
G01*
X104311000Y-83587000D02*
X104311000Y-83037000D01*
G75*
G02*
X104511000Y-82837000I200000J0D01*
G01*
X104911000Y-82837000D01*
G75*
G02*
X105111000Y-83037000I0J-200000D01*
G01*
X105111000Y-83587000D01*
G75*
G02*
X104911000Y-83787000I-200000J0D01*
G01*
X104511000Y-83787000D01*
G75*
G02*
X104311000Y-83587000I0J200000D01*
G01*
G37*
%TD.AperFunction*%
%TO.P,R4,1*%
%TO.N,Net-(D2-Pad2)*%
%TA.AperFunction,SMDPad,CuDef*%
G36*
G01*
X102661000Y-83587000D02*
X102661000Y-83037000D01*
G75*
G02*
X102861000Y-82837000I200000J0D01*
G01*
X103261000Y-82837000D01*
G75*
G02*
X103461000Y-83037000I0J-200000D01*
G01*
X103461000Y-83587000D01*
G75*
G02*
X103261000Y-83787000I-200000J0D01*
G01*
X102861000Y-83787000D01*
G75*
G02*
X102661000Y-83587000I0J200000D01*
G01*
G37*
%TD.AperFunction*%
%TD*%
%TO.P,R3,2*%
%TO.N,/BATT_MON*%
%TA.AperFunction,SMDPad,CuDef*%
G36*
G01*
X120671000Y-92539000D02*
X120121000Y-92539000D01*
G75*
G02*
X119921000Y-92339000I0J200000D01*
G01*
X119921000Y-91939000D01*
G75*
G02*
X120121000Y-91739000I200000J0D01*
G01*
X120671000Y-91739000D01*
G75*
G02*
X120871000Y-91939000I0J-200000D01*
G01*
X120871000Y-92339000D01*
G75*
G02*
X120671000Y-92539000I-200000J0D01*
G01*
G37*
%TD.AperFunction*%
%TO.P,R3,1*%
%TO.N,GND*%
%TA.AperFunction,SMDPad,CuDef*%
G36*
G01*
X120671000Y-94189000D02*
X120121000Y-94189000D01*
G75*
G02*
X119921000Y-93989000I0J200000D01*
G01*
X119921000Y-93589000D01*
G75*
G02*
X120121000Y-93389000I200000J0D01*
G01*
X120671000Y-93389000D01*
G75*
G02*
X120871000Y-93589000I0J-200000D01*
G01*
X120871000Y-93989000D01*
G75*
G02*
X120671000Y-94189000I-200000J0D01*
G01*
G37*
%TD.AperFunction*%
%TD*%
%TO.P,R2,2*%
%TO.N,/BATTERY*%
%TA.AperFunction,SMDPad,CuDef*%
G36*
G01*
X120671000Y-89491000D02*
X120121000Y-89491000D01*
G75*
G02*
X119921000Y-89291000I0J200000D01*
G01*
X119921000Y-88891000D01*
G75*
G02*
X120121000Y-88691000I200000J0D01*
G01*
X120671000Y-88691000D01*
G75*
G02*
X120871000Y-88891000I0J-200000D01*
G01*
X120871000Y-89291000D01*
G75*
G02*
X120671000Y-89491000I-200000J0D01*
G01*
G37*
%TD.AperFunction*%
%TO.P,R2,1*%
%TO.N,/BATT_MON*%
%TA.AperFunction,SMDPad,CuDef*%
G36*
G01*
X120671000Y-91141000D02*
X120121000Y-91141000D01*
G75*
G02*
X119921000Y-90941000I0J200000D01*
G01*
X119921000Y-90541000D01*
G75*
G02*
X120121000Y-90341000I200000J0D01*
G01*
X120671000Y-90341000D01*
G75*
G02*
X120871000Y-90541000I0J-200000D01*
G01*
X120871000Y-90941000D01*
G75*
G02*
X120671000Y-91141000I-200000J0D01*
G01*
G37*
%TD.AperFunction*%
%TD*%
%TO.P,R1,2*%
%TO.N,/BATTERY*%
%TA.AperFunction,SMDPad,CuDef*%
G36*
G01*
X119147000Y-89491000D02*
X118597000Y-89491000D01*
G75*
G02*
X118397000Y-89291000I0J200000D01*
G01*
X118397000Y-88891000D01*
G75*
G02*
X118597000Y-88691000I200000J0D01*
G01*
X119147000Y-88691000D01*
G75*
G02*
X119347000Y-88891000I0J-200000D01*
G01*
X119347000Y-89291000D01*
G75*
G02*
X119147000Y-89491000I-200000J0D01*
G01*
G37*
%TD.AperFunction*%
%TO.P,R1,1*%
%TO.N,Net-(D1-Pad2)*%
%TA.AperFunction,SMDPad,CuDef*%
G36*
G01*
X119147000Y-91141000D02*
X118597000Y-91141000D01*
G75*
G02*
X118397000Y-90941000I0J200000D01*
G01*
X118397000Y-90541000D01*
G75*
G02*
X118597000Y-90341000I200000J0D01*
G01*
X119147000Y-90341000D01*
G75*
G02*
X119347000Y-90541000I0J-200000D01*
G01*
X119347000Y-90941000D01*
G75*
G02*
X119147000Y-91141000I-200000J0D01*
G01*
G37*
%TD.AperFunction*%
%TD*%
%TA.AperFunction,SMDPad,CuDef*%
D22*
%TO.P,JP3,1*%
%TO.N,GND*%
G36*
X116090000Y-62588000D02*
G01*
X116090000Y-62088000D01*
X116090602Y-62088000D01*
X116090602Y-62063466D01*
X116095412Y-62014635D01*
X116104984Y-61966510D01*
X116119228Y-61919555D01*
X116138005Y-61874222D01*
X116161136Y-61830949D01*
X116188396Y-61790150D01*
X116219524Y-61752221D01*
X116254221Y-61717524D01*
X116292150Y-61686396D01*
X116332949Y-61659136D01*
X116376222Y-61636005D01*
X116421555Y-61617228D01*
X116468510Y-61602984D01*
X116516635Y-61593412D01*
X116565466Y-61588602D01*
X116590000Y-61588602D01*
X116590000Y-61588000D01*
X117090000Y-61588000D01*
X117090000Y-61588602D01*
X117114534Y-61588602D01*
X117163365Y-61593412D01*
X117211490Y-61602984D01*
X117258445Y-61617228D01*
X117303778Y-61636005D01*
X117347051Y-61659136D01*
X117387850Y-61686396D01*
X117425779Y-61717524D01*
X117460476Y-61752221D01*
X117491604Y-61790150D01*
X117518864Y-61830949D01*
X117541995Y-61874222D01*
X117560772Y-61919555D01*
X117575016Y-61966510D01*
X117584588Y-62014635D01*
X117589398Y-62063466D01*
X117589398Y-62088000D01*
X117590000Y-62088000D01*
X117590000Y-62588000D01*
X116090000Y-62588000D01*
G37*
%TD.AperFunction*%
%TA.AperFunction,SMDPad,CuDef*%
%TO.P,JP3,2*%
%TO.N,Net-(JP3-Pad2)*%
G36*
X117589398Y-63388000D02*
G01*
X117589398Y-63412534D01*
X117584588Y-63461365D01*
X117575016Y-63509490D01*
X117560772Y-63556445D01*
X117541995Y-63601778D01*
X117518864Y-63645051D01*
X117491604Y-63685850D01*
X117460476Y-63723779D01*
X117425779Y-63758476D01*
X117387850Y-63789604D01*
X117347051Y-63816864D01*
X117303778Y-63839995D01*
X117258445Y-63858772D01*
X117211490Y-63873016D01*
X117163365Y-63882588D01*
X117114534Y-63887398D01*
X117090000Y-63887398D01*
X117090000Y-63888000D01*
X116590000Y-63888000D01*
X116590000Y-63887398D01*
X116565466Y-63887398D01*
X116516635Y-63882588D01*
X116468510Y-63873016D01*
X116421555Y-63858772D01*
X116376222Y-63839995D01*
X116332949Y-63816864D01*
X116292150Y-63789604D01*
X116254221Y-63758476D01*
X116219524Y-63723779D01*
X116188396Y-63685850D01*
X116161136Y-63645051D01*
X116138005Y-63601778D01*
X116119228Y-63556445D01*
X116104984Y-63509490D01*
X116095412Y-63461365D01*
X116090602Y-63412534D01*
X116090602Y-63388000D01*
X116090000Y-63388000D01*
X116090000Y-62888000D01*
X117590000Y-62888000D01*
X117590000Y-63388000D01*
X117589398Y-63388000D01*
G37*
%TD.AperFunction*%
%TD*%
%TA.AperFunction,SMDPad,CuDef*%
%TO.P,JP2,1*%
%TO.N,+3V3*%
G36*
X118630000Y-62588000D02*
G01*
X118630000Y-62088000D01*
X118630602Y-62088000D01*
X118630602Y-62063466D01*
X118635412Y-62014635D01*
X118644984Y-61966510D01*
X118659228Y-61919555D01*
X118678005Y-61874222D01*
X118701136Y-61830949D01*
X118728396Y-61790150D01*
X118759524Y-61752221D01*
X118794221Y-61717524D01*
X118832150Y-61686396D01*
X118872949Y-61659136D01*
X118916222Y-61636005D01*
X118961555Y-61617228D01*
X119008510Y-61602984D01*
X119056635Y-61593412D01*
X119105466Y-61588602D01*
X119130000Y-61588602D01*
X119130000Y-61588000D01*
X119630000Y-61588000D01*
X119630000Y-61588602D01*
X119654534Y-61588602D01*
X119703365Y-61593412D01*
X119751490Y-61602984D01*
X119798445Y-61617228D01*
X119843778Y-61636005D01*
X119887051Y-61659136D01*
X119927850Y-61686396D01*
X119965779Y-61717524D01*
X120000476Y-61752221D01*
X120031604Y-61790150D01*
X120058864Y-61830949D01*
X120081995Y-61874222D01*
X120100772Y-61919555D01*
X120115016Y-61966510D01*
X120124588Y-62014635D01*
X120129398Y-62063466D01*
X120129398Y-62088000D01*
X120130000Y-62088000D01*
X120130000Y-62588000D01*
X118630000Y-62588000D01*
G37*
%TD.AperFunction*%
%TA.AperFunction,SMDPad,CuDef*%
%TO.P,JP2,2*%
%TO.N,Net-(JP2-Pad2)*%
G36*
X120129398Y-63388000D02*
G01*
X120129398Y-63412534D01*
X120124588Y-63461365D01*
X120115016Y-63509490D01*
X120100772Y-63556445D01*
X120081995Y-63601778D01*
X120058864Y-63645051D01*
X120031604Y-63685850D01*
X120000476Y-63723779D01*
X119965779Y-63758476D01*
X119927850Y-63789604D01*
X119887051Y-63816864D01*
X119843778Y-63839995D01*
X119798445Y-63858772D01*
X119751490Y-63873016D01*
X119703365Y-63882588D01*
X119654534Y-63887398D01*
X119630000Y-63887398D01*
X119630000Y-63888000D01*
X119130000Y-63888000D01*
X119130000Y-63887398D01*
X119105466Y-63887398D01*
X119056635Y-63882588D01*
X119008510Y-63873016D01*
X118961555Y-63858772D01*
X118916222Y-63839995D01*
X118872949Y-63816864D01*
X118832150Y-63789604D01*
X118794221Y-63758476D01*
X118759524Y-63723779D01*
X118728396Y-63685850D01*
X118701136Y-63645051D01*
X118678005Y-63601778D01*
X118659228Y-63556445D01*
X118644984Y-63509490D01*
X118635412Y-63461365D01*
X118630602Y-63412534D01*
X118630602Y-63388000D01*
X118630000Y-63388000D01*
X118630000Y-62888000D01*
X120130000Y-62888000D01*
X120130000Y-63388000D01*
X120129398Y-63388000D01*
G37*
%TD.AperFunction*%
%TD*%
%TA.AperFunction,SMDPad,CuDef*%
%TO.P,JP1,1*%
%TO.N,GND*%
G36*
X121170000Y-62588000D02*
G01*
X121170000Y-62088000D01*
X121170602Y-62088000D01*
X121170602Y-62063466D01*
X121175412Y-62014635D01*
X121184984Y-61966510D01*
X121199228Y-61919555D01*
X121218005Y-61874222D01*
X121241136Y-61830949D01*
X121268396Y-61790150D01*
X121299524Y-61752221D01*
X121334221Y-61717524D01*
X121372150Y-61686396D01*
X121412949Y-61659136D01*
X121456222Y-61636005D01*
X121501555Y-61617228D01*
X121548510Y-61602984D01*
X121596635Y-61593412D01*
X121645466Y-61588602D01*
X121670000Y-61588602D01*
X121670000Y-61588000D01*
X122170000Y-61588000D01*
X122170000Y-61588602D01*
X122194534Y-61588602D01*
X122243365Y-61593412D01*
X122291490Y-61602984D01*
X122338445Y-61617228D01*
X122383778Y-61636005D01*
X122427051Y-61659136D01*
X122467850Y-61686396D01*
X122505779Y-61717524D01*
X122540476Y-61752221D01*
X122571604Y-61790150D01*
X122598864Y-61830949D01*
X122621995Y-61874222D01*
X122640772Y-61919555D01*
X122655016Y-61966510D01*
X122664588Y-62014635D01*
X122669398Y-62063466D01*
X122669398Y-62088000D01*
X122670000Y-62088000D01*
X122670000Y-62588000D01*
X121170000Y-62588000D01*
G37*
%TD.AperFunction*%
%TA.AperFunction,SMDPad,CuDef*%
%TO.P,JP1,2*%
%TO.N,Net-(JP1-Pad2)*%
G36*
X122669398Y-63388000D02*
G01*
X122669398Y-63412534D01*
X122664588Y-63461365D01*
X122655016Y-63509490D01*
X122640772Y-63556445D01*
X122621995Y-63601778D01*
X122598864Y-63645051D01*
X122571604Y-63685850D01*
X122540476Y-63723779D01*
X122505779Y-63758476D01*
X122467850Y-63789604D01*
X122427051Y-63816864D01*
X122383778Y-63839995D01*
X122338445Y-63858772D01*
X122291490Y-63873016D01*
X122243365Y-63882588D01*
X122194534Y-63887398D01*
X122170000Y-63887398D01*
X122170000Y-63888000D01*
X121670000Y-63888000D01*
X121670000Y-63887398D01*
X121645466Y-63887398D01*
X121596635Y-63882588D01*
X121548510Y-63873016D01*
X121501555Y-63858772D01*
X121456222Y-63839995D01*
X121412949Y-63816864D01*
X121372150Y-63789604D01*
X121334221Y-63758476D01*
X121299524Y-63723779D01*
X121268396Y-63685850D01*
X121241136Y-63645051D01*
X121218005Y-63601778D01*
X121199228Y-63556445D01*
X121184984Y-63509490D01*
X121175412Y-63461365D01*
X121170602Y-63412534D01*
X121170602Y-63388000D01*
X121170000Y-63388000D01*
X121170000Y-62888000D01*
X122670000Y-62888000D01*
X122670000Y-63388000D01*
X122669398Y-63388000D01*
G37*
%TD.AperFunction*%
%TD*%
D16*
%TO.P,J2,6*%
%TO.N,GND*%
X100330000Y-77470000D03*
%TO.P,J2,5*%
%TO.N,/RST*%
X100330000Y-74930000D03*
%TO.P,J2,4*%
%TO.N,/MOSI*%
X102870000Y-77470000D03*
%TO.P,J2,3*%
%TO.N,/SCK*%
X102870000Y-74930000D03*
%TO.P,J2,2*%
%TO.N,+3V3*%
X105410000Y-77470000D03*
D17*
%TO.P,J2,1*%
%TO.N,/MISO*%
X105410000Y-74930000D03*
%TD*%
D23*
%TO.P,J1,2*%
%TO.N,+BATT*%
X106680000Y-91440000D03*
%TO.P,J1,1*%
%TO.N,GND*%
%TA.AperFunction,ComponentPad*%
G36*
G01*
X105930000Y-88090000D02*
X107430000Y-88090000D01*
G75*
G02*
X107680000Y-88340000I0J-250000D01*
G01*
X107680000Y-89540000D01*
G75*
G02*
X107430000Y-89790000I-250000J0D01*
G01*
X105930000Y-89790000D01*
G75*
G02*
X105680000Y-89540000I0J250000D01*
G01*
X105680000Y-88340000D01*
G75*
G02*
X105930000Y-88090000I250000J0D01*
G01*
G37*
%TD.AperFunction*%
%TD*%
%TO.P,D3,2*%
%TO.N,Net-(D3-Pad2)*%
%TA.AperFunction,SMDPad,CuDef*%
G36*
G01*
X101188000Y-81790250D02*
X101188000Y-81277750D01*
G75*
G02*
X101406750Y-81059000I218750J0D01*
G01*
X101844250Y-81059000D01*
G75*
G02*
X102063000Y-81277750I0J-218750D01*
G01*
X102063000Y-81790250D01*
G75*
G02*
X101844250Y-82009000I-218750J0D01*
G01*
X101406750Y-82009000D01*
G75*
G02*
X101188000Y-81790250I0J218750D01*
G01*
G37*
%TD.AperFunction*%
%TO.P,D3,1*%
%TO.N,GND*%
%TA.AperFunction,SMDPad,CuDef*%
G36*
G01*
X99613000Y-81790250D02*
X99613000Y-81277750D01*
G75*
G02*
X99831750Y-81059000I218750J0D01*
G01*
X100269250Y-81059000D01*
G75*
G02*
X100488000Y-81277750I0J-218750D01*
G01*
X100488000Y-81790250D01*
G75*
G02*
X100269250Y-82009000I-218750J0D01*
G01*
X99831750Y-82009000D01*
G75*
G02*
X99613000Y-81790250I0J218750D01*
G01*
G37*
%TD.AperFunction*%
%TD*%
%TO.P,D2,2*%
%TO.N,Net-(D2-Pad2)*%
%TA.AperFunction,SMDPad,CuDef*%
G36*
G01*
X101188000Y-83568250D02*
X101188000Y-83055750D01*
G75*
G02*
X101406750Y-82837000I218750J0D01*
G01*
X101844250Y-82837000D01*
G75*
G02*
X102063000Y-83055750I0J-218750D01*
G01*
X102063000Y-83568250D01*
G75*
G02*
X101844250Y-83787000I-218750J0D01*
G01*
X101406750Y-83787000D01*
G75*
G02*
X101188000Y-83568250I0J218750D01*
G01*
G37*
%TD.AperFunction*%
%TO.P,D2,1*%
%TO.N,GND*%
%TA.AperFunction,SMDPad,CuDef*%
G36*
G01*
X99613000Y-83568250D02*
X99613000Y-83055750D01*
G75*
G02*
X99831750Y-82837000I218750J0D01*
G01*
X100269250Y-82837000D01*
G75*
G02*
X100488000Y-83055750I0J-218750D01*
G01*
X100488000Y-83568250D01*
G75*
G02*
X100269250Y-83787000I-218750J0D01*
G01*
X99831750Y-83787000D01*
G75*
G02*
X99613000Y-83568250I0J218750D01*
G01*
G37*
%TD.AperFunction*%
%TD*%
%TO.P,D1,2*%
%TO.N,Net-(D1-Pad2)*%
%TA.AperFunction,SMDPad,CuDef*%
G36*
G01*
X119128250Y-92614000D02*
X118615750Y-92614000D01*
G75*
G02*
X118397000Y-92395250I0J218750D01*
G01*
X118397000Y-91957750D01*
G75*
G02*
X118615750Y-91739000I218750J0D01*
G01*
X119128250Y-91739000D01*
G75*
G02*
X119347000Y-91957750I0J-218750D01*
G01*
X119347000Y-92395250D01*
G75*
G02*
X119128250Y-92614000I-218750J0D01*
G01*
G37*
%TD.AperFunction*%
%TO.P,D1,1*%
%TO.N,GND*%
%TA.AperFunction,SMDPad,CuDef*%
G36*
G01*
X119128250Y-94189000D02*
X118615750Y-94189000D01*
G75*
G02*
X118397000Y-93970250I0J218750D01*
G01*
X118397000Y-93532750D01*
G75*
G02*
X118615750Y-93314000I218750J0D01*
G01*
X119128250Y-93314000D01*
G75*
G02*
X119347000Y-93532750I0J-218750D01*
G01*
X119347000Y-93970250D01*
G75*
G02*
X119128250Y-94189000I-218750J0D01*
G01*
G37*
%TD.AperFunction*%
%TD*%
%TO.P,C9,2*%
%TO.N,Net-(C9-Pad2)*%
%TA.AperFunction,SMDPad,CuDef*%
G36*
G01*
X107246000Y-71878000D02*
X107246000Y-71378000D01*
G75*
G02*
X107471000Y-71153000I225000J0D01*
G01*
X107921000Y-71153000D01*
G75*
G02*
X108146000Y-71378000I0J-225000D01*
G01*
X108146000Y-71878000D01*
G75*
G02*
X107921000Y-72103000I-225000J0D01*
G01*
X107471000Y-72103000D01*
G75*
G02*
X107246000Y-71878000I0J225000D01*
G01*
G37*
%TD.AperFunction*%
%TO.P,C9,1*%
%TO.N,GND*%
%TA.AperFunction,SMDPad,CuDef*%
G36*
G01*
X105696000Y-71878000D02*
X105696000Y-71378000D01*
G75*
G02*
X105921000Y-71153000I225000J0D01*
G01*
X106371000Y-71153000D01*
G75*
G02*
X106596000Y-71378000I0J-225000D01*
G01*
X106596000Y-71878000D01*
G75*
G02*
X106371000Y-72103000I-225000J0D01*
G01*
X105921000Y-72103000D01*
G75*
G02*
X105696000Y-71878000I0J225000D01*
G01*
G37*
%TD.AperFunction*%
%TD*%
%TO.P,C8,2*%
%TO.N,Net-(C8-Pad2)*%
%TA.AperFunction,SMDPad,CuDef*%
G36*
G01*
X107246000Y-66544000D02*
X107246000Y-66044000D01*
G75*
G02*
X107471000Y-65819000I225000J0D01*
G01*
X107921000Y-65819000D01*
G75*
G02*
X108146000Y-66044000I0J-225000D01*
G01*
X108146000Y-66544000D01*
G75*
G02*
X107921000Y-66769000I-225000J0D01*
G01*
X107471000Y-66769000D01*
G75*
G02*
X107246000Y-66544000I0J225000D01*
G01*
G37*
%TD.AperFunction*%
%TO.P,C8,1*%
%TO.N,GND*%
%TA.AperFunction,SMDPad,CuDef*%
G36*
G01*
X105696000Y-66544000D02*
X105696000Y-66044000D01*
G75*
G02*
X105921000Y-65819000I225000J0D01*
G01*
X106371000Y-65819000D01*
G75*
G02*
X106596000Y-66044000I0J-225000D01*
G01*
X106596000Y-66544000D01*
G75*
G02*
X106371000Y-66769000I-225000J0D01*
G01*
X105921000Y-66769000D01*
G75*
G02*
X105696000Y-66544000I0J225000D01*
G01*
G37*
%TD.AperFunction*%
%TD*%
%TO.P,C7,2*%
%TO.N,GND*%
%TA.AperFunction,SMDPad,CuDef*%
G36*
G01*
X109986000Y-79052000D02*
X110486000Y-79052000D01*
G75*
G02*
X110711000Y-79277000I0J-225000D01*
G01*
X110711000Y-79727000D01*
G75*
G02*
X110486000Y-79952000I-225000J0D01*
G01*
X109986000Y-79952000D01*
G75*
G02*
X109761000Y-79727000I0J225000D01*
G01*
X109761000Y-79277000D01*
G75*
G02*
X109986000Y-79052000I225000J0D01*
G01*
G37*
%TD.AperFunction*%
%TO.P,C7,1*%
%TO.N,+3V3*%
%TA.AperFunction,SMDPad,CuDef*%
G36*
G01*
X109986000Y-77502000D02*
X110486000Y-77502000D01*
G75*
G02*
X110711000Y-77727000I0J-225000D01*
G01*
X110711000Y-78177000D01*
G75*
G02*
X110486000Y-78402000I-225000J0D01*
G01*
X109986000Y-78402000D01*
G75*
G02*
X109761000Y-78177000I0J225000D01*
G01*
X109761000Y-77727000D01*
G75*
G02*
X109986000Y-77502000I225000J0D01*
G01*
G37*
%TD.AperFunction*%
%TD*%
%TO.P,C6,2*%
%TO.N,GND*%
%TA.AperFunction,SMDPad,CuDef*%
G36*
G01*
X114812000Y-72969000D02*
X115312000Y-72969000D01*
G75*
G02*
X115537000Y-73194000I0J-225000D01*
G01*
X115537000Y-73644000D01*
G75*
G02*
X115312000Y-73869000I-225000J0D01*
G01*
X114812000Y-73869000D01*
G75*
G02*
X114587000Y-73644000I0J225000D01*
G01*
X114587000Y-73194000D01*
G75*
G02*
X114812000Y-72969000I225000J0D01*
G01*
G37*
%TD.AperFunction*%
%TO.P,C6,1*%
%TO.N,+3V3*%
%TA.AperFunction,SMDPad,CuDef*%
G36*
G01*
X114812000Y-71419000D02*
X115312000Y-71419000D01*
G75*
G02*
X115537000Y-71644000I0J-225000D01*
G01*
X115537000Y-72094000D01*
G75*
G02*
X115312000Y-72319000I-225000J0D01*
G01*
X114812000Y-72319000D01*
G75*
G02*
X114587000Y-72094000I0J225000D01*
G01*
X114587000Y-71644000D01*
G75*
G02*
X114812000Y-71419000I225000J0D01*
G01*
G37*
%TD.AperFunction*%
%TD*%
%TO.P,C5,2*%
%TO.N,GND*%
%TA.AperFunction,SMDPad,CuDef*%
G36*
G01*
X125988000Y-79065000D02*
X126488000Y-79065000D01*
G75*
G02*
X126713000Y-79290000I0J-225000D01*
G01*
X126713000Y-79740000D01*
G75*
G02*
X126488000Y-79965000I-225000J0D01*
G01*
X125988000Y-79965000D01*
G75*
G02*
X125763000Y-79740000I0J225000D01*
G01*
X125763000Y-79290000D01*
G75*
G02*
X125988000Y-79065000I225000J0D01*
G01*
G37*
%TD.AperFunction*%
%TO.P,C5,1*%
%TO.N,+3V3*%
%TA.AperFunction,SMDPad,CuDef*%
G36*
G01*
X125988000Y-77515000D02*
X126488000Y-77515000D01*
G75*
G02*
X126713000Y-77740000I0J-225000D01*
G01*
X126713000Y-78190000D01*
G75*
G02*
X126488000Y-78415000I-225000J0D01*
G01*
X125988000Y-78415000D01*
G75*
G02*
X125763000Y-78190000I0J225000D01*
G01*
X125763000Y-77740000D01*
G75*
G02*
X125988000Y-77515000I225000J0D01*
G01*
G37*
%TD.AperFunction*%
%TD*%
%TO.P,C4,2*%
%TO.N,GND*%
%TA.AperFunction,SMDPad,CuDef*%
G36*
G01*
X122678000Y-69258000D02*
X122178000Y-69258000D01*
G75*
G02*
X121953000Y-69033000I0J225000D01*
G01*
X121953000Y-68583000D01*
G75*
G02*
X122178000Y-68358000I225000J0D01*
G01*
X122678000Y-68358000D01*
G75*
G02*
X122903000Y-68583000I0J-225000D01*
G01*
X122903000Y-69033000D01*
G75*
G02*
X122678000Y-69258000I-225000J0D01*
G01*
G37*
%TD.AperFunction*%
%TO.P,C4,1*%
%TO.N,+3V3*%
%TA.AperFunction,SMDPad,CuDef*%
G36*
G01*
X122678000Y-70808000D02*
X122178000Y-70808000D01*
G75*
G02*
X121953000Y-70583000I0J225000D01*
G01*
X121953000Y-70133000D01*
G75*
G02*
X122178000Y-69908000I225000J0D01*
G01*
X122678000Y-69908000D01*
G75*
G02*
X122903000Y-70133000I0J-225000D01*
G01*
X122903000Y-70583000D01*
G75*
G02*
X122678000Y-70808000I-225000J0D01*
G01*
G37*
%TD.AperFunction*%
%TD*%
%TO.P,C3,2*%
%TO.N,GND*%
%TA.AperFunction,SMDPad,CuDef*%
G36*
G01*
X123119000Y-88142000D02*
X123119000Y-88642000D01*
G75*
G02*
X122894000Y-88867000I-225000J0D01*
G01*
X122444000Y-88867000D01*
G75*
G02*
X122219000Y-88642000I0J225000D01*
G01*
X122219000Y-88142000D01*
G75*
G02*
X122444000Y-87917000I225000J0D01*
G01*
X122894000Y-87917000D01*
G75*
G02*
X123119000Y-88142000I0J-225000D01*
G01*
G37*
%TD.AperFunction*%
%TO.P,C3,1*%
%TO.N,+3V3*%
%TA.AperFunction,SMDPad,CuDef*%
G36*
G01*
X124669000Y-88142000D02*
X124669000Y-88642000D01*
G75*
G02*
X124444000Y-88867000I-225000J0D01*
G01*
X123994000Y-88867000D01*
G75*
G02*
X123769000Y-88642000I0J225000D01*
G01*
X123769000Y-88142000D01*
G75*
G02*
X123994000Y-87917000I225000J0D01*
G01*
X124444000Y-87917000D01*
G75*
G02*
X124669000Y-88142000I0J-225000D01*
G01*
G37*
%TD.AperFunction*%
%TD*%
%TO.P,C2,2*%
%TO.N,GND*%
%TA.AperFunction,SMDPad,CuDef*%
G36*
G01*
X110886001Y-89270000D02*
X109585999Y-89270000D01*
G75*
G02*
X109336000Y-89020001I0J249999D01*
G01*
X109336000Y-88369999D01*
G75*
G02*
X109585999Y-88120000I249999J0D01*
G01*
X110886001Y-88120000D01*
G75*
G02*
X111136000Y-88369999I0J-249999D01*
G01*
X111136000Y-89020001D01*
G75*
G02*
X110886001Y-89270000I-249999J0D01*
G01*
G37*
%TD.AperFunction*%
%TO.P,C2,1*%
%TO.N,+BATT*%
%TA.AperFunction,SMDPad,CuDef*%
G36*
G01*
X110886001Y-92220000D02*
X109585999Y-92220000D01*
G75*
G02*
X109336000Y-91970001I0J249999D01*
G01*
X109336000Y-91319999D01*
G75*
G02*
X109585999Y-91070000I249999J0D01*
G01*
X110886001Y-91070000D01*
G75*
G02*
X111136000Y-91319999I0J-249999D01*
G01*
X111136000Y-91970001D01*
G75*
G02*
X110886001Y-92220000I-249999J0D01*
G01*
G37*
%TD.AperFunction*%
%TD*%
%TO.P,C1,2*%
%TO.N,GND*%
%TA.AperFunction,SMDPad,CuDef*%
G36*
G01*
X123769000Y-94230000D02*
X123769000Y-93730000D01*
G75*
G02*
X123994000Y-93505000I225000J0D01*
G01*
X124444000Y-93505000D01*
G75*
G02*
X124669000Y-93730000I0J-225000D01*
G01*
X124669000Y-94230000D01*
G75*
G02*
X124444000Y-94455000I-225000J0D01*
G01*
X123994000Y-94455000D01*
G75*
G02*
X123769000Y-94230000I0J225000D01*
G01*
G37*
%TD.AperFunction*%
%TO.P,C1,1*%
%TO.N,/BATTERY*%
%TA.AperFunction,SMDPad,CuDef*%
G36*
G01*
X122219000Y-94230000D02*
X122219000Y-93730000D01*
G75*
G02*
X122444000Y-93505000I225000J0D01*
G01*
X122894000Y-93505000D01*
G75*
G02*
X123119000Y-93730000I0J-225000D01*
G01*
X123119000Y-94230000D01*
G75*
G02*
X122894000Y-94455000I-225000J0D01*
G01*
X122444000Y-94455000D01*
G75*
G02*
X122219000Y-94230000I0J225000D01*
G01*
G37*
%TD.AperFunction*%
%TD*%
D24*
%TO.N,GND*%
X112014000Y-88392000D03*
X117602000Y-93726000D03*
X124206000Y-94996000D03*
X98806000Y-83312000D03*
X108966000Y-79502000D03*
X106172000Y-67564000D03*
X106172000Y-70358000D03*
X123698000Y-68834000D03*
X122936000Y-60198000D03*
X117856000Y-60198000D03*
X103124000Y-63246000D03*
X109220000Y-65532000D03*
X125476000Y-83312000D03*
X127254000Y-78740000D03*
X116774544Y-68598132D03*
X106426000Y-79248000D03*
X116586000Y-87630000D03*
X121412000Y-95504000D03*
%TO.N,/BATTERY*%
X122682000Y-94996000D03*
X121591000Y-89483000D03*
%TO.N,+3V3*%
X108966000Y-77978000D03*
X120396000Y-60198000D03*
X110104045Y-60329955D03*
X120650000Y-73660006D03*
X120142000Y-69850000D03*
X126238000Y-76708000D03*
X124460000Y-91186000D03*
X102870000Y-66040000D03*
X128778000Y-92710000D03*
X115062000Y-70865994D03*
X118110000Y-69850000D03*
%TO.N,Net-(C8-Pad2)*%
X112522000Y-68834000D03*
%TO.N,/RST*%
X118872000Y-80010010D03*
%TO.N,/MOSI*%
X109474000Y-70358000D03*
X115823996Y-75183996D03*
X117856000Y-80264000D03*
X124968000Y-76708000D03*
%TO.N,/SCK*%
X118110000Y-73660000D03*
X110490000Y-70358000D03*
X114999000Y-77915000D03*
X129779999Y-88900000D03*
%TO.N,/BATT_MON*%
X120396000Y-91440000D03*
X121920000Y-84836000D03*
%TO.N,/LED1*%
X113284000Y-83312000D03*
X123190000Y-84836000D03*
%TO.N,/LED2*%
X120650000Y-84836000D03*
X115570000Y-83058000D03*
%TO.N,/BUTT1*%
X114808000Y-64262000D03*
X121412000Y-80010000D03*
%TD*%
D25*
%TO.N,GND*%
X109991000Y-88940000D02*
X110236000Y-88695000D01*
X106680000Y-88940000D02*
X109991000Y-88940000D01*
X111711000Y-88695000D02*
X112014000Y-88392000D01*
X110236000Y-88695000D02*
X111711000Y-88695000D01*
X120358500Y-93751500D02*
X120396000Y-93789000D01*
X118872000Y-93751500D02*
X120358500Y-93751500D01*
X117627500Y-93751500D02*
X117602000Y-93726000D01*
X118872000Y-93751500D02*
X117627500Y-93751500D01*
X124219000Y-94983000D02*
X124206000Y-94996000D01*
X124219000Y-93980000D02*
X124219000Y-94983000D01*
X100050500Y-81534000D02*
X100050500Y-83312000D01*
X100050500Y-83312000D02*
X98806000Y-83312000D01*
X110236000Y-79502000D02*
X108966000Y-79502000D01*
X106146000Y-67538000D02*
X106172000Y-67564000D01*
X106146000Y-66294000D02*
X106146000Y-67538000D01*
X106146000Y-70384000D02*
X106172000Y-70358000D01*
X106146000Y-71628000D02*
X106146000Y-70384000D01*
X114297000Y-74184000D02*
X114306500Y-74174500D01*
X113268000Y-74184000D02*
X114297000Y-74184000D01*
X123672000Y-68808000D02*
X123698000Y-68834000D01*
X122428000Y-68808000D02*
X123672000Y-68808000D01*
X121920000Y-61214000D02*
X122936000Y-60198000D01*
X121920000Y-62088000D02*
X121920000Y-61214000D01*
X116840000Y-61214000D02*
X117856000Y-60198000D01*
X116840000Y-62088000D02*
X116840000Y-61214000D01*
X103061000Y-63309000D02*
X103124000Y-63246000D01*
X103061000Y-64262000D02*
X103061000Y-63309000D01*
X109347000Y-65659000D02*
X109220000Y-65532000D01*
X109347000Y-67121000D02*
X109347000Y-65659000D01*
X124460000Y-83312000D02*
X125476000Y-83312000D01*
X126479000Y-79515000D02*
X127254000Y-78740000D01*
X126238000Y-79515000D02*
X126479000Y-79515000D01*
X114306500Y-74174500D02*
X115062000Y-73419000D01*
X116840000Y-68532676D02*
X116774544Y-68598132D01*
X116840000Y-67056000D02*
X116840000Y-68532676D01*
X115987010Y-69385666D02*
X116774544Y-68598132D01*
X115987010Y-72493990D02*
X115987010Y-69385666D01*
X115062000Y-73419000D02*
X115987010Y-72493990D01*
X102108000Y-79248000D02*
X100330000Y-77470000D01*
X106426000Y-79248000D02*
X102108000Y-79248000D01*
X117196990Y-88240990D02*
X116586000Y-87630000D01*
X122517990Y-88240990D02*
X117196990Y-88240990D01*
X122669000Y-88392000D02*
X122517990Y-88240990D01*
X121363999Y-95455999D02*
X121412000Y-95504000D01*
X121363999Y-91450999D02*
X121363999Y-95455999D01*
X121628998Y-91186000D02*
X121363999Y-91450999D01*
X122344000Y-91186000D02*
X121628998Y-91186000D01*
%TO.N,/BATTERY*%
X118473000Y-89490000D02*
X118872000Y-89091000D01*
X117066000Y-89490000D02*
X118473000Y-89490000D01*
X118872000Y-89091000D02*
X120396000Y-89091000D01*
X120396000Y-89091000D02*
X121199000Y-89091000D01*
X122344000Y-93655000D02*
X122669000Y-93980000D01*
X122344000Y-92136000D02*
X122344000Y-93655000D01*
X122669000Y-94983000D02*
X122682000Y-94996000D01*
X122669000Y-93980000D02*
X122669000Y-94983000D01*
X121591000Y-89483000D02*
X122344000Y-90236000D01*
X121199000Y-89091000D02*
X121591000Y-89483000D01*
%TO.N,+BATT*%
X110031000Y-91440000D02*
X110236000Y-91645000D01*
X106680000Y-91440000D02*
X110031000Y-91440000D01*
X113571000Y-91645000D02*
X115316000Y-93390000D01*
X110236000Y-91645000D02*
X113571000Y-91645000D01*
%TO.N,+3V3*%
X124544000Y-88717000D02*
X124219000Y-88392000D01*
X124544000Y-90236000D02*
X124544000Y-88717000D01*
X111760000Y-79565000D02*
X113284000Y-79565000D01*
X110236000Y-78041000D02*
X111760000Y-79565000D01*
X110236000Y-77952000D02*
X110236000Y-78041000D01*
X108992000Y-77952000D02*
X108966000Y-77978000D01*
X110236000Y-77952000D02*
X108992000Y-77952000D01*
X110236000Y-75216000D02*
X111268000Y-74184000D01*
X110236000Y-77952000D02*
X110236000Y-75216000D01*
X113157000Y-72624544D02*
X113157000Y-72071000D01*
X111597544Y-74184000D02*
X113157000Y-72624544D01*
X111268000Y-74184000D02*
X111597544Y-74184000D01*
X114860000Y-72071000D02*
X115062000Y-71869000D01*
X113157000Y-72071000D02*
X114860000Y-72071000D01*
X120650000Y-70358000D02*
X122428000Y-70358000D01*
X120142000Y-69850000D02*
X120650000Y-70358000D01*
X120650000Y-72006000D02*
X120650000Y-70358000D01*
X119380000Y-61214000D02*
X120396000Y-60198000D01*
X119380000Y-62088000D02*
X119380000Y-61214000D01*
X106832000Y-60330000D02*
X110104000Y-60330000D01*
X110104000Y-60330000D02*
X113132000Y-60330000D01*
X110104000Y-60330000D02*
X110104045Y-60329955D01*
X125841000Y-78362000D02*
X126238000Y-77965000D01*
X124460000Y-78362000D02*
X125841000Y-78362000D01*
X126114000Y-76708000D02*
X126238000Y-76708000D01*
X126238000Y-76708000D02*
X126238000Y-77965000D01*
X120650000Y-72006000D02*
X120650000Y-73660006D01*
X124460000Y-90320000D02*
X124544000Y-90236000D01*
X124460000Y-91186000D02*
X124460000Y-90320000D01*
X102171000Y-66739000D02*
X102870000Y-66040000D01*
X102171000Y-71882000D02*
X102171000Y-66739000D01*
X125259002Y-91186000D02*
X124460000Y-91186000D01*
X126783002Y-92710000D02*
X125259002Y-91186000D01*
X128778000Y-92710000D02*
X126783002Y-92710000D01*
X115062000Y-71869000D02*
X115062000Y-70865994D01*
X120142000Y-69850000D02*
X118110000Y-69850000D01*
%TO.N,Net-(C8-Pad2)*%
X107696000Y-68072000D02*
X107696000Y-66294000D01*
X113157000Y-68199000D02*
X112522000Y-68834000D01*
X113157000Y-67121000D02*
X113157000Y-68199000D01*
%TO.N,Net-(C9-Pad2)*%
X107696000Y-71628000D02*
X107696000Y-69972000D01*
X111887000Y-68096000D02*
X110641000Y-69342000D01*
X111887000Y-67121000D02*
X111887000Y-68096000D01*
X108326000Y-69342000D02*
X107696000Y-69972000D01*
X110641000Y-69342000D02*
X108326000Y-69342000D01*
%TO.N,Net-(D1-Pad2)*%
X118872000Y-90741000D02*
X118872000Y-92176500D01*
%TO.N,Net-(D2-Pad2)*%
X101625500Y-83312000D02*
X103061000Y-83312000D01*
%TO.N,Net-(D3-Pad2)*%
X101625500Y-81534000D02*
X103061000Y-81534000D01*
%TO.N,/RST*%
X129511524Y-68580000D02*
X132080000Y-68580000D01*
X120650000Y-77441524D02*
X129511524Y-68580000D01*
X120650000Y-78362000D02*
X120650000Y-77441524D01*
X120650000Y-78362000D02*
X120650000Y-79337000D01*
X120650000Y-79337000D02*
X119976990Y-80010010D01*
X119976990Y-80010010D02*
X118872000Y-80010010D01*
X100521000Y-74739000D02*
X100330000Y-74930000D01*
X100521000Y-71882000D02*
X100521000Y-74739000D01*
%TO.N,/MOSI*%
X111760000Y-77915000D02*
X111760000Y-77978000D01*
X111268000Y-77486000D02*
X111268000Y-76184000D01*
X111760000Y-77978000D02*
X111268000Y-77486000D01*
X112268000Y-75184000D02*
X115824000Y-75184000D01*
X111268000Y-76184000D02*
X112268000Y-75184000D01*
X116840000Y-74168000D02*
X115824000Y-75184000D01*
X116840000Y-72006000D02*
X116840000Y-74168000D01*
X109347000Y-70485000D02*
X109474000Y-70358000D01*
X109347000Y-72071000D02*
X109347000Y-70485000D01*
X116840000Y-78362000D02*
X116840000Y-76200000D01*
X115824000Y-75184000D02*
X116840000Y-76200000D01*
X116840000Y-76200000D02*
X115823996Y-75183996D01*
X117856000Y-80264000D02*
X117348000Y-80264000D01*
X117348000Y-80264000D02*
X116840000Y-79756000D01*
X116840000Y-79756000D02*
X116840000Y-78362000D01*
X131737999Y-75857999D02*
X132080000Y-76200000D01*
X125818001Y-75857999D02*
X131737999Y-75857999D01*
X124968000Y-76708000D02*
X125818001Y-75857999D01*
%TO.N,/SCK*%
X113268000Y-77899000D02*
X113284000Y-77915000D01*
X113268000Y-76184000D02*
X113268000Y-77899000D01*
X113284000Y-77915000D02*
X114999000Y-77915000D01*
X118110000Y-72006000D02*
X118110000Y-73660000D01*
X110490000Y-71944000D02*
X110617000Y-72071000D01*
X110490000Y-70358000D02*
X110490000Y-71944000D01*
X110617000Y-73046000D02*
X109749000Y-73914000D01*
X110617000Y-72071000D02*
X110617000Y-73046000D01*
X109749000Y-73914000D02*
X107696000Y-73914000D01*
X107696000Y-73914000D02*
X107188000Y-73406000D01*
X104394000Y-73406000D02*
X102870000Y-74930000D01*
X107188000Y-73406000D02*
X104394000Y-73406000D01*
X127146572Y-88900000D02*
X124834562Y-86587989D01*
X132080000Y-88900000D02*
X127146572Y-88900000D01*
X124834562Y-86587989D02*
X118845989Y-86587989D01*
X118110000Y-85852000D02*
X118110000Y-83312000D01*
X118845989Y-86587989D02*
X118110000Y-85852000D01*
X114999000Y-77915000D02*
X115728500Y-78644500D01*
X115728500Y-78644500D02*
X115728500Y-79660500D01*
X115728500Y-79660500D02*
X118110000Y-82042000D01*
X118110000Y-82042000D02*
X118110000Y-83312000D01*
%TO.N,Net-(JP1-Pad2)*%
X120650000Y-67056000D02*
X120650000Y-66040000D01*
X121920000Y-64770000D02*
X121920000Y-63388000D01*
X120650000Y-66040000D02*
X121920000Y-64770000D01*
%TO.N,Net-(JP2-Pad2)*%
X119380000Y-67056000D02*
X119380000Y-63388000D01*
%TO.N,Net-(JP3-Pad2)*%
X118110000Y-67056000D02*
X118110000Y-66040000D01*
X116840000Y-64770000D02*
X116840000Y-63388000D01*
X118110000Y-66040000D02*
X116840000Y-64770000D01*
%TO.N,/BATT_MON*%
X120396000Y-90741000D02*
X120396000Y-91440000D01*
X120396000Y-91440000D02*
X120396000Y-92139000D01*
X121920000Y-83312000D02*
X121920000Y-84836000D01*
%TO.N,/LED1*%
X109982000Y-83312000D02*
X104711000Y-83312000D01*
%TO.N,/MISO*%
X130048000Y-91440000D02*
X132080000Y-91440000D01*
X116840000Y-83312000D02*
X116840000Y-85852000D01*
X116840000Y-85852000D02*
X118275999Y-87287999D01*
X124544609Y-87287999D02*
X125984000Y-88727390D01*
X118275999Y-87287999D02*
X124544609Y-87287999D01*
X125984000Y-88727390D02*
X125984000Y-90424000D01*
X127000000Y-91440000D02*
X130048000Y-91440000D01*
X125984000Y-90424000D02*
X127000000Y-91440000D01*
X107696000Y-79756000D02*
X108773990Y-80833990D01*
X107696000Y-75946000D02*
X107696000Y-79756000D01*
X106680000Y-74930000D02*
X107696000Y-75946000D01*
X105410000Y-74930000D02*
X106680000Y-74930000D01*
X108773990Y-80833990D02*
X115631990Y-80833990D01*
X116840000Y-82042000D02*
X116840000Y-83312000D01*
X115631990Y-80833990D02*
X116840000Y-82042000D01*
%TO.N,/BATT_MON*%
X121920000Y-82337000D02*
X122977000Y-81280000D01*
X121920000Y-83312000D02*
X121920000Y-82337000D01*
X122977000Y-81280000D02*
X132080000Y-81280000D01*
%TO.N,/LED1*%
X109982000Y-83312000D02*
X113284000Y-83312000D01*
X131162990Y-84737010D02*
X132080000Y-83820000D01*
X123190000Y-84836000D02*
X123190000Y-83312000D01*
X131064000Y-84836000D02*
X131162990Y-84737010D01*
X123190000Y-84836000D02*
X131064000Y-84836000D01*
%TO.N,/LED2*%
X120650000Y-84836000D02*
X120650000Y-83312000D01*
X104711000Y-81534000D02*
X109220000Y-81534000D01*
X114046000Y-81534000D02*
X115570000Y-83058000D01*
X109220000Y-81534000D02*
X114046000Y-81534000D01*
X120650000Y-82337000D02*
X122469000Y-80518000D01*
X120650000Y-83312000D02*
X120650000Y-82337000D01*
X122469000Y-80518000D02*
X127508000Y-80518000D01*
X129286000Y-78740000D02*
X132080000Y-78740000D01*
X127508000Y-80518000D02*
X129286000Y-78740000D01*
%TO.N,/BUTT1*%
X126492000Y-86360000D02*
X132080000Y-86360000D01*
%TO.N,Net-(TP8-Pad1)*%
X126746000Y-73660000D02*
X132080000Y-73660000D01*
X123190000Y-77216000D02*
X126746000Y-73660000D01*
X123190000Y-78362000D02*
X123190000Y-77216000D01*
%TO.N,Net-(TP9-Pad1)*%
X121920000Y-77387000D02*
X128187000Y-71120000D01*
X128187000Y-71120000D02*
X132080000Y-71120000D01*
X121920000Y-78362000D02*
X121920000Y-77387000D01*
%TO.N,Net-(TP11-Pad1)*%
X130727000Y-66040000D02*
X132080000Y-66040000D01*
X119380000Y-77387000D02*
X130727000Y-66040000D01*
X119380000Y-78362000D02*
X119380000Y-77387000D01*
%TO.N,/BUTT1*%
X106832000Y-64130000D02*
X113132000Y-64130000D01*
X106700000Y-64262000D02*
X106832000Y-64130000D01*
X104711000Y-64262000D02*
X106700000Y-64262000D01*
X113264000Y-64262000D02*
X113132000Y-64130000D01*
X114808000Y-64262000D02*
X113264000Y-64262000D01*
X119380000Y-83312000D02*
X119380000Y-85379979D01*
X126019979Y-85887979D02*
X126365000Y-86233000D01*
X119380000Y-85379979D02*
X119888000Y-85887979D01*
X119888000Y-85887979D02*
X126019979Y-85887979D01*
X126365000Y-86233000D02*
X126492000Y-86360000D01*
X119380000Y-82042000D02*
X121412000Y-80010000D01*
X119380000Y-83312000D02*
X119380000Y-82042000D01*
%TO.N,Net-(TP12-Pad1)*%
X118110000Y-77470000D02*
X132080000Y-63500000D01*
X118110000Y-78362000D02*
X118110000Y-77470000D01*
%TD*%
D26*
%TO.N,GND*%
X162368083Y-54791173D02*
X163111891Y-54994656D01*
X163807905Y-55326638D01*
X164434130Y-55776626D01*
X164970777Y-56330403D01*
X165400871Y-56970451D01*
X165710829Y-57676553D01*
X165892065Y-58431457D01*
X165940001Y-59084220D01*
X165940000Y-99030608D01*
X165868827Y-99828083D01*
X165665344Y-100571890D01*
X165333363Y-101267904D01*
X164883374Y-101894130D01*
X164329597Y-102430777D01*
X163689549Y-102860871D01*
X162983447Y-103170829D01*
X162228543Y-103352065D01*
X161575793Y-103400000D01*
X101629392Y-103400000D01*
X100831917Y-103328827D01*
X100088110Y-103125344D01*
X99392096Y-102793363D01*
X98765870Y-102343374D01*
X98229223Y-101789597D01*
X98209927Y-101760881D01*
X99078724Y-101760881D01*
X99438912Y-102250548D01*
X100102882Y-102610849D01*
X100824385Y-102834694D01*
X101575695Y-102913480D01*
X102327938Y-102844178D01*
X103052208Y-102629452D01*
X103720670Y-102277555D01*
X103761088Y-102250548D01*
X104121276Y-101760881D01*
X159078724Y-101760881D01*
X159438912Y-102250548D01*
X160102882Y-102610849D01*
X160824385Y-102834694D01*
X161575695Y-102913480D01*
X162327938Y-102844178D01*
X163052208Y-102629452D01*
X163720670Y-102277555D01*
X163761088Y-102250548D01*
X164121276Y-101760881D01*
X161600000Y-99239605D01*
X159078724Y-101760881D01*
X104121276Y-101760881D01*
X101600000Y-99239605D01*
X99078724Y-101760881D01*
X98209927Y-101760881D01*
X97799129Y-101149549D01*
X97489171Y-100443447D01*
X97307935Y-99688543D01*
X97260000Y-99035793D01*
X97260000Y-99035695D01*
X97746520Y-99035695D01*
X97815822Y-99787938D01*
X98030548Y-100512208D01*
X98382445Y-101180670D01*
X98409452Y-101221088D01*
X98899119Y-101581276D01*
X101420395Y-99060000D01*
X101779605Y-99060000D01*
X104300881Y-101581276D01*
X104790548Y-101221088D01*
X105150849Y-100557118D01*
X105374694Y-99835615D01*
X105453480Y-99084305D01*
X105449002Y-99035695D01*
X157746520Y-99035695D01*
X157815822Y-99787938D01*
X158030548Y-100512208D01*
X158382445Y-101180670D01*
X158409452Y-101221088D01*
X158899119Y-101581276D01*
X161420395Y-99060000D01*
X161779605Y-99060000D01*
X164300881Y-101581276D01*
X164790548Y-101221088D01*
X165150849Y-100557118D01*
X165374694Y-99835615D01*
X165453480Y-99084305D01*
X165384178Y-98332062D01*
X165169452Y-97607792D01*
X164817555Y-96939330D01*
X164790548Y-96898912D01*
X164300881Y-96538724D01*
X161779605Y-99060000D01*
X161420395Y-99060000D01*
X158899119Y-96538724D01*
X158409452Y-96898912D01*
X158049151Y-97562882D01*
X157825306Y-98284385D01*
X157746520Y-99035695D01*
X105449002Y-99035695D01*
X105384178Y-98332062D01*
X105169452Y-97607792D01*
X104817555Y-96939330D01*
X104790548Y-96898912D01*
X104300881Y-96538724D01*
X101779605Y-99060000D01*
X101420395Y-99060000D01*
X98899119Y-96538724D01*
X98409452Y-96898912D01*
X98049151Y-97562882D01*
X97825306Y-98284385D01*
X97746520Y-99035695D01*
X97260000Y-99035695D01*
X97260000Y-96359119D01*
X99078724Y-96359119D01*
X101600000Y-98880395D01*
X104121276Y-96359119D01*
X159078724Y-96359119D01*
X161600000Y-98880395D01*
X164121276Y-96359119D01*
X163761088Y-95869452D01*
X163097118Y-95509151D01*
X162375615Y-95285306D01*
X161624305Y-95206520D01*
X160872062Y-95275822D01*
X160147792Y-95490548D01*
X159479330Y-95842445D01*
X159438912Y-95869452D01*
X159078724Y-96359119D01*
X104121276Y-96359119D01*
X103761088Y-95869452D01*
X103097118Y-95509151D01*
X102375615Y-95285306D01*
X101624305Y-95206520D01*
X100872062Y-95275822D01*
X100147792Y-95490548D01*
X99479330Y-95842445D01*
X99438912Y-95869452D01*
X99078724Y-96359119D01*
X97260000Y-96359119D01*
X97260000Y-91440000D01*
X105037815Y-91440000D01*
X105066487Y-91731111D01*
X105151401Y-92011034D01*
X105289294Y-92269014D01*
X105474866Y-92495134D01*
X105700986Y-92680706D01*
X105958966Y-92818599D01*
X106238889Y-92903513D01*
X106457050Y-92925000D01*
X106902950Y-92925000D01*
X107121111Y-92903513D01*
X107401034Y-92818599D01*
X107659014Y-92680706D01*
X107885134Y-92495134D01*
X108024759Y-92325000D01*
X108773625Y-92325000D01*
X108847595Y-92463387D01*
X108958038Y-92597962D01*
X109092613Y-92708405D01*
X109246149Y-92790472D01*
X109412745Y-92841008D01*
X109585999Y-92858072D01*
X110886001Y-92858072D01*
X111059255Y-92841008D01*
X111225851Y-92790472D01*
X111379387Y-92708405D01*
X111513962Y-92597962D01*
X111569737Y-92530000D01*
X113204422Y-92530000D01*
X114177928Y-93503507D01*
X114177928Y-94040000D01*
X114190188Y-94164482D01*
X114226498Y-94284180D01*
X114285463Y-94394494D01*
X114364815Y-94491185D01*
X114461506Y-94570537D01*
X114571820Y-94629502D01*
X114691518Y-94665812D01*
X114816000Y-94678072D01*
X115816000Y-94678072D01*
X115940482Y-94665812D01*
X116060180Y-94629502D01*
X116170494Y-94570537D01*
X116267185Y-94491185D01*
X116346537Y-94394494D01*
X116405502Y-94284180D01*
X116434374Y-94189000D01*
X117758928Y-94189000D01*
X117771188Y-94313482D01*
X117807498Y-94433180D01*
X117866463Y-94543494D01*
X117945815Y-94640185D01*
X118042506Y-94719537D01*
X118152820Y-94778502D01*
X118272518Y-94814812D01*
X118397000Y-94827072D01*
X118586250Y-94824000D01*
X118745000Y-94665250D01*
X118745000Y-93878500D01*
X118999000Y-93878500D01*
X118999000Y-94665250D01*
X119157750Y-94824000D01*
X119347000Y-94827072D01*
X119471482Y-94814812D01*
X119591180Y-94778502D01*
X119634000Y-94755614D01*
X119676820Y-94778502D01*
X119796518Y-94814812D01*
X119921000Y-94827072D01*
X120110250Y-94824000D01*
X120269000Y-94665250D01*
X120269000Y-93916000D01*
X119860750Y-93916000D01*
X119823250Y-93878500D01*
X118999000Y-93878500D01*
X118745000Y-93878500D01*
X117920750Y-93878500D01*
X117762000Y-94037250D01*
X117758928Y-94189000D01*
X116434374Y-94189000D01*
X116441812Y-94164482D01*
X116454072Y-94040000D01*
X116454072Y-92740000D01*
X116441812Y-92615518D01*
X116405502Y-92495820D01*
X116346537Y-92385506D01*
X116267185Y-92288815D01*
X116170494Y-92209463D01*
X116060180Y-92150498D01*
X115940482Y-92114188D01*
X115816000Y-92101928D01*
X115279507Y-92101928D01*
X114227532Y-91049954D01*
X114199817Y-91016183D01*
X114065059Y-90905589D01*
X113911313Y-90823411D01*
X113761853Y-90778072D01*
X114066000Y-90778072D01*
X114190482Y-90765812D01*
X114310180Y-90729502D01*
X114420494Y-90670537D01*
X114517185Y-90591185D01*
X114596537Y-90494494D01*
X114655502Y-90384180D01*
X114691812Y-90264482D01*
X114704072Y-90140000D01*
X114704072Y-88840000D01*
X114691812Y-88715518D01*
X114655502Y-88595820D01*
X114596537Y-88485506D01*
X114517185Y-88388815D01*
X114420494Y-88309463D01*
X114310180Y-88250498D01*
X114190482Y-88214188D01*
X114066000Y-88201928D01*
X113066000Y-88201928D01*
X112941518Y-88214188D01*
X112821820Y-88250498D01*
X112711506Y-88309463D01*
X112614815Y-88388815D01*
X112535463Y-88485506D01*
X112476498Y-88595820D01*
X112440188Y-88715518D01*
X112427928Y-88840000D01*
X112427928Y-90140000D01*
X112440188Y-90264482D01*
X112476498Y-90384180D01*
X112535463Y-90494494D01*
X112614815Y-90591185D01*
X112711506Y-90670537D01*
X112821820Y-90729502D01*
X112922358Y-90760000D01*
X111569737Y-90760000D01*
X111513962Y-90692038D01*
X111379387Y-90581595D01*
X111225851Y-90499528D01*
X111059255Y-90448992D01*
X110886001Y-90431928D01*
X109585999Y-90431928D01*
X109412745Y-90448992D01*
X109246149Y-90499528D01*
X109142369Y-90555000D01*
X108024759Y-90555000D01*
X107889392Y-90390055D01*
X107924180Y-90379502D01*
X108034494Y-90320537D01*
X108131185Y-90241185D01*
X108210537Y-90144494D01*
X108269502Y-90034180D01*
X108305812Y-89914482D01*
X108318072Y-89790000D01*
X108315241Y-89270000D01*
X108697928Y-89270000D01*
X108710188Y-89394482D01*
X108746498Y-89514180D01*
X108805463Y-89624494D01*
X108884815Y-89721185D01*
X108981506Y-89800537D01*
X109091820Y-89859502D01*
X109211518Y-89895812D01*
X109336000Y-89908072D01*
X109950250Y-89905000D01*
X110109000Y-89746250D01*
X110109000Y-88822000D01*
X110363000Y-88822000D01*
X110363000Y-89746250D01*
X110521750Y-89905000D01*
X111136000Y-89908072D01*
X111260482Y-89895812D01*
X111380180Y-89859502D01*
X111490494Y-89800537D01*
X111587185Y-89721185D01*
X111666537Y-89624494D01*
X111725502Y-89514180D01*
X111761812Y-89394482D01*
X111774072Y-89270000D01*
X111771000Y-88980750D01*
X111612250Y-88822000D01*
X110363000Y-88822000D01*
X110109000Y-88822000D01*
X108859750Y-88822000D01*
X108701000Y-88980750D01*
X108697928Y-89270000D01*
X108315241Y-89270000D01*
X108315000Y-89225750D01*
X108156250Y-89067000D01*
X106807000Y-89067000D01*
X106807000Y-89087000D01*
X106553000Y-89087000D01*
X106553000Y-89067000D01*
X105203750Y-89067000D01*
X105045000Y-89225750D01*
X105041928Y-89790000D01*
X105054188Y-89914482D01*
X105090498Y-90034180D01*
X105149463Y-90144494D01*
X105228815Y-90241185D01*
X105325506Y-90320537D01*
X105435820Y-90379502D01*
X105470608Y-90390055D01*
X105289294Y-90610986D01*
X105151401Y-90868966D01*
X105066487Y-91148889D01*
X105037815Y-91440000D01*
X97260000Y-91440000D01*
X97260000Y-88090000D01*
X105041928Y-88090000D01*
X105045000Y-88654250D01*
X105203750Y-88813000D01*
X106553000Y-88813000D01*
X106553000Y-87613750D01*
X106807000Y-87613750D01*
X106807000Y-88813000D01*
X108156250Y-88813000D01*
X108315000Y-88654250D01*
X108317908Y-88120000D01*
X108697928Y-88120000D01*
X108701000Y-88409250D01*
X108859750Y-88568000D01*
X110109000Y-88568000D01*
X110109000Y-87643750D01*
X110363000Y-87643750D01*
X110363000Y-88568000D01*
X111612250Y-88568000D01*
X111771000Y-88409250D01*
X111774072Y-88120000D01*
X111761812Y-87995518D01*
X111725502Y-87875820D01*
X111666537Y-87765506D01*
X111587185Y-87668815D01*
X111490494Y-87589463D01*
X111380180Y-87530498D01*
X111260482Y-87494188D01*
X111136000Y-87481928D01*
X110521750Y-87485000D01*
X110363000Y-87643750D01*
X110109000Y-87643750D01*
X109950250Y-87485000D01*
X109336000Y-87481928D01*
X109211518Y-87494188D01*
X109091820Y-87530498D01*
X108981506Y-87589463D01*
X108884815Y-87668815D01*
X108805463Y-87765506D01*
X108746498Y-87875820D01*
X108710188Y-87995518D01*
X108697928Y-88120000D01*
X108317908Y-88120000D01*
X108318072Y-88090000D01*
X108305812Y-87965518D01*
X108269502Y-87845820D01*
X108210537Y-87735506D01*
X108131185Y-87638815D01*
X108034494Y-87559463D01*
X107924180Y-87500498D01*
X107804482Y-87464188D01*
X107680000Y-87451928D01*
X106965750Y-87455000D01*
X106807000Y-87613750D01*
X106553000Y-87613750D01*
X106394250Y-87455000D01*
X105680000Y-87451928D01*
X105555518Y-87464188D01*
X105435820Y-87500498D01*
X105325506Y-87559463D01*
X105228815Y-87638815D01*
X105149463Y-87735506D01*
X105090498Y-87845820D01*
X105054188Y-87965518D01*
X105041928Y-88090000D01*
X97260000Y-88090000D01*
X97260000Y-83787000D01*
X98974928Y-83787000D01*
X98987188Y-83911482D01*
X99023498Y-84031180D01*
X99082463Y-84141494D01*
X99161815Y-84238185D01*
X99258506Y-84317537D01*
X99368820Y-84376502D01*
X99488518Y-84412812D01*
X99613000Y-84425072D01*
X99764750Y-84422000D01*
X99923500Y-84263250D01*
X99923500Y-83439000D01*
X99136750Y-83439000D01*
X98978000Y-83597750D01*
X98974928Y-83787000D01*
X97260000Y-83787000D01*
X97260000Y-82009000D01*
X98974928Y-82009000D01*
X98987188Y-82133482D01*
X99023498Y-82253180D01*
X99082463Y-82363494D01*
X99131298Y-82423000D01*
X99082463Y-82482506D01*
X99023498Y-82592820D01*
X98987188Y-82712518D01*
X98974928Y-82837000D01*
X98978000Y-83026250D01*
X99136750Y-83185000D01*
X99923500Y-83185000D01*
X99923500Y-81661000D01*
X99136750Y-81661000D01*
X98978000Y-81819750D01*
X98974928Y-82009000D01*
X97260000Y-82009000D01*
X97260000Y-81059000D01*
X98974928Y-81059000D01*
X98978000Y-81248250D01*
X99136750Y-81407000D01*
X99923500Y-81407000D01*
X99923500Y-80582750D01*
X99764750Y-80424000D01*
X99613000Y-80420928D01*
X99488518Y-80433188D01*
X99368820Y-80469498D01*
X99258506Y-80528463D01*
X99161815Y-80607815D01*
X99082463Y-80704506D01*
X99023498Y-80814820D01*
X98987188Y-80934518D01*
X98974928Y-81059000D01*
X97260000Y-81059000D01*
X97260000Y-77826891D01*
X98888519Y-77826891D01*
X98985843Y-78101252D01*
X99134822Y-78351355D01*
X99329731Y-78567588D01*
X99563080Y-78741641D01*
X99825901Y-78866825D01*
X99973110Y-78911476D01*
X100203000Y-78790155D01*
X100203000Y-77597000D01*
X99009186Y-77597000D01*
X98888519Y-77826891D01*
X97260000Y-77826891D01*
X97260000Y-74783740D01*
X98845000Y-74783740D01*
X98845000Y-75076260D01*
X98902068Y-75363158D01*
X99014010Y-75633411D01*
X99176525Y-75876632D01*
X99383368Y-76083475D01*
X99559406Y-76201100D01*
X99329731Y-76372412D01*
X99134822Y-76588645D01*
X98985843Y-76838748D01*
X98888519Y-77113109D01*
X99009186Y-77343000D01*
X100203000Y-77343000D01*
X100203000Y-77323000D01*
X100457000Y-77323000D01*
X100457000Y-77343000D01*
X100477000Y-77343000D01*
X100477000Y-77597000D01*
X100457000Y-77597000D01*
X100457000Y-78790155D01*
X100686890Y-78911476D01*
X100834099Y-78866825D01*
X101096920Y-78741641D01*
X101330269Y-78567588D01*
X101525178Y-78351355D01*
X101594805Y-78234466D01*
X101716525Y-78416632D01*
X101923368Y-78623475D01*
X102166589Y-78785990D01*
X102436842Y-78897932D01*
X102723740Y-78955000D01*
X103016260Y-78955000D01*
X103303158Y-78897932D01*
X103573411Y-78785990D01*
X103816632Y-78623475D01*
X104023475Y-78416632D01*
X104140000Y-78242240D01*
X104256525Y-78416632D01*
X104463368Y-78623475D01*
X104706589Y-78785990D01*
X104976842Y-78897932D01*
X105263740Y-78955000D01*
X105556260Y-78955000D01*
X105843158Y-78897932D01*
X106113411Y-78785990D01*
X106356632Y-78623475D01*
X106563475Y-78416632D01*
X106725990Y-78173411D01*
X106811001Y-77968177D01*
X106811001Y-79712521D01*
X106806719Y-79756000D01*
X106823805Y-79929490D01*
X106874412Y-80096313D01*
X106956590Y-80250059D01*
X107039468Y-80351046D01*
X107039471Y-80351049D01*
X107067184Y-80384817D01*
X107100951Y-80412529D01*
X107337422Y-80649000D01*
X105482411Y-80649000D01*
X105376608Y-80562169D01*
X105231716Y-80484722D01*
X105074500Y-80437031D01*
X104911000Y-80420928D01*
X104511000Y-80420928D01*
X104347500Y-80437031D01*
X104190284Y-80484722D01*
X104045392Y-80562169D01*
X103918394Y-80666394D01*
X103886000Y-80705866D01*
X103853606Y-80666394D01*
X103726608Y-80562169D01*
X103581716Y-80484722D01*
X103424500Y-80437031D01*
X103261000Y-80420928D01*
X102861000Y-80420928D01*
X102697500Y-80437031D01*
X102540284Y-80484722D01*
X102395392Y-80562169D01*
X102355909Y-80594572D01*
X102320275Y-80565329D01*
X102172142Y-80486150D01*
X102011408Y-80437392D01*
X101844250Y-80420928D01*
X101406750Y-80420928D01*
X101239592Y-80437392D01*
X101078858Y-80486150D01*
X100930725Y-80565329D01*
X100909070Y-80583100D01*
X100842494Y-80528463D01*
X100732180Y-80469498D01*
X100612482Y-80433188D01*
X100488000Y-80420928D01*
X100336250Y-80424000D01*
X100177500Y-80582750D01*
X100177500Y-81407000D01*
X100197500Y-81407000D01*
X100197500Y-81661000D01*
X100177500Y-81661000D01*
X100177500Y-83185000D01*
X100197500Y-83185000D01*
X100197500Y-83439000D01*
X100177500Y-83439000D01*
X100177500Y-84263250D01*
X100336250Y-84422000D01*
X100488000Y-84425072D01*
X100612482Y-84412812D01*
X100732180Y-84376502D01*
X100842494Y-84317537D01*
X100909070Y-84262900D01*
X100930725Y-84280671D01*
X101078858Y-84359850D01*
X101239592Y-84408608D01*
X101406750Y-84425072D01*
X101844250Y-84425072D01*
X102011408Y-84408608D01*
X102172142Y-84359850D01*
X102320275Y-84280671D01*
X102355909Y-84251428D01*
X102395392Y-84283831D01*
X102540284Y-84361278D01*
X102697500Y-84408969D01*
X102861000Y-84425072D01*
X103261000Y-84425072D01*
X103424500Y-84408969D01*
X103581716Y-84361278D01*
X103726608Y-84283831D01*
X103853606Y-84179606D01*
X103886000Y-84140134D01*
X103918394Y-84179606D01*
X104045392Y-84283831D01*
X104190284Y-84361278D01*
X104347500Y-84408969D01*
X104511000Y-84425072D01*
X104911000Y-84425072D01*
X105074500Y-84408969D01*
X105231716Y-84361278D01*
X105376608Y-84283831D01*
X105482411Y-84197000D01*
X112745546Y-84197000D01*
X112793744Y-84229205D01*
X112982102Y-84307226D01*
X113182061Y-84347000D01*
X113385939Y-84347000D01*
X113585898Y-84307226D01*
X113774256Y-84229205D01*
X113943774Y-84115937D01*
X114087937Y-83971774D01*
X114201205Y-83802256D01*
X114279226Y-83613898D01*
X114319000Y-83413939D01*
X114319000Y-83210061D01*
X114281387Y-83020965D01*
X114563465Y-83303044D01*
X114574774Y-83359898D01*
X114652795Y-83548256D01*
X114766063Y-83717774D01*
X114910226Y-83861937D01*
X115079744Y-83975205D01*
X115268102Y-84053226D01*
X115468061Y-84093000D01*
X115671939Y-84093000D01*
X115871898Y-84053226D01*
X115901928Y-84040787D01*
X115901928Y-84137000D01*
X115917071Y-84290745D01*
X115955000Y-84415784D01*
X115955001Y-85808521D01*
X115950719Y-85852000D01*
X115967805Y-86025490D01*
X116018412Y-86192313D01*
X116100590Y-86346059D01*
X116183468Y-86447046D01*
X116183471Y-86447049D01*
X116211184Y-86480817D01*
X116244951Y-86508529D01*
X117619469Y-87883048D01*
X117647182Y-87916816D01*
X117680950Y-87944529D01*
X117680952Y-87944531D01*
X117742449Y-87995000D01*
X117781940Y-88027410D01*
X117935686Y-88109588D01*
X118102509Y-88160194D01*
X118180571Y-88167882D01*
X118131392Y-88194169D01*
X118004394Y-88298394D01*
X117965200Y-88346152D01*
X117920494Y-88309463D01*
X117810180Y-88250498D01*
X117690482Y-88214188D01*
X117566000Y-88201928D01*
X116566000Y-88201928D01*
X116441518Y-88214188D01*
X116321820Y-88250498D01*
X116211506Y-88309463D01*
X116114815Y-88388815D01*
X116035463Y-88485506D01*
X115976498Y-88595820D01*
X115940188Y-88715518D01*
X115927928Y-88840000D01*
X115927928Y-90140000D01*
X115940188Y-90264482D01*
X115976498Y-90384180D01*
X116035463Y-90494494D01*
X116114815Y-90591185D01*
X116211506Y-90670537D01*
X116321820Y-90729502D01*
X116441518Y-90765812D01*
X116566000Y-90778072D01*
X117566000Y-90778072D01*
X117690482Y-90765812D01*
X117758928Y-90745049D01*
X117758928Y-90941000D01*
X117775031Y-91104500D01*
X117822722Y-91261716D01*
X117900169Y-91406608D01*
X117932572Y-91446091D01*
X117903329Y-91481725D01*
X117824150Y-91629858D01*
X117775392Y-91790592D01*
X117758928Y-91957750D01*
X117758928Y-92395250D01*
X117775392Y-92562408D01*
X117824150Y-92723142D01*
X117903329Y-92871275D01*
X117921100Y-92892930D01*
X117866463Y-92959506D01*
X117807498Y-93069820D01*
X117771188Y-93189518D01*
X117758928Y-93314000D01*
X117762000Y-93465750D01*
X117920750Y-93624500D01*
X118745000Y-93624500D01*
X118745000Y-93604500D01*
X118999000Y-93604500D01*
X118999000Y-93624500D01*
X119407250Y-93624500D01*
X119444750Y-93662000D01*
X120269000Y-93662000D01*
X120269000Y-93642000D01*
X120523000Y-93642000D01*
X120523000Y-93662000D01*
X120543000Y-93662000D01*
X120543000Y-93916000D01*
X120523000Y-93916000D01*
X120523000Y-94665250D01*
X120681750Y-94824000D01*
X120871000Y-94827072D01*
X120995482Y-94814812D01*
X121115180Y-94778502D01*
X121225494Y-94719537D01*
X121322185Y-94640185D01*
X121401537Y-94543494D01*
X121460502Y-94433180D01*
X121496812Y-94313482D01*
X121509072Y-94189000D01*
X121506000Y-94074750D01*
X121347252Y-93916002D01*
X121498352Y-93916002D01*
X121522412Y-93995313D01*
X121580928Y-94104790D01*
X121580928Y-94230000D01*
X121597512Y-94398377D01*
X121646625Y-94560283D01*
X121700474Y-94661027D01*
X121686774Y-94694102D01*
X121647000Y-94894061D01*
X121647000Y-95097939D01*
X121686774Y-95297898D01*
X121764795Y-95486256D01*
X121878063Y-95655774D01*
X122022226Y-95799937D01*
X122191744Y-95913205D01*
X122380102Y-95991226D01*
X122580061Y-96031000D01*
X122783939Y-96031000D01*
X122983898Y-95991226D01*
X123172256Y-95913205D01*
X123341774Y-95799937D01*
X123485937Y-95655774D01*
X123599205Y-95486256D01*
X123677226Y-95297898D01*
X123717000Y-95097939D01*
X123717000Y-95087951D01*
X123769000Y-95093072D01*
X123933250Y-95090000D01*
X124092000Y-94931250D01*
X124092000Y-94107000D01*
X124346000Y-94107000D01*
X124346000Y-94931250D01*
X124504750Y-95090000D01*
X124669000Y-95093072D01*
X124793482Y-95080812D01*
X124913180Y-95044502D01*
X125023494Y-94985537D01*
X125120185Y-94906185D01*
X125199537Y-94809494D01*
X125258502Y-94699180D01*
X125294812Y-94579482D01*
X125307072Y-94455000D01*
X125304000Y-94265750D01*
X125145250Y-94107000D01*
X124346000Y-94107000D01*
X124092000Y-94107000D01*
X124072000Y-94107000D01*
X124072000Y-93853000D01*
X124092000Y-93853000D01*
X124092000Y-93833000D01*
X124346000Y-93833000D01*
X124346000Y-93853000D01*
X125145250Y-93853000D01*
X125304000Y-93694250D01*
X125307072Y-93505000D01*
X125294812Y-93380518D01*
X125258502Y-93260820D01*
X125199537Y-93150506D01*
X125151095Y-93091479D01*
X125198482Y-93086812D01*
X125318180Y-93050502D01*
X125428494Y-92991537D01*
X125525185Y-92912185D01*
X125604537Y-92815494D01*
X125615816Y-92794393D01*
X126126472Y-93305049D01*
X126154185Y-93338817D01*
X126187953Y-93366530D01*
X126187955Y-93366532D01*
X126216551Y-93390000D01*
X126288943Y-93449411D01*
X126442689Y-93531589D01*
X126609512Y-93582195D01*
X126739525Y-93595000D01*
X126739535Y-93595000D01*
X126783001Y-93599281D01*
X126826467Y-93595000D01*
X128239546Y-93595000D01*
X128287744Y-93627205D01*
X128476102Y-93705226D01*
X128676061Y-93745000D01*
X128879939Y-93745000D01*
X129079898Y-93705226D01*
X129268256Y-93627205D01*
X129437774Y-93513937D01*
X129581937Y-93369774D01*
X129695205Y-93200256D01*
X129773226Y-93011898D01*
X129813000Y-92811939D01*
X129813000Y-92608061D01*
X129773226Y-92408102D01*
X129738804Y-92325000D01*
X130704941Y-92325000D01*
X130810013Y-92482252D01*
X131037748Y-92709987D01*
X131305537Y-92888918D01*
X131603088Y-93012168D01*
X131918967Y-93075000D01*
X132241033Y-93075000D01*
X132556912Y-93012168D01*
X132854463Y-92888918D01*
X133122252Y-92709987D01*
X133349987Y-92482252D01*
X133440202Y-92347236D01*
X133466525Y-92386632D01*
X133673368Y-92593475D01*
X133916589Y-92755990D01*
X134186842Y-92867932D01*
X134473740Y-92925000D01*
X134766260Y-92925000D01*
X135053158Y-92867932D01*
X135323411Y-92755990D01*
X135566632Y-92593475D01*
X135773475Y-92386632D01*
X135890000Y-92212240D01*
X136006525Y-92386632D01*
X136213368Y-92593475D01*
X136377760Y-92703318D01*
X136193368Y-92826525D01*
X135986525Y-93033368D01*
X135824010Y-93276589D01*
X135712068Y-93546842D01*
X135655000Y-93833740D01*
X135655000Y-94126260D01*
X135712068Y-94413158D01*
X135824010Y-94683411D01*
X135986525Y-94926632D01*
X136193368Y-95133475D01*
X136436589Y-95295990D01*
X136706842Y-95407932D01*
X136993740Y-95465000D01*
X137286260Y-95465000D01*
X137573158Y-95407932D01*
X137843411Y-95295990D01*
X138086632Y-95133475D01*
X138293475Y-94926632D01*
X138410000Y-94752240D01*
X138526525Y-94926632D01*
X138733368Y-95133475D01*
X138976589Y-95295990D01*
X139246842Y-95407932D01*
X139533740Y-95465000D01*
X139826260Y-95465000D01*
X140113158Y-95407932D01*
X140383411Y-95295990D01*
X140626632Y-95133475D01*
X140833475Y-94926632D01*
X140950000Y-94752240D01*
X141066525Y-94926632D01*
X141273368Y-95133475D01*
X141516589Y-95295990D01*
X141786842Y-95407932D01*
X142073740Y-95465000D01*
X142366260Y-95465000D01*
X142653158Y-95407932D01*
X142923411Y-95295990D01*
X143166632Y-95133475D01*
X143298487Y-95001620D01*
X143320498Y-95074180D01*
X143379463Y-95184494D01*
X143458815Y-95281185D01*
X143555506Y-95360537D01*
X143665820Y-95419502D01*
X143785518Y-95455812D01*
X143910000Y-95468072D01*
X144474250Y-95465000D01*
X144633000Y-95306250D01*
X144633000Y-94107000D01*
X144613000Y-94107000D01*
X144613000Y-93853000D01*
X144633000Y-93853000D01*
X144633000Y-93833000D01*
X144887000Y-93833000D01*
X144887000Y-93853000D01*
X144907000Y-93853000D01*
X144907000Y-94107000D01*
X144887000Y-94107000D01*
X144887000Y-95306250D01*
X145045750Y-95465000D01*
X145610000Y-95468072D01*
X145734482Y-95455812D01*
X145854180Y-95419502D01*
X145964494Y-95360537D01*
X146061185Y-95281185D01*
X146140537Y-95184494D01*
X146199502Y-95074180D01*
X146226168Y-94986275D01*
X146373368Y-95133475D01*
X146616589Y-95295990D01*
X146886842Y-95407932D01*
X147173740Y-95465000D01*
X147466260Y-95465000D01*
X147753158Y-95407932D01*
X148023411Y-95295990D01*
X148266632Y-95133475D01*
X148473475Y-94926632D01*
X148590000Y-94752240D01*
X148706525Y-94926632D01*
X148913368Y-95133475D01*
X149156589Y-95295990D01*
X149426842Y-95407932D01*
X149713740Y-95465000D01*
X150006260Y-95465000D01*
X150293158Y-95407932D01*
X150563411Y-95295990D01*
X150806632Y-95133475D01*
X151013475Y-94926632D01*
X151130000Y-94752240D01*
X151246525Y-94926632D01*
X151453368Y-95133475D01*
X151696589Y-95295990D01*
X151966842Y-95407932D01*
X152253740Y-95465000D01*
X152546260Y-95465000D01*
X152833158Y-95407932D01*
X153103411Y-95295990D01*
X153346632Y-95133475D01*
X153553475Y-94926632D01*
X153670000Y-94752240D01*
X153786525Y-94926632D01*
X153993368Y-95133475D01*
X154236589Y-95295990D01*
X154506842Y-95407932D01*
X154793740Y-95465000D01*
X155086260Y-95465000D01*
X155373158Y-95407932D01*
X155643411Y-95295990D01*
X155886632Y-95133475D01*
X156093475Y-94926632D01*
X156210000Y-94752240D01*
X156326525Y-94926632D01*
X156533368Y-95133475D01*
X156776589Y-95295990D01*
X157046842Y-95407932D01*
X157333740Y-95465000D01*
X157626260Y-95465000D01*
X157913158Y-95407932D01*
X158183411Y-95295990D01*
X158426632Y-95133475D01*
X158633475Y-94926632D01*
X158795990Y-94683411D01*
X158907932Y-94413158D01*
X158965000Y-94126260D01*
X158965000Y-93833740D01*
X158907932Y-93546842D01*
X158795990Y-93276589D01*
X158633475Y-93033368D01*
X158426632Y-92826525D01*
X158252240Y-92710000D01*
X158426632Y-92593475D01*
X158633475Y-92386632D01*
X158750000Y-92212240D01*
X158866525Y-92386632D01*
X159073368Y-92593475D01*
X159316589Y-92755990D01*
X159586842Y-92867932D01*
X159873740Y-92925000D01*
X160166260Y-92925000D01*
X160453158Y-92867932D01*
X160723411Y-92755990D01*
X160966632Y-92593475D01*
X161173475Y-92386632D01*
X161290000Y-92212240D01*
X161406525Y-92386632D01*
X161613368Y-92593475D01*
X161856589Y-92755990D01*
X162126842Y-92867932D01*
X162413740Y-92925000D01*
X162706260Y-92925000D01*
X162993158Y-92867932D01*
X163263411Y-92755990D01*
X163506632Y-92593475D01*
X163713475Y-92386632D01*
X163875990Y-92143411D01*
X163987932Y-91873158D01*
X164045000Y-91586260D01*
X164045000Y-91293740D01*
X163987932Y-91006842D01*
X163875990Y-90736589D01*
X163713475Y-90493368D01*
X163506632Y-90286525D01*
X163332240Y-90170000D01*
X163506632Y-90053475D01*
X163713475Y-89846632D01*
X163875990Y-89603411D01*
X163987932Y-89333158D01*
X164045000Y-89046260D01*
X164045000Y-88753740D01*
X163987932Y-88466842D01*
X163875990Y-88196589D01*
X163713475Y-87953368D01*
X163506632Y-87746525D01*
X163332240Y-87630000D01*
X163506632Y-87513475D01*
X163713475Y-87306632D01*
X163875990Y-87063411D01*
X163987932Y-86793158D01*
X164045000Y-86506260D01*
X164045000Y-86213740D01*
X163987932Y-85926842D01*
X163875990Y-85656589D01*
X163713475Y-85413368D01*
X163506632Y-85206525D01*
X163332240Y-85090000D01*
X163506632Y-84973475D01*
X163713475Y-84766632D01*
X163875990Y-84523411D01*
X163987932Y-84253158D01*
X164045000Y-83966260D01*
X164045000Y-83673740D01*
X163987932Y-83386842D01*
X163875990Y-83116589D01*
X163713475Y-82873368D01*
X163506632Y-82666525D01*
X163332240Y-82550000D01*
X163506632Y-82433475D01*
X163713475Y-82226632D01*
X163875990Y-81983411D01*
X163987932Y-81713158D01*
X164045000Y-81426260D01*
X164045000Y-81133740D01*
X163987932Y-80846842D01*
X163875990Y-80576589D01*
X163713475Y-80333368D01*
X163506632Y-80126525D01*
X163332240Y-80010000D01*
X163506632Y-79893475D01*
X163713475Y-79686632D01*
X163875990Y-79443411D01*
X163987932Y-79173158D01*
X164045000Y-78886260D01*
X164045000Y-78593740D01*
X163987932Y-78306842D01*
X163875990Y-78036589D01*
X163713475Y-77793368D01*
X163506632Y-77586525D01*
X163332240Y-77470000D01*
X163506632Y-77353475D01*
X163713475Y-77146632D01*
X163875990Y-76903411D01*
X163987932Y-76633158D01*
X164045000Y-76346260D01*
X164045000Y-76053740D01*
X163987932Y-75766842D01*
X163875990Y-75496589D01*
X163713475Y-75253368D01*
X163506632Y-75046525D01*
X163332240Y-74930000D01*
X163506632Y-74813475D01*
X163713475Y-74606632D01*
X163875990Y-74363411D01*
X163987932Y-74093158D01*
X164045000Y-73806260D01*
X164045000Y-73513740D01*
X163987932Y-73226842D01*
X163875990Y-72956589D01*
X163713475Y-72713368D01*
X163506632Y-72506525D01*
X163332240Y-72390000D01*
X163506632Y-72273475D01*
X163713475Y-72066632D01*
X163875990Y-71823411D01*
X163987932Y-71553158D01*
X164045000Y-71266260D01*
X164045000Y-70973740D01*
X163987932Y-70686842D01*
X163875990Y-70416589D01*
X163713475Y-70173368D01*
X163506632Y-69966525D01*
X163332240Y-69850000D01*
X163506632Y-69733475D01*
X163713475Y-69526632D01*
X163875990Y-69283411D01*
X163987932Y-69013158D01*
X164045000Y-68726260D01*
X164045000Y-68433740D01*
X163987932Y-68146842D01*
X163875990Y-67876589D01*
X163713475Y-67633368D01*
X163506632Y-67426525D01*
X163332240Y-67310000D01*
X163506632Y-67193475D01*
X163713475Y-66986632D01*
X163875990Y-66743411D01*
X163987932Y-66473158D01*
X164045000Y-66186260D01*
X164045000Y-65893740D01*
X163987932Y-65606842D01*
X163875990Y-65336589D01*
X163713475Y-65093368D01*
X163506632Y-64886525D01*
X163263411Y-64724010D01*
X162993158Y-64612068D01*
X162706260Y-64555000D01*
X162413740Y-64555000D01*
X162126842Y-64612068D01*
X161856589Y-64724010D01*
X161613368Y-64886525D01*
X161406525Y-65093368D01*
X161290000Y-65267760D01*
X161173475Y-65093368D01*
X160966632Y-64886525D01*
X160723411Y-64724010D01*
X160453158Y-64612068D01*
X160166260Y-64555000D01*
X159873740Y-64555000D01*
X159586842Y-64612068D01*
X159316589Y-64724010D01*
X159073368Y-64886525D01*
X158866525Y-65093368D01*
X158750000Y-65267760D01*
X158633475Y-65093368D01*
X158426632Y-64886525D01*
X158252240Y-64770000D01*
X158426632Y-64653475D01*
X158633475Y-64446632D01*
X158795990Y-64203411D01*
X158907932Y-63933158D01*
X158965000Y-63646260D01*
X158965000Y-63353740D01*
X158907932Y-63066842D01*
X158795990Y-62796589D01*
X158633475Y-62553368D01*
X158426632Y-62346525D01*
X158183411Y-62184010D01*
X157913158Y-62072068D01*
X157626260Y-62015000D01*
X157333740Y-62015000D01*
X157046842Y-62072068D01*
X156776589Y-62184010D01*
X156533368Y-62346525D01*
X156326525Y-62553368D01*
X156210000Y-62727760D01*
X156093475Y-62553368D01*
X155886632Y-62346525D01*
X155712240Y-62230000D01*
X155886632Y-62113475D01*
X156093475Y-61906632D01*
X156190862Y-61760881D01*
X159078724Y-61760881D01*
X159438912Y-62250548D01*
X160102882Y-62610849D01*
X160824385Y-62834694D01*
X161575695Y-62913480D01*
X162327938Y-62844178D01*
X163052208Y-62629452D01*
X163720670Y-62277555D01*
X163761088Y-62250548D01*
X164121276Y-61760881D01*
X161600000Y-59239605D01*
X159078724Y-61760881D01*
X156190862Y-61760881D01*
X156255990Y-61663411D01*
X156367932Y-61393158D01*
X156425000Y-61106260D01*
X156425000Y-60813740D01*
X156367932Y-60526842D01*
X156255990Y-60256589D01*
X156093475Y-60013368D01*
X155886632Y-59806525D01*
X155712240Y-59690000D01*
X155886632Y-59573475D01*
X156093475Y-59366632D01*
X156255990Y-59123411D01*
X156292323Y-59035695D01*
X157746520Y-59035695D01*
X157815822Y-59787938D01*
X158030548Y-60512208D01*
X158382445Y-61180670D01*
X158409452Y-61221088D01*
X158899119Y-61581276D01*
X161420395Y-59060000D01*
X161779605Y-59060000D01*
X164300881Y-61581276D01*
X164790548Y-61221088D01*
X165150849Y-60557118D01*
X165374694Y-59835615D01*
X165453480Y-59084305D01*
X165384178Y-58332062D01*
X165169452Y-57607792D01*
X164817555Y-56939330D01*
X164790548Y-56898912D01*
X164300881Y-56538724D01*
X161779605Y-59060000D01*
X161420395Y-59060000D01*
X158899119Y-56538724D01*
X158409452Y-56898912D01*
X158049151Y-57562882D01*
X157825306Y-58284385D01*
X157746520Y-59035695D01*
X156292323Y-59035695D01*
X156367932Y-58853158D01*
X156425000Y-58566260D01*
X156425000Y-58273740D01*
X156367932Y-57986842D01*
X156255990Y-57716589D01*
X156093475Y-57473368D01*
X155886632Y-57266525D01*
X155643411Y-57104010D01*
X155373158Y-56992068D01*
X155086260Y-56935000D01*
X154793740Y-56935000D01*
X154506842Y-56992068D01*
X154236589Y-57104010D01*
X153993368Y-57266525D01*
X153786525Y-57473368D01*
X153670000Y-57647760D01*
X153553475Y-57473368D01*
X153346632Y-57266525D01*
X153103411Y-57104010D01*
X152833158Y-56992068D01*
X152546260Y-56935000D01*
X152253740Y-56935000D01*
X151966842Y-56992068D01*
X151696589Y-57104010D01*
X151453368Y-57266525D01*
X151246525Y-57473368D01*
X151130000Y-57647760D01*
X151013475Y-57473368D01*
X150806632Y-57266525D01*
X150563411Y-57104010D01*
X150293158Y-56992068D01*
X150006260Y-56935000D01*
X149713740Y-56935000D01*
X149426842Y-56992068D01*
X149156589Y-57104010D01*
X148913368Y-57266525D01*
X148706525Y-57473368D01*
X148590000Y-57647760D01*
X148473475Y-57473368D01*
X148266632Y-57266525D01*
X148023411Y-57104010D01*
X147753158Y-56992068D01*
X147466260Y-56935000D01*
X147173740Y-56935000D01*
X146886842Y-56992068D01*
X146616589Y-57104010D01*
X146373368Y-57266525D01*
X146166525Y-57473368D01*
X146050000Y-57647760D01*
X145933475Y-57473368D01*
X145726632Y-57266525D01*
X145483411Y-57104010D01*
X145213158Y-56992068D01*
X144926260Y-56935000D01*
X144633740Y-56935000D01*
X144346842Y-56992068D01*
X144076589Y-57104010D01*
X143833368Y-57266525D01*
X143626525Y-57473368D01*
X143510000Y-57647760D01*
X143393475Y-57473368D01*
X143186632Y-57266525D01*
X142943411Y-57104010D01*
X142673158Y-56992068D01*
X142386260Y-56935000D01*
X142093740Y-56935000D01*
X141806842Y-56992068D01*
X141536589Y-57104010D01*
X141293368Y-57266525D01*
X141086525Y-57473368D01*
X140970000Y-57647760D01*
X140853475Y-57473368D01*
X140646632Y-57266525D01*
X140403411Y-57104010D01*
X140133158Y-56992068D01*
X139846260Y-56935000D01*
X139553740Y-56935000D01*
X139266842Y-56992068D01*
X138996589Y-57104010D01*
X138753368Y-57266525D01*
X138546525Y-57473368D01*
X138430000Y-57647760D01*
X138313475Y-57473368D01*
X138106632Y-57266525D01*
X137863411Y-57104010D01*
X137593158Y-56992068D01*
X137306260Y-56935000D01*
X137013740Y-56935000D01*
X136726842Y-56992068D01*
X136456589Y-57104010D01*
X136213368Y-57266525D01*
X136006525Y-57473368D01*
X135890000Y-57647760D01*
X135773475Y-57473368D01*
X135566632Y-57266525D01*
X135323411Y-57104010D01*
X135053158Y-56992068D01*
X134766260Y-56935000D01*
X134473740Y-56935000D01*
X134186842Y-56992068D01*
X133916589Y-57104010D01*
X133673368Y-57266525D01*
X133466525Y-57473368D01*
X133304010Y-57716589D01*
X133192068Y-57986842D01*
X133135000Y-58273740D01*
X133135000Y-58566260D01*
X133192068Y-58853158D01*
X133304010Y-59123411D01*
X133466525Y-59366632D01*
X133673368Y-59573475D01*
X133847760Y-59690000D01*
X133673368Y-59806525D01*
X133466525Y-60013368D01*
X133304010Y-60256589D01*
X133192068Y-60526842D01*
X133135000Y-60813740D01*
X133135000Y-61106260D01*
X133192068Y-61393158D01*
X133304010Y-61663411D01*
X133466525Y-61906632D01*
X133673368Y-62113475D01*
X133847760Y-62230000D01*
X133673368Y-62346525D01*
X133466525Y-62553368D01*
X133440202Y-62592764D01*
X133349987Y-62457748D01*
X133122252Y-62230013D01*
X132854463Y-62051082D01*
X132556912Y-61927832D01*
X132241033Y-61865000D01*
X131918967Y-61865000D01*
X131603088Y-61927832D01*
X131305537Y-62051082D01*
X131037748Y-62230013D01*
X130810013Y-62457748D01*
X130631082Y-62725537D01*
X130507832Y-63023088D01*
X130445000Y-63338967D01*
X130445000Y-63661033D01*
X130481896Y-63846525D01*
X123501604Y-70826818D01*
X123524488Y-70751377D01*
X123541072Y-70583000D01*
X123541072Y-70133000D01*
X123524488Y-69964623D01*
X123475375Y-69802717D01*
X123397300Y-69656649D01*
X123433537Y-69612494D01*
X123492502Y-69502180D01*
X123528812Y-69382482D01*
X123541072Y-69258000D01*
X123538000Y-69093750D01*
X123379250Y-68935000D01*
X122555000Y-68935000D01*
X122555000Y-68955000D01*
X122301000Y-68955000D01*
X122301000Y-68935000D01*
X121476750Y-68935000D01*
X121318000Y-69093750D01*
X121314928Y-69258000D01*
X121327188Y-69382482D01*
X121354646Y-69473000D01*
X121106118Y-69473000D01*
X121059205Y-69359744D01*
X120945937Y-69190226D01*
X120801774Y-69046063D01*
X120632256Y-68932795D01*
X120443898Y-68854774D01*
X120243939Y-68815000D01*
X120040061Y-68815000D01*
X119840102Y-68854774D01*
X119651744Y-68932795D01*
X119603546Y-68965000D01*
X118648454Y-68965000D01*
X118600256Y-68932795D01*
X118411898Y-68854774D01*
X118211939Y-68815000D01*
X118008061Y-68815000D01*
X117808102Y-68854774D01*
X117619744Y-68932795D01*
X117450226Y-69046063D01*
X117306063Y-69190226D01*
X117192795Y-69359744D01*
X117114774Y-69548102D01*
X117075000Y-69748061D01*
X117075000Y-69951939D01*
X117114774Y-70151898D01*
X117192795Y-70340256D01*
X117262095Y-70443971D01*
X117143745Y-70408071D01*
X116990000Y-70392928D01*
X116690000Y-70392928D01*
X116536255Y-70408071D01*
X116388418Y-70452916D01*
X116252171Y-70525742D01*
X116132749Y-70623749D01*
X116081510Y-70686183D01*
X116057226Y-70564096D01*
X115979205Y-70375738D01*
X115865937Y-70206220D01*
X115721774Y-70062057D01*
X115552256Y-69948789D01*
X115363898Y-69870768D01*
X115163939Y-69830994D01*
X114960061Y-69830994D01*
X114760102Y-69870768D01*
X114571744Y-69948789D01*
X114402226Y-70062057D01*
X114258063Y-70206220D01*
X114144795Y-70375738D01*
X114066774Y-70564096D01*
X114027000Y-70764055D01*
X114027000Y-70929294D01*
X113962258Y-70808171D01*
X113864251Y-70688749D01*
X113744829Y-70590742D01*
X113608582Y-70517916D01*
X113460745Y-70473071D01*
X113307000Y-70457928D01*
X113007000Y-70457928D01*
X112853255Y-70473071D01*
X112705418Y-70517916D01*
X112569171Y-70590742D01*
X112522000Y-70629454D01*
X112474829Y-70590742D01*
X112338582Y-70517916D01*
X112190745Y-70473071D01*
X112037000Y-70457928D01*
X111737000Y-70457928D01*
X111583255Y-70473071D01*
X111518479Y-70492720D01*
X111525000Y-70459939D01*
X111525000Y-70256061D01*
X111485226Y-70056102D01*
X111407205Y-69867744D01*
X111391035Y-69843543D01*
X111729434Y-69505145D01*
X111862226Y-69637937D01*
X112031744Y-69751205D01*
X112220102Y-69829226D01*
X112420061Y-69869000D01*
X112623939Y-69869000D01*
X112823898Y-69829226D01*
X113012256Y-69751205D01*
X113181774Y-69637937D01*
X113325937Y-69493774D01*
X113439205Y-69324256D01*
X113517226Y-69135898D01*
X113528535Y-69079044D01*
X113752049Y-68855530D01*
X113785817Y-68827817D01*
X113846816Y-68753491D01*
X113896411Y-68693059D01*
X113978589Y-68539314D01*
X114029195Y-68372490D01*
X114034480Y-68318829D01*
X114042000Y-68242477D01*
X114042000Y-68242469D01*
X114044579Y-68216280D01*
X114079929Y-68099745D01*
X114086699Y-68031000D01*
X115901928Y-68031000D01*
X115914188Y-68155482D01*
X115950498Y-68275180D01*
X116009463Y-68385494D01*
X116088815Y-68482185D01*
X116185506Y-68561537D01*
X116295820Y-68620502D01*
X116415518Y-68656812D01*
X116540000Y-68669072D01*
X116554250Y-68666000D01*
X116713000Y-68507250D01*
X116713000Y-67183000D01*
X116063750Y-67183000D01*
X115905000Y-67341750D01*
X115901928Y-68031000D01*
X114086699Y-68031000D01*
X114095072Y-67946000D01*
X114095072Y-66296000D01*
X114079929Y-66142255D01*
X114035084Y-65994418D01*
X113962258Y-65858171D01*
X113864251Y-65738749D01*
X113744829Y-65640742D01*
X113608582Y-65567916D01*
X113460745Y-65523071D01*
X113307000Y-65507928D01*
X113007000Y-65507928D01*
X112853255Y-65523071D01*
X112705418Y-65567916D01*
X112569171Y-65640742D01*
X112522000Y-65679454D01*
X112474829Y-65640742D01*
X112338582Y-65567916D01*
X112190745Y-65523071D01*
X112037000Y-65507928D01*
X111737000Y-65507928D01*
X111583255Y-65523071D01*
X111435418Y-65567916D01*
X111299171Y-65640742D01*
X111252000Y-65679454D01*
X111204829Y-65640742D01*
X111068582Y-65567916D01*
X110920745Y-65523071D01*
X110767000Y-65507928D01*
X110467000Y-65507928D01*
X110313255Y-65523071D01*
X110165418Y-65567916D01*
X110031064Y-65639730D01*
X110001494Y-65615463D01*
X109891180Y-65556498D01*
X109771482Y-65520188D01*
X109647000Y-65507928D01*
X109632750Y-65511000D01*
X109474000Y-65669750D01*
X109474000Y-66994000D01*
X109494000Y-66994000D01*
X109494000Y-67248000D01*
X109474000Y-67248000D01*
X109474000Y-67268000D01*
X109220000Y-67268000D01*
X109220000Y-67248000D01*
X109200000Y-67248000D01*
X109200000Y-66994000D01*
X109220000Y-66994000D01*
X109220000Y-65669750D01*
X109061250Y-65511000D01*
X109047000Y-65507928D01*
X108922518Y-65520188D01*
X108802820Y-65556498D01*
X108692506Y-65615463D01*
X108673982Y-65630665D01*
X108638618Y-65564503D01*
X108531284Y-65433716D01*
X108400497Y-65326382D01*
X108251283Y-65246625D01*
X108089377Y-65197512D01*
X107986311Y-65187361D01*
X108036494Y-65160537D01*
X108133185Y-65081185D01*
X108187501Y-65015000D01*
X111776499Y-65015000D01*
X111830815Y-65081185D01*
X111927506Y-65160537D01*
X112037820Y-65219502D01*
X112157518Y-65255812D01*
X112282000Y-65268072D01*
X113982000Y-65268072D01*
X114106482Y-65255812D01*
X114226180Y-65219502D01*
X114310555Y-65174402D01*
X114317744Y-65179205D01*
X114506102Y-65257226D01*
X114706061Y-65297000D01*
X114909939Y-65297000D01*
X115109898Y-65257226D01*
X115298256Y-65179205D01*
X115467774Y-65065937D01*
X115611937Y-64921774D01*
X115725205Y-64752256D01*
X115803226Y-64563898D01*
X115843000Y-64363939D01*
X115843000Y-64243238D01*
X115918309Y-64305042D01*
X115955000Y-64329558D01*
X115955000Y-64726530D01*
X115950719Y-64770000D01*
X115955000Y-64813469D01*
X115955000Y-64813476D01*
X115965347Y-64918532D01*
X115967805Y-64943490D01*
X115969452Y-64948918D01*
X116018411Y-65110312D01*
X116100589Y-65264058D01*
X116211183Y-65398817D01*
X116244956Y-65426534D01*
X116306638Y-65488216D01*
X116295820Y-65491498D01*
X116185506Y-65550463D01*
X116088815Y-65629815D01*
X116009463Y-65726506D01*
X115950498Y-65836820D01*
X115914188Y-65956518D01*
X115901928Y-66081000D01*
X115905000Y-66770250D01*
X116063750Y-66929000D01*
X116713000Y-66929000D01*
X116713000Y-66909000D01*
X116967000Y-66909000D01*
X116967000Y-66929000D01*
X116987000Y-66929000D01*
X116987000Y-67183000D01*
X116967000Y-67183000D01*
X116967000Y-68507250D01*
X117125750Y-68666000D01*
X117140000Y-68669072D01*
X117264482Y-68656812D01*
X117384180Y-68620502D01*
X117494494Y-68561537D01*
X117524064Y-68537270D01*
X117658418Y-68609084D01*
X117806255Y-68653929D01*
X117960000Y-68669072D01*
X118260000Y-68669072D01*
X118413745Y-68653929D01*
X118561582Y-68609084D01*
X118697829Y-68536258D01*
X118745000Y-68497546D01*
X118792171Y-68536258D01*
X118928418Y-68609084D01*
X119076255Y-68653929D01*
X119230000Y-68669072D01*
X119530000Y-68669072D01*
X119683745Y-68653929D01*
X119831582Y-68609084D01*
X119967829Y-68536258D01*
X120015000Y-68497546D01*
X120062171Y-68536258D01*
X120198418Y-68609084D01*
X120346255Y-68653929D01*
X120500000Y-68669072D01*
X120800000Y-68669072D01*
X120953745Y-68653929D01*
X121101582Y-68609084D01*
X121237829Y-68536258D01*
X121317046Y-68471246D01*
X121318000Y-68522250D01*
X121476750Y-68681000D01*
X122301000Y-68681000D01*
X122301000Y-67881750D01*
X122555000Y-67881750D01*
X122555000Y-68681000D01*
X123379250Y-68681000D01*
X123538000Y-68522250D01*
X123541072Y-68358000D01*
X123528812Y-68233518D01*
X123492502Y-68113820D01*
X123433537Y-68003506D01*
X123354185Y-67906815D01*
X123257494Y-67827463D01*
X123147180Y-67768498D01*
X123027482Y-67732188D01*
X122903000Y-67719928D01*
X122713750Y-67723000D01*
X122555000Y-67881750D01*
X122301000Y-67881750D01*
X122142250Y-67723000D01*
X121953000Y-67719928D01*
X121828518Y-67732188D01*
X121708820Y-67768498D01*
X121598506Y-67827463D01*
X121588072Y-67836026D01*
X121588072Y-66353506D01*
X122515050Y-65426529D01*
X122548817Y-65398817D01*
X122576533Y-65365046D01*
X122639383Y-65288463D01*
X122659411Y-65264059D01*
X122741589Y-65110313D01*
X122792195Y-64943490D01*
X122805000Y-64813477D01*
X122805000Y-64813467D01*
X122809281Y-64770001D01*
X122805000Y-64726535D01*
X122805000Y-64329558D01*
X122841691Y-64305042D01*
X122938382Y-64225690D01*
X123007690Y-64156382D01*
X123087042Y-64059691D01*
X123141498Y-63978192D01*
X123200464Y-63867875D01*
X123237973Y-63777319D01*
X123274282Y-63657623D01*
X123293404Y-63561490D01*
X123305664Y-63437009D01*
X123305664Y-63412450D01*
X123308072Y-63388000D01*
X123308072Y-62888000D01*
X123295812Y-62763518D01*
X123259502Y-62643820D01*
X123200537Y-62533506D01*
X123121185Y-62436815D01*
X123024494Y-62357463D01*
X122914180Y-62298498D01*
X122814060Y-62268127D01*
X122808762Y-62250125D01*
X122807731Y-62248153D01*
X122807087Y-62246020D01*
X122779012Y-62193219D01*
X122751345Y-62140297D01*
X122749951Y-62138563D01*
X122748905Y-62136596D01*
X122711117Y-62090263D01*
X122673690Y-62043714D01*
X122671985Y-62042283D01*
X122670577Y-62040557D01*
X122624527Y-62002461D01*
X122578754Y-61964053D01*
X122576802Y-61962980D01*
X122575087Y-61961561D01*
X122522539Y-61933149D01*
X122470153Y-61904349D01*
X122468029Y-61903675D01*
X122466072Y-61902617D01*
X122409050Y-61884966D01*
X122352024Y-61866876D01*
X122349808Y-61866627D01*
X122347684Y-61865970D01*
X122288257Y-61859724D01*
X122228866Y-61853062D01*
X122224596Y-61853032D01*
X122224433Y-61853015D01*
X122224270Y-61853030D01*
X122220000Y-61853000D01*
X121620000Y-61853000D01*
X121560495Y-61858834D01*
X121501013Y-61864248D01*
X121498882Y-61864875D01*
X121496661Y-61865093D01*
X121439379Y-61882388D01*
X121382125Y-61899238D01*
X121380153Y-61900269D01*
X121378020Y-61900913D01*
X121325219Y-61928988D01*
X121272297Y-61956655D01*
X121270563Y-61958049D01*
X121268596Y-61959095D01*
X121222263Y-61996883D01*
X121175714Y-62034310D01*
X121174283Y-62036015D01*
X121172557Y-62037423D01*
X121134461Y-62083473D01*
X121096053Y-62129246D01*
X121094980Y-62131198D01*
X121093561Y-62132913D01*
X121065149Y-62185461D01*
X121036349Y-62237847D01*
X121035675Y-62239971D01*
X121034617Y-62241928D01*
X121026566Y-62267937D01*
X120925820Y-62298498D01*
X120815506Y-62357463D01*
X120768072Y-62396391D01*
X120768072Y-62088000D01*
X120765664Y-62063550D01*
X120765664Y-62038991D01*
X120753404Y-61914510D01*
X120734282Y-61818377D01*
X120697973Y-61698681D01*
X120660464Y-61608125D01*
X120601498Y-61497808D01*
X120547042Y-61416309D01*
X120493956Y-61351623D01*
X120641044Y-61204535D01*
X120697898Y-61193226D01*
X120886256Y-61115205D01*
X121055774Y-61001937D01*
X121199937Y-60857774D01*
X121313205Y-60688256D01*
X121391226Y-60499898D01*
X121431000Y-60299939D01*
X121431000Y-60096061D01*
X121391226Y-59896102D01*
X121313205Y-59707744D01*
X121199937Y-59538226D01*
X121055774Y-59394063D01*
X120886256Y-59280795D01*
X120697898Y-59202774D01*
X120497939Y-59163000D01*
X120294061Y-59163000D01*
X120094102Y-59202774D01*
X119905744Y-59280795D01*
X119736226Y-59394063D01*
X119592063Y-59538226D01*
X119478795Y-59707744D01*
X119400774Y-59896102D01*
X119389465Y-59952956D01*
X118784951Y-60557471D01*
X118751184Y-60585183D01*
X118723471Y-60618951D01*
X118723468Y-60618954D01*
X118640590Y-60719941D01*
X118558412Y-60873687D01*
X118507805Y-61040510D01*
X118501330Y-61106260D01*
X118497539Y-61144745D01*
X118458309Y-61170958D01*
X118361618Y-61250310D01*
X118292310Y-61319618D01*
X118212958Y-61416309D01*
X118158502Y-61497808D01*
X118099536Y-61608125D01*
X118062027Y-61698681D01*
X118025718Y-61818377D01*
X118006596Y-61914510D01*
X117994336Y-62038991D01*
X117994336Y-62063550D01*
X117991928Y-62088000D01*
X117991928Y-62396391D01*
X117944494Y-62357463D01*
X117834180Y-62298498D01*
X117734060Y-62268127D01*
X117728762Y-62250125D01*
X117727731Y-62248153D01*
X117727087Y-62246020D01*
X117699012Y-62193219D01*
X117671345Y-62140297D01*
X117669951Y-62138563D01*
X117668905Y-62136596D01*
X117631117Y-62090263D01*
X117593690Y-62043714D01*
X117591985Y-62042283D01*
X117590577Y-62040557D01*
X117544527Y-62002461D01*
X117498754Y-61964053D01*
X117496802Y-61962980D01*
X117495087Y-61961561D01*
X117442539Y-61933149D01*
X117390153Y-61904349D01*
X117388029Y-61903675D01*
X117386072Y-61902617D01*
X117329050Y-61884966D01*
X117272024Y-61866876D01*
X117269808Y-61866627D01*
X117267684Y-61865970D01*
X117208257Y-61859724D01*
X117148866Y-61853062D01*
X117144596Y-61853032D01*
X117144433Y-61853015D01*
X117144270Y-61853030D01*
X117140000Y-61853000D01*
X116540000Y-61853000D01*
X116480495Y-61858834D01*
X116421013Y-61864248D01*
X116418882Y-61864875D01*
X116416661Y-61865093D01*
X116359379Y-61882388D01*
X116302125Y-61899238D01*
X116300153Y-61900269D01*
X116298020Y-61900913D01*
X116245219Y-61928988D01*
X116192297Y-61956655D01*
X116190563Y-61958049D01*
X116188596Y-61959095D01*
X116142263Y-61996883D01*
X116095714Y-62034310D01*
X116094283Y-62036015D01*
X116092557Y-62037423D01*
X116054461Y-62083473D01*
X116016053Y-62129246D01*
X116014980Y-62131198D01*
X116013561Y-62132913D01*
X115985149Y-62185461D01*
X115956349Y-62237847D01*
X115955675Y-62239971D01*
X115954617Y-62241928D01*
X115946566Y-62267937D01*
X115845820Y-62298498D01*
X115735506Y-62357463D01*
X115638815Y-62436815D01*
X115559463Y-62533506D01*
X115500498Y-62643820D01*
X115464188Y-62763518D01*
X115451928Y-62888000D01*
X115451928Y-63388000D01*
X115454336Y-63412450D01*
X115454336Y-63437009D01*
X115455609Y-63449935D01*
X115298256Y-63344795D01*
X115109898Y-63266774D01*
X114909939Y-63227000D01*
X114706061Y-63227000D01*
X114506102Y-63266774D01*
X114505556Y-63267000D01*
X114433185Y-63178815D01*
X114336494Y-63099463D01*
X114226180Y-63040498D01*
X114106482Y-63004188D01*
X113982000Y-62991928D01*
X112282000Y-62991928D01*
X112157518Y-63004188D01*
X112037820Y-63040498D01*
X111927506Y-63099463D01*
X111830815Y-63178815D01*
X111776499Y-63245000D01*
X108187501Y-63245000D01*
X108133185Y-63178815D01*
X108036494Y-63099463D01*
X107926180Y-63040498D01*
X107806482Y-63004188D01*
X107682000Y-62991928D01*
X105982000Y-62991928D01*
X105857518Y-63004188D01*
X105737820Y-63040498D01*
X105627506Y-63099463D01*
X105530815Y-63178815D01*
X105451463Y-63275506D01*
X105423191Y-63328399D01*
X105376608Y-63290169D01*
X105231716Y-63212722D01*
X105074500Y-63165031D01*
X104911000Y-63148928D01*
X104511000Y-63148928D01*
X104347500Y-63165031D01*
X104190284Y-63212722D01*
X104045392Y-63290169D01*
X103943410Y-63373863D01*
X103912185Y-63335815D01*
X103815494Y-63256463D01*
X103705180Y-63197498D01*
X103585482Y-63161188D01*
X103461000Y-63148928D01*
X103346750Y-63152000D01*
X103188000Y-63310750D01*
X103188000Y-64135000D01*
X103208000Y-64135000D01*
X103208000Y-64389000D01*
X103188000Y-64389000D01*
X103188000Y-64409000D01*
X102934000Y-64409000D01*
X102934000Y-64389000D01*
X102184750Y-64389000D01*
X102026000Y-64547750D01*
X102022928Y-64737000D01*
X102035188Y-64861482D01*
X102071498Y-64981180D01*
X102130463Y-65091494D01*
X102209815Y-65188185D01*
X102242157Y-65214727D01*
X102210226Y-65236063D01*
X102066063Y-65380226D01*
X101952795Y-65549744D01*
X101874774Y-65738102D01*
X101863465Y-65794957D01*
X101575951Y-66082471D01*
X101542184Y-66110183D01*
X101514471Y-66143951D01*
X101514468Y-66143954D01*
X101431590Y-66244941D01*
X101349412Y-66398687D01*
X101298805Y-66565510D01*
X101281719Y-66739000D01*
X101286001Y-66782479D01*
X101286000Y-70991738D01*
X101186608Y-70910169D01*
X101041716Y-70832722D01*
X100884500Y-70785031D01*
X100721000Y-70768928D01*
X100321000Y-70768928D01*
X100157500Y-70785031D01*
X100000284Y-70832722D01*
X99855392Y-70910169D01*
X99728394Y-71014394D01*
X99624169Y-71141392D01*
X99546722Y-71286284D01*
X99499031Y-71443500D01*
X99482928Y-71607000D01*
X99482928Y-72157000D01*
X99499031Y-72320500D01*
X99546722Y-72477716D01*
X99624169Y-72622608D01*
X99636000Y-72637024D01*
X99636001Y-73610112D01*
X99626589Y-73614010D01*
X99383368Y-73776525D01*
X99176525Y-73983368D01*
X99014010Y-74226589D01*
X98902068Y-74496842D01*
X98845000Y-74783740D01*
X97260000Y-74783740D01*
X97260000Y-63787000D01*
X102022928Y-63787000D01*
X102026000Y-63976250D01*
X102184750Y-64135000D01*
X102934000Y-64135000D01*
X102934000Y-63310750D01*
X102775250Y-63152000D01*
X102661000Y-63148928D01*
X102536518Y-63161188D01*
X102416820Y-63197498D01*
X102306506Y-63256463D01*
X102209815Y-63335815D01*
X102130463Y-63432506D01*
X102071498Y-63542820D01*
X102035188Y-63662518D01*
X102022928Y-63787000D01*
X97260000Y-63787000D01*
X97260000Y-61760881D01*
X99078724Y-61760881D01*
X99438912Y-62250548D01*
X100102882Y-62610849D01*
X100824385Y-62834694D01*
X101575695Y-62913480D01*
X102327938Y-62844178D01*
X103052208Y-62629452D01*
X103720670Y-62277555D01*
X103761088Y-62250548D01*
X104121276Y-61760881D01*
X101600000Y-59239605D01*
X99078724Y-61760881D01*
X97260000Y-61760881D01*
X97260000Y-59089392D01*
X97264792Y-59035695D01*
X97746520Y-59035695D01*
X97815822Y-59787938D01*
X98030548Y-60512208D01*
X98382445Y-61180670D01*
X98409452Y-61221088D01*
X98899119Y-61581276D01*
X101420395Y-59060000D01*
X101779605Y-59060000D01*
X104300881Y-61581276D01*
X104790548Y-61221088D01*
X105150849Y-60557118D01*
X105343928Y-59934781D01*
X105343928Y-60830000D01*
X105356188Y-60954482D01*
X105392498Y-61074180D01*
X105451463Y-61184494D01*
X105530815Y-61281185D01*
X105627506Y-61360537D01*
X105737820Y-61419502D01*
X105857518Y-61455812D01*
X105982000Y-61468072D01*
X107682000Y-61468072D01*
X107806482Y-61455812D01*
X107926180Y-61419502D01*
X108036494Y-61360537D01*
X108133185Y-61281185D01*
X108187501Y-61215000D01*
X109565658Y-61215000D01*
X109613789Y-61247160D01*
X109802147Y-61325181D01*
X110002106Y-61364955D01*
X110205984Y-61364955D01*
X110405943Y-61325181D01*
X110594301Y-61247160D01*
X110642432Y-61215000D01*
X111776499Y-61215000D01*
X111830815Y-61281185D01*
X111927506Y-61360537D01*
X112037820Y-61419502D01*
X112157518Y-61455812D01*
X112282000Y-61468072D01*
X113982000Y-61468072D01*
X114106482Y-61455812D01*
X114226180Y-61419502D01*
X114336494Y-61360537D01*
X114433185Y-61281185D01*
X114512537Y-61184494D01*
X114571502Y-61074180D01*
X114607812Y-60954482D01*
X114620072Y-60830000D01*
X114620072Y-59830000D01*
X114607812Y-59705518D01*
X114571502Y-59585820D01*
X114512537Y-59475506D01*
X114433185Y-59378815D01*
X114336494Y-59299463D01*
X114226180Y-59240498D01*
X114106482Y-59204188D01*
X113982000Y-59191928D01*
X112282000Y-59191928D01*
X112157518Y-59204188D01*
X112037820Y-59240498D01*
X111927506Y-59299463D01*
X111830815Y-59378815D01*
X111776499Y-59445000D01*
X110642567Y-59445000D01*
X110594301Y-59412750D01*
X110405943Y-59334729D01*
X110205984Y-59294955D01*
X110002106Y-59294955D01*
X109802147Y-59334729D01*
X109613789Y-59412750D01*
X109565523Y-59445000D01*
X108187501Y-59445000D01*
X108133185Y-59378815D01*
X108036494Y-59299463D01*
X107926180Y-59240498D01*
X107806482Y-59204188D01*
X107682000Y-59191928D01*
X105982000Y-59191928D01*
X105857518Y-59204188D01*
X105737820Y-59240498D01*
X105627506Y-59299463D01*
X105530815Y-59378815D01*
X105451463Y-59475506D01*
X105402937Y-59566291D01*
X105453480Y-59084305D01*
X105384178Y-58332062D01*
X105169452Y-57607792D01*
X104817555Y-56939330D01*
X104790548Y-56898912D01*
X104300881Y-56538724D01*
X101779605Y-59060000D01*
X101420395Y-59060000D01*
X98899119Y-56538724D01*
X98409452Y-56898912D01*
X98049151Y-57562882D01*
X97825306Y-58284385D01*
X97746520Y-59035695D01*
X97264792Y-59035695D01*
X97331173Y-58291917D01*
X97534656Y-57548109D01*
X97866638Y-56852095D01*
X98220876Y-56359119D01*
X99078724Y-56359119D01*
X101600000Y-58880395D01*
X104121276Y-56359119D01*
X159078724Y-56359119D01*
X161600000Y-58880395D01*
X164121276Y-56359119D01*
X163761088Y-55869452D01*
X163097118Y-55509151D01*
X162375615Y-55285306D01*
X161624305Y-55206520D01*
X160872062Y-55275822D01*
X160147792Y-55490548D01*
X159479330Y-55842445D01*
X159438912Y-55869452D01*
X159078724Y-56359119D01*
X104121276Y-56359119D01*
X103761088Y-55869452D01*
X103097118Y-55509151D01*
X102375615Y-55285306D01*
X101624305Y-55206520D01*
X100872062Y-55275822D01*
X100147792Y-55490548D01*
X99479330Y-55842445D01*
X99438912Y-55869452D01*
X99078724Y-56359119D01*
X98220876Y-56359119D01*
X98316626Y-56225870D01*
X98870403Y-55689223D01*
X99510451Y-55259129D01*
X100216553Y-54949171D01*
X100971457Y-54767935D01*
X101624207Y-54720000D01*
X161570608Y-54720000D01*
X162368083Y-54791173D01*
%TA.AperFunction,Conductor*%
D27*
G36*
X162368083Y-54791173D02*
G01*
X163111891Y-54994656D01*
X163807905Y-55326638D01*
X164434130Y-55776626D01*
X164970777Y-56330403D01*
X165400871Y-56970451D01*
X165710829Y-57676553D01*
X165892065Y-58431457D01*
X165940001Y-59084220D01*
X165940000Y-99030608D01*
X165868827Y-99828083D01*
X165665344Y-100571890D01*
X165333363Y-101267904D01*
X164883374Y-101894130D01*
X164329597Y-102430777D01*
X163689549Y-102860871D01*
X162983447Y-103170829D01*
X162228543Y-103352065D01*
X161575793Y-103400000D01*
X101629392Y-103400000D01*
X100831917Y-103328827D01*
X100088110Y-103125344D01*
X99392096Y-102793363D01*
X98765870Y-102343374D01*
X98229223Y-101789597D01*
X98209927Y-101760881D01*
X99078724Y-101760881D01*
X99438912Y-102250548D01*
X100102882Y-102610849D01*
X100824385Y-102834694D01*
X101575695Y-102913480D01*
X102327938Y-102844178D01*
X103052208Y-102629452D01*
X103720670Y-102277555D01*
X103761088Y-102250548D01*
X104121276Y-101760881D01*
X159078724Y-101760881D01*
X159438912Y-102250548D01*
X160102882Y-102610849D01*
X160824385Y-102834694D01*
X161575695Y-102913480D01*
X162327938Y-102844178D01*
X163052208Y-102629452D01*
X163720670Y-102277555D01*
X163761088Y-102250548D01*
X164121276Y-101760881D01*
X161600000Y-99239605D01*
X159078724Y-101760881D01*
X104121276Y-101760881D01*
X101600000Y-99239605D01*
X99078724Y-101760881D01*
X98209927Y-101760881D01*
X97799129Y-101149549D01*
X97489171Y-100443447D01*
X97307935Y-99688543D01*
X97260000Y-99035793D01*
X97260000Y-99035695D01*
X97746520Y-99035695D01*
X97815822Y-99787938D01*
X98030548Y-100512208D01*
X98382445Y-101180670D01*
X98409452Y-101221088D01*
X98899119Y-101581276D01*
X101420395Y-99060000D01*
X101779605Y-99060000D01*
X104300881Y-101581276D01*
X104790548Y-101221088D01*
X105150849Y-100557118D01*
X105374694Y-99835615D01*
X105453480Y-99084305D01*
X105449002Y-99035695D01*
X157746520Y-99035695D01*
X157815822Y-99787938D01*
X158030548Y-100512208D01*
X158382445Y-101180670D01*
X158409452Y-101221088D01*
X158899119Y-101581276D01*
X161420395Y-99060000D01*
X161779605Y-99060000D01*
X164300881Y-101581276D01*
X164790548Y-101221088D01*
X165150849Y-100557118D01*
X165374694Y-99835615D01*
X165453480Y-99084305D01*
X165384178Y-98332062D01*
X165169452Y-97607792D01*
X164817555Y-96939330D01*
X164790548Y-96898912D01*
X164300881Y-96538724D01*
X161779605Y-99060000D01*
X161420395Y-99060000D01*
X158899119Y-96538724D01*
X158409452Y-96898912D01*
X158049151Y-97562882D01*
X157825306Y-98284385D01*
X157746520Y-99035695D01*
X105449002Y-99035695D01*
X105384178Y-98332062D01*
X105169452Y-97607792D01*
X104817555Y-96939330D01*
X104790548Y-96898912D01*
X104300881Y-96538724D01*
X101779605Y-99060000D01*
X101420395Y-99060000D01*
X98899119Y-96538724D01*
X98409452Y-96898912D01*
X98049151Y-97562882D01*
X97825306Y-98284385D01*
X97746520Y-99035695D01*
X97260000Y-99035695D01*
X97260000Y-96359119D01*
X99078724Y-96359119D01*
X101600000Y-98880395D01*
X104121276Y-96359119D01*
X159078724Y-96359119D01*
X161600000Y-98880395D01*
X164121276Y-96359119D01*
X163761088Y-95869452D01*
X163097118Y-95509151D01*
X162375615Y-95285306D01*
X161624305Y-95206520D01*
X160872062Y-95275822D01*
X160147792Y-95490548D01*
X159479330Y-95842445D01*
X159438912Y-95869452D01*
X159078724Y-96359119D01*
X104121276Y-96359119D01*
X103761088Y-95869452D01*
X103097118Y-95509151D01*
X102375615Y-95285306D01*
X101624305Y-95206520D01*
X100872062Y-95275822D01*
X100147792Y-95490548D01*
X99479330Y-95842445D01*
X99438912Y-95869452D01*
X99078724Y-96359119D01*
X97260000Y-96359119D01*
X97260000Y-91440000D01*
X105037815Y-91440000D01*
X105066487Y-91731111D01*
X105151401Y-92011034D01*
X105289294Y-92269014D01*
X105474866Y-92495134D01*
X105700986Y-92680706D01*
X105958966Y-92818599D01*
X106238889Y-92903513D01*
X106457050Y-92925000D01*
X106902950Y-92925000D01*
X107121111Y-92903513D01*
X107401034Y-92818599D01*
X107659014Y-92680706D01*
X107885134Y-92495134D01*
X108024759Y-92325000D01*
X108773625Y-92325000D01*
X108847595Y-92463387D01*
X108958038Y-92597962D01*
X109092613Y-92708405D01*
X109246149Y-92790472D01*
X109412745Y-92841008D01*
X109585999Y-92858072D01*
X110886001Y-92858072D01*
X111059255Y-92841008D01*
X111225851Y-92790472D01*
X111379387Y-92708405D01*
X111513962Y-92597962D01*
X111569737Y-92530000D01*
X113204422Y-92530000D01*
X114177928Y-93503507D01*
X114177928Y-94040000D01*
X114190188Y-94164482D01*
X114226498Y-94284180D01*
X114285463Y-94394494D01*
X114364815Y-94491185D01*
X114461506Y-94570537D01*
X114571820Y-94629502D01*
X114691518Y-94665812D01*
X114816000Y-94678072D01*
X115816000Y-94678072D01*
X115940482Y-94665812D01*
X116060180Y-94629502D01*
X116170494Y-94570537D01*
X116267185Y-94491185D01*
X116346537Y-94394494D01*
X116405502Y-94284180D01*
X116434374Y-94189000D01*
X117758928Y-94189000D01*
X117771188Y-94313482D01*
X117807498Y-94433180D01*
X117866463Y-94543494D01*
X117945815Y-94640185D01*
X118042506Y-94719537D01*
X118152820Y-94778502D01*
X118272518Y-94814812D01*
X118397000Y-94827072D01*
X118586250Y-94824000D01*
X118745000Y-94665250D01*
X118745000Y-93878500D01*
X118999000Y-93878500D01*
X118999000Y-94665250D01*
X119157750Y-94824000D01*
X119347000Y-94827072D01*
X119471482Y-94814812D01*
X119591180Y-94778502D01*
X119634000Y-94755614D01*
X119676820Y-94778502D01*
X119796518Y-94814812D01*
X119921000Y-94827072D01*
X120110250Y-94824000D01*
X120269000Y-94665250D01*
X120269000Y-93916000D01*
X119860750Y-93916000D01*
X119823250Y-93878500D01*
X118999000Y-93878500D01*
X118745000Y-93878500D01*
X117920750Y-93878500D01*
X117762000Y-94037250D01*
X117758928Y-94189000D01*
X116434374Y-94189000D01*
X116441812Y-94164482D01*
X116454072Y-94040000D01*
X116454072Y-92740000D01*
X116441812Y-92615518D01*
X116405502Y-92495820D01*
X116346537Y-92385506D01*
X116267185Y-92288815D01*
X116170494Y-92209463D01*
X116060180Y-92150498D01*
X115940482Y-92114188D01*
X115816000Y-92101928D01*
X115279507Y-92101928D01*
X114227532Y-91049954D01*
X114199817Y-91016183D01*
X114065059Y-90905589D01*
X113911313Y-90823411D01*
X113761853Y-90778072D01*
X114066000Y-90778072D01*
X114190482Y-90765812D01*
X114310180Y-90729502D01*
X114420494Y-90670537D01*
X114517185Y-90591185D01*
X114596537Y-90494494D01*
X114655502Y-90384180D01*
X114691812Y-90264482D01*
X114704072Y-90140000D01*
X114704072Y-88840000D01*
X114691812Y-88715518D01*
X114655502Y-88595820D01*
X114596537Y-88485506D01*
X114517185Y-88388815D01*
X114420494Y-88309463D01*
X114310180Y-88250498D01*
X114190482Y-88214188D01*
X114066000Y-88201928D01*
X113066000Y-88201928D01*
X112941518Y-88214188D01*
X112821820Y-88250498D01*
X112711506Y-88309463D01*
X112614815Y-88388815D01*
X112535463Y-88485506D01*
X112476498Y-88595820D01*
X112440188Y-88715518D01*
X112427928Y-88840000D01*
X112427928Y-90140000D01*
X112440188Y-90264482D01*
X112476498Y-90384180D01*
X112535463Y-90494494D01*
X112614815Y-90591185D01*
X112711506Y-90670537D01*
X112821820Y-90729502D01*
X112922358Y-90760000D01*
X111569737Y-90760000D01*
X111513962Y-90692038D01*
X111379387Y-90581595D01*
X111225851Y-90499528D01*
X111059255Y-90448992D01*
X110886001Y-90431928D01*
X109585999Y-90431928D01*
X109412745Y-90448992D01*
X109246149Y-90499528D01*
X109142369Y-90555000D01*
X108024759Y-90555000D01*
X107889392Y-90390055D01*
X107924180Y-90379502D01*
X108034494Y-90320537D01*
X108131185Y-90241185D01*
X108210537Y-90144494D01*
X108269502Y-90034180D01*
X108305812Y-89914482D01*
X108318072Y-89790000D01*
X108315241Y-89270000D01*
X108697928Y-89270000D01*
X108710188Y-89394482D01*
X108746498Y-89514180D01*
X108805463Y-89624494D01*
X108884815Y-89721185D01*
X108981506Y-89800537D01*
X109091820Y-89859502D01*
X109211518Y-89895812D01*
X109336000Y-89908072D01*
X109950250Y-89905000D01*
X110109000Y-89746250D01*
X110109000Y-88822000D01*
X110363000Y-88822000D01*
X110363000Y-89746250D01*
X110521750Y-89905000D01*
X111136000Y-89908072D01*
X111260482Y-89895812D01*
X111380180Y-89859502D01*
X111490494Y-89800537D01*
X111587185Y-89721185D01*
X111666537Y-89624494D01*
X111725502Y-89514180D01*
X111761812Y-89394482D01*
X111774072Y-89270000D01*
X111771000Y-88980750D01*
X111612250Y-88822000D01*
X110363000Y-88822000D01*
X110109000Y-88822000D01*
X108859750Y-88822000D01*
X108701000Y-88980750D01*
X108697928Y-89270000D01*
X108315241Y-89270000D01*
X108315000Y-89225750D01*
X108156250Y-89067000D01*
X106807000Y-89067000D01*
X106807000Y-89087000D01*
X106553000Y-89087000D01*
X106553000Y-89067000D01*
X105203750Y-89067000D01*
X105045000Y-89225750D01*
X105041928Y-89790000D01*
X105054188Y-89914482D01*
X105090498Y-90034180D01*
X105149463Y-90144494D01*
X105228815Y-90241185D01*
X105325506Y-90320537D01*
X105435820Y-90379502D01*
X105470608Y-90390055D01*
X105289294Y-90610986D01*
X105151401Y-90868966D01*
X105066487Y-91148889D01*
X105037815Y-91440000D01*
X97260000Y-91440000D01*
X97260000Y-88090000D01*
X105041928Y-88090000D01*
X105045000Y-88654250D01*
X105203750Y-88813000D01*
X106553000Y-88813000D01*
X106553000Y-87613750D01*
X106807000Y-87613750D01*
X106807000Y-88813000D01*
X108156250Y-88813000D01*
X108315000Y-88654250D01*
X108317908Y-88120000D01*
X108697928Y-88120000D01*
X108701000Y-88409250D01*
X108859750Y-88568000D01*
X110109000Y-88568000D01*
X110109000Y-87643750D01*
X110363000Y-87643750D01*
X110363000Y-88568000D01*
X111612250Y-88568000D01*
X111771000Y-88409250D01*
X111774072Y-88120000D01*
X111761812Y-87995518D01*
X111725502Y-87875820D01*
X111666537Y-87765506D01*
X111587185Y-87668815D01*
X111490494Y-87589463D01*
X111380180Y-87530498D01*
X111260482Y-87494188D01*
X111136000Y-87481928D01*
X110521750Y-87485000D01*
X110363000Y-87643750D01*
X110109000Y-87643750D01*
X109950250Y-87485000D01*
X109336000Y-87481928D01*
X109211518Y-87494188D01*
X109091820Y-87530498D01*
X108981506Y-87589463D01*
X108884815Y-87668815D01*
X108805463Y-87765506D01*
X108746498Y-87875820D01*
X108710188Y-87995518D01*
X108697928Y-88120000D01*
X108317908Y-88120000D01*
X108318072Y-88090000D01*
X108305812Y-87965518D01*
X108269502Y-87845820D01*
X108210537Y-87735506D01*
X108131185Y-87638815D01*
X108034494Y-87559463D01*
X107924180Y-87500498D01*
X107804482Y-87464188D01*
X107680000Y-87451928D01*
X106965750Y-87455000D01*
X106807000Y-87613750D01*
X106553000Y-87613750D01*
X106394250Y-87455000D01*
X105680000Y-87451928D01*
X105555518Y-87464188D01*
X105435820Y-87500498D01*
X105325506Y-87559463D01*
X105228815Y-87638815D01*
X105149463Y-87735506D01*
X105090498Y-87845820D01*
X105054188Y-87965518D01*
X105041928Y-88090000D01*
X97260000Y-88090000D01*
X97260000Y-83787000D01*
X98974928Y-83787000D01*
X98987188Y-83911482D01*
X99023498Y-84031180D01*
X99082463Y-84141494D01*
X99161815Y-84238185D01*
X99258506Y-84317537D01*
X99368820Y-84376502D01*
X99488518Y-84412812D01*
X99613000Y-84425072D01*
X99764750Y-84422000D01*
X99923500Y-84263250D01*
X99923500Y-83439000D01*
X99136750Y-83439000D01*
X98978000Y-83597750D01*
X98974928Y-83787000D01*
X97260000Y-83787000D01*
X97260000Y-82009000D01*
X98974928Y-82009000D01*
X98987188Y-82133482D01*
X99023498Y-82253180D01*
X99082463Y-82363494D01*
X99131298Y-82423000D01*
X99082463Y-82482506D01*
X99023498Y-82592820D01*
X98987188Y-82712518D01*
X98974928Y-82837000D01*
X98978000Y-83026250D01*
X99136750Y-83185000D01*
X99923500Y-83185000D01*
X99923500Y-81661000D01*
X99136750Y-81661000D01*
X98978000Y-81819750D01*
X98974928Y-82009000D01*
X97260000Y-82009000D01*
X97260000Y-81059000D01*
X98974928Y-81059000D01*
X98978000Y-81248250D01*
X99136750Y-81407000D01*
X99923500Y-81407000D01*
X99923500Y-80582750D01*
X99764750Y-80424000D01*
X99613000Y-80420928D01*
X99488518Y-80433188D01*
X99368820Y-80469498D01*
X99258506Y-80528463D01*
X99161815Y-80607815D01*
X99082463Y-80704506D01*
X99023498Y-80814820D01*
X98987188Y-80934518D01*
X98974928Y-81059000D01*
X97260000Y-81059000D01*
X97260000Y-77826891D01*
X98888519Y-77826891D01*
X98985843Y-78101252D01*
X99134822Y-78351355D01*
X99329731Y-78567588D01*
X99563080Y-78741641D01*
X99825901Y-78866825D01*
X99973110Y-78911476D01*
X100203000Y-78790155D01*
X100203000Y-77597000D01*
X99009186Y-77597000D01*
X98888519Y-77826891D01*
X97260000Y-77826891D01*
X97260000Y-74783740D01*
X98845000Y-74783740D01*
X98845000Y-75076260D01*
X98902068Y-75363158D01*
X99014010Y-75633411D01*
X99176525Y-75876632D01*
X99383368Y-76083475D01*
X99559406Y-76201100D01*
X99329731Y-76372412D01*
X99134822Y-76588645D01*
X98985843Y-76838748D01*
X98888519Y-77113109D01*
X99009186Y-77343000D01*
X100203000Y-77343000D01*
X100203000Y-77323000D01*
X100457000Y-77323000D01*
X100457000Y-77343000D01*
X100477000Y-77343000D01*
X100477000Y-77597000D01*
X100457000Y-77597000D01*
X100457000Y-78790155D01*
X100686890Y-78911476D01*
X100834099Y-78866825D01*
X101096920Y-78741641D01*
X101330269Y-78567588D01*
X101525178Y-78351355D01*
X101594805Y-78234466D01*
X101716525Y-78416632D01*
X101923368Y-78623475D01*
X102166589Y-78785990D01*
X102436842Y-78897932D01*
X102723740Y-78955000D01*
X103016260Y-78955000D01*
X103303158Y-78897932D01*
X103573411Y-78785990D01*
X103816632Y-78623475D01*
X104023475Y-78416632D01*
X104140000Y-78242240D01*
X104256525Y-78416632D01*
X104463368Y-78623475D01*
X104706589Y-78785990D01*
X104976842Y-78897932D01*
X105263740Y-78955000D01*
X105556260Y-78955000D01*
X105843158Y-78897932D01*
X106113411Y-78785990D01*
X106356632Y-78623475D01*
X106563475Y-78416632D01*
X106725990Y-78173411D01*
X106811001Y-77968177D01*
X106811001Y-79712521D01*
X106806719Y-79756000D01*
X106823805Y-79929490D01*
X106874412Y-80096313D01*
X106956590Y-80250059D01*
X107039468Y-80351046D01*
X107039471Y-80351049D01*
X107067184Y-80384817D01*
X107100951Y-80412529D01*
X107337422Y-80649000D01*
X105482411Y-80649000D01*
X105376608Y-80562169D01*
X105231716Y-80484722D01*
X105074500Y-80437031D01*
X104911000Y-80420928D01*
X104511000Y-80420928D01*
X104347500Y-80437031D01*
X104190284Y-80484722D01*
X104045392Y-80562169D01*
X103918394Y-80666394D01*
X103886000Y-80705866D01*
X103853606Y-80666394D01*
X103726608Y-80562169D01*
X103581716Y-80484722D01*
X103424500Y-80437031D01*
X103261000Y-80420928D01*
X102861000Y-80420928D01*
X102697500Y-80437031D01*
X102540284Y-80484722D01*
X102395392Y-80562169D01*
X102355909Y-80594572D01*
X102320275Y-80565329D01*
X102172142Y-80486150D01*
X102011408Y-80437392D01*
X101844250Y-80420928D01*
X101406750Y-80420928D01*
X101239592Y-80437392D01*
X101078858Y-80486150D01*
X100930725Y-80565329D01*
X100909070Y-80583100D01*
X100842494Y-80528463D01*
X100732180Y-80469498D01*
X100612482Y-80433188D01*
X100488000Y-80420928D01*
X100336250Y-80424000D01*
X100177500Y-80582750D01*
X100177500Y-81407000D01*
X100197500Y-81407000D01*
X100197500Y-81661000D01*
X100177500Y-81661000D01*
X100177500Y-83185000D01*
X100197500Y-83185000D01*
X100197500Y-83439000D01*
X100177500Y-83439000D01*
X100177500Y-84263250D01*
X100336250Y-84422000D01*
X100488000Y-84425072D01*
X100612482Y-84412812D01*
X100732180Y-84376502D01*
X100842494Y-84317537D01*
X100909070Y-84262900D01*
X100930725Y-84280671D01*
X101078858Y-84359850D01*
X101239592Y-84408608D01*
X101406750Y-84425072D01*
X101844250Y-84425072D01*
X102011408Y-84408608D01*
X102172142Y-84359850D01*
X102320275Y-84280671D01*
X102355909Y-84251428D01*
X102395392Y-84283831D01*
X102540284Y-84361278D01*
X102697500Y-84408969D01*
X102861000Y-84425072D01*
X103261000Y-84425072D01*
X103424500Y-84408969D01*
X103581716Y-84361278D01*
X103726608Y-84283831D01*
X103853606Y-84179606D01*
X103886000Y-84140134D01*
X103918394Y-84179606D01*
X104045392Y-84283831D01*
X104190284Y-84361278D01*
X104347500Y-84408969D01*
X104511000Y-84425072D01*
X104911000Y-84425072D01*
X105074500Y-84408969D01*
X105231716Y-84361278D01*
X105376608Y-84283831D01*
X105482411Y-84197000D01*
X112745546Y-84197000D01*
X112793744Y-84229205D01*
X112982102Y-84307226D01*
X113182061Y-84347000D01*
X113385939Y-84347000D01*
X113585898Y-84307226D01*
X113774256Y-84229205D01*
X113943774Y-84115937D01*
X114087937Y-83971774D01*
X114201205Y-83802256D01*
X114279226Y-83613898D01*
X114319000Y-83413939D01*
X114319000Y-83210061D01*
X114281387Y-83020965D01*
X114563465Y-83303044D01*
X114574774Y-83359898D01*
X114652795Y-83548256D01*
X114766063Y-83717774D01*
X114910226Y-83861937D01*
X115079744Y-83975205D01*
X115268102Y-84053226D01*
X115468061Y-84093000D01*
X115671939Y-84093000D01*
X115871898Y-84053226D01*
X115901928Y-84040787D01*
X115901928Y-84137000D01*
X115917071Y-84290745D01*
X115955000Y-84415784D01*
X115955001Y-85808521D01*
X115950719Y-85852000D01*
X115967805Y-86025490D01*
X116018412Y-86192313D01*
X116100590Y-86346059D01*
X116183468Y-86447046D01*
X116183471Y-86447049D01*
X116211184Y-86480817D01*
X116244951Y-86508529D01*
X117619469Y-87883048D01*
X117647182Y-87916816D01*
X117680950Y-87944529D01*
X117680952Y-87944531D01*
X117742449Y-87995000D01*
X117781940Y-88027410D01*
X117935686Y-88109588D01*
X118102509Y-88160194D01*
X118180571Y-88167882D01*
X118131392Y-88194169D01*
X118004394Y-88298394D01*
X117965200Y-88346152D01*
X117920494Y-88309463D01*
X117810180Y-88250498D01*
X117690482Y-88214188D01*
X117566000Y-88201928D01*
X116566000Y-88201928D01*
X116441518Y-88214188D01*
X116321820Y-88250498D01*
X116211506Y-88309463D01*
X116114815Y-88388815D01*
X116035463Y-88485506D01*
X115976498Y-88595820D01*
X115940188Y-88715518D01*
X115927928Y-88840000D01*
X115927928Y-90140000D01*
X115940188Y-90264482D01*
X115976498Y-90384180D01*
X116035463Y-90494494D01*
X116114815Y-90591185D01*
X116211506Y-90670537D01*
X116321820Y-90729502D01*
X116441518Y-90765812D01*
X116566000Y-90778072D01*
X117566000Y-90778072D01*
X117690482Y-90765812D01*
X117758928Y-90745049D01*
X117758928Y-90941000D01*
X117775031Y-91104500D01*
X117822722Y-91261716D01*
X117900169Y-91406608D01*
X117932572Y-91446091D01*
X117903329Y-91481725D01*
X117824150Y-91629858D01*
X117775392Y-91790592D01*
X117758928Y-91957750D01*
X117758928Y-92395250D01*
X117775392Y-92562408D01*
X117824150Y-92723142D01*
X117903329Y-92871275D01*
X117921100Y-92892930D01*
X117866463Y-92959506D01*
X117807498Y-93069820D01*
X117771188Y-93189518D01*
X117758928Y-93314000D01*
X117762000Y-93465750D01*
X117920750Y-93624500D01*
X118745000Y-93624500D01*
X118745000Y-93604500D01*
X118999000Y-93604500D01*
X118999000Y-93624500D01*
X119407250Y-93624500D01*
X119444750Y-93662000D01*
X120269000Y-93662000D01*
X120269000Y-93642000D01*
X120523000Y-93642000D01*
X120523000Y-93662000D01*
X120543000Y-93662000D01*
X120543000Y-93916000D01*
X120523000Y-93916000D01*
X120523000Y-94665250D01*
X120681750Y-94824000D01*
X120871000Y-94827072D01*
X120995482Y-94814812D01*
X121115180Y-94778502D01*
X121225494Y-94719537D01*
X121322185Y-94640185D01*
X121401537Y-94543494D01*
X121460502Y-94433180D01*
X121496812Y-94313482D01*
X121509072Y-94189000D01*
X121506000Y-94074750D01*
X121347252Y-93916002D01*
X121498352Y-93916002D01*
X121522412Y-93995313D01*
X121580928Y-94104790D01*
X121580928Y-94230000D01*
X121597512Y-94398377D01*
X121646625Y-94560283D01*
X121700474Y-94661027D01*
X121686774Y-94694102D01*
X121647000Y-94894061D01*
X121647000Y-95097939D01*
X121686774Y-95297898D01*
X121764795Y-95486256D01*
X121878063Y-95655774D01*
X122022226Y-95799937D01*
X122191744Y-95913205D01*
X122380102Y-95991226D01*
X122580061Y-96031000D01*
X122783939Y-96031000D01*
X122983898Y-95991226D01*
X123172256Y-95913205D01*
X123341774Y-95799937D01*
X123485937Y-95655774D01*
X123599205Y-95486256D01*
X123677226Y-95297898D01*
X123717000Y-95097939D01*
X123717000Y-95087951D01*
X123769000Y-95093072D01*
X123933250Y-95090000D01*
X124092000Y-94931250D01*
X124092000Y-94107000D01*
X124346000Y-94107000D01*
X124346000Y-94931250D01*
X124504750Y-95090000D01*
X124669000Y-95093072D01*
X124793482Y-95080812D01*
X124913180Y-95044502D01*
X125023494Y-94985537D01*
X125120185Y-94906185D01*
X125199537Y-94809494D01*
X125258502Y-94699180D01*
X125294812Y-94579482D01*
X125307072Y-94455000D01*
X125304000Y-94265750D01*
X125145250Y-94107000D01*
X124346000Y-94107000D01*
X124092000Y-94107000D01*
X124072000Y-94107000D01*
X124072000Y-93853000D01*
X124092000Y-93853000D01*
X124092000Y-93833000D01*
X124346000Y-93833000D01*
X124346000Y-93853000D01*
X125145250Y-93853000D01*
X125304000Y-93694250D01*
X125307072Y-93505000D01*
X125294812Y-93380518D01*
X125258502Y-93260820D01*
X125199537Y-93150506D01*
X125151095Y-93091479D01*
X125198482Y-93086812D01*
X125318180Y-93050502D01*
X125428494Y-92991537D01*
X125525185Y-92912185D01*
X125604537Y-92815494D01*
X125615816Y-92794393D01*
X126126472Y-93305049D01*
X126154185Y-93338817D01*
X126187953Y-93366530D01*
X126187955Y-93366532D01*
X126216551Y-93390000D01*
X126288943Y-93449411D01*
X126442689Y-93531589D01*
X126609512Y-93582195D01*
X126739525Y-93595000D01*
X126739535Y-93595000D01*
X126783001Y-93599281D01*
X126826467Y-93595000D01*
X128239546Y-93595000D01*
X128287744Y-93627205D01*
X128476102Y-93705226D01*
X128676061Y-93745000D01*
X128879939Y-93745000D01*
X129079898Y-93705226D01*
X129268256Y-93627205D01*
X129437774Y-93513937D01*
X129581937Y-93369774D01*
X129695205Y-93200256D01*
X129773226Y-93011898D01*
X129813000Y-92811939D01*
X129813000Y-92608061D01*
X129773226Y-92408102D01*
X129738804Y-92325000D01*
X130704941Y-92325000D01*
X130810013Y-92482252D01*
X131037748Y-92709987D01*
X131305537Y-92888918D01*
X131603088Y-93012168D01*
X131918967Y-93075000D01*
X132241033Y-93075000D01*
X132556912Y-93012168D01*
X132854463Y-92888918D01*
X133122252Y-92709987D01*
X133349987Y-92482252D01*
X133440202Y-92347236D01*
X133466525Y-92386632D01*
X133673368Y-92593475D01*
X133916589Y-92755990D01*
X134186842Y-92867932D01*
X134473740Y-92925000D01*
X134766260Y-92925000D01*
X135053158Y-92867932D01*
X135323411Y-92755990D01*
X135566632Y-92593475D01*
X135773475Y-92386632D01*
X135890000Y-92212240D01*
X136006525Y-92386632D01*
X136213368Y-92593475D01*
X136377760Y-92703318D01*
X136193368Y-92826525D01*
X135986525Y-93033368D01*
X135824010Y-93276589D01*
X135712068Y-93546842D01*
X135655000Y-93833740D01*
X135655000Y-94126260D01*
X135712068Y-94413158D01*
X135824010Y-94683411D01*
X135986525Y-94926632D01*
X136193368Y-95133475D01*
X136436589Y-95295990D01*
X136706842Y-95407932D01*
X136993740Y-95465000D01*
X137286260Y-95465000D01*
X137573158Y-95407932D01*
X137843411Y-95295990D01*
X138086632Y-95133475D01*
X138293475Y-94926632D01*
X138410000Y-94752240D01*
X138526525Y-94926632D01*
X138733368Y-95133475D01*
X138976589Y-95295990D01*
X139246842Y-95407932D01*
X139533740Y-95465000D01*
X139826260Y-95465000D01*
X140113158Y-95407932D01*
X140383411Y-95295990D01*
X140626632Y-95133475D01*
X140833475Y-94926632D01*
X140950000Y-94752240D01*
X141066525Y-94926632D01*
X141273368Y-95133475D01*
X141516589Y-95295990D01*
X141786842Y-95407932D01*
X142073740Y-95465000D01*
X142366260Y-95465000D01*
X142653158Y-95407932D01*
X142923411Y-95295990D01*
X143166632Y-95133475D01*
X143298487Y-95001620D01*
X143320498Y-95074180D01*
X143379463Y-95184494D01*
X143458815Y-95281185D01*
X143555506Y-95360537D01*
X143665820Y-95419502D01*
X143785518Y-95455812D01*
X143910000Y-95468072D01*
X144474250Y-95465000D01*
X144633000Y-95306250D01*
X144633000Y-94107000D01*
X144613000Y-94107000D01*
X144613000Y-93853000D01*
X144633000Y-93853000D01*
X144633000Y-93833000D01*
X144887000Y-93833000D01*
X144887000Y-93853000D01*
X144907000Y-93853000D01*
X144907000Y-94107000D01*
X144887000Y-94107000D01*
X144887000Y-95306250D01*
X145045750Y-95465000D01*
X145610000Y-95468072D01*
X145734482Y-95455812D01*
X145854180Y-95419502D01*
X145964494Y-95360537D01*
X146061185Y-95281185D01*
X146140537Y-95184494D01*
X146199502Y-95074180D01*
X146226168Y-94986275D01*
X146373368Y-95133475D01*
X146616589Y-95295990D01*
X146886842Y-95407932D01*
X147173740Y-95465000D01*
X147466260Y-95465000D01*
X147753158Y-95407932D01*
X148023411Y-95295990D01*
X148266632Y-95133475D01*
X148473475Y-94926632D01*
X148590000Y-94752240D01*
X148706525Y-94926632D01*
X148913368Y-95133475D01*
X149156589Y-95295990D01*
X149426842Y-95407932D01*
X149713740Y-95465000D01*
X150006260Y-95465000D01*
X150293158Y-95407932D01*
X150563411Y-95295990D01*
X150806632Y-95133475D01*
X151013475Y-94926632D01*
X151130000Y-94752240D01*
X151246525Y-94926632D01*
X151453368Y-95133475D01*
X151696589Y-95295990D01*
X151966842Y-95407932D01*
X152253740Y-95465000D01*
X152546260Y-95465000D01*
X152833158Y-95407932D01*
X153103411Y-95295990D01*
X153346632Y-95133475D01*
X153553475Y-94926632D01*
X153670000Y-94752240D01*
X153786525Y-94926632D01*
X153993368Y-95133475D01*
X154236589Y-95295990D01*
X154506842Y-95407932D01*
X154793740Y-95465000D01*
X155086260Y-95465000D01*
X155373158Y-95407932D01*
X155643411Y-95295990D01*
X155886632Y-95133475D01*
X156093475Y-94926632D01*
X156210000Y-94752240D01*
X156326525Y-94926632D01*
X156533368Y-95133475D01*
X156776589Y-95295990D01*
X157046842Y-95407932D01*
X157333740Y-95465000D01*
X157626260Y-95465000D01*
X157913158Y-95407932D01*
X158183411Y-95295990D01*
X158426632Y-95133475D01*
X158633475Y-94926632D01*
X158795990Y-94683411D01*
X158907932Y-94413158D01*
X158965000Y-94126260D01*
X158965000Y-93833740D01*
X158907932Y-93546842D01*
X158795990Y-93276589D01*
X158633475Y-93033368D01*
X158426632Y-92826525D01*
X158252240Y-92710000D01*
X158426632Y-92593475D01*
X158633475Y-92386632D01*
X158750000Y-92212240D01*
X158866525Y-92386632D01*
X159073368Y-92593475D01*
X159316589Y-92755990D01*
X159586842Y-92867932D01*
X159873740Y-92925000D01*
X160166260Y-92925000D01*
X160453158Y-92867932D01*
X160723411Y-92755990D01*
X160966632Y-92593475D01*
X161173475Y-92386632D01*
X161290000Y-92212240D01*
X161406525Y-92386632D01*
X161613368Y-92593475D01*
X161856589Y-92755990D01*
X162126842Y-92867932D01*
X162413740Y-92925000D01*
X162706260Y-92925000D01*
X162993158Y-92867932D01*
X163263411Y-92755990D01*
X163506632Y-92593475D01*
X163713475Y-92386632D01*
X163875990Y-92143411D01*
X163987932Y-91873158D01*
X164045000Y-91586260D01*
X164045000Y-91293740D01*
X163987932Y-91006842D01*
X163875990Y-90736589D01*
X163713475Y-90493368D01*
X163506632Y-90286525D01*
X163332240Y-90170000D01*
X163506632Y-90053475D01*
X163713475Y-89846632D01*
X163875990Y-89603411D01*
X163987932Y-89333158D01*
X164045000Y-89046260D01*
X164045000Y-88753740D01*
X163987932Y-88466842D01*
X163875990Y-88196589D01*
X163713475Y-87953368D01*
X163506632Y-87746525D01*
X163332240Y-87630000D01*
X163506632Y-87513475D01*
X163713475Y-87306632D01*
X163875990Y-87063411D01*
X163987932Y-86793158D01*
X164045000Y-86506260D01*
X164045000Y-86213740D01*
X163987932Y-85926842D01*
X163875990Y-85656589D01*
X163713475Y-85413368D01*
X163506632Y-85206525D01*
X163332240Y-85090000D01*
X163506632Y-84973475D01*
X163713475Y-84766632D01*
X163875990Y-84523411D01*
X163987932Y-84253158D01*
X164045000Y-83966260D01*
X164045000Y-83673740D01*
X163987932Y-83386842D01*
X163875990Y-83116589D01*
X163713475Y-82873368D01*
X163506632Y-82666525D01*
X163332240Y-82550000D01*
X163506632Y-82433475D01*
X163713475Y-82226632D01*
X163875990Y-81983411D01*
X163987932Y-81713158D01*
X164045000Y-81426260D01*
X164045000Y-81133740D01*
X163987932Y-80846842D01*
X163875990Y-80576589D01*
X163713475Y-80333368D01*
X163506632Y-80126525D01*
X163332240Y-80010000D01*
X163506632Y-79893475D01*
X163713475Y-79686632D01*
X163875990Y-79443411D01*
X163987932Y-79173158D01*
X164045000Y-78886260D01*
X164045000Y-78593740D01*
X163987932Y-78306842D01*
X163875990Y-78036589D01*
X163713475Y-77793368D01*
X163506632Y-77586525D01*
X163332240Y-77470000D01*
X163506632Y-77353475D01*
X163713475Y-77146632D01*
X163875990Y-76903411D01*
X163987932Y-76633158D01*
X164045000Y-76346260D01*
X164045000Y-76053740D01*
X163987932Y-75766842D01*
X163875990Y-75496589D01*
X163713475Y-75253368D01*
X163506632Y-75046525D01*
X163332240Y-74930000D01*
X163506632Y-74813475D01*
X163713475Y-74606632D01*
X163875990Y-74363411D01*
X163987932Y-74093158D01*
X164045000Y-73806260D01*
X164045000Y-73513740D01*
X163987932Y-73226842D01*
X163875990Y-72956589D01*
X163713475Y-72713368D01*
X163506632Y-72506525D01*
X163332240Y-72390000D01*
X163506632Y-72273475D01*
X163713475Y-72066632D01*
X163875990Y-71823411D01*
X163987932Y-71553158D01*
X164045000Y-71266260D01*
X164045000Y-70973740D01*
X163987932Y-70686842D01*
X163875990Y-70416589D01*
X163713475Y-70173368D01*
X163506632Y-69966525D01*
X163332240Y-69850000D01*
X163506632Y-69733475D01*
X163713475Y-69526632D01*
X163875990Y-69283411D01*
X163987932Y-69013158D01*
X164045000Y-68726260D01*
X164045000Y-68433740D01*
X163987932Y-68146842D01*
X163875990Y-67876589D01*
X163713475Y-67633368D01*
X163506632Y-67426525D01*
X163332240Y-67310000D01*
X163506632Y-67193475D01*
X163713475Y-66986632D01*
X163875990Y-66743411D01*
X163987932Y-66473158D01*
X164045000Y-66186260D01*
X164045000Y-65893740D01*
X163987932Y-65606842D01*
X163875990Y-65336589D01*
X163713475Y-65093368D01*
X163506632Y-64886525D01*
X163263411Y-64724010D01*
X162993158Y-64612068D01*
X162706260Y-64555000D01*
X162413740Y-64555000D01*
X162126842Y-64612068D01*
X161856589Y-64724010D01*
X161613368Y-64886525D01*
X161406525Y-65093368D01*
X161290000Y-65267760D01*
X161173475Y-65093368D01*
X160966632Y-64886525D01*
X160723411Y-64724010D01*
X160453158Y-64612068D01*
X160166260Y-64555000D01*
X159873740Y-64555000D01*
X159586842Y-64612068D01*
X159316589Y-64724010D01*
X159073368Y-64886525D01*
X158866525Y-65093368D01*
X158750000Y-65267760D01*
X158633475Y-65093368D01*
X158426632Y-64886525D01*
X158252240Y-64770000D01*
X158426632Y-64653475D01*
X158633475Y-64446632D01*
X158795990Y-64203411D01*
X158907932Y-63933158D01*
X158965000Y-63646260D01*
X158965000Y-63353740D01*
X158907932Y-63066842D01*
X158795990Y-62796589D01*
X158633475Y-62553368D01*
X158426632Y-62346525D01*
X158183411Y-62184010D01*
X157913158Y-62072068D01*
X157626260Y-62015000D01*
X157333740Y-62015000D01*
X157046842Y-62072068D01*
X156776589Y-62184010D01*
X156533368Y-62346525D01*
X156326525Y-62553368D01*
X156210000Y-62727760D01*
X156093475Y-62553368D01*
X155886632Y-62346525D01*
X155712240Y-62230000D01*
X155886632Y-62113475D01*
X156093475Y-61906632D01*
X156190862Y-61760881D01*
X159078724Y-61760881D01*
X159438912Y-62250548D01*
X160102882Y-62610849D01*
X160824385Y-62834694D01*
X161575695Y-62913480D01*
X162327938Y-62844178D01*
X163052208Y-62629452D01*
X163720670Y-62277555D01*
X163761088Y-62250548D01*
X164121276Y-61760881D01*
X161600000Y-59239605D01*
X159078724Y-61760881D01*
X156190862Y-61760881D01*
X156255990Y-61663411D01*
X156367932Y-61393158D01*
X156425000Y-61106260D01*
X156425000Y-60813740D01*
X156367932Y-60526842D01*
X156255990Y-60256589D01*
X156093475Y-60013368D01*
X155886632Y-59806525D01*
X155712240Y-59690000D01*
X155886632Y-59573475D01*
X156093475Y-59366632D01*
X156255990Y-59123411D01*
X156292323Y-59035695D01*
X157746520Y-59035695D01*
X157815822Y-59787938D01*
X158030548Y-60512208D01*
X158382445Y-61180670D01*
X158409452Y-61221088D01*
X158899119Y-61581276D01*
X161420395Y-59060000D01*
X161779605Y-59060000D01*
X164300881Y-61581276D01*
X164790548Y-61221088D01*
X165150849Y-60557118D01*
X165374694Y-59835615D01*
X165453480Y-59084305D01*
X165384178Y-58332062D01*
X165169452Y-57607792D01*
X164817555Y-56939330D01*
X164790548Y-56898912D01*
X164300881Y-56538724D01*
X161779605Y-59060000D01*
X161420395Y-59060000D01*
X158899119Y-56538724D01*
X158409452Y-56898912D01*
X158049151Y-57562882D01*
X157825306Y-58284385D01*
X157746520Y-59035695D01*
X156292323Y-59035695D01*
X156367932Y-58853158D01*
X156425000Y-58566260D01*
X156425000Y-58273740D01*
X156367932Y-57986842D01*
X156255990Y-57716589D01*
X156093475Y-57473368D01*
X155886632Y-57266525D01*
X155643411Y-57104010D01*
X155373158Y-56992068D01*
X155086260Y-56935000D01*
X154793740Y-56935000D01*
X154506842Y-56992068D01*
X154236589Y-57104010D01*
X153993368Y-57266525D01*
X153786525Y-57473368D01*
X153670000Y-57647760D01*
X153553475Y-57473368D01*
X153346632Y-57266525D01*
X153103411Y-57104010D01*
X152833158Y-56992068D01*
X152546260Y-56935000D01*
X152253740Y-56935000D01*
X151966842Y-56992068D01*
X151696589Y-57104010D01*
X151453368Y-57266525D01*
X151246525Y-57473368D01*
X151130000Y-57647760D01*
X151013475Y-57473368D01*
X150806632Y-57266525D01*
X150563411Y-57104010D01*
X150293158Y-56992068D01*
X150006260Y-56935000D01*
X149713740Y-56935000D01*
X149426842Y-56992068D01*
X149156589Y-57104010D01*
X148913368Y-57266525D01*
X148706525Y-57473368D01*
X148590000Y-57647760D01*
X148473475Y-57473368D01*
X148266632Y-57266525D01*
X148023411Y-57104010D01*
X147753158Y-56992068D01*
X147466260Y-56935000D01*
X147173740Y-56935000D01*
X146886842Y-56992068D01*
X146616589Y-57104010D01*
X146373368Y-57266525D01*
X146166525Y-57473368D01*
X146050000Y-57647760D01*
X145933475Y-57473368D01*
X145726632Y-57266525D01*
X145483411Y-57104010D01*
X145213158Y-56992068D01*
X144926260Y-56935000D01*
X144633740Y-56935000D01*
X144346842Y-56992068D01*
X144076589Y-57104010D01*
X143833368Y-57266525D01*
X143626525Y-57473368D01*
X143510000Y-57647760D01*
X143393475Y-57473368D01*
X143186632Y-57266525D01*
X142943411Y-57104010D01*
X142673158Y-56992068D01*
X142386260Y-56935000D01*
X142093740Y-56935000D01*
X141806842Y-56992068D01*
X141536589Y-57104010D01*
X141293368Y-57266525D01*
X141086525Y-57473368D01*
X140970000Y-57647760D01*
X140853475Y-57473368D01*
X140646632Y-57266525D01*
X140403411Y-57104010D01*
X140133158Y-56992068D01*
X139846260Y-56935000D01*
X139553740Y-56935000D01*
X139266842Y-56992068D01*
X138996589Y-57104010D01*
X138753368Y-57266525D01*
X138546525Y-57473368D01*
X138430000Y-57647760D01*
X138313475Y-57473368D01*
X138106632Y-57266525D01*
X137863411Y-57104010D01*
X137593158Y-56992068D01*
X137306260Y-56935000D01*
X137013740Y-56935000D01*
X136726842Y-56992068D01*
X136456589Y-57104010D01*
X136213368Y-57266525D01*
X136006525Y-57473368D01*
X135890000Y-57647760D01*
X135773475Y-57473368D01*
X135566632Y-57266525D01*
X135323411Y-57104010D01*
X135053158Y-56992068D01*
X134766260Y-56935000D01*
X134473740Y-56935000D01*
X134186842Y-56992068D01*
X133916589Y-57104010D01*
X133673368Y-57266525D01*
X133466525Y-57473368D01*
X133304010Y-57716589D01*
X133192068Y-57986842D01*
X133135000Y-58273740D01*
X133135000Y-58566260D01*
X133192068Y-58853158D01*
X133304010Y-59123411D01*
X133466525Y-59366632D01*
X133673368Y-59573475D01*
X133847760Y-59690000D01*
X133673368Y-59806525D01*
X133466525Y-60013368D01*
X133304010Y-60256589D01*
X133192068Y-60526842D01*
X133135000Y-60813740D01*
X133135000Y-61106260D01*
X133192068Y-61393158D01*
X133304010Y-61663411D01*
X133466525Y-61906632D01*
X133673368Y-62113475D01*
X133847760Y-62230000D01*
X133673368Y-62346525D01*
X133466525Y-62553368D01*
X133440202Y-62592764D01*
X133349987Y-62457748D01*
X133122252Y-62230013D01*
X132854463Y-62051082D01*
X132556912Y-61927832D01*
X132241033Y-61865000D01*
X131918967Y-61865000D01*
X131603088Y-61927832D01*
X131305537Y-62051082D01*
X131037748Y-62230013D01*
X130810013Y-62457748D01*
X130631082Y-62725537D01*
X130507832Y-63023088D01*
X130445000Y-63338967D01*
X130445000Y-63661033D01*
X130481896Y-63846525D01*
X123501604Y-70826818D01*
X123524488Y-70751377D01*
X123541072Y-70583000D01*
X123541072Y-70133000D01*
X123524488Y-69964623D01*
X123475375Y-69802717D01*
X123397300Y-69656649D01*
X123433537Y-69612494D01*
X123492502Y-69502180D01*
X123528812Y-69382482D01*
X123541072Y-69258000D01*
X123538000Y-69093750D01*
X123379250Y-68935000D01*
X122555000Y-68935000D01*
X122555000Y-68955000D01*
X122301000Y-68955000D01*
X122301000Y-68935000D01*
X121476750Y-68935000D01*
X121318000Y-69093750D01*
X121314928Y-69258000D01*
X121327188Y-69382482D01*
X121354646Y-69473000D01*
X121106118Y-69473000D01*
X121059205Y-69359744D01*
X120945937Y-69190226D01*
X120801774Y-69046063D01*
X120632256Y-68932795D01*
X120443898Y-68854774D01*
X120243939Y-68815000D01*
X120040061Y-68815000D01*
X119840102Y-68854774D01*
X119651744Y-68932795D01*
X119603546Y-68965000D01*
X118648454Y-68965000D01*
X118600256Y-68932795D01*
X118411898Y-68854774D01*
X118211939Y-68815000D01*
X118008061Y-68815000D01*
X117808102Y-68854774D01*
X117619744Y-68932795D01*
X117450226Y-69046063D01*
X117306063Y-69190226D01*
X117192795Y-69359744D01*
X117114774Y-69548102D01*
X117075000Y-69748061D01*
X117075000Y-69951939D01*
X117114774Y-70151898D01*
X117192795Y-70340256D01*
X117262095Y-70443971D01*
X117143745Y-70408071D01*
X116990000Y-70392928D01*
X116690000Y-70392928D01*
X116536255Y-70408071D01*
X116388418Y-70452916D01*
X116252171Y-70525742D01*
X116132749Y-70623749D01*
X116081510Y-70686183D01*
X116057226Y-70564096D01*
X115979205Y-70375738D01*
X115865937Y-70206220D01*
X115721774Y-70062057D01*
X115552256Y-69948789D01*
X115363898Y-69870768D01*
X115163939Y-69830994D01*
X114960061Y-69830994D01*
X114760102Y-69870768D01*
X114571744Y-69948789D01*
X114402226Y-70062057D01*
X114258063Y-70206220D01*
X114144795Y-70375738D01*
X114066774Y-70564096D01*
X114027000Y-70764055D01*
X114027000Y-70929294D01*
X113962258Y-70808171D01*
X113864251Y-70688749D01*
X113744829Y-70590742D01*
X113608582Y-70517916D01*
X113460745Y-70473071D01*
X113307000Y-70457928D01*
X113007000Y-70457928D01*
X112853255Y-70473071D01*
X112705418Y-70517916D01*
X112569171Y-70590742D01*
X112522000Y-70629454D01*
X112474829Y-70590742D01*
X112338582Y-70517916D01*
X112190745Y-70473071D01*
X112037000Y-70457928D01*
X111737000Y-70457928D01*
X111583255Y-70473071D01*
X111518479Y-70492720D01*
X111525000Y-70459939D01*
X111525000Y-70256061D01*
X111485226Y-70056102D01*
X111407205Y-69867744D01*
X111391035Y-69843543D01*
X111729434Y-69505145D01*
X111862226Y-69637937D01*
X112031744Y-69751205D01*
X112220102Y-69829226D01*
X112420061Y-69869000D01*
X112623939Y-69869000D01*
X112823898Y-69829226D01*
X113012256Y-69751205D01*
X113181774Y-69637937D01*
X113325937Y-69493774D01*
X113439205Y-69324256D01*
X113517226Y-69135898D01*
X113528535Y-69079044D01*
X113752049Y-68855530D01*
X113785817Y-68827817D01*
X113846816Y-68753491D01*
X113896411Y-68693059D01*
X113978589Y-68539314D01*
X114029195Y-68372490D01*
X114034480Y-68318829D01*
X114042000Y-68242477D01*
X114042000Y-68242469D01*
X114044579Y-68216280D01*
X114079929Y-68099745D01*
X114086699Y-68031000D01*
X115901928Y-68031000D01*
X115914188Y-68155482D01*
X115950498Y-68275180D01*
X116009463Y-68385494D01*
X116088815Y-68482185D01*
X116185506Y-68561537D01*
X116295820Y-68620502D01*
X116415518Y-68656812D01*
X116540000Y-68669072D01*
X116554250Y-68666000D01*
X116713000Y-68507250D01*
X116713000Y-67183000D01*
X116063750Y-67183000D01*
X115905000Y-67341750D01*
X115901928Y-68031000D01*
X114086699Y-68031000D01*
X114095072Y-67946000D01*
X114095072Y-66296000D01*
X114079929Y-66142255D01*
X114035084Y-65994418D01*
X113962258Y-65858171D01*
X113864251Y-65738749D01*
X113744829Y-65640742D01*
X113608582Y-65567916D01*
X113460745Y-65523071D01*
X113307000Y-65507928D01*
X113007000Y-65507928D01*
X112853255Y-65523071D01*
X112705418Y-65567916D01*
X112569171Y-65640742D01*
X112522000Y-65679454D01*
X112474829Y-65640742D01*
X112338582Y-65567916D01*
X112190745Y-65523071D01*
X112037000Y-65507928D01*
X111737000Y-65507928D01*
X111583255Y-65523071D01*
X111435418Y-65567916D01*
X111299171Y-65640742D01*
X111252000Y-65679454D01*
X111204829Y-65640742D01*
X111068582Y-65567916D01*
X110920745Y-65523071D01*
X110767000Y-65507928D01*
X110467000Y-65507928D01*
X110313255Y-65523071D01*
X110165418Y-65567916D01*
X110031064Y-65639730D01*
X110001494Y-65615463D01*
X109891180Y-65556498D01*
X109771482Y-65520188D01*
X109647000Y-65507928D01*
X109632750Y-65511000D01*
X109474000Y-65669750D01*
X109474000Y-66994000D01*
X109494000Y-66994000D01*
X109494000Y-67248000D01*
X109474000Y-67248000D01*
X109474000Y-67268000D01*
X109220000Y-67268000D01*
X109220000Y-67248000D01*
X109200000Y-67248000D01*
X109200000Y-66994000D01*
X109220000Y-66994000D01*
X109220000Y-65669750D01*
X109061250Y-65511000D01*
X109047000Y-65507928D01*
X108922518Y-65520188D01*
X108802820Y-65556498D01*
X108692506Y-65615463D01*
X108673982Y-65630665D01*
X108638618Y-65564503D01*
X108531284Y-65433716D01*
X108400497Y-65326382D01*
X108251283Y-65246625D01*
X108089377Y-65197512D01*
X107986311Y-65187361D01*
X108036494Y-65160537D01*
X108133185Y-65081185D01*
X108187501Y-65015000D01*
X111776499Y-65015000D01*
X111830815Y-65081185D01*
X111927506Y-65160537D01*
X112037820Y-65219502D01*
X112157518Y-65255812D01*
X112282000Y-65268072D01*
X113982000Y-65268072D01*
X114106482Y-65255812D01*
X114226180Y-65219502D01*
X114310555Y-65174402D01*
X114317744Y-65179205D01*
X114506102Y-65257226D01*
X114706061Y-65297000D01*
X114909939Y-65297000D01*
X115109898Y-65257226D01*
X115298256Y-65179205D01*
X115467774Y-65065937D01*
X115611937Y-64921774D01*
X115725205Y-64752256D01*
X115803226Y-64563898D01*
X115843000Y-64363939D01*
X115843000Y-64243238D01*
X115918309Y-64305042D01*
X115955000Y-64329558D01*
X115955000Y-64726530D01*
X115950719Y-64770000D01*
X115955000Y-64813469D01*
X115955000Y-64813476D01*
X115965347Y-64918532D01*
X115967805Y-64943490D01*
X115969452Y-64948918D01*
X116018411Y-65110312D01*
X116100589Y-65264058D01*
X116211183Y-65398817D01*
X116244956Y-65426534D01*
X116306638Y-65488216D01*
X116295820Y-65491498D01*
X116185506Y-65550463D01*
X116088815Y-65629815D01*
X116009463Y-65726506D01*
X115950498Y-65836820D01*
X115914188Y-65956518D01*
X115901928Y-66081000D01*
X115905000Y-66770250D01*
X116063750Y-66929000D01*
X116713000Y-66929000D01*
X116713000Y-66909000D01*
X116967000Y-66909000D01*
X116967000Y-66929000D01*
X116987000Y-66929000D01*
X116987000Y-67183000D01*
X116967000Y-67183000D01*
X116967000Y-68507250D01*
X117125750Y-68666000D01*
X117140000Y-68669072D01*
X117264482Y-68656812D01*
X117384180Y-68620502D01*
X117494494Y-68561537D01*
X117524064Y-68537270D01*
X117658418Y-68609084D01*
X117806255Y-68653929D01*
X117960000Y-68669072D01*
X118260000Y-68669072D01*
X118413745Y-68653929D01*
X118561582Y-68609084D01*
X118697829Y-68536258D01*
X118745000Y-68497546D01*
X118792171Y-68536258D01*
X118928418Y-68609084D01*
X119076255Y-68653929D01*
X119230000Y-68669072D01*
X119530000Y-68669072D01*
X119683745Y-68653929D01*
X119831582Y-68609084D01*
X119967829Y-68536258D01*
X120015000Y-68497546D01*
X120062171Y-68536258D01*
X120198418Y-68609084D01*
X120346255Y-68653929D01*
X120500000Y-68669072D01*
X120800000Y-68669072D01*
X120953745Y-68653929D01*
X121101582Y-68609084D01*
X121237829Y-68536258D01*
X121317046Y-68471246D01*
X121318000Y-68522250D01*
X121476750Y-68681000D01*
X122301000Y-68681000D01*
X122301000Y-67881750D01*
X122555000Y-67881750D01*
X122555000Y-68681000D01*
X123379250Y-68681000D01*
X123538000Y-68522250D01*
X123541072Y-68358000D01*
X123528812Y-68233518D01*
X123492502Y-68113820D01*
X123433537Y-68003506D01*
X123354185Y-67906815D01*
X123257494Y-67827463D01*
X123147180Y-67768498D01*
X123027482Y-67732188D01*
X122903000Y-67719928D01*
X122713750Y-67723000D01*
X122555000Y-67881750D01*
X122301000Y-67881750D01*
X122142250Y-67723000D01*
X121953000Y-67719928D01*
X121828518Y-67732188D01*
X121708820Y-67768498D01*
X121598506Y-67827463D01*
X121588072Y-67836026D01*
X121588072Y-66353506D01*
X122515050Y-65426529D01*
X122548817Y-65398817D01*
X122576533Y-65365046D01*
X122639383Y-65288463D01*
X122659411Y-65264059D01*
X122741589Y-65110313D01*
X122792195Y-64943490D01*
X122805000Y-64813477D01*
X122805000Y-64813467D01*
X122809281Y-64770001D01*
X122805000Y-64726535D01*
X122805000Y-64329558D01*
X122841691Y-64305042D01*
X122938382Y-64225690D01*
X123007690Y-64156382D01*
X123087042Y-64059691D01*
X123141498Y-63978192D01*
X123200464Y-63867875D01*
X123237973Y-63777319D01*
X123274282Y-63657623D01*
X123293404Y-63561490D01*
X123305664Y-63437009D01*
X123305664Y-63412450D01*
X123308072Y-63388000D01*
X123308072Y-62888000D01*
X123295812Y-62763518D01*
X123259502Y-62643820D01*
X123200537Y-62533506D01*
X123121185Y-62436815D01*
X123024494Y-62357463D01*
X122914180Y-62298498D01*
X122814060Y-62268127D01*
X122808762Y-62250125D01*
X122807731Y-62248153D01*
X122807087Y-62246020D01*
X122779012Y-62193219D01*
X122751345Y-62140297D01*
X122749951Y-62138563D01*
X122748905Y-62136596D01*
X122711117Y-62090263D01*
X122673690Y-62043714D01*
X122671985Y-62042283D01*
X122670577Y-62040557D01*
X122624527Y-62002461D01*
X122578754Y-61964053D01*
X122576802Y-61962980D01*
X122575087Y-61961561D01*
X122522539Y-61933149D01*
X122470153Y-61904349D01*
X122468029Y-61903675D01*
X122466072Y-61902617D01*
X122409050Y-61884966D01*
X122352024Y-61866876D01*
X122349808Y-61866627D01*
X122347684Y-61865970D01*
X122288257Y-61859724D01*
X122228866Y-61853062D01*
X122224596Y-61853032D01*
X122224433Y-61853015D01*
X122224270Y-61853030D01*
X122220000Y-61853000D01*
X121620000Y-61853000D01*
X121560495Y-61858834D01*
X121501013Y-61864248D01*
X121498882Y-61864875D01*
X121496661Y-61865093D01*
X121439379Y-61882388D01*
X121382125Y-61899238D01*
X121380153Y-61900269D01*
X121378020Y-61900913D01*
X121325219Y-61928988D01*
X121272297Y-61956655D01*
X121270563Y-61958049D01*
X121268596Y-61959095D01*
X121222263Y-61996883D01*
X121175714Y-62034310D01*
X121174283Y-62036015D01*
X121172557Y-62037423D01*
X121134461Y-62083473D01*
X121096053Y-62129246D01*
X121094980Y-62131198D01*
X121093561Y-62132913D01*
X121065149Y-62185461D01*
X121036349Y-62237847D01*
X121035675Y-62239971D01*
X121034617Y-62241928D01*
X121026566Y-62267937D01*
X120925820Y-62298498D01*
X120815506Y-62357463D01*
X120768072Y-62396391D01*
X120768072Y-62088000D01*
X120765664Y-62063550D01*
X120765664Y-62038991D01*
X120753404Y-61914510D01*
X120734282Y-61818377D01*
X120697973Y-61698681D01*
X120660464Y-61608125D01*
X120601498Y-61497808D01*
X120547042Y-61416309D01*
X120493956Y-61351623D01*
X120641044Y-61204535D01*
X120697898Y-61193226D01*
X120886256Y-61115205D01*
X121055774Y-61001937D01*
X121199937Y-60857774D01*
X121313205Y-60688256D01*
X121391226Y-60499898D01*
X121431000Y-60299939D01*
X121431000Y-60096061D01*
X121391226Y-59896102D01*
X121313205Y-59707744D01*
X121199937Y-59538226D01*
X121055774Y-59394063D01*
X120886256Y-59280795D01*
X120697898Y-59202774D01*
X120497939Y-59163000D01*
X120294061Y-59163000D01*
X120094102Y-59202774D01*
X119905744Y-59280795D01*
X119736226Y-59394063D01*
X119592063Y-59538226D01*
X119478795Y-59707744D01*
X119400774Y-59896102D01*
X119389465Y-59952956D01*
X118784951Y-60557471D01*
X118751184Y-60585183D01*
X118723471Y-60618951D01*
X118723468Y-60618954D01*
X118640590Y-60719941D01*
X118558412Y-60873687D01*
X118507805Y-61040510D01*
X118501330Y-61106260D01*
X118497539Y-61144745D01*
X118458309Y-61170958D01*
X118361618Y-61250310D01*
X118292310Y-61319618D01*
X118212958Y-61416309D01*
X118158502Y-61497808D01*
X118099536Y-61608125D01*
X118062027Y-61698681D01*
X118025718Y-61818377D01*
X118006596Y-61914510D01*
X117994336Y-62038991D01*
X117994336Y-62063550D01*
X117991928Y-62088000D01*
X117991928Y-62396391D01*
X117944494Y-62357463D01*
X117834180Y-62298498D01*
X117734060Y-62268127D01*
X117728762Y-62250125D01*
X117727731Y-62248153D01*
X117727087Y-62246020D01*
X117699012Y-62193219D01*
X117671345Y-62140297D01*
X117669951Y-62138563D01*
X117668905Y-62136596D01*
X117631117Y-62090263D01*
X117593690Y-62043714D01*
X117591985Y-62042283D01*
X117590577Y-62040557D01*
X117544527Y-62002461D01*
X117498754Y-61964053D01*
X117496802Y-61962980D01*
X117495087Y-61961561D01*
X117442539Y-61933149D01*
X117390153Y-61904349D01*
X117388029Y-61903675D01*
X117386072Y-61902617D01*
X117329050Y-61884966D01*
X117272024Y-61866876D01*
X117269808Y-61866627D01*
X117267684Y-61865970D01*
X117208257Y-61859724D01*
X117148866Y-61853062D01*
X117144596Y-61853032D01*
X117144433Y-61853015D01*
X117144270Y-61853030D01*
X117140000Y-61853000D01*
X116540000Y-61853000D01*
X116480495Y-61858834D01*
X116421013Y-61864248D01*
X116418882Y-61864875D01*
X116416661Y-61865093D01*
X116359379Y-61882388D01*
X116302125Y-61899238D01*
X116300153Y-61900269D01*
X116298020Y-61900913D01*
X116245219Y-61928988D01*
X116192297Y-61956655D01*
X116190563Y-61958049D01*
X116188596Y-61959095D01*
X116142263Y-61996883D01*
X116095714Y-62034310D01*
X116094283Y-62036015D01*
X116092557Y-62037423D01*
X116054461Y-62083473D01*
X116016053Y-62129246D01*
X116014980Y-62131198D01*
X116013561Y-62132913D01*
X115985149Y-62185461D01*
X115956349Y-62237847D01*
X115955675Y-62239971D01*
X115954617Y-62241928D01*
X115946566Y-62267937D01*
X115845820Y-62298498D01*
X115735506Y-62357463D01*
X115638815Y-62436815D01*
X115559463Y-62533506D01*
X115500498Y-62643820D01*
X115464188Y-62763518D01*
X115451928Y-62888000D01*
X115451928Y-63388000D01*
X115454336Y-63412450D01*
X115454336Y-63437009D01*
X115455609Y-63449935D01*
X115298256Y-63344795D01*
X115109898Y-63266774D01*
X114909939Y-63227000D01*
X114706061Y-63227000D01*
X114506102Y-63266774D01*
X114505556Y-63267000D01*
X114433185Y-63178815D01*
X114336494Y-63099463D01*
X114226180Y-63040498D01*
X114106482Y-63004188D01*
X113982000Y-62991928D01*
X112282000Y-62991928D01*
X112157518Y-63004188D01*
X112037820Y-63040498D01*
X111927506Y-63099463D01*
X111830815Y-63178815D01*
X111776499Y-63245000D01*
X108187501Y-63245000D01*
X108133185Y-63178815D01*
X108036494Y-63099463D01*
X107926180Y-63040498D01*
X107806482Y-63004188D01*
X107682000Y-62991928D01*
X105982000Y-62991928D01*
X105857518Y-63004188D01*
X105737820Y-63040498D01*
X105627506Y-63099463D01*
X105530815Y-63178815D01*
X105451463Y-63275506D01*
X105423191Y-63328399D01*
X105376608Y-63290169D01*
X105231716Y-63212722D01*
X105074500Y-63165031D01*
X104911000Y-63148928D01*
X104511000Y-63148928D01*
X104347500Y-63165031D01*
X104190284Y-63212722D01*
X104045392Y-63290169D01*
X103943410Y-63373863D01*
X103912185Y-63335815D01*
X103815494Y-63256463D01*
X103705180Y-63197498D01*
X103585482Y-63161188D01*
X103461000Y-63148928D01*
X103346750Y-63152000D01*
X103188000Y-63310750D01*
X103188000Y-64135000D01*
X103208000Y-64135000D01*
X103208000Y-64389000D01*
X103188000Y-64389000D01*
X103188000Y-64409000D01*
X102934000Y-64409000D01*
X102934000Y-64389000D01*
X102184750Y-64389000D01*
X102026000Y-64547750D01*
X102022928Y-64737000D01*
X102035188Y-64861482D01*
X102071498Y-64981180D01*
X102130463Y-65091494D01*
X102209815Y-65188185D01*
X102242157Y-65214727D01*
X102210226Y-65236063D01*
X102066063Y-65380226D01*
X101952795Y-65549744D01*
X101874774Y-65738102D01*
X101863465Y-65794957D01*
X101575951Y-66082471D01*
X101542184Y-66110183D01*
X101514471Y-66143951D01*
X101514468Y-66143954D01*
X101431590Y-66244941D01*
X101349412Y-66398687D01*
X101298805Y-66565510D01*
X101281719Y-66739000D01*
X101286001Y-66782479D01*
X101286000Y-70991738D01*
X101186608Y-70910169D01*
X101041716Y-70832722D01*
X100884500Y-70785031D01*
X100721000Y-70768928D01*
X100321000Y-70768928D01*
X100157500Y-70785031D01*
X100000284Y-70832722D01*
X99855392Y-70910169D01*
X99728394Y-71014394D01*
X99624169Y-71141392D01*
X99546722Y-71286284D01*
X99499031Y-71443500D01*
X99482928Y-71607000D01*
X99482928Y-72157000D01*
X99499031Y-72320500D01*
X99546722Y-72477716D01*
X99624169Y-72622608D01*
X99636000Y-72637024D01*
X99636001Y-73610112D01*
X99626589Y-73614010D01*
X99383368Y-73776525D01*
X99176525Y-73983368D01*
X99014010Y-74226589D01*
X98902068Y-74496842D01*
X98845000Y-74783740D01*
X97260000Y-74783740D01*
X97260000Y-63787000D01*
X102022928Y-63787000D01*
X102026000Y-63976250D01*
X102184750Y-64135000D01*
X102934000Y-64135000D01*
X102934000Y-63310750D01*
X102775250Y-63152000D01*
X102661000Y-63148928D01*
X102536518Y-63161188D01*
X102416820Y-63197498D01*
X102306506Y-63256463D01*
X102209815Y-63335815D01*
X102130463Y-63432506D01*
X102071498Y-63542820D01*
X102035188Y-63662518D01*
X102022928Y-63787000D01*
X97260000Y-63787000D01*
X97260000Y-61760881D01*
X99078724Y-61760881D01*
X99438912Y-62250548D01*
X100102882Y-62610849D01*
X100824385Y-62834694D01*
X101575695Y-62913480D01*
X102327938Y-62844178D01*
X103052208Y-62629452D01*
X103720670Y-62277555D01*
X103761088Y-62250548D01*
X104121276Y-61760881D01*
X101600000Y-59239605D01*
X99078724Y-61760881D01*
X97260000Y-61760881D01*
X97260000Y-59089392D01*
X97264792Y-59035695D01*
X97746520Y-59035695D01*
X97815822Y-59787938D01*
X98030548Y-60512208D01*
X98382445Y-61180670D01*
X98409452Y-61221088D01*
X98899119Y-61581276D01*
X101420395Y-59060000D01*
X101779605Y-59060000D01*
X104300881Y-61581276D01*
X104790548Y-61221088D01*
X105150849Y-60557118D01*
X105343928Y-59934781D01*
X105343928Y-60830000D01*
X105356188Y-60954482D01*
X105392498Y-61074180D01*
X105451463Y-61184494D01*
X105530815Y-61281185D01*
X105627506Y-61360537D01*
X105737820Y-61419502D01*
X105857518Y-61455812D01*
X105982000Y-61468072D01*
X107682000Y-61468072D01*
X107806482Y-61455812D01*
X107926180Y-61419502D01*
X108036494Y-61360537D01*
X108133185Y-61281185D01*
X108187501Y-61215000D01*
X109565658Y-61215000D01*
X109613789Y-61247160D01*
X109802147Y-61325181D01*
X110002106Y-61364955D01*
X110205984Y-61364955D01*
X110405943Y-61325181D01*
X110594301Y-61247160D01*
X110642432Y-61215000D01*
X111776499Y-61215000D01*
X111830815Y-61281185D01*
X111927506Y-61360537D01*
X112037820Y-61419502D01*
X112157518Y-61455812D01*
X112282000Y-61468072D01*
X113982000Y-61468072D01*
X114106482Y-61455812D01*
X114226180Y-61419502D01*
X114336494Y-61360537D01*
X114433185Y-61281185D01*
X114512537Y-61184494D01*
X114571502Y-61074180D01*
X114607812Y-60954482D01*
X114620072Y-60830000D01*
X114620072Y-59830000D01*
X114607812Y-59705518D01*
X114571502Y-59585820D01*
X114512537Y-59475506D01*
X114433185Y-59378815D01*
X114336494Y-59299463D01*
X114226180Y-59240498D01*
X114106482Y-59204188D01*
X113982000Y-59191928D01*
X112282000Y-59191928D01*
X112157518Y-59204188D01*
X112037820Y-59240498D01*
X111927506Y-59299463D01*
X111830815Y-59378815D01*
X111776499Y-59445000D01*
X110642567Y-59445000D01*
X110594301Y-59412750D01*
X110405943Y-59334729D01*
X110205984Y-59294955D01*
X110002106Y-59294955D01*
X109802147Y-59334729D01*
X109613789Y-59412750D01*
X109565523Y-59445000D01*
X108187501Y-59445000D01*
X108133185Y-59378815D01*
X108036494Y-59299463D01*
X107926180Y-59240498D01*
X107806482Y-59204188D01*
X107682000Y-59191928D01*
X105982000Y-59191928D01*
X105857518Y-59204188D01*
X105737820Y-59240498D01*
X105627506Y-59299463D01*
X105530815Y-59378815D01*
X105451463Y-59475506D01*
X105402937Y-59566291D01*
X105453480Y-59084305D01*
X105384178Y-58332062D01*
X105169452Y-57607792D01*
X104817555Y-56939330D01*
X104790548Y-56898912D01*
X104300881Y-56538724D01*
X101779605Y-59060000D01*
X101420395Y-59060000D01*
X98899119Y-56538724D01*
X98409452Y-56898912D01*
X98049151Y-57562882D01*
X97825306Y-58284385D01*
X97746520Y-59035695D01*
X97264792Y-59035695D01*
X97331173Y-58291917D01*
X97534656Y-57548109D01*
X97866638Y-56852095D01*
X98220876Y-56359119D01*
X99078724Y-56359119D01*
X101600000Y-58880395D01*
X104121276Y-56359119D01*
X159078724Y-56359119D01*
X161600000Y-58880395D01*
X164121276Y-56359119D01*
X163761088Y-55869452D01*
X163097118Y-55509151D01*
X162375615Y-55285306D01*
X161624305Y-55206520D01*
X160872062Y-55275822D01*
X160147792Y-55490548D01*
X159479330Y-55842445D01*
X159438912Y-55869452D01*
X159078724Y-56359119D01*
X104121276Y-56359119D01*
X103761088Y-55869452D01*
X103097118Y-55509151D01*
X102375615Y-55285306D01*
X101624305Y-55206520D01*
X100872062Y-55275822D01*
X100147792Y-55490548D01*
X99479330Y-55842445D01*
X99438912Y-55869452D01*
X99078724Y-56359119D01*
X98220876Y-56359119D01*
X98316626Y-56225870D01*
X98870403Y-55689223D01*
X99510451Y-55259129D01*
X100216553Y-54949171D01*
X100971457Y-54767935D01*
X101624207Y-54720000D01*
X161570608Y-54720000D01*
X162368083Y-54791173D01*
G37*
%TD.AperFunction*%
D26*
X122796000Y-88265000D02*
X122816000Y-88265000D01*
X122816000Y-88519000D01*
X122796000Y-88519000D01*
X122796000Y-88539000D01*
X122542000Y-88539000D01*
X122542000Y-88519000D01*
X122522000Y-88519000D01*
X122522000Y-88265000D01*
X122542000Y-88265000D01*
X122542000Y-88245000D01*
X122796000Y-88245000D01*
X122796000Y-88265000D01*
%TA.AperFunction,Conductor*%
D27*
G36*
X122796000Y-88265000D02*
G01*
X122816000Y-88265000D01*
X122816000Y-88519000D01*
X122796000Y-88519000D01*
X122796000Y-88539000D01*
X122542000Y-88539000D01*
X122542000Y-88519000D01*
X122522000Y-88519000D01*
X122522000Y-88265000D01*
X122542000Y-88265000D01*
X122542000Y-88245000D01*
X122796000Y-88245000D01*
X122796000Y-88265000D01*
G37*
%TD.AperFunction*%
D26*
X130810013Y-82322252D02*
X131037748Y-82549987D01*
X131037767Y-82550000D01*
X131037748Y-82550013D01*
X130810013Y-82777748D01*
X130631082Y-83045537D01*
X130507832Y-83343088D01*
X130445000Y-83658967D01*
X130445000Y-83951000D01*
X125396574Y-83951000D01*
X125395000Y-83597750D01*
X125236250Y-83439000D01*
X124587000Y-83439000D01*
X124587000Y-83459000D01*
X124333000Y-83459000D01*
X124333000Y-83439000D01*
X124313000Y-83439000D01*
X124313000Y-83185000D01*
X124333000Y-83185000D01*
X124333000Y-83165000D01*
X124587000Y-83165000D01*
X124587000Y-83185000D01*
X125236250Y-83185000D01*
X125395000Y-83026250D01*
X125398072Y-82337000D01*
X125385812Y-82212518D01*
X125371398Y-82165000D01*
X130704941Y-82165000D01*
X130810013Y-82322252D01*
%TA.AperFunction,Conductor*%
D27*
G36*
X130810013Y-82322252D02*
G01*
X131037748Y-82549987D01*
X131037767Y-82550000D01*
X131037748Y-82550013D01*
X130810013Y-82777748D01*
X130631082Y-83045537D01*
X130507832Y-83343088D01*
X130445000Y-83658967D01*
X130445000Y-83951000D01*
X125396574Y-83951000D01*
X125395000Y-83597750D01*
X125236250Y-83439000D01*
X124587000Y-83439000D01*
X124587000Y-83459000D01*
X124333000Y-83459000D01*
X124333000Y-83439000D01*
X124313000Y-83439000D01*
X124313000Y-83185000D01*
X124333000Y-83185000D01*
X124333000Y-83165000D01*
X124587000Y-83165000D01*
X124587000Y-83185000D01*
X125236250Y-83185000D01*
X125395000Y-83026250D01*
X125398072Y-82337000D01*
X125385812Y-82212518D01*
X125371398Y-82165000D01*
X130704941Y-82165000D01*
X130810013Y-82322252D01*
G37*
%TD.AperFunction*%
D26*
X108664102Y-78973226D02*
X108864061Y-79013000D01*
X109067939Y-79013000D01*
X109127945Y-79001064D01*
X109122928Y-79052000D01*
X109126000Y-79216250D01*
X109284750Y-79375000D01*
X110109000Y-79375000D01*
X110109000Y-79355000D01*
X110298422Y-79355000D01*
X110383000Y-79439579D01*
X110383000Y-79629000D01*
X110363000Y-79629000D01*
X110363000Y-79649000D01*
X110109000Y-79649000D01*
X110109000Y-79629000D01*
X109284750Y-79629000D01*
X109126000Y-79787750D01*
X109123307Y-79931728D01*
X108581000Y-79389422D01*
X108581000Y-78938804D01*
X108664102Y-78973226D01*
%TA.AperFunction,Conductor*%
D27*
G36*
X108664102Y-78973226D02*
G01*
X108864061Y-79013000D01*
X109067939Y-79013000D01*
X109127945Y-79001064D01*
X109122928Y-79052000D01*
X109126000Y-79216250D01*
X109284750Y-79375000D01*
X110109000Y-79375000D01*
X110109000Y-79355000D01*
X110298422Y-79355000D01*
X110383000Y-79439579D01*
X110383000Y-79629000D01*
X110363000Y-79629000D01*
X110363000Y-79649000D01*
X110109000Y-79649000D01*
X110109000Y-79629000D01*
X109284750Y-79629000D01*
X109126000Y-79787750D01*
X109123307Y-79931728D01*
X108581000Y-79389422D01*
X108581000Y-78938804D01*
X108664102Y-78973226D01*
G37*
%TD.AperFunction*%
D26*
X126365000Y-79388000D02*
X126385000Y-79388000D01*
X126385000Y-79633000D01*
X126091000Y-79633000D01*
X126091000Y-79388000D01*
X126111000Y-79388000D01*
X126111000Y-79368000D01*
X126365000Y-79368000D01*
X126365000Y-79388000D01*
%TA.AperFunction,Conductor*%
D27*
G36*
X126365000Y-79388000D02*
G01*
X126385000Y-79388000D01*
X126385000Y-79633000D01*
X126091000Y-79633000D01*
X126091000Y-79388000D01*
X126111000Y-79388000D01*
X126111000Y-79368000D01*
X126365000Y-79368000D01*
X126365000Y-79388000D01*
G37*
%TD.AperFunction*%
D26*
X130631082Y-76974463D02*
X130810013Y-77242252D01*
X131037748Y-77469987D01*
X131037767Y-77470000D01*
X131037748Y-77470013D01*
X130810013Y-77697748D01*
X130704941Y-77855000D01*
X129329469Y-77855000D01*
X129286000Y-77850719D01*
X129242531Y-77855000D01*
X129242523Y-77855000D01*
X129112510Y-77867805D01*
X128945687Y-77918411D01*
X128801507Y-77995476D01*
X128791941Y-78000589D01*
X128690953Y-78083468D01*
X128690951Y-78083470D01*
X128657183Y-78111183D01*
X128629470Y-78144951D01*
X127348000Y-79426422D01*
X127348000Y-79387998D01*
X127189252Y-79387998D01*
X127348000Y-79229250D01*
X127351072Y-79065000D01*
X127338812Y-78940518D01*
X127302502Y-78820820D01*
X127243537Y-78710506D01*
X127207300Y-78666351D01*
X127285375Y-78520283D01*
X127334488Y-78358377D01*
X127351072Y-78190000D01*
X127351072Y-77740000D01*
X127334488Y-77571623D01*
X127285375Y-77409717D01*
X127205618Y-77260503D01*
X127154904Y-77198707D01*
X127155205Y-77198256D01*
X127233226Y-77009898D01*
X127273000Y-76809939D01*
X127273000Y-76742999D01*
X130535206Y-76742999D01*
X130631082Y-76974463D01*
%TA.AperFunction,Conductor*%
D27*
G36*
X130631082Y-76974463D02*
G01*
X130810013Y-77242252D01*
X131037748Y-77469987D01*
X131037767Y-77470000D01*
X131037748Y-77470013D01*
X130810013Y-77697748D01*
X130704941Y-77855000D01*
X129329469Y-77855000D01*
X129286000Y-77850719D01*
X129242531Y-77855000D01*
X129242523Y-77855000D01*
X129112510Y-77867805D01*
X128945687Y-77918411D01*
X128801507Y-77995476D01*
X128791941Y-78000589D01*
X128690953Y-78083468D01*
X128690951Y-78083470D01*
X128657183Y-78111183D01*
X128629470Y-78144951D01*
X127348000Y-79426422D01*
X127348000Y-79387998D01*
X127189252Y-79387998D01*
X127348000Y-79229250D01*
X127351072Y-79065000D01*
X127338812Y-78940518D01*
X127302502Y-78820820D01*
X127243537Y-78710506D01*
X127207300Y-78666351D01*
X127285375Y-78520283D01*
X127334488Y-78358377D01*
X127351072Y-78190000D01*
X127351072Y-77740000D01*
X127334488Y-77571623D01*
X127285375Y-77409717D01*
X127205618Y-77260503D01*
X127154904Y-77198707D01*
X127155205Y-77198256D01*
X127233226Y-77009898D01*
X127273000Y-76809939D01*
X127273000Y-76742999D01*
X130535206Y-76742999D01*
X130631082Y-76974463D01*
G37*
%TD.AperFunction*%
D26*
X113395000Y-74057000D02*
X113415000Y-74057000D01*
X113415000Y-74299000D01*
X113121000Y-74299000D01*
X113121000Y-74057000D01*
X113141000Y-74057000D01*
X113141000Y-74037000D01*
X113395000Y-74037000D01*
X113395000Y-74057000D01*
%TA.AperFunction,Conductor*%
D27*
G36*
X113395000Y-74057000D02*
G01*
X113415000Y-74057000D01*
X113415000Y-74299000D01*
X113121000Y-74299000D01*
X113121000Y-74057000D01*
X113141000Y-74057000D01*
X113141000Y-74037000D01*
X113395000Y-74037000D01*
X113395000Y-74057000D01*
G37*
%TD.AperFunction*%
D26*
X105627506Y-65160537D02*
X105670376Y-65183452D01*
X105571518Y-65193188D01*
X105451820Y-65229498D01*
X105341506Y-65288463D01*
X105244815Y-65367815D01*
X105165463Y-65464506D01*
X105106498Y-65574820D01*
X105070188Y-65694518D01*
X105057928Y-65819000D01*
X105061000Y-66008250D01*
X105219750Y-66167000D01*
X106019000Y-66167000D01*
X106019000Y-66147000D01*
X106273000Y-66147000D01*
X106273000Y-66167000D01*
X106293000Y-66167000D01*
X106293000Y-66421000D01*
X106273000Y-66421000D01*
X106273000Y-67245250D01*
X106431750Y-67404000D01*
X106596000Y-67407072D01*
X106720482Y-67394812D01*
X106799432Y-67370863D01*
X106690176Y-67534376D01*
X106604617Y-67740933D01*
X106561000Y-67960212D01*
X106561000Y-68183788D01*
X106604617Y-68403067D01*
X106690176Y-68609624D01*
X106814388Y-68795520D01*
X106972480Y-68953612D01*
X107074830Y-69022000D01*
X106972480Y-69090388D01*
X106814388Y-69248480D01*
X106690176Y-69434376D01*
X106604617Y-69640933D01*
X106561000Y-69860212D01*
X106561000Y-70083788D01*
X106604617Y-70303067D01*
X106690176Y-70509624D01*
X106700604Y-70525230D01*
X106596000Y-70514928D01*
X106431750Y-70518000D01*
X106273000Y-70676750D01*
X106273000Y-71501000D01*
X106293000Y-71501000D01*
X106293000Y-71755000D01*
X106273000Y-71755000D01*
X106273000Y-71775000D01*
X106019000Y-71775000D01*
X106019000Y-71755000D01*
X105219750Y-71755000D01*
X105061000Y-71913750D01*
X105057928Y-72103000D01*
X105070188Y-72227482D01*
X105106498Y-72347180D01*
X105165463Y-72457494D01*
X105217581Y-72521000D01*
X104437465Y-72521000D01*
X104393999Y-72516719D01*
X104350533Y-72521000D01*
X104350523Y-72521000D01*
X104220510Y-72533805D01*
X104053687Y-72584411D01*
X103899941Y-72666589D01*
X103898196Y-72668021D01*
X103798953Y-72749468D01*
X103798951Y-72749470D01*
X103765183Y-72777183D01*
X103737470Y-72810951D01*
X103088960Y-73459461D01*
X103016260Y-73445000D01*
X102723740Y-73445000D01*
X102436842Y-73502068D01*
X102166589Y-73614010D01*
X101923368Y-73776525D01*
X101716525Y-73983368D01*
X101600000Y-74157760D01*
X101483475Y-73983368D01*
X101406000Y-73905893D01*
X101406000Y-72772262D01*
X101505392Y-72853831D01*
X101650284Y-72931278D01*
X101807500Y-72978969D01*
X101971000Y-72995072D01*
X102371000Y-72995072D01*
X102534500Y-72978969D01*
X102691716Y-72931278D01*
X102836608Y-72853831D01*
X102963606Y-72749606D01*
X103067831Y-72622608D01*
X103145278Y-72477716D01*
X103192969Y-72320500D01*
X103209072Y-72157000D01*
X103209072Y-71607000D01*
X103192969Y-71443500D01*
X103145278Y-71286284D01*
X103074036Y-71153000D01*
X105057928Y-71153000D01*
X105061000Y-71342250D01*
X105219750Y-71501000D01*
X106019000Y-71501000D01*
X106019000Y-70676750D01*
X105860250Y-70518000D01*
X105696000Y-70514928D01*
X105571518Y-70527188D01*
X105451820Y-70563498D01*
X105341506Y-70622463D01*
X105244815Y-70701815D01*
X105165463Y-70798506D01*
X105106498Y-70908820D01*
X105070188Y-71028518D01*
X105057928Y-71153000D01*
X103074036Y-71153000D01*
X103067831Y-71141392D01*
X103056000Y-71126976D01*
X103056000Y-67105578D01*
X103115043Y-67046535D01*
X103171898Y-67035226D01*
X103360256Y-66957205D01*
X103529774Y-66843937D01*
X103604711Y-66769000D01*
X105057928Y-66769000D01*
X105070188Y-66893482D01*
X105106498Y-67013180D01*
X105165463Y-67123494D01*
X105244815Y-67220185D01*
X105341506Y-67299537D01*
X105451820Y-67358502D01*
X105571518Y-67394812D01*
X105696000Y-67407072D01*
X105860250Y-67404000D01*
X106019000Y-67245250D01*
X106019000Y-66421000D01*
X105219750Y-66421000D01*
X105061000Y-66579750D01*
X105057928Y-66769000D01*
X103604711Y-66769000D01*
X103673937Y-66699774D01*
X103787205Y-66530256D01*
X103865226Y-66341898D01*
X103905000Y-66141939D01*
X103905000Y-65938061D01*
X103865226Y-65738102D01*
X103787205Y-65549744D01*
X103673937Y-65380226D01*
X103639989Y-65346278D01*
X103705180Y-65326502D01*
X103815494Y-65267537D01*
X103912185Y-65188185D01*
X103943410Y-65150137D01*
X104045392Y-65233831D01*
X104190284Y-65311278D01*
X104347500Y-65358969D01*
X104511000Y-65375072D01*
X104911000Y-65375072D01*
X105074500Y-65358969D01*
X105231716Y-65311278D01*
X105376608Y-65233831D01*
X105482411Y-65147000D01*
X105611011Y-65147000D01*
X105627506Y-65160537D01*
%TA.AperFunction,Conductor*%
D27*
G36*
X105627506Y-65160537D02*
G01*
X105670376Y-65183452D01*
X105571518Y-65193188D01*
X105451820Y-65229498D01*
X105341506Y-65288463D01*
X105244815Y-65367815D01*
X105165463Y-65464506D01*
X105106498Y-65574820D01*
X105070188Y-65694518D01*
X105057928Y-65819000D01*
X105061000Y-66008250D01*
X105219750Y-66167000D01*
X106019000Y-66167000D01*
X106019000Y-66147000D01*
X106273000Y-66147000D01*
X106273000Y-66167000D01*
X106293000Y-66167000D01*
X106293000Y-66421000D01*
X106273000Y-66421000D01*
X106273000Y-67245250D01*
X106431750Y-67404000D01*
X106596000Y-67407072D01*
X106720482Y-67394812D01*
X106799432Y-67370863D01*
X106690176Y-67534376D01*
X106604617Y-67740933D01*
X106561000Y-67960212D01*
X106561000Y-68183788D01*
X106604617Y-68403067D01*
X106690176Y-68609624D01*
X106814388Y-68795520D01*
X106972480Y-68953612D01*
X107074830Y-69022000D01*
X106972480Y-69090388D01*
X106814388Y-69248480D01*
X106690176Y-69434376D01*
X106604617Y-69640933D01*
X106561000Y-69860212D01*
X106561000Y-70083788D01*
X106604617Y-70303067D01*
X106690176Y-70509624D01*
X106700604Y-70525230D01*
X106596000Y-70514928D01*
X106431750Y-70518000D01*
X106273000Y-70676750D01*
X106273000Y-71501000D01*
X106293000Y-71501000D01*
X106293000Y-71755000D01*
X106273000Y-71755000D01*
X106273000Y-71775000D01*
X106019000Y-71775000D01*
X106019000Y-71755000D01*
X105219750Y-71755000D01*
X105061000Y-71913750D01*
X105057928Y-72103000D01*
X105070188Y-72227482D01*
X105106498Y-72347180D01*
X105165463Y-72457494D01*
X105217581Y-72521000D01*
X104437465Y-72521000D01*
X104393999Y-72516719D01*
X104350533Y-72521000D01*
X104350523Y-72521000D01*
X104220510Y-72533805D01*
X104053687Y-72584411D01*
X103899941Y-72666589D01*
X103898196Y-72668021D01*
X103798953Y-72749468D01*
X103798951Y-72749470D01*
X103765183Y-72777183D01*
X103737470Y-72810951D01*
X103088960Y-73459461D01*
X103016260Y-73445000D01*
X102723740Y-73445000D01*
X102436842Y-73502068D01*
X102166589Y-73614010D01*
X101923368Y-73776525D01*
X101716525Y-73983368D01*
X101600000Y-74157760D01*
X101483475Y-73983368D01*
X101406000Y-73905893D01*
X101406000Y-72772262D01*
X101505392Y-72853831D01*
X101650284Y-72931278D01*
X101807500Y-72978969D01*
X101971000Y-72995072D01*
X102371000Y-72995072D01*
X102534500Y-72978969D01*
X102691716Y-72931278D01*
X102836608Y-72853831D01*
X102963606Y-72749606D01*
X103067831Y-72622608D01*
X103145278Y-72477716D01*
X103192969Y-72320500D01*
X103209072Y-72157000D01*
X103209072Y-71607000D01*
X103192969Y-71443500D01*
X103145278Y-71286284D01*
X103074036Y-71153000D01*
X105057928Y-71153000D01*
X105061000Y-71342250D01*
X105219750Y-71501000D01*
X106019000Y-71501000D01*
X106019000Y-70676750D01*
X105860250Y-70518000D01*
X105696000Y-70514928D01*
X105571518Y-70527188D01*
X105451820Y-70563498D01*
X105341506Y-70622463D01*
X105244815Y-70701815D01*
X105165463Y-70798506D01*
X105106498Y-70908820D01*
X105070188Y-71028518D01*
X105057928Y-71153000D01*
X103074036Y-71153000D01*
X103067831Y-71141392D01*
X103056000Y-71126976D01*
X103056000Y-67105578D01*
X103115043Y-67046535D01*
X103171898Y-67035226D01*
X103360256Y-66957205D01*
X103529774Y-66843937D01*
X103604711Y-66769000D01*
X105057928Y-66769000D01*
X105070188Y-66893482D01*
X105106498Y-67013180D01*
X105165463Y-67123494D01*
X105244815Y-67220185D01*
X105341506Y-67299537D01*
X105451820Y-67358502D01*
X105571518Y-67394812D01*
X105696000Y-67407072D01*
X105860250Y-67404000D01*
X106019000Y-67245250D01*
X106019000Y-66421000D01*
X105219750Y-66421000D01*
X105061000Y-66579750D01*
X105057928Y-66769000D01*
X103604711Y-66769000D01*
X103673937Y-66699774D01*
X103787205Y-66530256D01*
X103865226Y-66341898D01*
X103905000Y-66141939D01*
X103905000Y-65938061D01*
X103865226Y-65738102D01*
X103787205Y-65549744D01*
X103673937Y-65380226D01*
X103639989Y-65346278D01*
X103705180Y-65326502D01*
X103815494Y-65267537D01*
X103912185Y-65188185D01*
X103943410Y-65150137D01*
X104045392Y-65233831D01*
X104190284Y-65311278D01*
X104347500Y-65358969D01*
X104511000Y-65375072D01*
X104911000Y-65375072D01*
X105074500Y-65358969D01*
X105231716Y-65311278D01*
X105376608Y-65233831D01*
X105482411Y-65147000D01*
X105611011Y-65147000D01*
X105627506Y-65160537D01*
G37*
%TD.AperFunction*%
D26*
X115189000Y-73292000D02*
X115209000Y-73292000D01*
X115209000Y-73546000D01*
X115189000Y-73546000D01*
X115189000Y-73566000D01*
X114935000Y-73566000D01*
X114935000Y-73546000D01*
X114915000Y-73546000D01*
X114915000Y-73292000D01*
X114935000Y-73292000D01*
X114935000Y-73272000D01*
X115189000Y-73272000D01*
X115189000Y-73292000D01*
%TA.AperFunction,Conductor*%
D27*
G36*
X115189000Y-73292000D02*
G01*
X115209000Y-73292000D01*
X115209000Y-73546000D01*
X115189000Y-73546000D01*
X115189000Y-73566000D01*
X114935000Y-73566000D01*
X114935000Y-73546000D01*
X114915000Y-73546000D01*
X114915000Y-73292000D01*
X114935000Y-73292000D01*
X114935000Y-73272000D01*
X115189000Y-73272000D01*
X115189000Y-73292000D01*
G37*
%TD.AperFunction*%
%TD*%
M02*
